<?xml version="1.0" encoding="UTF-8"?>
<svg xmlns="http://www.w3.org/2000/svg" xmlns:xlink="http://www.w3.org/1999/xlink" width="235px" height="73px" version="1.1" viewBox="0 0 235 73">
<!--Generator: Sketch 52.6 (67491) - http://www.bohemiancoding.com/sketch-->
    <title>
        logo
    </title>
    <desc>
        Created with Sketch.
    </desc>
    <g fill="none" fill-rule="evenodd" stroke="none" stroke-width="1">
        <g fill="#FFF" transform="translate(-44.000000, -80.000000)">
            <g transform="translate(43.000000, 80.000000)">
                <path id="logo" d="M232.4883,36.1801 C232.4883,17.0121 218.7383,1.8581 199.7713,1.8581 C180.8043,1.8581 167.0543,17.0121 167.0543,36.1801 C167.0543,55.3491 180.8043,70.5021 199.7713,70.5021 C209.2053,70.5021 217.4333,66.6891 223.2563,60.5671 L204.0863,39.3911 L205.4923,38.1871 L224.4593,59.1611 C229.4763,53.0401 232.4883,45.1121 232.4883,36.1801 Z M235.4983,70.8901 L232.9903,70.8901 L224.5583,61.7581 C218.3383,68.1811 209.6053,72.2951 199.7713,72.2951 C179.9003,72.2951 165.0473,56.6261 165.0473,36.1541 C165.0473,15.6811 179.9003,0.0001 199.7713,0.0001 C219.6423,0.0001 234.4943,15.6041 234.4943,36.0761 C234.4943,45.6111 231.2833,54.0361 225.7633,60.3591 L235.4983,70.8901 Z M145.4963,36.5811 C135.0603,31.8651 121.5113,29.8581 121.5113,17.4131 C121.5113,6.5751 131.3463,1.8581 138.3713,1.8581 C144.0923,1.8581 149.6113,3.7641 154.1273,8.4811 L155.4313,7.0761 C152.4223,4.0661 147.0023,0.0521 138.3713,0.0521 C130.5433,0.0521 119.5043,5.0691 119.5043,17.4131 C119.5043,31.1621 134.2563,33.4711 144.9943,38.3881 C151.3183,41.3991 156.4353,45.8141 156.4353,54.0441 C156.4353,64.2811 148.1053,70.5021 138.6723,70.5021 C127.8343,70.5021 121.6123,64.8821 117.8993,59.0621 L116.2923,60.2661 C122.0133,68.4951 128.8373,72.3081 138.5723,72.3081 C149.8123,72.3081 158.4433,64.8821 158.4433,54.0441 C158.4433,44.5091 152.6233,39.6931 145.4963,36.5811 Z M90.6983,66.4231 L70.4263,0.8901 L69.4223,0.8901 L49.1513,66.4231 L27.7753,0.8901 L25.7673,0.8901 L48.6493,70.8901 L49.6533,70.8901 L69.9243,5.6581 L90.1963,70.8901 L91.1993,70.8901 L114.0813,0.8901 L112.0743,0.8901 L90.6983,66.4231 Z M17.3363,0.8901 L18.0003,0.8901 L18.0003,70.8901 L16.0003,70.8901 L16.0003,3.7641 L1.0003,12.5961 L1.0003,10.4891 L17.3363,0.8901 Z"/>
            </g>
        </g>
    </g>
</svg>
