<svg width="1281" height="411" viewBox="0 0 1281 411" fill="none" xmlns="http://www.w3.org/2000/svg">
<path d="M246.444 410.734V308.704H0.773516V230.614L255.564 0.33387H333.654V220.924H388.374V308.704H333.654V410.734H246.444ZM142.704 220.924H246.444V136.564L142.704 220.924ZM529.431 410.734C506.631 410.734 487.061 401.614 470.721 383.374C454.381 365.134 446.211 344.804 446.211 322.384V85.2639C446.211 62.4639 454.381 42.7039 470.721 25.9839C487.061 8.88387 506.631 0.33387 529.431 0.33387H765.981C788.781 0.33387 808.351 8.88387 824.691 25.9839C841.031 42.7039 849.201 62.4639 849.201 85.2639V322.384C849.201 344.804 841.031 365.134 824.691 383.374C808.351 401.614 788.781 410.734 765.981 410.734H529.431ZM580.161 317.824H743.181C755.721 317.824 761.991 317.824 761.991 317.824C761.991 317.824 761.991 311.554 761.991 299.014V165.064L580.161 317.824ZM533.421 242.584L715.251 89.8239H552.231C539.691 89.8239 533.421 89.8239 533.421 89.8239C533.421 89.8239 533.421 96.0939 533.421 108.634V242.584ZM1138.18 410.734V308.704H892.512V230.614L1147.3 0.33387H1225.39V220.924H1280.11V308.704H1225.39V410.734H1138.18ZM1034.44 220.924H1138.18V136.564L1034.44 220.924Z" fill="white" fill-opacity="0.06"/>
</svg>
