<svg width="1563" height="282" viewBox="0 0 1563 282" fill="none" xmlns="http://www.w3.org/2000/svg">
<path d="M0.000371896 281.693V58.6133C0.000371896 42.7534 5.59037 29.2333 16.7704 18.0533C28.2104 6.61334 41.8604 0.893348 57.7204 0.893348H222.69C238.55 0.893348 252.2 6.61334 263.64 18.0533C275.08 29.2333 280.8 42.7534 280.8 58.6133V281.693H219.57V191.213H60.4504V281.693H0.000371896ZM60.4504 130.373H219.57V74.6034C219.57 66.0234 219.57 61.7334 219.57 61.7334C219.57 61.7334 215.28 61.7334 206.7 61.7334H73.3204C64.7404 61.7334 60.4504 61.7334 60.4504 61.7334C60.4504 61.7334 60.4504 66.0234 60.4504 74.6034V130.373ZM326.406 281.693V0.893348H538.566C554.166 0.893348 567.686 6.61334 579.126 18.0533C590.566 29.2333 596.286 42.7534 596.286 58.6133V111.263C596.286 114.643 596.026 117.893 595.506 121.013C595.246 123.873 594.596 126.603 593.556 129.203C597.456 134.143 600.706 139.863 603.306 146.363C605.906 152.863 607.206 159.363 607.206 165.863V223.973C607.206 239.833 601.486 253.483 590.046 264.923C578.606 276.103 564.956 281.693 549.096 281.693H326.406ZM399.726 220.853H533.106C541.686 220.853 545.976 220.853 545.976 220.853C545.976 220.853 545.976 216.563 545.976 207.983V182.243C545.976 173.663 545.976 169.373 545.976 169.373C545.976 169.373 541.686 169.373 533.106 169.373H399.726C391.146 169.373 386.856 169.373 386.856 169.373C386.856 169.373 386.856 173.663 386.856 182.243V207.983C386.856 216.563 386.856 220.853 386.856 220.853C386.856 220.853 391.146 220.853 399.726 220.853ZM399.726 108.533H522.186C530.766 108.533 535.056 108.533 535.056 108.533C535.056 108.533 535.056 104.243 535.056 95.6633V74.6034C535.056 66.0234 535.056 61.7334 535.056 61.7334C535.056 61.7334 530.766 61.7334 522.186 61.7334H399.726C391.146 61.7334 386.856 61.7334 386.856 61.7334C386.856 61.7334 386.856 66.0234 386.856 74.6034V95.6633C386.856 104.243 386.856 108.533 386.856 108.533C386.856 108.533 391.146 108.533 399.726 108.533ZM706.668 281.693C690.808 281.693 677.158 276.103 665.718 264.923C654.538 253.483 648.948 239.833 648.948 223.973V58.6133C648.948 42.7534 654.538 29.2333 665.718 18.0533C677.158 6.61334 690.808 0.893348 706.668 0.893348H872.028C887.628 0.893348 901.148 6.61334 912.588 18.0533C924.028 29.2333 929.748 42.7534 929.748 58.6133V223.973C929.748 239.833 924.028 253.483 912.588 264.923C901.148 276.103 887.628 281.693 872.028 281.693H706.668ZM722.268 220.853H855.648C864.228 220.853 868.518 220.853 868.518 220.853C868.518 220.853 868.518 216.563 868.518 207.983V74.6034C868.518 66.0234 868.518 61.7334 868.518 61.7334C868.518 61.7334 864.228 61.7334 855.648 61.7334H722.268C713.688 61.7334 709.398 61.7334 709.398 61.7334C709.398 61.7334 709.398 66.0234 709.398 74.6034V207.983C709.398 216.563 709.398 220.853 709.398 220.853C709.398 220.853 713.688 220.853 722.268 220.853ZM1029.64 281.693C1013.78 281.693 1000.13 276.103 988.687 264.923C977.507 253.483 971.917 239.833 971.917 223.973V0.893348H1032.37V207.983C1032.37 216.563 1032.37 220.853 1032.37 220.853C1032.37 220.853 1036.66 220.853 1045.24 220.853H1178.62C1187.2 220.853 1191.49 220.853 1191.49 220.853C1191.49 220.853 1191.49 216.563 1191.49 207.983V0.893348H1252.72V223.973C1252.72 239.833 1247 253.483 1235.56 264.923C1224.12 276.103 1210.6 281.693 1195 281.693H1029.64ZM1391.61 281.693V61.7334H1281.63V0.893348H1562.43V61.7334H1452.45V281.693H1391.61Z" fill="white" fill-opacity="0.06"/>
</svg>
