<svg width="1847" height="576" viewBox="0 0 1847 576" fill="none" xmlns="http://www.w3.org/2000/svg">
<g clip-path="url(#clip0)">
<path d="M972.969 144.723C972.969 165.481 956.244 182.197 935.487 182.197C914.73 182.197 898.016 165.481 898.016 144.723C898.016 123.964 914.16 107.249 935.487 107.249C956.831 107.825 972.969 124.546 972.969 144.723V144.723ZM818.455 220.258V229.485C818.455 229.485 800.59 206.411 762.538 206.411C699.702 206.411 650.69 254.27 650.69 320.572C650.69 386.304 699.126 434.733 762.538 434.733C801.166 434.733 818.455 411.094 818.455 411.094V420.892C818.455 425.506 821.923 428.956 826.53 428.956H873.222V212.16H826.53C821.923 212.177 818.455 216.22 818.455 220.258V220.258ZM818.455 359.204C809.816 371.893 792.515 382.848 771.764 382.848C734.869 382.848 706.614 359.785 706.614 320.572C706.614 281.365 734.869 258.302 771.764 258.302C791.945 258.302 810.392 269.833 818.455 281.941V359.204ZM907.819 212.177H963.161V428.973H907.819V212.177V212.177ZM1734.55 206.406C1696.5 206.406 1678.62 229.48 1678.62 229.48V107.825H1623.28V428.973H1669.98C1674.6 428.973 1678.05 424.935 1678.05 420.898V411.1C1678.05 411.1 1695.92 434.739 1733.96 434.739C1796.81 434.739 1845.81 386.321 1845.81 320.589C1845.81 254.858 1796.81 206.406 1734.55 206.406V206.406ZM1725.33 382.266C1703.99 382.266 1687.27 371.322 1678.62 358.628V281.365C1687.27 269.833 1705.72 257.726 1725.33 257.726C1762.22 257.726 1790.47 280.789 1790.47 319.996C1790.47 359.204 1762.23 382.266 1725.33 382.266ZM1594.46 300.401V429.549H1539.11V306.737C1539.11 270.997 1527.58 256.574 1496.46 256.574C1479.75 256.574 1462.45 265.225 1451.48 277.914V428.979H1396.15V212.183H1439.95C1444.56 212.183 1448.02 216.22 1448.02 220.258V229.485C1464.17 212.759 1485.49 206.411 1506.82 206.411C1531.04 206.411 1551.22 213.34 1567.36 227.176C1586.96 243.321 1594.46 264.074 1594.46 300.401V300.401ZM1261.8 206.406C1223.76 206.406 1205.88 229.48 1205.88 229.48V107.825H1150.54V428.973H1197.23C1201.84 428.973 1205.3 424.935 1205.3 420.898V411.1C1205.3 411.1 1223.18 434.739 1261.22 434.739C1324.07 434.739 1373.07 386.321 1373.07 320.589C1373.64 254.852 1324.64 206.406 1261.8 206.406V206.406ZM1252.57 382.266C1231.24 382.266 1214.53 371.322 1205.88 358.628V281.365C1214.53 269.833 1232.98 257.726 1252.57 257.726C1289.48 257.726 1317.72 280.789 1317.72 319.996C1317.72 359.204 1289.48 382.266 1252.57 382.266ZM1102.68 206.406C1119.4 206.406 1128.05 209.297 1128.05 209.297V260.606C1128.05 260.606 1081.93 245.037 1053.11 277.909V429.543H997.752V212.177H1044.45C1049.07 212.177 1052.52 216.215 1052.52 220.252V229.48C1062.91 217.366 1085.39 206.406 1102.68 206.406V206.406ZM527.899 409.367C525.019 402.449 522.134 394.955 519.254 388.608C514.635 378.234 510.022 368.425 505.996 359.204L505.42 358.628C465.634 272.137 422.98 184.506 378.005 98.0275L376.277 94.5599C371.547 85.5887 366.937 76.5546 362.449 67.4597C356.678 57.0747 350.919 46.1308 341.692 35.7458C323.245 12.6832 296.722 -0.00585938 268.478 -0.00585938C239.647 -0.00585938 213.707 12.6832 194.689 34.5881C186.038 44.9616 179.691 55.917 173.932 66.3021C169.433 75.3912 164.823 84.4252 160.104 93.4023L158.37 96.8696C113.977 183.349 70.7408 270.985 30.9606 357.47L30.379 358.616C26.3474 367.855 21.7283 377.653 17.115 388.02C14.2353 394.368 11.3556 401.285 8.47589 408.779C0.977141 430.108 -1.33249 450.291 1.55873 471.055C7.89983 514.3 36.7199 550.61 76.5059 566.767C91.4976 573.114 107.065 575.994 123.203 575.994C127.816 575.994 133.576 575.418 138.195 574.837C157.224 572.533 176.823 566.197 195.852 555.241C219.489 541.976 241.974 522.957 267.338 495.281C292.702 522.957 315.763 541.976 338.824 555.241C357.859 566.197 377.452 572.533 396.475 574.837C401.089 575.424 406.86 575.994 411.473 575.994C427.616 575.994 443.754 573.114 458.164 566.767C498.526 550.61 526.77 513.724 533.117 471.055C537.696 450.878 535.392 430.707 527.899 409.367V409.367ZM267.897 439.347C236.761 400.139 216.58 363.241 209.669 332.115C206.789 318.85 206.208 307.319 207.941 296.939C209.087 287.712 212.555 279.637 217.168 272.719C228.122 257.161 246.57 247.352 267.903 247.352C289.241 247.352 308.264 256.58 318.643 272.719C323.256 279.637 326.712 287.718 327.875 296.939C329.597 307.324 329.021 319.426 326.142 332.115C319.202 362.665 299.021 399.569 267.897 439.347ZM497.916 466.447C493.884 496.427 473.703 522.381 445.459 533.912C431.625 539.672 416.628 541.406 401.647 539.672C387.237 537.938 372.816 533.325 357.836 524.685C337.079 513.142 316.328 495.281 292.109 468.751C330.156 422.055 353.217 379.381 361.867 341.337C365.905 323.458 366.486 307.319 364.747 292.32C362.449 277.909 357.254 264.644 349.185 253.112C331.302 227.158 301.319 212.177 267.891 212.177C234.463 212.177 204.48 227.746 186.608 253.112C178.54 264.644 173.345 277.909 171.041 292.32C168.737 307.319 169.307 324.034 173.92 341.337C182.565 379.381 206.202 422.626 243.673 469.327C220.036 495.851 198.703 513.73 177.946 525.261C162.955 533.913 148.55 538.526 134.14 540.248C118.578 541.982 103.581 539.672 90.3228 534.489C62.0787 522.957 41.8977 497.003 37.8661 467.023C36.1383 452.612 37.2844 438.2 43.0553 422.055C44.7774 416.284 47.6686 410.524 50.5483 403.607C54.5856 394.379 59.1874 384.57 63.8065 374.773L64.3882 373.626C104.163 287.712 146.823 200.075 191.216 114.748L192.944 111.281C197.563 102.641 202.176 93.4138 206.784 84.7624C211.397 75.5351 216.58 66.8837 222.927 59.3843C235.034 45.5606 251.171 38.0555 269.049 38.0555C286.926 38.0555 303.064 45.5606 315.17 59.3843C321.517 66.901 326.7 75.5524 331.313 84.7624C335.933 93.4138 340.546 102.641 345.148 111.281L346.881 114.748C390.598 200.43 432.691 286.93 473.139 374.202V374.778C477.758 384.017 481.789 394.385 486.403 403.624C489.282 410.53 492.168 416.29 493.896 422.061C498.497 437.037 500.225 451.46 497.916 466.447V466.447Z" fill="white"/>
</g>
<defs>
<clipPath id="clip0">
<rect width="1846" height="576" fill="white" transform="translate(0.0810547)"/>
</clipPath>
</defs>
</svg>
