<svg width="201" height="201" viewBox="0 0 201 201" fill="none" xmlns="http://www.w3.org/2000/svg">
<path d="M97.846 30.3004L97.6045 30.1783L97.3698 30.313L34.0737 66.6394L33.8147 66.7881L33.823 67.086L35.7258 135.508L35.7337 135.792L35.9833 135.931L101.295 172.081L101.543 172.218L101.788 172.077L167.865 134.029L168.123 133.88L168.115 133.583L166.212 65.1607L166.204 64.8636L165.938 64.7292L97.846 30.3004Z" stroke="#08031F"/>
<path d="M49.1029 53.0144L48.8458 53.0982L48.7752 53.3593L29.7759 123.68L29.6978 123.968L29.9155 124.174L79.7763 171.213L79.9832 171.409L80.2566 171.331L152.072 150.838L152.344 150.76L152.417 150.487L172.162 76.9883L172.24 76.6998L172.023 76.4949L122.162 29.4551L121.946 29.2514L121.664 29.3434L49.1029 53.0144Z" stroke="#08031F"/>
<path d="M30.7414 103.449L30.619 103.689L30.754 103.924L67.181 167.045L67.3301 167.303L67.6288 167.295L136.24 165.397L136.525 165.39L136.664 165.141L172.914 100.009L173.051 99.762L172.91 99.5172L134.757 33.6227L134.608 33.365L134.309 33.3733L65.6981 35.2708L65.4002 35.2791L65.2654 35.5442L30.7414 103.449Z" stroke="#08031F"/>
<path d="M53.5198 152.058L53.6041 152.315L53.8651 152.385L124.38 171.332L124.668 171.41L124.872 171.194L172.042 121.47L172.239 121.263L172.16 120.988L151.611 49.3714L151.532 49.0993L151.259 49.0262L77.5574 29.3356L77.2702 29.2589L77.0656 29.4746L29.8957 79.1979L29.6904 79.4144L29.7834 79.6979L53.5198 152.058Z" stroke="#08031F"/>
<path d="M77.9432 124.902V78.822H115.639C117.943 78.822 119.906 79.6326 121.527 81.254C123.191 82.8753 124.023 84.838 124.023 87.142V116.582C124.023 118.886 123.191 120.849 121.527 122.47C119.906 124.091 117.943 124.902 115.639 124.902H77.9432ZM87.2232 117.99H114.679C115.618 117.99 116.237 117.841 116.535 117.542C116.877 117.201 117.047 116.561 117.047 115.622V88.102C117.047 87.1633 116.877 86.5446 116.535 86.246C116.237 85.9046 115.618 85.734 114.679 85.734H87.2232C86.2845 85.734 85.6445 85.9046 85.3032 86.246C85.0045 86.5446 84.8552 87.1633 84.8552 88.102V115.622C84.8552 116.561 85.0045 117.201 85.3032 117.542C85.6445 117.841 86.2845 117.99 87.2232 117.99Z" fill="#08031F"/>
</svg>
