<svg width="201" height="200" viewBox="0 0 201 200" fill="none" xmlns="http://www.w3.org/2000/svg">
<path d="M97.2818 29.7171L97.0405 29.5947L96.8056 29.729L33.4594 65.968L33.2002 66.1163L33.208 66.4143L35.0163 134.839L35.0239 135.123L35.2733 135.262L100.535 171.502L100.783 171.64L101.028 171.499L167.158 133.542L167.416 133.394L167.408 133.096L165.6 64.6718L165.592 64.3747L165.327 64.2399L97.2818 29.7171Z" stroke="#08031F"/>
<path d="M52.9882 151.621L53.072 151.878L53.3331 151.949L123.653 170.948L123.942 171.026L124.148 170.809L171.187 120.948L171.382 120.741L171.304 120.468L150.811 48.6526L150.734 48.3804L150.46 48.3069L76.9621 28.5618L76.6736 28.4843L76.4687 28.7016L29.4289 78.5625L29.2252 78.7784L29.3173 79.0607L52.9882 151.621Z" stroke="#08031F"/>
<path d="M152.234 147.14L152.491 147.055L152.561 146.794L171.339 76.377L171.416 76.0888L171.199 75.8837L121.277 28.779L121.069 28.5831L120.795 28.6615L49.1357 49.1828L48.8638 49.2607L48.7913 49.5341L29.2767 123.134L29.2004 123.422L29.4174 123.626L79.3397 170.731L79.5565 170.936L79.8391 170.843L152.234 147.14Z" stroke="#08031F"/>
<path d="M77.2823 124.323V78.2429H114.978C117.282 78.2429 119.245 79.0536 120.866 80.6749C122.53 82.2962 123.362 84.2589 123.362 86.5629V116.003C123.362 118.307 122.53 120.27 120.866 121.891C119.245 123.512 117.282 124.323 114.978 124.323H77.2823ZM86.5623 117.411H114.018C114.957 117.411 115.576 117.262 115.874 116.963C116.216 116.622 116.386 115.982 116.386 115.043V87.5229C116.386 86.5842 116.216 85.9656 115.874 85.6669C115.576 85.3256 114.957 85.1549 114.018 85.1549H86.5623C85.6236 85.1549 84.9836 85.3256 84.6423 85.6669C84.3436 85.9656 84.1943 86.5842 84.1943 87.5229V115.043C84.1943 115.982 84.3436 116.622 84.6423 116.963C84.9836 117.262 85.6236 117.411 86.5623 117.411Z" fill="#08031F"/>
</svg>
