<svg width="175" height="175" viewBox="0 0 175 175" fill="none" xmlns="http://www.w3.org/2000/svg">
<path d="M87.4703 29.5121L86.5149 29.0069L85.5688 29.5292L33.6886 58.1695L32.6552 58.74L32.6552 59.9204L32.6552 115.28L32.6552 116.434L33.654 117.012L85.5342 147.012L86.5142 147.578L87.5045 147.03L141.667 117.03L142.698 116.459L142.698 115.28L142.698 59.9204L142.698 58.7156L141.633 58.1524L87.4703 29.5121Z" stroke="#271A56" stroke-width="4"/>
<path d="M64.7474 112.78V66.7001H102.443C104.747 66.7001 106.71 67.5108 108.331 69.1321C109.995 70.7534 110.827 72.7161 110.827 75.0201V104.46C110.827 106.764 109.995 108.727 108.331 110.348C106.71 111.969 104.747 112.78 102.443 112.78H64.7474ZM74.0274 105.868H101.483C102.422 105.868 103.041 105.719 103.339 105.42C103.681 105.079 103.851 104.439 103.851 103.5V75.9801C103.851 75.0414 103.681 74.4228 103.339 74.1241C103.041 73.7828 102.422 73.6121 101.483 73.6121H74.0274C73.0887 73.6121 72.4487 73.7828 72.1074 74.1241C71.8087 74.4228 71.6594 75.0414 71.6594 75.9801V103.5C71.6594 104.439 71.8087 105.079 72.1074 105.42C72.4487 105.719 73.0887 105.868 74.0274 105.868Z" fill="#08031F"/>
</svg>
