<svg width="1478" height="455" viewBox="0 0 1478 455" fill="none" xmlns="http://www.w3.org/2000/svg">
<path d="M0.439476 454.317V93.9574C0.439476 68.3374 9.46948 46.4974 27.5295 28.4373C46.0095 9.95736 68.0595 0.717365 93.6795 0.717365H360.169C385.79 0.717365 407.84 9.95736 426.319 28.4373C444.8 46.4974 454.04 68.3374 454.04 93.9574V454.317H355.13V308.157H98.0895V454.317H0.439476ZM98.0895 209.877H355.13V119.787C355.13 105.927 355.13 98.9974 355.13 98.9974C355.13 98.9974 348.199 98.9974 334.339 98.9974H118.879C105.019 98.9974 98.0895 98.9974 98.0895 98.9974C98.0895 98.9974 98.0895 105.927 98.0895 119.787V209.877ZM525.82 454.317V1.34736H885.55C911.17 1.34736 933.22 10.5874 951.7 29.0674C970.18 47.5474 979.42 69.3874 979.42 94.5874V211.767C979.42 236.967 970.18 258.807 951.7 277.287C933.22 295.767 911.17 305.007 885.55 305.007L623.47 305.637V454.317H525.82ZM644.26 206.727H859.72C873.58 206.727 880.51 206.727 880.51 206.727C880.51 206.727 880.51 199.797 880.51 185.937V119.787C880.51 105.927 880.51 98.9974 880.51 98.9974C880.51 98.9974 873.58 98.9974 859.72 98.9974H644.26C630.4 98.9974 623.47 98.9974 623.47 98.9974C623.47 98.9974 623.47 105.927 623.47 119.787V185.937C623.47 199.797 623.47 206.727 623.47 206.727C623.47 206.727 630.4 206.727 644.26 206.727ZM1024.16 454.317V1.34736H1383.89C1409.51 1.34736 1431.56 10.5874 1450.04 29.0674C1468.52 47.5474 1477.76 69.3874 1477.76 94.5874V211.767C1477.76 236.967 1468.52 258.807 1450.04 277.287C1431.56 295.767 1409.51 305.007 1383.89 305.007L1121.81 305.637V454.317H1024.16ZM1142.6 206.727H1358.06C1371.92 206.727 1378.85 206.727 1378.85 206.727C1378.85 206.727 1378.85 199.797 1378.85 185.937V119.787C1378.85 105.927 1378.85 98.9974 1378.85 98.9974C1378.85 98.9974 1371.92 98.9974 1358.06 98.9974H1142.6C1128.74 98.9974 1121.81 98.9974 1121.81 98.9974C1121.81 98.9974 1121.81 105.927 1121.81 119.787V185.937C1121.81 199.797 1121.81 206.727 1121.81 206.727C1121.81 206.727 1128.74 206.727 1142.6 206.727Z" fill="white" fill-opacity="0.05"/>
</svg>
