<svg width="1400" height="686" viewBox="0 0 1400 686" fill="none" xmlns="http://www.w3.org/2000/svg">
<path d="M690.177 133.197L689.936 133.075L689.702 133.21L499.814 242.491L499.555 242.64L499.563 242.938L505.272 448.771L505.28 449.056L505.529 449.195L701.464 557.945L701.711 558.082L701.957 557.941L900.187 443.482L900.445 443.333L900.437 443.035L894.728 237.201L894.72 236.904L894.455 236.769L690.177 133.197Z" stroke="#0984E3"/>
<path d="M544.711 201.588L544.454 201.673L544.384 201.934L487.386 413.478L487.308 413.766L487.525 413.971L637.108 555.481L637.315 555.677L637.589 555.599L853.034 493.95L853.306 493.872L853.379 493.598L912.614 272.494L912.692 272.206L912.475 272.001L762.892 130.491L762.676 130.287L762.393 130.379L544.711 201.588Z" stroke="#DEAC70"/>
<path d="M490.211 352.808L490.089 353.05L490.223 353.284L599.504 543.172L599.653 543.431L599.952 543.423L805.785 537.714L806.07 537.706L806.208 537.457L914.958 341.522L915.096 341.274L914.954 341.029L800.495 142.799L800.346 142.541L800.048 142.549L594.215 148.258L593.918 148.266L593.783 148.531L490.211 352.808Z" stroke="#B007A8"/>
<path d="M558.602 498.275L558.686 498.532L558.947 498.602L770.492 555.6L770.78 555.678L770.985 555.461L912.495 405.878L912.691 405.671L912.612 405.397L850.963 189.952L850.885 189.68L850.612 189.607L629.507 130.371L629.219 130.294L629.015 130.511L487.505 280.093L487.3 280.31L487.393 280.592L558.602 498.275Z" stroke="#32AB9C"/>
</svg>
