<svg width="1400" height="700" viewBox="0 0 1400 700" fill="none" xmlns="http://www.w3.org/2000/svg">
<rect width="1400" height="700" fill="url(#paint0_linear)"/>
<circle cx="121" cy="121" r="74" fill="#08031F" stroke="#0984E3" stroke-width="2"/>
<circle cx="197" cy="193" r="124" fill="#08031F" stroke="#DEAC70" stroke-width="2"/>
<path d="M1371.5 610C1371.5 647.283 1341.5 677.5 1304.5 677.5C1267.5 677.5 1237.5 647.283 1237.5 610C1237.5 572.717 1267.5 542.5 1304.5 542.5C1341.5 542.5 1371.5 572.717 1371.5 610Z" fill="url(#paint1_linear)" stroke="#DEAC70"/>
<circle cx="1333" cy="74" r="34.5" fill="url(#paint2_linear)" stroke="#DEAC70"/>
<circle cx="1315" cy="98" r="19.5" fill="url(#paint3_linear)" stroke="#DEAC70"/>
<circle cx="1306" cy="115" r="9.5" fill="url(#paint4_linear)" stroke="#DEAC70"/>
<circle cx="1308" cy="572" r="49.5" fill="#271A56" stroke="#0984E3"/>
<defs>
<linearGradient id="paint0_linear" x1="-8.3125" y1="335" x2="1388.19" y2="337.68" gradientUnits="userSpaceOnUse">
<stop stop-color="#08031F"/>
<stop offset="1" stop-color="#271A56"/>
</linearGradient>
<linearGradient id="paint1_linear" x1="1346.26" y1="555.788" x2="1259.93" y2="665.082" gradientUnits="userSpaceOnUse">
<stop stop-color="#DEAC70"/>
<stop offset="1" stop-color="#B007A8"/>
</linearGradient>
<linearGradient id="paint2_linear" x1="1354.66" y1="46.0968" x2="1310.29" y2="102.67" gradientUnits="userSpaceOnUse">
<stop stop-color="#DEAC70"/>
<stop offset="1" stop-color="#B007A8"/>
</linearGradient>
<linearGradient id="paint3_linear" x1="1327.37" y1="82.0553" x2="1302.02" y2="114.383" gradientUnits="userSpaceOnUse">
<stop stop-color="#DEAC70"/>
<stop offset="1" stop-color="#B007A8"/>
</linearGradient>
<linearGradient id="paint4_linear" x1="1312.19" y1="107.028" x2="1299.51" y2="123.191" gradientUnits="userSpaceOnUse">
<stop stop-color="#DEAC70"/>
<stop offset="1" stop-color="#B007A8"/>
</linearGradient>
</defs>
</svg>
