<svg width="1400" height="700" viewBox="0 0 1400 700" fill="none" xmlns="http://www.w3.org/2000/svg">
<rect width="1400" height="700" fill="url(#paint0_linear)"/>
<path d="M1210.28 115.512L1210.04 115.387L1209.8 115.52L1174.07 135.928L1173.82 136.075L1173.82 136.376L1174.49 175.504L1174.5 175.791L1174.74 175.933L1211.18 196.972L1211.43 197.113L1211.67 196.973L1248.97 175.597L1249.23 175.45L1249.22 175.15L1248.55 136.022L1248.55 135.722L1248.29 135.583L1210.28 115.512Z" stroke="#0984E3"/>
<path d="M286.298 510.257L286.06 510.131L285.827 510.264L263.496 523.019L263.237 523.166L263.243 523.467L263.662 547.922L263.667 548.209L263.912 548.351L286.687 561.501L286.931 561.642L287.176 561.502L310.489 548.142L310.746 547.994L310.741 547.694L310.322 523.239L310.317 522.939L310.055 522.801L286.298 510.257Z" stroke="#B007A8"/>
<path d="M510.462 75.1697L510.224 75.0441L509.99 75.1776L465.328 100.687L465.07 100.834L465.075 101.135L465.913 150.045L465.918 150.332L466.164 150.474L511.714 176.773L511.958 176.914L512.202 176.774L558.827 150.055L559.085 149.907L559.08 149.607L558.241 100.697L558.236 100.397L557.974 100.259L510.462 75.1697Z" stroke="#32AB9C"/>
<path d="M800.765 285.969L800.527 285.844L800.293 285.977L791.361 291.079L791.103 291.227L791.108 291.527L791.276 301.309L791.281 301.597L791.526 301.739L800.636 306.998L800.881 307.139L801.125 306.999L810.45 301.655L810.708 301.508L810.703 301.207L810.535 291.425L810.53 291.126L810.268 290.987L800.765 285.969Z" stroke="#32AB9C"/>
<path d="M880.381 508.608L880.143 508.483L879.909 508.616L812.916 546.88L812.658 547.027L812.663 547.328L813.92 620.693L813.925 620.98L814.171 621.122L882.496 660.571L882.74 660.712L882.984 660.572L952.922 620.493L953.179 620.345L953.174 620.045L951.917 546.68L951.912 546.38L951.65 546.242L880.381 508.608Z" stroke="#B007A8"/>
<path d="M151.247 208.137L151.009 208.012L150.775 208.145L61.451 259.163L61.1929 259.311L61.1981 259.612L62.8744 357.431L62.8794 357.719L63.1252 357.861L154.225 410.459L154.469 410.6L154.714 410.46L247.964 357.021L248.221 356.873L248.216 356.573L246.54 258.753L246.535 258.453L246.273 258.315L151.247 208.137Z" stroke="#DEAC70"/>
<path d="M1288.36 519.851L1288.12 519.725L1287.88 519.859L1274.49 527.512L1274.23 527.659L1274.23 527.96L1274.48 542.633L1274.49 542.92L1274.74 543.062L1288.4 550.952L1288.64 551.093L1288.89 550.953L1302.88 542.937L1303.13 542.789L1303.13 542.489L1302.88 527.816L1302.87 527.516L1302.61 527.378L1288.36 519.851Z" stroke="#DEAC70"/>
<defs>
<linearGradient id="paint0_linear" x1="-8.3125" y1="335" x2="1388.19" y2="337.68" gradientUnits="userSpaceOnUse">
<stop stop-color="#08031F"/>
<stop offset="1" stop-color="#271A56"/>
</linearGradient>
</defs>
</svg>
