<svg width="1400" height="701" viewBox="0 0 1400 701" fill="none" xmlns="http://www.w3.org/2000/svg">
<rect y="0.22168" width="1400" height="700" fill="url(#paint0_linear)"/>
<path d="M118.595 56.3738L118.357 56.2482L118.123 56.3817L73.461 81.8909L73.2029 82.0383L73.208 82.3391L74.0462 131.249L74.0512 131.536L74.297 131.678L119.847 157.977L120.091 158.118L120.336 157.978L166.961 131.259L167.218 131.111L167.213 130.811L166.375 81.9009L166.37 81.601L166.108 81.4627L118.595 56.3738Z" stroke="#DEAC70"/>
<path d="M119.318 542.184L119.08 542.059L118.847 542.192L74.1845 567.701L73.9264 567.849L73.9316 568.15L74.7698 617.059L74.7747 617.347L75.0205 617.489L120.57 643.788L120.815 643.929L121.059 643.789L167.684 617.069L167.942 616.922L167.936 616.621L167.098 567.711L167.093 567.412L166.831 567.273L119.318 542.184Z" stroke="#0984E3"/>
<path d="M1237.96 55.6614L1237.73 55.5358L1237.49 55.6693L1192.83 81.1785L1192.57 81.3259L1192.58 81.6267L1193.42 130.537L1193.42 130.824L1193.67 130.966L1239.22 157.265L1239.46 157.406L1239.71 157.266L1286.33 130.546L1286.59 130.399L1286.58 130.098L1285.74 81.1885L1285.74 80.8886L1285.48 80.7503L1237.96 55.6614Z" stroke="#B007A8"/>
<path d="M1237.24 542.184L1237 542.059L1236.77 542.192L1192.11 567.701L1191.85 567.849L1191.85 568.15L1192.69 617.059L1192.7 617.347L1192.94 617.489L1238.49 643.788L1238.74 643.929L1238.98 643.789L1285.61 617.069L1285.86 616.922L1285.86 616.621L1285.02 567.711L1285.02 567.412L1284.75 567.273L1237.24 542.184Z" stroke="#0984E3"/>
<defs>
<linearGradient id="paint0_linear" x1="-8.3125" y1="335.222" x2="1388.19" y2="337.901" gradientUnits="userSpaceOnUse">
<stop stop-color="#08031F"/>
<stop offset="1" stop-color="#271A56"/>
</linearGradient>
</defs>
</svg>
