<svg width="1401" height="701" viewBox="0 0 1401 701" fill="none" xmlns="http://www.w3.org/2000/svg">
<path d="M690.453 140.643L690.212 140.521L689.978 140.656L500.089 249.937L499.83 250.086L499.839 250.384L505.547 456.217L505.555 456.502L505.804 456.641L701.74 565.391L701.987 565.528L702.232 565.387L900.463 450.928L900.721 450.779L900.713 450.481L895.005 244.647L894.996 244.35L894.731 244.215L690.453 140.643Z" stroke="#0984E3"/>
<path d="M558.862 505.721L558.946 505.978L559.207 506.049L770.752 563.047L771.041 563.124L771.246 562.907L912.756 413.325L912.952 413.118L912.873 412.844L851.224 197.399L851.146 197.126L850.873 197.053L629.767 137.818L629.48 137.741L629.275 137.957L487.765 287.54L487.56 287.756L487.653 288.039L558.862 505.721Z" stroke="#DEAC70"/>
<path d="M855.565 491.829L855.821 491.745L855.892 491.484L912.89 279.94L912.968 279.652L912.751 279.447L763.168 137.937L762.961 137.741L762.687 137.819L547.241 199.468L546.969 199.546L546.896 199.82L487.66 420.924L487.583 421.212L487.799 421.417L637.383 562.927L637.599 563.131L637.882 563.039L855.565 491.829Z" stroke="#B007A8"/>
</svg>
