<svg width="1400" height="701" viewBox="0 0 1400 701" fill="none" xmlns="http://www.w3.org/2000/svg">
<rect y="0.223633" width="1400" height="700" fill="url(#paint0_linear)"/>
<rect y="0.223633" width="1400" height="700" fill="url(#paint1_linear)"/>
<path d="M118.595 56.3758L118.357 56.2501L118.123 56.3837L73.461 81.8928L73.2029 82.0403L73.208 82.341L74.0462 131.251L74.0512 131.538L74.297 131.68L119.847 157.979L120.091 158.12L120.336 157.98L166.961 131.261L167.218 131.113L167.213 130.813L166.375 81.9029L166.37 81.603L166.108 81.4647L118.595 56.3758Z" stroke="#DEAC70"/>
<path d="M161.242 103.471L161.004 103.345L160.77 103.479L138.439 116.233L138.181 116.381L138.186 116.682L138.605 141.137L138.61 141.424L138.856 141.566L161.631 154.715L161.875 154.856L162.119 154.716L185.432 141.356L185.689 141.209L185.684 140.909L185.265 116.454L185.26 116.154L184.998 116.015L161.242 103.471Z" stroke="#DEAC70"/>
<path d="M182.838 132.65L182.6 132.524L182.366 132.658L173.434 137.76L173.176 137.907L173.181 138.208L173.349 147.99L173.354 148.277L173.599 148.419L182.709 153.679L182.953 153.82L183.198 153.68L192.523 148.336L192.781 148.188L192.775 147.888L192.608 138.106L192.603 137.806L192.341 137.668L182.838 132.65Z" stroke="#DEAC70"/>
<path d="M196.115 492.462L195.877 492.337L195.643 492.47L150.981 517.979L150.723 518.127L150.728 518.427L151.566 567.337L151.571 567.625L151.817 567.767L197.367 594.066L197.611 594.207L197.856 594.066L244.481 567.347L244.738 567.199L244.733 566.899L243.895 517.989L243.89 517.689L243.628 517.551L196.115 492.462Z" stroke="#32AB9C"/>
<path d="M1139.76 106.388L1139.52 106.262L1139.29 106.396L1094.63 131.905L1094.37 132.052L1094.37 132.353L1095.21 181.263L1095.22 181.55L1095.46 181.692L1141.01 207.991L1141.26 208.132L1141.5 207.992L1188.13 181.273L1188.38 181.125L1188.38 180.825L1187.54 131.915L1187.54 131.615L1187.27 131.477L1139.76 106.388Z" stroke="#B007A8"/>
<path d="M1237.24 542.184L1237 542.059L1236.77 542.192L1192.11 567.701L1191.85 567.849L1191.85 568.15L1192.69 617.059L1192.7 617.347L1192.94 617.489L1238.49 643.788L1238.74 643.929L1238.98 643.789L1285.61 617.069L1285.86 616.922L1285.86 616.621L1285.02 567.711L1285.02 567.412L1284.75 567.273L1237.24 542.184Z" stroke="#0984E3"/>
<path d="M1191.94 546.558L1191.7 546.432L1191.46 546.566L1169.13 559.32L1168.88 559.468L1168.88 559.768L1169.3 584.223L1169.3 584.511L1169.55 584.653L1192.33 597.802L1192.57 597.943L1192.81 597.803L1216.13 584.443L1216.38 584.296L1216.38 583.995L1215.96 559.54L1215.95 559.241L1215.69 559.102L1191.94 546.558Z" stroke="#0984E3"/>
<path d="M1168.43 547.231L1168.19 547.105L1167.96 547.239L1159.02 552.34L1158.77 552.488L1158.77 552.789L1158.94 562.571L1158.94 562.858L1159.19 563L1168.3 568.26L1168.54 568.401L1168.79 568.26L1178.11 562.917L1178.37 562.769L1178.37 562.469L1178.2 552.687L1178.19 552.387L1177.93 552.248L1168.43 547.231Z" stroke="#0984E3"/>
<defs>
<linearGradient id="paint0_linear" x1="-8.3125" y1="335.224" x2="1388.19" y2="337.903" gradientUnits="userSpaceOnUse">
<stop stop-color="#08031F"/>
<stop offset="1" stop-color="#271A56"/>
</linearGradient>
<linearGradient id="paint1_linear" x1="-8.3125" y1="335.224" x2="1388.19" y2="337.903" gradientUnits="userSpaceOnUse">
<stop stop-color="#08031F"/>
<stop offset="1" stop-color="#271A56"/>
</linearGradient>
</defs>
</svg>
