<svg width="1400" height="717" viewBox="0 0 1400 717" fill="none" xmlns="http://www.w3.org/2000/svg">
<rect y="16.2227" width="1400" height="700" fill="url(#paint0_linear)"/>
<rect y="16.2227" width="1400" height="700" fill="url(#paint1_linear)"/>
<path d="M687.388 107.224L687.15 107.099L686.917 107.232L463.607 234.778L463.348 234.925L463.354 235.226L467.545 479.775L467.549 480.063L467.795 480.205L695.545 611.7L695.789 611.841L696.033 611.701L929.158 478.104L929.416 477.956L929.411 477.656L925.22 233.107L925.215 232.807L924.953 232.669L687.388 107.224Z" stroke="#0984E3"/>
<path d="M833.261 147.412L833.135 147.174L832.866 147.153L576.502 126.838L576.206 126.814L576.041 127.066L441.821 331.533L441.663 331.773L441.786 332.029L555.977 568.929L556.099 569.183L556.38 569.204L824.263 590.045L824.559 590.068L824.724 589.816L958.944 385.349L959.108 385.098L958.97 384.836L833.261 147.412Z" stroke="#DEAC70"/>
<path d="M936.139 277.147L936.19 276.883L935.994 276.698L748.86 100.301L748.643 100.097L748.357 100.189L515.664 175.528L515.391 175.616L515.327 175.893L455.979 432.093L455.915 432.368L456.12 432.561L651.906 616.582L652.122 616.785L652.408 616.692L885.101 541.354L885.386 541.261L885.442 540.971L936.139 277.147Z" stroke="#B007A8"/>
<path d="M940.814 424.643L941.005 424.454L940.948 424.191L886.287 172.899L886.224 172.608L885.935 172.523L651.397 103.14L651.122 103.059L650.913 103.251L457.137 281.048L456.929 281.239L456.99 281.514L514.478 543.984L514.541 544.274L514.829 544.359L749.367 613.742L749.655 613.827L749.865 613.619L940.814 424.643Z" stroke="#32AB9C"/>
<defs>
<linearGradient id="paint0_linear" x1="-8.3125" y1="351.223" x2="1388.19" y2="353.902" gradientUnits="userSpaceOnUse">
<stop stop-color="#08031F"/>
<stop offset="1" stop-color="#271A56"/>
</linearGradient>
<linearGradient id="paint1_linear" x1="-8.3125" y1="351.223" x2="1388.19" y2="353.902" gradientUnits="userSpaceOnUse">
<stop stop-color="#08031F"/>
<stop offset="1" stop-color="#271A56"/>
</linearGradient>
</defs>
</svg>
