<svg width="1400" height="700" viewBox="0 0 1400 700" fill="none" xmlns="http://www.w3.org/2000/svg">
<rect width="1400" height="700" fill="url(#paint0_linear)"/>
<path d="M400.889 19.1477L400.413 18.8963L399.946 19.1634L385.326 27.5117L384.81 27.8066L384.82 28.4083L385.097 44.4196L385.107 44.994L385.599 45.2778L400.511 53.8896L400.999 54.1715L401.489 53.8911L416.75 45.1468L417.266 44.8516L417.255 44.2508L416.978 28.2396L416.968 27.64L416.444 27.3634L400.889 19.1477Z" stroke="#B007A8" stroke-width="2"/>
<path d="M364.517 19.1477L364.041 18.8963L363.573 19.1634L348.954 27.5117L348.438 27.8066L348.448 28.4083L348.725 44.4196L348.735 44.994L349.226 45.2778L364.139 53.8896L364.627 54.1715L365.116 53.8911L380.378 45.1468L380.893 44.8516L380.883 44.2508L380.606 28.2396L380.596 27.64L380.072 27.3634L364.517 19.1477Z" stroke="#B007A8" stroke-width="2"/>
<path d="M328.145 19.1477L327.669 18.8963L327.201 19.1634L312.582 27.5117L312.065 27.8066L312.076 28.4083L312.353 44.4196L312.363 44.994L312.854 45.2778L327.767 53.8896L328.255 54.1715L328.744 53.8911L344.006 45.1468L344.521 44.8516L344.511 44.2508L344.234 28.2396L344.223 27.64L343.7 27.3634L328.145 19.1477Z" stroke="#B007A8" stroke-width="2"/>
<path d="M291.773 19.1477L291.297 18.8963L290.829 19.1634L276.21 27.5117L275.693 27.8066L275.704 28.4083L275.981 44.4196L275.991 44.994L276.482 45.2778L291.395 53.8896L291.883 54.1715L292.372 53.8911L307.634 45.1468L308.149 44.8516L308.139 44.2508L307.862 28.2396L307.851 27.64L307.328 27.3634L291.773 19.1477Z" stroke="#B007A8" stroke-width="2"/>
<path d="M255.401 19.1477L254.925 18.8963L254.457 19.1634L239.838 27.5117L239.321 27.8066L239.332 28.4083L239.609 44.4196L239.619 44.994L240.11 45.2778L255.023 53.8896L255.511 54.1715L256 53.8911L271.262 45.1468L271.777 44.8516L271.767 44.2508L271.49 28.2396L271.479 27.64L270.956 27.3634L255.401 19.1477Z" stroke="#B007A8" stroke-width="2"/>
<path d="M219.028 19.1477L218.552 18.8963L218.084 19.1634L203.465 27.5117L202.949 27.8066L202.959 28.4083L203.236 44.4196L203.246 44.994L203.738 45.2778L218.65 53.8896L219.138 54.1715L219.628 53.8911L234.889 45.1468L235.405 44.8516L235.394 44.2508L235.117 28.2396L235.107 27.64L234.583 27.3634L219.028 19.1477Z" stroke="#B007A8" stroke-width="2"/>
<path d="M182.656 19.1477L182.18 18.8963L181.712 19.1634L167.093 27.5117L166.577 27.8066L166.587 28.4083L166.864 44.4196L166.874 44.994L167.366 45.2778L182.278 53.8896L182.766 54.1715L183.256 53.8911L198.517 45.1468L199.033 44.8516L199.022 44.2508L198.745 28.2396L198.735 27.64L198.211 27.3634L182.656 19.1477Z" stroke="#B007A8" stroke-width="2"/>
<path d="M146.284 19.1477L145.808 18.8963L145.34 19.1634L130.721 27.5117L130.205 27.8066L130.215 28.4083L130.492 44.4196L130.502 44.994L130.994 45.2778L145.906 53.8896L146.394 54.1715L146.884 53.8911L162.145 45.1468L162.66 44.8516L162.65 44.2508L162.373 28.2396L162.363 27.64L161.839 27.3634L146.284 19.1477Z" stroke="#B007A8" stroke-width="2"/>
<path d="M109.912 19.1477L109.436 18.8963L108.968 19.1634L94.3491 27.5117L93.8327 27.8066L93.8431 28.4083L94.12 44.4196L94.13 44.994L94.6215 45.2778L109.534 53.8896L110.022 54.1715L110.511 53.8911L125.773 45.1468L126.288 44.8516L126.278 44.2508L126.001 28.2396L125.991 27.64L125.467 27.3634L109.912 19.1477Z" stroke="#B007A8" stroke-width="2"/>
<path d="M73.5396 19.1477L73.0637 18.8963L72.596 19.1634L57.9768 27.5117L57.4604 27.8066L57.4708 28.4083L57.7477 44.4196L57.7576 44.994L58.2492 45.2778L73.1617 53.8896L73.6499 54.1715L74.1392 53.8911L89.4009 45.1468L89.9161 44.8516L89.9057 44.2508L89.6287 28.2396L89.6184 27.64L89.0947 27.3634L73.5396 19.1477Z" stroke="#B007A8" stroke-width="2"/>
<path d="M385.958 29.4126L385.482 29.1612L385.015 29.4283L370.396 37.7766L369.879 38.0715L369.889 38.6732L370.166 54.6844L370.176 55.2589L370.668 55.5427L385.58 64.1544L386.069 64.4364L386.558 64.156L401.82 55.4117L402.335 55.1165L402.324 54.5157L402.047 38.5045L402.037 37.9049L401.513 37.6283L385.958 29.4126Z" stroke="#0984E3" stroke-width="2"/>
<path d="M349.586 29.4126L349.11 29.1612L348.642 29.4283L334.023 37.7766L333.507 38.0715L333.517 38.6732L333.794 54.6844L333.804 55.2589L334.296 55.5427L349.208 64.1544L349.696 64.4364L350.186 64.156L365.447 55.4117L365.962 55.1165L365.952 54.5157L365.675 38.5045L365.665 37.9049L365.141 37.6283L349.586 29.4126Z" stroke="#0984E3" stroke-width="2"/>
<path d="M313.214 29.4126L312.738 29.1612L312.27 29.4283L297.651 37.7766L297.134 38.0715L297.145 38.6732L297.422 54.6844L297.432 55.2589L297.923 55.5427L312.836 64.1544L313.324 64.4364L313.813 64.156L329.075 55.4117L329.59 55.1165L329.58 54.5157L329.303 38.5045L329.292 37.9049L328.769 37.6283L313.214 29.4126Z" stroke="#0984E3" stroke-width="2"/>
<path d="M276.842 29.4126L276.366 29.1612L275.898 29.4283L261.279 37.7766L260.762 38.0715L260.773 38.6732L261.05 54.6844L261.06 55.2589L261.551 55.5427L276.464 64.1544L276.952 64.4364L277.441 64.156L292.703 55.4117L293.218 55.1165L293.208 54.5157L292.931 38.5045L292.92 37.9049L292.397 37.6283L276.842 29.4126Z" stroke="#0984E3" stroke-width="2"/>
<path d="M240.47 29.4126L239.994 29.1612L239.526 29.4283L224.907 37.7766L224.39 38.0715L224.401 38.6732L224.678 54.6844L224.688 55.2589L225.179 55.5427L240.092 64.1544L240.58 64.4364L241.069 64.156L256.331 55.4117L256.846 55.1165L256.836 54.5157L256.559 38.5045L256.548 37.9049L256.025 37.6283L240.47 29.4126Z" stroke="#0984E3" stroke-width="2"/>
<path d="M204.097 29.4126L203.621 29.1612L203.154 29.4283L188.534 37.7766L188.018 38.0715L188.028 38.6732L188.305 54.6844L188.315 55.2589L188.807 55.5427L203.719 64.1544L204.208 64.4364L204.697 64.156L219.958 55.4117L220.474 55.1165L220.463 54.5157L220.186 38.5045L220.176 37.9049L219.652 37.6283L204.097 29.4126Z" stroke="#0984E3" stroke-width="2"/>
<path d="M167.725 29.4126L167.249 29.1612L166.782 29.4283L152.162 37.7766L151.646 38.0715L151.656 38.6732L151.933 54.6844L151.943 55.2589L152.435 55.5427L167.347 64.1544L167.836 64.4364L168.325 64.156L183.587 55.4117L184.102 55.1165L184.091 54.5157L183.814 38.5045L183.804 37.9049L183.28 37.6283L167.725 29.4126Z" stroke="#0984E3" stroke-width="2"/>
<path d="M131.353 29.4126L130.877 29.1612L130.409 29.4283L115.79 37.7766L115.274 38.0715L115.284 38.6732L115.561 54.6844L115.571 55.2589L116.063 55.5427L130.975 64.1544L131.463 64.4364L131.953 64.156L147.214 55.4117L147.73 55.1165L147.719 54.5157L147.442 38.5045L147.432 37.9049L146.908 37.6283L131.353 29.4126Z" stroke="#0984E3" stroke-width="2"/>
<path d="M94.981 29.4126L94.5051 29.1612L94.0374 29.4283L79.4182 37.7766L78.9018 38.0715L78.9122 38.6732L79.1891 54.6844L79.199 55.2589L79.6906 55.5427L94.6031 64.1544L95.0913 64.4364L95.5806 64.156L110.842 55.4117L111.357 55.1165L111.347 54.5157L111.07 38.5045L111.06 37.9049L110.536 37.6283L94.981 29.4126Z" stroke="#0984E3" stroke-width="2"/>
<path d="M58.6087 29.4126L58.1328 29.1612L57.6651 29.4283L43.0459 37.7766L42.5295 38.0715L42.5399 38.6732L42.8168 54.6844L42.8267 55.2589L43.3183 55.5427L58.2308 64.1544L58.719 64.4364L59.2083 64.156L74.47 55.4117L74.9852 55.1165L74.9748 54.5157L74.6978 38.5045L74.6875 37.9049L74.1638 37.6283L58.6087 29.4126Z" stroke="#0984E3" stroke-width="2"/>
<path d="M368.228 42.4773L367.752 42.2259L367.284 42.493L352.665 50.8413L352.149 51.1362L352.159 51.7379L352.436 67.7491L352.446 68.3235L352.937 68.6074L367.85 77.2191L368.338 77.5011L368.827 77.2207L384.089 68.4764L384.604 68.1812L384.594 67.5804L384.317 51.5692L384.307 50.9696L383.783 50.693L368.228 42.4773Z" stroke="#DEAC70" stroke-width="2"/>
<path d="M331.856 42.4773L331.38 42.2259L330.912 42.493L316.293 50.8413L315.776 51.1362L315.787 51.7379L316.064 67.7491L316.074 68.3235L316.565 68.6074L331.478 77.2191L331.966 77.5011L332.455 77.2207L347.717 68.4764L348.232 68.1812L348.222 67.5804L347.945 51.5692L347.934 50.9696L347.411 50.693L331.856 42.4773Z" stroke="#DEAC70" stroke-width="2"/>
<path d="M295.483 42.4773L295.007 42.2259L294.54 42.493L279.92 50.8413L279.404 51.1362L279.414 51.7379L279.691 67.7491L279.701 68.3235L280.193 68.6074L295.105 77.2191L295.593 77.5011L296.083 77.2207L311.344 68.4764L311.86 68.1812L311.849 67.5804L311.572 51.5692L311.562 50.9696L311.038 50.693L295.483 42.4773Z" stroke="#DEAC70" stroke-width="2"/>
<path d="M259.111 42.4773L258.635 42.2259L258.167 42.493L243.548 50.8413L243.032 51.1362L243.042 51.7379L243.319 67.7491L243.329 68.3235L243.821 68.6074L258.733 77.2191L259.221 77.5011L259.711 77.2207L274.972 68.4764L275.487 68.1812L275.477 67.5804L275.2 51.5692L275.19 50.9696L274.666 50.693L259.111 42.4773Z" stroke="#DEAC70" stroke-width="2"/>
<path d="M222.739 42.4773L222.263 42.2259L221.795 42.493L207.176 50.8413L206.66 51.1362L206.67 51.7379L206.947 67.7491L206.957 68.3235L207.449 68.6074L222.361 77.2191L222.849 77.5011L223.339 77.2207L238.6 68.4764L239.116 68.1812L239.105 67.5804L238.828 51.5692L238.818 50.9696L238.294 50.693L222.739 42.4773Z" stroke="#DEAC70" stroke-width="2"/>
<path d="M186.367 42.4773L185.891 42.2259L185.423 42.493L170.804 50.8413L170.288 51.1362L170.298 51.7379L170.575 67.7491L170.585 68.3235L171.076 68.6074L185.989 77.2191L186.477 77.5011L186.966 77.2207L202.228 68.4764L202.743 68.1812L202.733 67.5804L202.456 51.5692L202.446 50.9696L201.922 50.693L186.367 42.4773Z" stroke="#DEAC70" stroke-width="2"/>
<path d="M149.995 42.4773L149.519 42.2259L149.051 42.493L134.432 50.8413L133.915 51.1362L133.926 51.7379L134.203 67.7491L134.213 68.3235L134.704 68.6074L149.617 77.2191L150.105 77.5011L150.594 77.2207L165.856 68.4764L166.371 68.1812L166.361 67.5804L166.084 51.5692L166.073 50.9696L165.55 50.693L149.995 42.4773Z" stroke="#DEAC70" stroke-width="2"/>
<path d="M113.623 42.4773L113.147 42.2259L112.679 42.493L98.0598 50.8413L97.5434 51.1362L97.5538 51.7379L97.8307 67.7491L97.8406 68.3235L98.3322 68.6074L113.245 77.2191L113.733 77.5011L114.222 77.2207L129.484 68.4764L129.999 68.1812L129.989 67.5804L129.712 51.5692L129.701 50.9696L129.178 50.693L113.623 42.4773Z" stroke="#DEAC70" stroke-width="2"/>
<path d="M77.2504 42.4773L76.7745 42.2259L76.3068 42.493L61.6876 50.8413L61.1712 51.1362L61.1816 51.7379L61.4585 67.7491L61.4685 68.3235L61.96 68.6074L76.8725 77.2191L77.3607 77.5011L77.85 77.2207L93.1117 68.4764L93.6269 68.1812L93.6165 67.5804L93.3396 51.5692L93.3292 50.9696L92.8055 50.693L77.2504 42.4773Z" stroke="#DEAC70" stroke-width="2"/>
<path d="M40.8782 42.4773L40.4023 42.2259L39.9346 42.493L25.3154 50.8413L24.799 51.1362L24.8094 51.7379L25.0863 67.7491L25.0963 68.3235L25.5878 68.6074L40.5003 77.2191L40.9885 77.5011L41.4778 77.2207L56.7395 68.4764L57.2547 68.1812L57.2443 67.5804L56.9674 51.5692L56.957 50.9696L56.4333 50.693L40.8782 42.4773Z" stroke="#DEAC70" stroke-width="2"/>
<path d="M355.163 52.7424L354.687 52.4911L354.219 52.7582L339.6 61.1065L339.084 61.4014L339.094 62.0031L339.371 78.0143L339.381 78.5887L339.873 78.8725L354.785 87.4843L355.273 87.7662L355.763 87.4859L371.024 78.7415L371.539 78.4463L371.529 77.8456L371.252 61.8344L371.242 61.2347L370.718 60.9581L355.163 52.7424Z" stroke="#32AB9C" stroke-width="2"/>
<path d="M318.791 52.7424L318.315 52.4911L317.847 52.7582L303.228 61.1065L302.711 61.4014L302.722 62.0031L302.999 78.0143L303.009 78.5887L303.5 78.8725L318.413 87.4843L318.901 87.7662L319.39 87.4859L334.652 78.7415L335.167 78.4463L335.157 77.8456L334.88 61.8344L334.869 61.2347L334.346 60.9581L318.791 52.7424Z" stroke="#32AB9C" stroke-width="2"/>
<path d="M282.419 52.7424L281.943 52.4911L281.475 52.7582L266.856 61.1065L266.339 61.4014L266.35 62.0031L266.627 78.0143L266.637 78.5887L267.128 78.8725L282.041 87.4843L282.529 87.7662L283.018 87.4859L298.28 78.7415L298.795 78.4463L298.785 77.8456L298.508 61.8344L298.497 61.2347L297.974 60.9581L282.419 52.7424Z" stroke="#32AB9C" stroke-width="2"/>
<path d="M246.047 52.7424L245.571 52.4911L245.103 52.7582L230.484 61.1065L229.967 61.4014L229.978 62.0031L230.255 78.0143L230.265 78.5887L230.756 78.8725L245.669 87.4843L246.157 87.7662L246.646 87.4859L261.908 78.7415L262.423 78.4463L262.413 77.8456L262.136 61.8344L262.125 61.2347L261.602 60.9581L246.047 52.7424Z" stroke="#32AB9C" stroke-width="2"/>
<path d="M209.675 52.7424L209.199 52.4911L208.731 52.7582L194.112 61.1065L193.595 61.4014L193.606 62.0031L193.883 78.0143L193.893 78.5887L194.384 78.8725L209.297 87.4843L209.785 87.7662L210.274 87.4859L225.536 78.7415L226.051 78.4463L226.041 77.8456L225.764 61.8344L225.753 61.2347L225.23 60.9581L209.675 52.7424Z" stroke="#32AB9C" stroke-width="2"/>
<path d="M173.302 52.7424L172.827 52.4911L172.359 52.7582L157.74 61.1065L157.223 61.4014L157.234 62.0031L157.511 78.0143L157.52 78.5887L158.012 78.8725L172.924 87.4843L173.413 87.7662L173.902 87.4859L189.164 78.7415L189.679 78.4463L189.668 77.8456L189.392 61.8344L189.381 61.2347L188.857 60.9581L173.302 52.7424Z" stroke="#32AB9C" stroke-width="2"/>
<path d="M136.93 52.7424L136.454 52.4911L135.986 52.7582L121.367 61.1065L120.851 61.4014L120.861 62.0031L121.138 78.0143L121.148 78.5887L121.64 78.8725L136.552 87.4843L137.04 87.7662L137.53 87.4859L152.791 78.7415L153.307 78.4463L153.296 77.8456L153.019 61.8344L153.009 61.2347L152.485 60.9581L136.93 52.7424Z" stroke="#32AB9C" stroke-width="2"/>
<path d="M100.558 52.7424L100.082 52.4911L99.6143 52.7582L84.9951 61.1065L84.4787 61.4014L84.4891 62.0031L84.766 78.0143L84.776 78.5887L85.2675 78.8725L100.18 87.4843L100.668 87.7662L101.157 87.4859L116.419 78.7415L116.934 78.4463L116.924 77.8456L116.647 61.8344L116.637 61.2347L116.113 60.9581L100.558 52.7424Z" stroke="#32AB9C" stroke-width="2"/>
<path d="M64.186 52.7424L63.7101 52.4911L63.2423 52.7582L48.6232 61.1065L48.1067 61.4014L48.1171 62.0031L48.3941 78.0143L48.404 78.5887L48.8955 78.8725L63.808 87.4843L64.2963 87.7662L64.7855 87.4859L80.0472 78.7415L80.5624 78.4463L80.552 77.8456L80.2751 61.8344L80.2647 61.2347L79.741 60.9581L64.186 52.7424Z" stroke="#32AB9C" stroke-width="2"/>
<path d="M27.8137 52.7424L27.3377 52.4911L26.87 52.7582L12.2508 61.1065L11.7344 61.4014L11.7448 62.0031L12.0218 78.0143L12.0317 78.5887L12.5232 78.8725L27.4357 87.4843L27.9239 87.7662L28.4132 87.4859L43.6749 78.7415L44.1901 78.4463L44.1797 77.8456L43.9028 61.8344L43.8924 61.2347L43.3687 60.9581L27.8137 52.7424Z" stroke="#32AB9C" stroke-width="2"/>
<path d="M1293.37 584.035L1292.89 583.784L1292.42 584.051L1277.8 592.399L1277.29 592.694L1277.3 593.296L1277.58 609.307L1277.59 609.881L1278.08 610.165L1292.99 618.777L1293.48 619.059L1293.97 618.779L1309.23 610.034L1309.74 609.739L1309.73 609.138L1309.46 593.127L1309.45 592.527L1308.92 592.251L1293.37 584.035Z" stroke="#B007A8" stroke-width="2"/>
<path d="M1330.05 583.719L1329.58 583.468L1329.11 583.735L1314.49 592.083L1313.97 592.378L1313.98 592.98L1314.26 608.991L1314.27 609.565L1314.76 609.849L1329.67 618.461L1330.16 618.743L1330.65 618.463L1345.91 609.718L1346.43 609.423L1346.42 608.822L1346.14 592.811L1346.13 592.212L1345.61 591.935L1330.05 583.719Z" stroke="#B007A8" stroke-width="2"/>
<path d="M1276.37 614.272L1275.89 614.021L1275.42 614.288L1260.8 622.636L1260.29 622.931L1260.3 623.533L1260.58 639.544L1260.59 640.118L1261.08 640.402L1275.99 649.014L1276.48 649.296L1276.97 649.015L1292.23 640.271L1292.74 639.976L1292.73 639.375L1292.46 623.364L1292.45 622.764L1291.92 622.488L1276.37 614.272Z" stroke="#B007A8" stroke-width="2"/>
<path d="M1294.79 643.771L1294.31 643.52L1293.84 643.787L1279.23 652.136L1278.71 652.43L1278.72 653.032L1279 669.043L1279.01 669.618L1279.5 669.902L1294.41 678.513L1294.9 678.795L1295.39 678.515L1310.65 669.771L1311.16 669.475L1311.15 668.875L1310.88 652.863L1310.87 652.264L1310.34 651.987L1294.79 643.771Z" stroke="#B007A8" stroke-width="2"/>
<path d="M1331.16 644.087L1330.68 643.836L1330.21 644.103L1315.59 652.451L1315.08 652.746L1315.09 653.348L1315.36 669.359L1315.37 669.934L1315.87 670.218L1330.78 678.829L1331.27 679.111L1331.76 678.831L1347.02 670.086L1347.53 669.791L1347.52 669.191L1347.25 653.179L1347.24 652.58L1346.71 652.303L1331.16 644.087Z" stroke="#DEAC70" stroke-width="2"/>
<path d="M1349.1 614.035L1348.63 613.784L1348.16 614.051L1333.54 622.399L1333.02 622.694L1333.04 623.296L1333.31 639.307L1333.32 639.881L1333.81 640.165L1348.73 648.777L1349.21 649.059L1349.7 648.779L1364.97 640.034L1365.48 639.739L1365.47 639.138L1365.19 623.127L1365.18 622.527L1364.66 622.251L1349.1 614.035Z" stroke="#32AB9C" stroke-width="2"/>
<path d="M1312.74 613.719L1312.26 613.468L1311.79 613.735L1297.17 622.083L1296.66 622.378L1296.67 622.98L1296.94 638.991L1296.95 639.565L1297.45 639.849L1312.36 648.461L1312.85 648.743L1313.34 648.463L1328.6 639.718L1329.11 639.423L1329.1 638.822L1328.83 622.811L1328.81 622.212L1328.29 621.935L1312.74 613.719Z" stroke="#0984E3" stroke-width="2"/>
<defs>
<linearGradient id="paint0_linear" x1="-8.3125" y1="335" x2="1388.19" y2="337.68" gradientUnits="userSpaceOnUse">
<stop stop-color="#08031F"/>
<stop offset="1" stop-color="#271A56"/>
</linearGradient>
</defs>
</svg>
