<svg width="1400" height="701" viewBox="0 0 1400 701" fill="none" xmlns="http://www.w3.org/2000/svg">
<rect y="0.297119" width="1400" height="700" fill="url(#paint0_linear)"/>
<path d="M1133.76 99.4732L1133.52 99.3475L1133.29 99.4811L999.301 176.008L999.043 176.156L999.048 176.457L1001.56 323.186L1001.57 323.474L1001.81 323.615L1138.46 402.513L1138.71 402.654L1138.95 402.514L1278.83 322.355L1279.08 322.208L1279.08 321.908L1276.56 175.178L1276.56 174.878L1276.3 174.74L1133.76 99.4732Z" stroke="#0984E3"/>
<path d="M587.727 60.0447L587.489 59.9191L587.256 60.0526L497.932 111.071L497.673 111.218L497.679 111.519L499.355 209.339L499.36 209.626L499.606 209.768L590.706 262.366L590.95 262.507L591.194 262.367L684.444 208.928L684.702 208.781L684.697 208.48L683.02 110.661L683.015 110.361L682.753 110.222L587.727 60.0447Z" stroke="#DEAC70"/>
<path d="M118.609 596.443L118.371 596.318L118.137 596.451L91.3401 611.757L91.082 611.904L91.0871 612.205L91.5901 641.551L91.595 641.838L91.8408 641.98L119.171 657.76L119.415 657.901L119.66 657.76L147.634 641.729L147.892 641.581L147.887 641.281L147.384 611.935L147.379 611.635L147.117 611.497L118.609 596.443Z" stroke="#0984E3"/>
<path d="M828.466 367.522L828.228 367.396L827.994 367.53L819.062 372.631L818.803 372.779L818.809 373.08L818.976 382.862L818.981 383.149L819.227 383.291L828.337 388.551L828.581 388.692L828.826 388.551L838.151 383.208L838.408 383.06L838.403 382.76L838.235 372.978L838.23 372.678L837.968 372.539L828.466 367.522Z" stroke="#32AB9C"/>
<path d="M820.879 494.8L820.641 494.675L820.407 494.808L753.414 533.072L753.156 533.219L753.161 533.52L754.418 606.885L754.423 607.172L754.669 607.314L822.994 646.763L823.238 646.904L823.482 646.764L893.42 606.684L893.677 606.537L893.672 606.237L892.415 532.872L892.41 532.572L892.148 532.434L820.879 494.8Z" stroke="#B007A8"/>
<path d="M1288.36 520.148L1288.12 520.022L1287.88 520.156L1274.49 527.809L1274.23 527.956L1274.23 528.257L1274.48 542.93L1274.49 543.217L1274.74 543.359L1288.4 551.249L1288.64 551.39L1288.89 551.25L1302.88 543.234L1303.13 543.086L1303.13 542.786L1302.88 528.113L1302.87 527.813L1302.61 527.675L1288.36 520.148Z" stroke="#DEAC70"/>
<defs>
<linearGradient id="paint0_linear" x1="-8.3125" y1="335.297" x2="1388.19" y2="337.977" gradientUnits="userSpaceOnUse">
<stop stop-color="#08031F"/>
<stop offset="1" stop-color="#271A56"/>
</linearGradient>
</defs>
</svg>
