<svg width="527" height="101" viewBox="0 0 527 101" fill="none" xmlns="http://www.w3.org/2000/svg">
<rect width="527" height="101" fill="#333333"/>
<path d="M64 6H32.84L7 95H38.92L64 6Z" fill="#FF0000"/>
<path d="M102 6H70.84L45 95H76.92L102 6Z" fill="white"/>
<path d="M139.564 6.30707H108.404L82.5643 95.3071H114.484L139.564 6.30707Z" fill="#121CFF"/>
<path d="M151.355 58.455H137.705L134.765 65H132.07L143.27 40.5H145.825L157.025 65H154.295L151.355 58.455ZM150.41 56.355L144.53 43.195L138.65 56.355H150.41ZM178.753 62.76V65H158.663V63.215L174.903 42.74H158.908V40.5H178.333V42.285L162.128 62.76H178.753ZM183.876 40.5H186.466V65H183.876V40.5ZM209.802 58.455H196.152L193.212 65H190.517L201.717 40.5H204.272L215.472 65H212.742L209.802 58.455ZM208.857 56.355L202.977 43.195L197.097 56.355H208.857ZM223.055 42.74H214.445V40.5H234.255V42.74H225.645V65H223.055V42.74ZM238.392 40.5H240.982V65H238.392V40.5ZM259.594 65.21C257.167 65.21 254.974 64.6733 253.014 63.6C251.077 62.5267 249.549 61.045 248.429 59.155C247.332 57.2417 246.784 55.1067 246.784 52.75C246.784 50.3933 247.332 48.27 248.429 46.38C249.549 44.4667 251.089 42.9733 253.049 41.9C255.009 40.8267 257.202 40.29 259.629 40.29C261.449 40.29 263.129 40.5933 264.669 41.2C266.209 41.8067 267.516 42.6933 268.589 43.86L266.944 45.505C265.031 43.5683 262.616 42.6 259.699 42.6C257.762 42.6 256.001 43.0433 254.414 43.93C252.827 44.8167 251.579 46.03 250.669 47.57C249.782 49.11 249.339 50.8367 249.339 52.75C249.339 54.6633 249.782 56.39 250.669 57.93C251.579 59.47 252.827 60.6833 254.414 61.57C256.001 62.4567 257.762 62.9 259.699 62.9C262.639 62.9 265.054 61.92 266.944 59.96L268.589 61.605C267.516 62.7717 266.197 63.67 264.634 64.3C263.094 64.9067 261.414 65.21 259.594 65.21ZM303.745 40.5V65H301.19V53.695H285.86V65H283.27V40.5H285.86V51.42H301.19V40.5H303.745ZM327.107 58.455H313.457L310.517 65H307.822L319.022 40.5H321.577L332.777 65H330.047L327.107 58.455ZM326.162 56.355L320.282 43.195L314.402 56.355H326.162ZM336.83 40.5H339.42V65H336.83V40.5ZM364.121 65L358.521 57.125C357.891 57.195 357.238 57.23 356.561 57.23H349.981V65H347.391V40.5H356.561C359.688 40.5 362.138 41.2467 363.911 42.74C365.685 44.2333 366.571 46.2867 366.571 48.9C366.571 50.8133 366.081 52.435 365.101 53.765C364.145 55.0717 362.768 56.0167 360.971 56.6L366.956 65H364.121ZM356.491 55.025C358.918 55.025 360.773 54.4883 362.056 53.415C363.34 52.3417 363.981 50.8367 363.981 48.9C363.981 46.9167 363.34 45.4 362.056 44.35C360.773 43.2767 358.918 42.74 356.491 42.74H349.981V55.025H356.491ZM388.599 65.21C386.779 65.21 385.029 64.9183 383.349 64.335C381.693 63.7517 380.409 62.9817 379.499 62.025L380.514 60.03C381.401 60.9167 382.579 61.64 384.049 62.2C385.519 62.7367 387.036 63.005 388.599 63.005C390.793 63.005 392.438 62.6083 393.534 61.815C394.631 60.9983 395.179 59.9483 395.179 58.665C395.179 57.685 394.876 56.9033 394.269 56.32C393.686 55.7367 392.963 55.2933 392.099 54.99C391.236 54.6633 390.034 54.3133 388.494 53.94C386.651 53.4733 385.181 53.03 384.084 52.61C382.988 52.1667 382.043 51.5017 381.249 50.615C380.479 49.7283 380.094 48.5267 380.094 47.01C380.094 45.7733 380.421 44.6533 381.074 43.65C381.728 42.6233 382.731 41.8067 384.084 41.2C385.438 40.5933 387.118 40.29 389.124 40.29C390.524 40.29 391.889 40.4883 393.219 40.885C394.573 41.2583 395.739 41.7833 396.719 42.46L395.844 44.525C394.818 43.8483 393.721 43.3467 392.554 43.02C391.388 42.67 390.244 42.495 389.124 42.495C386.978 42.495 385.356 42.915 384.259 43.755C383.186 44.5717 382.649 45.6333 382.649 46.94C382.649 47.92 382.941 48.7133 383.524 49.32C384.131 49.9033 384.878 50.3583 385.764 50.685C386.674 50.9883 387.888 51.3267 389.404 51.7C391.201 52.1433 392.648 52.5867 393.744 53.03C394.864 53.45 395.809 54.1033 396.579 54.99C397.349 55.8533 397.734 57.0317 397.734 58.525C397.734 59.7617 397.396 60.8933 396.719 61.92C396.066 62.9233 395.051 63.7283 393.674 64.335C392.298 64.9183 390.606 65.21 388.599 65.21ZM407.796 42.74H399.186V40.5H418.996V42.74H410.386V65H407.796V42.74ZM432.525 65.21C429.352 65.21 426.878 64.3 425.105 62.48C423.332 60.66 422.445 58.0117 422.445 54.535V40.5H425.035V54.43C425.035 57.2767 425.677 59.4 426.96 60.8C428.243 62.2 430.098 62.9 432.525 62.9C434.975 62.9 436.842 62.2 438.125 60.8C439.408 59.4 440.05 57.2767 440.05 54.43V40.5H442.57V54.535C442.57 58.0117 441.683 60.66 439.91 62.48C438.16 64.3 435.698 65.21 432.525 65.21ZM450.375 40.5H460.35C462.94 40.5 465.226 41.025 467.21 42.075C469.193 43.1017 470.733 44.5483 471.83 46.415C472.926 48.2583 473.475 50.37 473.475 52.75C473.475 55.13 472.926 57.2533 471.83 59.12C470.733 60.9633 469.193 62.41 467.21 63.46C465.226 64.4867 462.94 65 460.35 65H450.375V40.5ZM460.21 62.76C462.356 62.76 464.235 62.34 465.845 61.5C467.455 60.6367 468.703 59.4583 469.59 57.965C470.476 56.4483 470.92 54.71 470.92 52.75C470.92 50.79 470.476 49.0633 469.59 47.57C468.703 46.0533 467.455 44.875 465.845 44.035C464.235 43.1717 462.356 42.74 460.21 42.74H452.965V62.76H460.21ZM479.291 40.5H481.881V65H479.291V40.5ZM500.562 65.21C498.136 65.21 495.931 64.6733 493.947 63.6C491.987 62.5033 490.447 61.01 489.327 59.12C488.231 57.23 487.682 55.1067 487.682 52.75C487.682 50.3933 488.231 48.27 489.327 46.38C490.447 44.49 491.987 43.0083 493.947 41.935C495.931 40.8383 498.136 40.29 500.562 40.29C502.989 40.29 505.171 40.8267 507.107 41.9C509.067 42.9733 510.607 44.4667 511.727 46.38C512.847 48.27 513.407 50.3933 513.407 52.75C513.407 55.1067 512.847 57.2417 511.727 59.155C510.607 61.045 509.067 62.5267 507.107 63.6C505.171 64.6733 502.989 65.21 500.562 65.21ZM500.562 62.9C502.499 62.9 504.249 62.4683 505.812 61.605C507.376 60.7183 508.601 59.505 509.487 57.965C510.374 56.4017 510.817 54.6633 510.817 52.75C510.817 50.8367 510.374 49.11 509.487 47.57C508.601 46.0067 507.376 44.7933 505.812 43.93C504.249 43.0433 502.499 42.6 500.562 42.6C498.626 42.6 496.864 43.0433 495.277 43.93C493.714 44.7933 492.477 46.0067 491.567 47.57C490.681 49.11 490.237 50.8367 490.237 52.75C490.237 54.6633 490.681 56.4017 491.567 57.965C492.477 59.505 493.714 60.7183 495.277 61.605C496.864 62.4683 498.626 62.9 500.562 62.9Z" fill="white"/>
</svg>
