<svg width="1516" height="347" viewBox="0 0 1516 347" fill="none" xmlns="http://www.w3.org/2000/svg">
<path d="M0.669123 346.11V0.510155H261.789C280.989 0.510155 297.629 7.55015 311.709 21.6301C325.789 35.3902 332.829 52.0302 332.829 71.5502V136.35C332.829 140.51 332.509 144.51 331.869 148.35C331.549 151.87 330.749 155.23 329.469 158.43C334.269 164.51 338.269 171.55 341.469 179.55C344.669 187.55 346.269 195.55 346.269 203.55V275.07C346.269 294.59 339.229 311.39 325.149 325.47C311.069 339.23 294.269 346.11 274.749 346.11H0.669123ZM90.9091 271.23H255.069C265.629 271.23 270.909 271.23 270.909 271.23C270.909 271.23 270.909 265.95 270.909 255.39V223.71C270.909 213.15 270.909 207.87 270.909 207.87C270.909 207.87 265.629 207.87 255.069 207.87H90.9091C80.3491 207.87 75.0691 207.87 75.0691 207.87C75.0691 207.87 75.0691 213.15 75.0691 223.71V255.39C75.0691 265.95 75.0691 271.23 75.0691 271.23C75.0691 271.23 80.3491 271.23 90.9091 271.23ZM90.9091 132.99H241.629C252.189 132.99 257.469 132.99 257.469 132.99C257.469 132.99 257.469 127.71 257.469 117.15V91.2302C257.469 80.6702 257.469 75.3902 257.469 75.3902C257.469 75.3902 252.189 75.3902 241.629 75.3902H90.9091C80.3491 75.3902 75.0691 75.3902 75.0691 75.3902C75.0691 75.3902 75.0691 80.6702 75.0691 91.2302V117.15C75.0691 127.71 75.0691 132.99 75.0691 132.99C75.0691 132.99 80.3491 132.99 90.9091 132.99ZM399.084 346.11V0.0301609H473.484V271.23H744.684V346.11H399.084ZM842.747 346.11C823.227 346.11 806.427 339.23 792.347 325.47C778.587 311.39 771.707 294.59 771.707 275.07V71.5502C771.707 52.0302 778.587 35.3902 792.347 21.6301C806.427 7.55015 823.227 0.510155 842.747 0.510155H1046.27C1065.47 0.510155 1082.11 7.55015 1096.19 21.6301C1110.27 35.3902 1117.31 52.0302 1117.31 71.5502V275.07C1117.31 294.59 1110.27 311.39 1096.19 325.47C1082.11 339.23 1065.47 346.11 1046.27 346.11H842.747ZM861.947 271.23H1026.11C1036.67 271.23 1041.95 271.23 1041.95 271.23C1041.95 271.23 1041.95 265.95 1041.95 255.39V91.2302C1041.95 80.6702 1041.95 75.3902 1041.95 75.3902C1041.95 75.3902 1036.67 75.3902 1026.11 75.3902H861.947C851.387 75.3902 846.107 75.3902 846.107 75.3902C846.107 75.3902 846.107 80.6702 846.107 91.2302V255.39C846.107 265.95 846.107 271.23 846.107 271.23C846.107 271.23 851.387 271.23 861.947 271.23ZM1241.21 346.11C1221.69 346.11 1204.89 339.23 1190.81 325.47C1177.05 311.39 1170.17 294.59 1170.17 275.07V71.5502C1170.17 52.0302 1177.05 35.3902 1190.81 21.6301C1204.89 7.55015 1221.69 0.510155 1241.21 0.510155H1444.25C1463.77 0.510155 1480.57 7.55015 1494.65 21.6301C1508.73 35.3902 1515.77 52.0302 1515.77 71.5502V104.19H1440.41V91.2302C1440.41 80.6702 1440.41 75.3902 1440.41 75.3902C1440.41 75.3902 1435.13 75.3902 1424.57 75.3902H1260.41C1249.85 75.3902 1244.57 75.3902 1244.57 75.3902C1244.57 75.3902 1244.57 80.6702 1244.57 91.2302V255.39C1244.57 265.95 1244.57 271.23 1244.57 271.23C1244.57 271.23 1249.85 271.23 1260.41 271.23H1424.57C1435.13 271.23 1440.41 271.23 1440.41 271.23C1440.41 271.23 1440.41 265.95 1440.41 255.39V219.39H1365.53V144.51H1515.77V275.07C1515.77 294.59 1508.73 311.39 1494.65 325.47C1480.57 339.23 1463.77 346.11 1444.25 346.11H1241.21Z" fill="white" fill-opacity="0.06"/>
</svg>
