<svg width="1057" height="1011" viewBox="0 0 1057 1011" fill="none" xmlns="http://www.w3.org/2000/svg">
<g opacity="0.15">
<path d="M228.735 334.131L220.577 159.393L363.985 240.341L370.235 410.858L228.735 334.131ZM372.146 410.838L365.897 240.371L512.77 172.267L513.738 324.698L372.146 410.838ZM373.165 93.1093L511.463 170.607L364.957 238.541L221.851 157.764L373.165 93.1093Z" stroke="#E5E5E5" stroke-width="2"/>
<path d="M525.086 325.727L524.081 171.43L666.48 244.865L666.622 405.281L525.086 325.727ZM668.532 405.318L668.389 244.853L823.556 161.498L823.556 322.089L668.532 405.318ZM671.582 90.373L822.213 159.895L667.426 243.046L525.306 169.755L671.582 90.373Z" stroke="#E5E5E5" stroke-width="2"/>
<path d="M681.921 584.22L678.424 414.581L824.024 497.505L823.548 663.25L681.921 584.22ZM825.458 663.231L825.933 497.524L981.102 414.168L981.102 574.776L825.458 663.231ZM823.602 334.525L979.829 412.527L824.993 495.704L679.536 412.861L823.602 334.525Z" stroke="#E5E5E5" stroke-width="2"/>
<path d="M380.916 585.011L376.94 420.234L520.382 501.201L524.511 672.354L380.916 585.011ZM526.422 672.378L522.292 501.173L668.033 416.021L672.009 580.847L526.422 672.378ZM517.233 331.163L666.882 414.328L521.314 499.378L377.938 418.449L517.233 331.163Z" stroke="#E5E5E5" stroke-width="2"/>
<path d="M80.2081 589.978L76.2324 425.2L219.674 506.167L223.803 677.32L80.2081 589.978ZM225.714 677.345L221.584 506.139L367.325 420.988L371.302 585.814L225.714 677.345ZM216.525 336.129L366.174 419.294L220.606 504.345L77.2307 423.415L216.525 336.129Z" stroke="#E5E5E5" stroke-width="2"/>
<path d="M234.686 851.697L230.71 686.883L373.866 764.072L378.279 939.038L234.686 851.697ZM380.191 939.065L375.776 764.044L521.802 682.671L525.78 847.533L380.191 939.065ZM376.123 595.576L520.664 680.963L374.798 762.248L231.751 685.117L376.123 595.576Z" stroke="#E5E5E5" stroke-width="2"/>
<path d="M824.595 675.727L672.854 591.4L531.592 679.919M824.595 675.727L676.97 761.98M824.595 675.727L828.627 842.864L681.158 935.578M676.97 761.98L531.592 679.919M676.97 761.98L681.158 935.578M531.592 679.919L535.624 847.056L681.158 935.578" stroke="#E5E5E5" stroke-width="2"/>
</g>
</svg>
