<?xml version="1.0" encoding="UTF-8"?><svg version="1.1" id="Layer_1" xmlns="http://www.w3.org/2000/svg" xmlns:xlink="http://www.w3.org/1999/xlink" x="0px" y="0px" viewBox="0 0 1000 1000" style="enable-background:new 0 0 1000 1000;" xml:space="preserve" width="1000px" height="1000px">

<g>
	<g id="Layer_1_1_">
		<ellipse cx="500" cy="660.7" rx="325" ry="29" style="fill:#493B3B;"/>
		<path d="M335.5,354.6h52c8.8,0,16,7.2,16,16v14l0,0h-84l0,0v-14C319.5,361.8,326.7,354.6,335.5,354.6z" style="fill:#C1A7A7;"/>
		<g>
			<path d="M403.5,387.6h-84c-1.7,0-3-1.3-3-3v-14c0-10.5,8.5-19,19-19h52c10.5,0,19,8.5,19,19v14
				C406.5,386.3,405.1,387.6,403.5,387.6z M322.5,381.6h78v-11c0-7.2-5.8-13-13-13h-52c-7.2,0-13,5.8-13,13V381.6z" style="fill:#493B3B;"/>
		</g>
		<g>
			<path d="M398.8,386.6c-1.1,0-2-0.9-2-2v-26.8c0-1.1,0.9-2,2-2s2,0.9,2,2v26.8C400.8,385.7,400,386.6,398.8,386.6z" style="fill:#493B3B;"/>
		</g>
		<g>
			<path d="M389.8,386.6c-1.1,0-2-0.9-2-2v-26.8c0-1.1,0.9-2,2-2s2,0.9,2,2v26.8C391.8,385.7,391,386.6,389.8,386.6z" style="fill:#493B3B;"/>
		</g>
		<g>
			<path d="M380.8,386.6c-1.1,0-2-0.9-2-2v-26.8c0-1.1,0.9-2,2-2s2,0.9,2,2v26.8C382.8,385.7,382,386.6,380.8,386.6z" style="fill:#493B3B;"/>
		</g>
		<g>
			<path d="M371.8,386.6c-1.1,0-2-0.9-2-2v-26.8c0-1.1,0.9-2,2-2s2,0.9,2,2v26.8C373.8,385.7,373,386.6,371.8,386.6z" style="fill:#493B3B;"/>
		</g>
		<g>
			<path d="M362.8,386.6c-1.1,0-2-0.9-2-2v-26.8c0-1.1,0.9-2,2-2s2,0.9,2,2v26.8C364.8,385.7,364,386.6,362.8,386.6z" style="fill:#493B3B;"/>
		</g>
		<g>
			<path d="M353.8,386.6c-1.1,0-2-0.9-2-2v-26.8c0-1.1,0.9-2,2-2s2,0.9,2,2v26.8C355.8,385.7,355,386.6,353.8,386.6z" style="fill:#493B3B;"/>
		</g>
		<g>
			<path d="M344.8,386.6c-1.1,0-2-0.9-2-2v-26.8c0-1.1,0.9-2,2-2s2,0.9,2,2v26.8C346.8,385.7,346,386.6,344.8,386.6z" style="fill:#493B3B;"/>
		</g>
		<g>
			<path d="M335.8,386.6c-1.1,0-2-0.9-2-2v-26.8c0-1.1,0.9-2,2-2s2,0.9,2,2v26.8C337.8,385.7,337,386.6,335.8,386.6z" style="fill:#493B3B;"/>
		</g>
		<g>
			<path d="M326.8,386.6c-1.1,0-2-0.9-2-2v-26.8c0-1.1,0.9-2,2-2s2,0.9,2,2v26.8C328.8,385.7,328,386.6,326.8,386.6z" style="fill:#493B3B;"/>
		</g>
		<path d="M744.9,348.7h-322c-8.9,0-17.2,4.2-22.5,11.3c-11.7,15.5-30,24.7-49.5,24.7h-118v252c0,13.3,10.7,24,24,24
			h488c13.3,0,24-10.7,24-24v-264C768.9,359.4,758.1,348.7,744.9,348.7z" style="fill:#E2A86D;"/>
		<rect x="232.9" y="428.4" width="29" height="204.1" style="fill:#D6975F;"/>
		<rect x="739.9" y="428.4" width="29" height="204.1" style="fill:#D6975F;"/>
		<defs>
			<filter id="Adobe_OpacityMaskFilter" filterUnits="userSpaceOnUse" x="232.9" y="373.6" width="536" height="287">
				<feColorMatrix type="matrix" values="1 0 0 0 0  0 1 0 0 0  0 0 1 0 0  0 0 0 1 0"/>
			</filter>
		</defs>
		<mask maskUnits="userSpaceOnUse" x="232.9" y="373.6" width="536" height="287" id="mask_1_">
			<rect x="232.9" y="428.2" width="536" height="204.4" style="fill:#E2A86D;filter:url(#Adobe_OpacityMaskFilter);"/>
		</mask>
		<g style="mask:url(#mask_1_);">
			<g>
				<path d="M250.3,649.3c-1.3,0-2.6-0.9-2.9-2.3c-0.4-1.6,0.6-3.2,2.2-3.6c2.9-0.7,72.3-19,92.4-83.5
					c17.1-54.9-9.5-117.8-63.2-149.5c-1.4-0.8-1.9-2.7-1.1-4.1c0.8-1.4,2.7-1.9,4.1-1.1c27.4,16.2,49.1,40.9,61,69.5
					c11.8,28.4,13.5,59.2,4.9,86.9c-21.1,67.6-93.6,86.7-96.6,87.5C250.8,649.3,250.5,649.3,250.3,649.3z" style="fill:#CC894C;"/>
			</g>
			<g>
				<path d="M302.4,577.8c-12.5,13.6-30.2,22.9-49.8,26.4c-5.7,1-11.4,1.5-17.1,1.5c-0.8,0-1.7,0-2.5,0v-6
					c6.2,0.2,12.4-0.3,18.6-1.4c18.4-3.2,34.9-12,46.5-24.5c1.1-1.2,3-1.3,4.2-0.2C303.4,574.7,303.5,576.6,302.4,577.8z" style="fill:#CC894C;"/>
			</g>
			<g>
				<path d="M315.2,561.7c-0.5,1.2-1.6,1.9-2.8,1.9c-0.4,0-0.8-0.1-1.1-0.2c-1.5-0.6-2.3-2.4-1.7-3.9
					c5.1-12.7,6.9-26.6,5.2-40.2c-3.1-19.7-15.4-38.5-34.8-53c-13.3-9.9-29.5-17.5-47.1-22.1v-6.2c19,4.8,36.2,12.7,50.7,23.6
					c20.6,15.4,33.8,35.6,37.1,57C322.6,533.1,320.7,548,315.2,561.7z" style="fill:#CC894C;"/>
			</g>
			<g>
				<path d="M295.6,526.8c-1.8,12.3-12.8,26.2-29.4,37c-10.5,6.9-22,11.8-33.3,14.4v-6.1c28.3-7,54.2-28.6,56.8-46.2
					c1.7-11.2-14.2-28.3-29-35.5c-9.2-4.5-18.4-6.5-27.8-5.9v-5.9c10.3-0.6,20.5,1.6,30.4,6.4c7.9,3.9,16.4,10.5,22.5,17.6
					C291.1,508.6,297,517.7,295.6,526.8z" style="fill:#CC894C;"/>
			</g>
			<g>
				<path d="M267.8,528.7c-1.2,6.5-13.9,24.3-34.9,26.5v-6c18.4-2.2,28.4-18.1,29-21.5c2.8-15.3-8.2-23-12.3-26
					c-0.5-0.3-0.9-0.6-1.2-0.9c-1.3-1-1.5-2.9-0.5-4.2c1-1.3,2.9-1.5,4.2-0.5c0.2,0.2,0.5,0.4,1,0.7
					C257.6,500,271.2,509.6,267.8,528.7z" style="fill:#CC894C;"/>
			</g>
			<g>
				<path d="M251.8,520c-1.4,0.8-3.3,0.4-4.1-1c-2.1-3.5-4.8-5.5-8.5-6.2c-1.9-0.4-4-0.4-6.3,0v-6.1
					c3.2-0.4,5.7-0.1,7.5,0.2c5.3,1.1,9.5,4.1,12.4,9C253.7,517.3,253.2,519.2,251.8,520z" style="fill:#CC894C;"/>
			</g>
			<g>
				<path d="M332.5,564.9c-4.7,12-11.5,22.9-20.1,32.4c-23.8,26.2-56.1,34.5-79.6,36.7v-6c22.4-2.2,52.8-10.1,75.1-34.7
					c8.1-9,14.5-19.3,18.9-30.6c0.6-1.5,2.4-2.3,3.9-1.7C332.4,561.6,333.2,563.4,332.5,564.9z" style="fill:#CC894C;"/>
			</g>
			<g>
				<path d="M449,491c-17.2,0-33.6-3.3-48.5-10c-36-16.1-55.8-48.1-66-72.1c-0.7-1.5,0.1-3.3,1.6-3.9
					c1.5-0.7,3.3,0.1,3.9,1.6c9.8,23,28.7,53.6,63,68.9c28.1,12.6,62.3,12.6,96.3,0.1c35.2-12.9,67.9-38.7,92.1-72.6
					c1-1.3,2.8-1.7,4.2-0.7c1.3,1,1.7,2.8,0.7,4.2c-24.9,34.8-58.6,61.4-94.9,74.7C483.7,487.8,466,491,449,491z" style="fill:#CC894C;"/>
			</g>
			<g>
				<path d="M446.4,465c-10.1,0-29.4-2.3-45.2-17.5c-10.3-10.1-17-23.5-18.9-37.8c-0.2-1.6,0.9-3.1,2.6-3.4
					c1.6-0.2,3.1,0.9,3.4,2.6c1.7,13,7.8,25.1,17.1,34.2c17.4,16.7,39.3,16.2,45.6,15.7c1.7-0.1,3.1,1.1,3.2,2.7
					c0.1,1.7-1.1,3.1-2.7,3.2C450.3,464.9,448.6,465,446.4,465z" style="fill:#CC894C;"/>
			</g>
			<g>
				<path d="M397.1,597.3c-0.6,0-1.1-0.2-1.6-0.5c-12.7-8.3-36.4-23.6-36.4-68.6c0-14.6,4.6-23.7,9.2-26.1
					c6.9-3.7,17.4,3.4,33.4,14.2c16.5,11.1,39,26.3,63.9,32.7c39.2,10.1,103.1-20.1,179.9-85c1.3-1.1,3.2-0.9,4.2,0.4
					c1.1,1.3,0.9,3.2-0.4,4.2c-100.4,84.9-156.2,93.8-185.3,86.3c-25.8-6.7-48.9-22.2-65.7-33.5c-11.6-7.8-23.5-15.9-27.2-13.9
					c-1.9,1-6,7.7-6,20.9c0,41.7,21.1,55.4,33.7,63.6c1.4,0.9,1.8,2.8,0.9,4.1C399,596.8,398.1,597.3,397.1,597.3z" style="fill:#CC894C;"/>
			</g>
			<g>
				<path d="M679.2,415c-0.2-1.7-1.7-2.8-3.4-2.6c-41.3,5.3-98.4,21.5-135.5,68.6c-1.2,1.6-7.7,9.9-13.2,18.9
					c-8,13.2-10,21.3-6.2,25.5c0.7,0.8,1.7,1.3,2.8,1.3h0.1c3,0,5.9-2.8,14.6-11.4c15.1-15,43.3-43,84.3-58
					c11.7-4.3,23.9-7.4,36.2-9.2c1.6-0.2,2.8-1.8,2.5-3.4s-1.8-2.8-3.4-2.5c-12.8,1.9-25.4,5-37.5,9.5c-42.2,15.5-71,44.1-86.4,59.4
					c-3.5,3.5-7,7-9.2,8.7c0-2.2,1.2-6.9,7.2-16.7c5.3-8.7,11.6-16.8,12.8-18.3c19.8-25.1,58.6-57.1,131.5-66.4
					C678.3,418.1,679.4,416.6,679.2,415z" style="fill:#CC894C;"/>
			</g>
			<g>
				<path d="M386.2,659c-0.2,0.5-0.4,1.1-0.6,1.6h-6.4c5.6-13,5.6-24.8,0.6-32.2c-7.6-11.3-25.7-10.7-25.9-10.7
					c-18.9,0.8-36.4,17.8-45.5,42.8H302c9.7-28.4,29.7-47.9,51.6-48.8c0.9,0,21.7-0.8,31.1,13.3C390.4,633.5,390.9,645.9,386.2,659z
					" style="fill:#CC894C;"/>
			</g>
			<g>
				<path d="M427.1,660.7H421c-0.7-9.4-3.8-19.1-9.2-28.5c-12.5-21.7-36.6-34-61.4-31.4c-1.7,0.2-3.1-1-3.3-2.7
					c-0.2-1.6,1-3.1,2.7-3.3c27.2-2.9,53.6,10.6,67.3,34.4C423,639.6,426.4,650.2,427.1,660.7z" style="fill:#CC894C;"/>
			</g>
			<g>
				<path d="M676.4,475.3c-4.6,5.2-26.3,21.7-35.3,26.7c-14.6,8.3-25,12.3-34.2,15.9c-18.1,7.1-30.1,11.8-59.1,44.6
					c-10.8,12.3-20.9,32.8-32.6,56.5c-6.6,13.4-13.7,27.7-21.5,41.7h-6.9c8.4-14.8,16-30.1,23-44.3c11.9-24.1,22.2-44.9,33.5-57.8
					c29.9-33.9,42.4-38.8,61.4-46.2c9-3.5,19.1-7.5,33.4-15.5c8.2-4.6,29.6-20.8,33.7-25.5c1.1-1.2,3-1.4,4.2-0.3
					C677.4,472.2,677.5,474,676.4,475.3z" style="fill:#CC894C;"/>
			</g>
			<g>
				<path d="M686.5,461.3c-0.6,0-1.3-0.2-1.8-0.6c-1.3-1-1.6-2.9-0.6-4.2c21.9-28.5,33.8-56.2,34.5-80
					c0.1-1.7,1.4-3,3.1-2.9c1.7,0.1,3,1.4,2.9,3.1c-0.8,25-13.2,53.9-35.8,83.4C688.3,460.9,687.4,461.3,686.5,461.3z" style="fill:#CC894C;"/>
			</g>
			<g>
				<path d="M686.7,551.9c-1.5,39.7,22.5,80.3,62.8,108.3c-1.5,0.3-3.1,0.5-4.7,0.5H740
					c-38.2-28.9-60.8-69.2-59.2-108.9c0.5-13.5,4.2-34.3,18.5-57c19.2-30.5,47.8-45.7,69.7-53.2v6.4c-20.6,7.4-46.8,21.9-64.6,50.1
					C690.7,519.5,687.2,539.2,686.7,551.9z" style="fill:#CC894C;"/>
			</g>
			<g>
				<path d="M768.9,632.5v4.1c0,0.9,0,1.8-0.2,2.6c-23.9-13-41.4-32.6-47.6-54.6c-0.5-1.6,0.5-3.2,2.1-3.7
					c1.6-0.4,3.2,0.5,3.7,2.1C732.5,602.7,747.8,620.3,768.9,632.5z" style="fill:#CC894C;"/>
			</g>
			<g>
				<path d="M768.9,500.8v6.7c-19.5,9.3-36.4,23.9-41.7,41.5c-1.6,5.3-2.4,10.7-2.6,16.2c0,1.6-1.4,2.9-3,2.9h-0.1
					c-1.7,0-3-1.4-2.9-3.1c0.1-6,1.1-12,2.8-17.8c4-13.3,13.9-25.8,28.8-36.1C755.9,507.3,762.2,503.8,768.9,500.8z" style="fill:#CC894C;"/>
			</g>
			<g>
				<path d="M671.4,608.7c-5.6,10.4-6.8,22.7-8,35.7c-0.5,5.4-1,10.8-1.8,16.2h-6.1c0.9-5.5,1.4-11.2,2-16.8
					c1.2-13,2.5-26.5,8.6-38c8.4-15.7,10.4-27.4,5.3-32.1c-4.7-4.3-15.2-2.5-25.7,4.4c-17.7,11.6-46.2,36.3-63.1,82.4h-6.4
					c17.3-49,47.6-75.3,66.2-87.4c13.2-8.6,26.2-10.1,33.1-3.8C680.6,574.2,684.2,584.9,671.4,608.7z" style="fill:#CC894C;"/>
			</g>
			<g>
				<path d="M754.2,564.9c0.7,5.1,6.2,10.3,14.7,14.4v6.6c-11-4.8-19.5-11.6-20.6-20.1c-1.3-9.3,6.3-20.4,20.6-29.1v7.2
					C758.6,550.9,753.4,559,754.2,564.9z" style="fill:#CC894C;"/>
			</g>
			<g>
				<path d="M768.9,411.5v6.5c-24.4,10.2-46.6,25.2-65,44.3c-23.5,24.3-40.4,54.5-48.7,87.3c-0.4,1.4-1.6,2.3-2.9,2.3
					c-0.2,0-0.5,0-0.7-0.1c-1.6-0.4-2.6-2-2.2-3.6c8.6-33.8,26-64.9,50.2-90C719.2,437.8,742.9,422,768.9,411.5z" style="fill:#CC894C;"/>
			</g>
			<g>
				<path d="M624.7,639.4c-1.5,0-2.8-1.1-3-2.7c-1.9-18.4,5.7-34.4,17.6-37.2c2.1-0.5,7-0.6,10.8,2.4
					c3.4,2.7,5.1,7,5.1,12.9c0,1.7-1.3,3-3,3s-3-1.3-3-3c0-3.9-1-6.7-2.8-8.2c-2.4-1.9-5.7-1.3-5.7-1.3c-7.8,1.8-14.8,13.8-13,30.8
					c0.2,1.6-1,3.1-2.7,3.3C624.9,639.4,624.8,639.4,624.7,639.4z" style="fill:#CC894C;"/>
			</g>
		</g>
		<path d="M440.4,593.7l-50.3,22.2c-12.1,5.4-26.3-0.1-31.6-12.3l0,0c-5.4-12.1,0.1-26.3,12.3-31.6l50.3-22.2l0,0
			L440.4,593.7L440.4,593.7z" style="fill:#E5D6D6;"/>
		<g>
			<path d="M380.4,620.9c-10.4,0-20.3-6-24.7-16.1c-6-13.6,0.2-29.6,13.8-35.6l50.3-22.2c1.5-0.7,3.3,0,4,1.5l19.4,43.9
				c0.3,0.7,0.3,1.6,0.1,2.3c-0.3,0.7-0.9,1.3-1.6,1.7l-50.3,22.2C387.8,620.2,384.1,620.9,380.4,620.9z M419.5,553.7l-47.6,21
				c-10.6,4.7-15.4,17.1-10.7,27.7c4.7,10.6,17.1,15.4,27.7,10.7l47.6-21L419.5,553.7z" style="fill:#493B3B;"/>
		</g>
		<circle cx="380.4" cy="593.9" r="14.4" style="fill:#EFE6E6;"/>
		<g>
			<path d="M380.4,610.3c-9.1,0-16.4-7.4-16.4-16.4s7.4-16.4,16.4-16.4s16.4,7.4,16.4,16.4S389.5,610.3,380.4,610.3z
				 M380.4,581.5c-6.8,0-12.4,5.6-12.4,12.4s5.6,12.4,12.4,12.4s12.4-5.6,12.4-12.4S387.3,581.5,380.4,581.5z" style="fill:#493B3B;"/>
		</g>
		<path d="M232.9,632.5v4.1c0,13.3,10.7,24,24,24h488c13.3,0,24-10.7,24-24v-4.1H232.9z" style="fill:#E5D6D6;"/>
		<path d="M500.9,431.3c-62.7,0-113.5,51-113.5,113.8c0,7.9,0.8,15.7,2.4,23.4l-19.1,8.4c-12.1,5.4-17.6,19.5-12.3,31.6
			l0,0c5.4,12.1,19.5,17.6,31.6,12.3l19.2-8.5c21.3,29.3,55.4,46.6,91.6,46.6c62.7,0,113.5-51,113.5-113.8S563.6,431.3,500.9,431.3z
			" style="opacity:0.2;fill:#2D2D2D;stroke:#2D2D2D;stroke-width:8;stroke-linecap:round;stroke-linejoin:round;enable-background:new    ;"/>
		<path d="M739.9,632.5h29l0,0v4.1c0,13.3-10.7,24-24,24h-5l0,0V632.5L739.9,632.5z" style="fill:#DBC8C8;"/>
		<path d="M256.9,660.7h5v-28.1h-29v4.1C232.9,649.9,243.6,660.7,256.9,660.7z" style="fill:#DBC8C8;"/>
		<path d="M744.9,348.4h-322c-8.9,0-17.2,4.3-22.5,11.4c-11.7,15.6-30,24.8-49.5,24.8h-118v43.8h536v-55.9
			C768.9,359.3,758.2,348.5,744.9,348.4C744.9,348.4,744.9,348.4,744.9,348.4z" style="fill:#E5D6D6;"/>
		<rect x="232.9" y="385.6" width="29" height="42.8" style="fill:#DBC8C8;"/>
		<path d="M265.1,406h335c1.8,0,3.3,1.5,3.3,3.3v0c0,1.8-1.5,3.3-3.3,3.3h-335c-1.8,0-3.3-1.5-3.3-3.3v0
			C261.9,407.5,263.3,406,265.1,406z" style="fill:#C1A7A7;"/>
		<path d="M744.8,348.4h-5v80h29v-56C768.8,359.2,758.1,348.4,744.8,348.4z" style="fill:#DBC8C8;"/>
		<ellipse cx="500.9" cy="528.2" rx="113.5" ry="113.8" style="fill:#E5D6D6;"/>
		<circle cx="500.9" cy="528.2" r="91" style="fill:#845B5B;"/>
		<path d="M500.9,457.2c46.4,0.1,85.3,34.9,90.4,81c5.5-50-30.5-94.9-80.5-100.4c-50-5.5-94.9,30.5-100.4,80.5
			c-0.7,6.6-0.7,13.3,0,20C415.6,492.1,454.5,457.2,500.9,457.2z" style="fill:#704848;"/>
		<g>
			<path d="M744.9,663.7h-488c-14.9,0-27-12.1-27-27v-252c0-1.7,1.3-3,3-3h118c0,0,0,0,0,0c18.4,0,36-8.8,47-23.5
				c5.8-7.8,15.1-12.5,24.9-12.5h322l0,0c14.9,0,27,12.1,27,27v264C771.9,651.5,759.8,663.7,744.9,663.7z M235.9,387.7v249
				c0,11.6,9.4,21,21,21h488c11.6,0,21-9.4,21-21v-264c0-11.6-9.4-21-21-21h-322c-7.9,0-15.4,3.8-20.1,10.1
				c-12.2,16.2-31.6,25.9-51.8,25.9c0,0,0,0,0,0H235.9z" style="fill:#493B3B;"/>
		</g>
		<g>
			<path d="M500.9,632.2c-57.3,0-104-46.7-104-104s46.7-104,104-104c57.3,0,104,46.7,104,104S558.2,632.2,500.9,632.2z
				 M500.9,427.2c-55.7,0-101,45.3-101,101s45.3,101,101,101c55.7,0,101-45.3,101-101S556.6,427.2,500.9,427.2z" style="fill:#493B3B;"/>
		</g>
		<g>
			<path d="M500.9,623.2c-52.4,0-95-42.6-95-95c0-52.4,42.6-95,95-95s95,42.6,95,95
				C595.9,580.5,553.3,623.2,500.9,623.2z M500.9,441.2c-48,0-87,39-87,87c0,48,39,87,87,87s87-39,87-87
				C587.9,480.2,548.9,441.2,500.9,441.2z" style="fill:#493B3B;"/>
		</g>
		<circle cx="500.9" cy="528.2" r="62" style="fill:#B57F7F;"/>
		<path d="M543.6,528.2c30,0,46.5,35,27.3,58c-32,38.7-89.3,44.1-128,12.1c-4.4-3.6-8.5-7.7-12.1-12.1
			c-19.2-23.1-2.6-58,27.4-58H543.6z" style="opacity:0.34;fill:#FFFFFF;enable-background:new    ;"/>
		<path d="M500.9,486.2c30.4,0,56.2,22,61.2,52c5.5-33.8-17.4-65.7-51.1-71.2s-65.7,17.4-71.2,51.1
			c-1.1,6.6-1.1,13.4,0,20.1C444.6,508.2,470.5,486.2,500.9,486.2z" style="fill:#AD6D6D;"/>
		<g>
			<path d="M500.9,593.2c-35.8,0-65-29.2-65-65c0-35.8,29.2-65,65-65s65,29.2,65,65C565.9,564,536.7,593.2,500.9,593.2z
				 M500.9,469.2c-32.5,0-59,26.5-59,59c0,32.5,26.5,59,59,59s59-26.5,59-59C559.9,495.6,533.4,469.2,500.9,469.2z" style="fill:#493B3B;"/>
		</g>
		
			<ellipse transform="matrix(0.1602 -0.9871 0.9871 0.1602 -100.6866 937.9811)" cx="500.9" cy="528.2" rx="37" ry="37" style="fill:#4C3535;"/>
		<g>
			<path d="M500.9,566.7c-21.2,0-38.5-17.3-38.5-38.5s17.3-38.5,38.5-38.5s38.5,17.3,38.5,38.5S522.1,566.7,500.9,566.7
				z M500.9,492.7c-19.6,0-35.5,15.9-35.5,35.5s15.9,35.5,35.5,35.5s35.5-15.9,35.5-35.5S520.5,492.7,500.9,492.7z" style="fill:#493B3B;"/>
		</g>
		
			<ellipse transform="matrix(0.1602 -0.9871 0.9871 0.1602 -100.6866 937.981)" cx="500.9" cy="528.2" rx="23.5" ry="23.5" style="fill:#3F2E2E;"/>
		<path d="M262,368.6h40.3c3.3,0,6,2.7,6,6v10l0,0H256l0,0v-10C256,371.3,258.7,368.6,262,368.6z" style="fill:#6A4949;"/>
		<g>
			<path d="M308.3,387.6H256c-1.7,0-3-1.3-3-3v-10c0-5,4-9,9-9h40.3c5,0,9,4,9,9v10C311.3,386.3,310,387.6,308.3,387.6z
				 M259,381.6h46.3v-7c0-1.7-1.3-3-3-3H262c-1.7,0-3,1.3-3,3V381.6z" style="fill:#493B3B;"/>
		</g>
		<g>
			<path d="M300.2,371.6h-36c-1.7,0-3-1.3-3-3v-11.9c0-1.7,1.3-3,3-3h36c1.7,0,3,1.3,3,3v11.9
				C303.2,370.3,301.8,371.6,300.2,371.6z M267.2,365.6h30v-5.9h-30V365.6z" style="fill:#493B3B;"/>
		</g>
		<rect x="264.2" y="356.7" width="36" height="11.9" style="fill:#493B3B;"/>
		<g>
			<path d="M500.9,646c-64.8,0-117.5-52.9-117.5-117.8s52.7-117.8,117.5-117.8s117.5,52.9,117.5,117.8
				S565.7,646,500.9,646z M500.9,418.3c-60.4,0-109.5,49.3-109.5,109.8S440.5,638,500.9,638s109.5-49.3,109.5-109.8
				S561.3,418.3,500.9,418.3z" style="fill:#493B3B;"/>
		</g>
		<path d="M500.9,504.7c-13,0-23.5,10.5-23.5,23.5c0,0.1,0,0.1,0,0.2c3.1-2.6,7.7-4,13.8-3.5c6.1,0.5,7.2,2.4,14,4.4
			c6.4,1.7,13.2,1.1,19.2-1.6C524,514.9,513.6,504.7,500.9,504.7z" style="opacity:0.38;fill:#FFFFFF;enable-background:new    ;"/>
		<g>
			<path d="M500.9,605.7c-42.7,0-77.5-34.8-77.5-77.5s34.8-77.5,77.5-77.5c42.7,0,77.5,34.8,77.5,77.5
				S543.6,605.7,500.9,605.7z M500.9,453.7c-41.1,0-74.5,33.4-74.5,74.5c0,41.1,33.4,74.5,74.5,74.5s74.5-33.4,74.5-74.5
				C575.4,487.1,542,453.7,500.9,453.7z" style="fill:#493B3B;"/>
		</g>
		<g>
			<path d="M500.9,623.2c-52.4,0-95-42.6-95-95c0-52.4,42.6-95,95-95s95,42.6,95,95
				C595.9,580.5,553.3,623.2,500.9,623.2z M500.9,441.2c-48,0-87,39-87,87c0,48,39,87,87,87s87-39,87-87
				C587.9,480.2,548.9,441.2,500.9,441.2z" style="fill:#493B3B;"/>
		</g>
		<path d="M628.6,362.7h85.7c6.5,0,11.8,5.3,11.8,11.8v34.2c0,6.5-5.3,11.8-11.8,11.8h-85.7c-6.5,0-11.8-5.3-11.8-11.8
			v-34.2C616.9,368,622.1,362.7,628.6,362.7z" style="fill:#443636;"/>
		<g>
			<path d="M714.4,422.4h-85.7c-7.6,0-13.8-6.2-13.8-13.8v-34.2c0-7.6,6.2-13.8,13.8-13.8h85.7
				c7.6,0,13.8,6.2,13.8,13.8v34.2C728.2,416.2,722,422.4,714.4,422.4z M628.6,364.7c-5.4,0-9.8,4.4-9.8,9.8v34.2
				c0,5.4,4.4,9.8,9.8,9.8h85.7c5.4,0,9.8-4.4,9.8-9.8v-34.2c0-5.4-4.4-9.8-9.8-9.8H628.6z" style="fill:#493B3B;"/>
		</g>
		<path d="M636.1,368.6h70.7c5.5,0,10,4.5,10,10v25.8c0,5.5-4.5,10-10,10h-70.7c-5.5,0-10-4.5-10-10v-25.8
			C626.2,373.1,630.6,368.6,636.1,368.6z" style="fill:#845B5B;"/>
		<path d="M689.6,414.4l27.2-37.2c-0.7-4.9-4.9-8.6-9.9-8.6h-3.2l-33.4,45.8H689.6z" style="opacity:0.38;fill:#FFFFFF;enable-background:new    ;"/>
		<polygon points="663,414.4 696.4,368.6 690.5,368.6 657.1,414.4 		" style="opacity:0.38;fill:#FFFFFF;enable-background:new    ;"/>
	</g>
</g>
</svg>