<svg width="596" height="679" viewBox="0 0 596 679" fill="none" xmlns="http://www.w3.org/2000/svg">
<path d="M47.1513 36.8154C45.8553 36.8154 44.7513 36.3594 43.8393 35.4474C42.9273 34.5354 42.4713 33.4314 42.4713 32.1354V20.6154C42.4713 19.3194 42.9273 18.2154 43.8393 17.3034C44.7513 16.3914 45.8553 15.9354 47.1513 15.9354H59.0313C60.3273 15.9354 61.4313 16.3914 62.3433 17.3034C63.2553 18.2154 63.7113 19.3194 63.7113 20.6154V32.1354C63.7113 33.4314 63.2553 34.5354 62.3433 35.4474C61.4313 36.3594 60.3273 36.8154 59.0313 36.8154H47.1513ZM47.6913 32.9274H58.4913C59.0193 32.9274 59.3673 32.8434 59.5353 32.6754C59.7033 32.4834 59.7873 32.1234 59.7873 31.5954V21.1554C59.7873 20.6274 59.7033 20.2794 59.5353 20.1114C59.3673 19.9194 59.0193 19.8234 58.4913 19.8234H47.6913C47.1633 19.8234 46.8033 19.9194 46.6113 20.1114C46.4433 20.2794 46.3593 20.6274 46.3593 21.1554V31.5954C46.3593 32.1234 46.4433 32.4834 46.6113 32.6754C46.8033 32.8434 47.1633 32.9274 47.6913 32.9274ZM71.2693 36.8154C69.9733 36.8154 68.8693 36.3594 67.9573 35.4474C67.0453 34.5354 66.5893 33.4314 66.5893 32.1354V9.09543H70.4773V31.5954C70.4773 32.1234 70.5613 32.4834 70.7293 32.6754C70.9213 32.8434 71.2813 32.9274 71.8093 32.9274H75.1573V36.8154H71.2693ZM82.0729 36.8154C80.7769 36.8154 79.6729 36.3594 78.7609 35.4474C77.8489 34.5354 77.3929 33.4314 77.3929 32.1354V20.6154C77.3929 19.3194 77.8489 18.2154 78.7609 17.3034C79.6729 16.3914 80.7769 15.9354 82.0729 15.9354H94.7449V9.09543H98.6329V36.8154H82.0729ZM82.6489 32.9274H93.4489C93.9769 32.9274 94.3249 32.8434 94.4929 32.6754C94.6609 32.4834 94.7449 32.1234 94.7449 31.5954V21.1554C94.7449 20.6274 94.6609 20.2794 94.4929 20.1114C94.3249 19.9194 93.9769 19.8234 93.4489 19.8234H82.6489C82.1209 19.8234 81.7609 19.9194 81.5689 20.1114C81.4009 20.2794 81.3169 20.6274 81.3169 21.1554V31.5954C81.3169 32.1234 81.4009 32.4834 81.5689 32.6754C81.7609 32.8434 82.1209 32.9274 82.6489 32.9274ZM120.486 36.8154L112.278 15.9354H116.418L122.07 29.7594L128.082 15.9354H132.51L138.882 29.7954L144.174 15.9354H148.314L140.466 36.8154H137.298L130.314 21.3354L123.654 36.8154H120.486ZM154.694 36.8154C153.398 36.8154 152.294 36.3594 151.382 35.4474C150.47 34.5354 150.014 33.4314 150.014 32.1354V20.6154C150.014 19.3194 150.47 18.2154 151.382 17.3034C152.294 16.3914 153.398 15.9354 154.694 15.9354H166.574C167.87 15.9354 168.974 16.3914 169.886 17.3034C170.798 18.2154 171.254 19.3194 171.254 20.6154V28.3194H153.902V31.5954C153.902 32.1234 153.986 32.4834 154.154 32.6754C154.346 32.8434 154.706 32.9274 155.234 32.9274H171.254V36.8154H154.694ZM153.902 24.6834H167.33V21.1554C167.33 20.6274 167.246 20.2794 167.078 20.1114C166.91 19.9194 166.562 19.8234 166.034 19.8234H155.234C154.706 19.8234 154.346 19.9194 154.154 20.1114C153.986 20.2794 153.902 20.6274 153.902 21.1554V24.6834ZM175.048 36.8154V9.09543H178.936V15.9354H191.608C192.904 15.9354 194.008 16.3914 194.92 17.3034C195.832 18.2154 196.288 19.3194 196.288 20.6154V32.1354C196.288 33.4314 195.832 34.5354 194.92 35.4474C194.008 36.3594 192.904 36.8154 191.608 36.8154H175.048ZM180.268 32.9274H191.068C191.596 32.9274 191.944 32.8434 192.112 32.6754C192.304 32.4834 192.4 32.1234 192.4 31.5954V21.1554C192.4 20.6274 192.304 20.2794 192.112 20.1114C191.944 19.9194 191.596 19.8234 191.068 19.8234H180.268C179.74 19.8234 179.38 19.9194 179.188 20.1114C179.02 20.2794 178.936 20.6274 178.936 21.1554V31.5954C178.936 32.1234 179.02 32.4834 179.188 32.6754C179.38 32.8434 179.74 32.9274 180.268 32.9274Z" fill="white"/>
<path d="M384.027 36.8154V15.9354H400.587C401.883 15.9354 402.987 16.3914 403.899 17.3034C404.811 18.2154 405.267 19.3194 405.267 20.6154V36.8154H401.379V21.1554C401.379 20.6274 401.283 20.2794 401.091 20.1114C400.923 19.9194 400.575 19.8234 400.047 19.8234H389.247C388.719 19.8234 388.359 19.9194 388.167 20.1114C387.999 20.2794 387.915 20.6274 387.915 21.1554V36.8154H384.027ZM413.279 36.8154C411.983 36.8154 410.879 36.3594 409.967 35.4474C409.055 34.5354 408.599 33.4314 408.599 32.1354V20.6154C408.599 19.3194 409.055 18.2154 409.967 17.3034C410.879 16.3914 411.983 15.9354 413.279 15.9354H425.159C426.455 15.9354 427.559 16.3914 428.471 17.3034C429.383 18.2154 429.839 19.3194 429.839 20.6154V28.3194H412.487V31.5954C412.487 32.1234 412.571 32.4834 412.739 32.6754C412.931 32.8434 413.291 32.9274 413.819 32.9274H429.839V36.8154H413.279ZM412.487 24.6834H425.915V21.1554C425.915 20.6274 425.831 20.2794 425.663 20.1114C425.495 19.9194 425.147 19.8234 424.619 19.8234H413.819C413.291 19.8234 412.931 19.9194 412.739 20.1114C412.571 20.2794 412.487 20.6274 412.487 21.1554V24.6834ZM439.926 36.8154L431.718 15.9354H435.858L441.51 29.7594L447.522 15.9354H451.95L458.322 29.7954L463.614 15.9354H467.754L459.906 36.8154H456.738L449.754 21.3354L443.094 36.8154H439.926ZM488.688 36.8154L480.48 15.9354H484.62L490.272 29.7594L496.284 15.9354H500.712L507.084 29.7954L512.376 15.9354H516.516L508.668 36.8154H505.5L498.516 21.3354L491.856 36.8154H488.688ZM522.896 36.8154C521.6 36.8154 520.496 36.3594 519.584 35.4474C518.672 34.5354 518.216 33.4314 518.216 32.1354V20.6154C518.216 19.3194 518.672 18.2154 519.584 17.3034C520.496 16.3914 521.6 15.9354 522.896 15.9354H534.776C536.072 15.9354 537.176 16.3914 538.088 17.3034C539 18.2154 539.456 19.3194 539.456 20.6154V28.3194H522.104V31.5954C522.104 32.1234 522.188 32.4834 522.356 32.6754C522.548 32.8434 522.908 32.9274 523.436 32.9274H539.456V36.8154H522.896ZM522.104 24.6834H535.532V21.1554C535.532 20.6274 535.448 20.2794 535.28 20.1114C535.112 19.9194 534.764 19.8234 534.236 19.8234H523.436C522.908 19.8234 522.548 19.9194 522.356 20.1114C522.188 20.2794 522.104 20.6274 522.104 21.1554V24.6834ZM543.25 36.8154V9.09543H547.138V15.9354H559.81C561.106 15.9354 562.21 16.3914 563.122 17.3034C564.034 18.2154 564.49 19.3194 564.49 20.6154V32.1354C564.49 33.4314 564.034 34.5354 563.122 35.4474C562.21 36.3594 561.106 36.8154 559.81 36.8154H543.25ZM548.47 32.9274H559.27C559.798 32.9274 560.146 32.8434 560.314 32.6754C560.506 32.4834 560.602 32.1234 560.602 31.5954V21.1554C560.602 20.6274 560.506 20.2794 560.314 20.1114C560.146 19.9194 559.798 19.8234 559.27 19.8234H548.47C547.942 19.8234 547.582 19.9194 547.39 20.1114C547.222 20.2794 547.138 20.6274 547.138 21.1554V31.5954C547.138 32.1234 547.222 32.4834 547.39 32.6754C547.582 32.8434 547.942 32.9274 548.47 32.9274Z" fill="white"/>
<path d="M110.684 393.311C111.66 394.288 113.243 394.288 114.219 393.311L130.129 377.401C131.106 376.425 131.106 374.842 130.129 373.866C129.153 372.889 127.57 372.889 126.594 373.866L112.452 388.008L98.3094 373.866C97.3331 372.889 95.7502 372.889 94.7739 373.866C93.7976 374.842 93.7976 376.425 94.7739 377.401L110.684 393.311ZM109.952 340.119V391.543H114.952V340.119H109.952Z" fill="white"/>
<path d="M114.222 325.234C113.245 324.257 111.662 324.257 110.686 325.234L94.7746 341.142C93.7982 342.118 93.7981 343.701 94.7743 344.678C95.7505 345.654 97.3334 345.654 98.3098 344.678L112.453 330.537L126.594 344.68C127.57 345.657 129.153 345.657 130.13 344.681C131.106 343.705 131.106 342.122 130.13 341.145L114.222 325.234ZM114.949 378.426L114.954 327.002L109.954 327.001L109.949 378.426L114.949 378.426Z" fill="white"/>
<path d="M42.8506 575.832C43.827 576.809 45.4099 576.809 46.3862 575.832L62.2961 559.922C63.2724 558.946 63.2724 557.363 62.2961 556.387C61.3198 555.41 59.7369 555.41 58.7605 556.387L44.6184 570.529L30.4763 556.387C29.5 555.41 27.917 555.41 26.9407 556.387C25.9644 557.363 25.9644 558.946 26.9407 559.922L42.8506 575.832ZM42.1184 522.64V574.064H47.1184V522.64H42.1184Z" fill="white"/>
<path d="M46.3884 507.755C45.4122 506.778 43.8293 506.778 42.8529 507.755L26.9415 523.663C25.9651 524.639 25.965 526.222 26.9412 527.199C27.9174 528.175 29.5003 528.175 30.4767 527.199L44.6202 513.058L58.761 527.201C59.7372 528.178 61.3201 528.178 62.2965 527.202C63.2729 526.226 63.2731 524.643 62.2968 523.666L46.3884 507.755ZM47.1157 560.947L47.1205 509.523L42.1205 509.522L42.1157 560.947L47.1157 560.947Z" fill="white"/>
<path d="M204.877 575.832C205.853 576.809 207.436 576.809 208.412 575.832L224.322 559.922C225.298 558.946 225.298 557.363 224.322 556.387C223.346 555.41 221.763 555.41 220.786 556.387L206.644 570.529L192.502 556.387C191.526 555.41 189.943 555.41 188.967 556.387C187.99 557.363 187.99 558.946 188.967 559.922L204.877 575.832ZM204.144 522.64V574.064H209.144V522.64H204.144Z" fill="white"/>
<path d="M208.414 507.755C207.438 506.778 205.855 506.778 204.879 507.755L188.967 523.663C187.991 524.639 187.991 526.222 188.967 527.199C189.943 528.175 191.526 528.175 192.503 527.199L206.646 513.058L220.787 527.201C221.763 528.178 223.346 528.178 224.322 527.202C225.299 526.226 225.299 524.643 224.323 523.666L208.414 507.755ZM209.142 560.947L209.146 509.523L204.146 509.522L204.142 560.947L209.142 560.947Z" fill="white"/>
<path d="M110.689 221.02C111.665 221.996 113.248 221.996 114.224 221.02L130.134 205.11C131.11 204.133 131.11 202.551 130.134 201.574C129.158 200.598 127.575 200.598 126.598 201.574L112.456 215.716L98.3142 201.574C97.3379 200.598 95.7549 200.598 94.7786 201.574C93.8023 202.551 93.8023 204.133 94.7786 205.11L110.689 221.02ZM109.956 167.828V219.252H114.956V167.828H109.956Z" fill="white"/>
<path d="M114.226 152.942C113.25 151.966 111.667 151.966 110.691 152.942L94.7794 168.85C93.803 169.827 93.8028 171.41 94.7791 172.386C95.7553 173.362 97.3382 173.363 98.3146 172.386L112.458 158.246L126.599 172.389C127.575 173.365 129.158 173.366 130.134 172.389C131.111 171.413 131.111 169.83 130.135 168.854L114.226 152.942ZM114.954 206.135L114.958 154.71L109.958 154.71L109.954 206.134L114.954 206.135Z" fill="white"/>
<path d="M471.931 221.02C472.907 221.996 474.49 221.996 475.466 221.02L491.376 205.11C492.352 204.133 492.352 202.551 491.376 201.574C490.4 200.598 488.817 200.598 487.841 201.574L473.698 215.716L459.556 201.574C458.58 200.598 456.997 200.598 456.021 201.574C455.045 202.551 455.045 204.133 456.021 205.11L471.931 221.02ZM471.198 167.828V219.252H476.198V167.828H471.198Z" fill="white"/>
<path d="M475.468 152.942C474.492 151.966 472.909 151.966 471.933 152.942L456.022 168.85C455.045 169.827 455.045 171.41 456.021 172.386C456.997 173.362 458.58 173.363 459.557 172.386L473.7 158.246L487.841 172.389C488.817 173.365 490.4 173.366 491.377 172.389C492.353 171.413 492.353 169.83 491.377 168.854L475.468 152.942ZM476.196 206.135L476.201 154.71L471.201 154.71L471.196 206.134L476.196 206.135Z" fill="white"/>
<rect x="0.983154" y="68.1226" width="244.265" height="64.2801" rx="32.14" fill="#C4C4C4" fill-opacity="0.7"/>
<rect x="0.983154" y="241.56" width="244.265" height="64.2801" rx="32.14" fill="#C4C4C4" fill-opacity="0.7"/>
<rect x="0.983154" y="412.706" width="244.265" height="64.2801" rx="32.14" fill="#C4C4C4" fill-opacity="0.7"/>
<rect x="1.13654" y="600.992" width="86.9679" height="77.2165" rx="38.6083" fill="#C4C4C4" fill-opacity="0.7"/>
<rect x="168.035" y="602.136" width="85.6794" height="76.0725" rx="38.0362" fill="#C4C4C4" fill-opacity="0.7"/>
<rect x="351.568" y="68.1226" width="244.265" height="64.2801" rx="32.14" fill="#B007A8" fill-opacity="0.7"/>
<rect x="351.568" y="241.559" width="117.562" height="64.2801" rx="32.14" fill="#0984E3" fill-opacity="0.7"/>
<rect x="478.271" y="240.932" width="117.562" height="64.2801" rx="32.14" fill="#32AB9C" fill-opacity="0.7"/>
<path d="M80.1389 109.263C79.2749 109.263 78.5389 108.959 77.9309 108.351C77.3229 107.743 77.0189 107.007 77.0189 106.143V98.4627C77.0189 97.5987 77.3229 96.8627 77.9309 96.2547C78.5389 95.6467 79.2749 95.3427 80.1389 95.3427H91.1309V97.9347H80.4989C80.1469 97.9347 79.9069 97.9987 79.7789 98.1267C79.6669 98.2387 79.6109 98.4707 79.6109 98.8227V105.783C79.6109 106.135 79.6669 106.375 79.7789 106.503C79.9069 106.615 80.1469 106.671 80.4989 106.671H91.1789V109.263H80.1389ZM96.8504 109.263C95.9864 109.263 95.2504 108.959 94.6424 108.351C94.0344 107.743 93.7304 107.007 93.7304 106.143V90.7827H96.3224V105.783C96.3224 106.135 96.3784 106.375 96.4904 106.503C96.6184 106.615 96.8584 106.671 97.2104 106.671H99.4424V109.263H96.8504ZM101.559 109.263V95.3427H104.151V109.263H101.559ZM101.559 93.3747V90.7827H104.151V93.3747H101.559ZM109.928 109.263C109.064 109.263 108.328 108.959 107.72 108.351C107.112 107.743 106.808 107.007 106.808 106.143V98.4627C106.808 97.5987 107.112 96.8627 107.72 96.2547C108.328 95.6467 109.064 95.3427 109.928 95.3427H117.848C118.712 95.3427 119.448 95.6467 120.056 96.2547C120.664 96.8627 120.968 97.5987 120.968 98.4627V103.599H109.4V105.783C109.4 106.135 109.456 106.375 109.568 106.503C109.696 106.615 109.936 106.671 110.288 106.671H120.968V109.263H109.928ZM109.4 101.175H118.352V98.8227C118.352 98.4707 118.296 98.2387 118.184 98.1267C118.072 97.9987 117.84 97.9347 117.488 97.9347H110.288C109.936 97.9347 109.696 97.9987 109.568 98.1267C109.456 98.2387 109.4 98.4707 109.4 98.8227V101.175ZM123.497 109.263V95.3427H134.537C135.401 95.3427 136.137 95.6467 136.745 96.2547C137.353 96.8627 137.657 97.5987 137.657 98.4627V109.263H135.065V98.8227C135.065 98.4707 135.001 98.2387 134.873 98.1267C134.761 97.9987 134.529 97.9347 134.177 97.9347H126.977C126.625 97.9347 126.385 97.9987 126.257 98.1267C126.145 98.2387 126.089 98.4707 126.089 98.8227V109.263H123.497ZM143.304 109.263C142.44 109.263 141.704 108.959 141.096 108.351C140.488 107.743 140.184 107.007 140.184 106.143V90.9507H142.776V95.3427H148.488V97.9347H142.776V105.783C142.776 106.135 142.832 106.375 142.944 106.503C143.072 106.615 143.312 106.671 143.664 106.671H148.488V109.263H143.304Z" fill="black"/>
<path d="M51.1816 282.7L45.7096 268.78H48.4696L52.2376 277.996L56.2456 268.78H59.1976L63.4456 278.02L66.9736 268.78H69.7336L64.5016 282.7H62.3896L57.7336 272.38L53.2936 282.7H51.1816ZM73.9871 282.7C73.1231 282.7 72.3871 282.396 71.7791 281.788C71.1711 281.18 70.8671 280.444 70.8671 279.58V271.9C70.8671 271.036 71.1711 270.3 71.7791 269.692C72.3871 269.084 73.1231 268.78 73.9871 268.78H81.9071C82.7711 268.78 83.5071 269.084 84.1151 269.692C84.7231 270.3 85.0271 271.036 85.0271 271.9V277.036H73.4591V279.22C73.4591 279.572 73.5151 279.812 73.6271 279.94C73.7551 280.052 73.9951 280.108 74.3471 280.108H85.0271V282.7H73.9871ZM73.4591 274.612H82.4111V272.26C82.4111 271.908 82.3551 271.676 82.2431 271.564C82.1311 271.436 81.8991 271.372 81.5471 271.372H74.3471C73.9951 271.372 73.7551 271.436 73.6271 271.564C73.5151 271.676 73.4591 271.908 73.4591 272.26V274.612ZM87.5563 282.7V264.22H90.1483V268.78H98.5963C99.4603 268.78 100.196 269.084 100.804 269.692C101.412 270.3 101.716 271.036 101.716 271.9V279.58C101.716 280.444 101.412 281.18 100.804 281.788C100.196 282.396 99.4603 282.7 98.5963 282.7H87.5563ZM91.0363 280.108H98.2363C98.5883 280.108 98.8203 280.052 98.9323 279.94C99.0603 279.812 99.1243 279.572 99.1243 279.22V272.26C99.1243 271.908 99.0603 271.676 98.9323 271.564C98.8203 271.436 98.5883 271.372 98.2363 271.372H91.0363C90.6843 271.372 90.4443 271.436 90.3163 271.564C90.2043 271.676 90.1483 271.908 90.1483 272.26V279.22C90.1483 279.572 90.2043 279.812 90.3163 279.94C90.4443 280.052 90.6843 280.108 91.0363 280.108ZM113.501 282.7C112.637 282.7 111.901 282.396 111.293 281.788C110.685 281.18 110.381 280.444 110.381 279.58V279.22H112.973V279.364C112.973 279.62 113.029 279.812 113.141 279.94C113.269 280.052 113.461 280.108 113.717 280.108H121.205C121.461 280.108 121.645 280.052 121.757 279.94C121.869 279.812 121.925 279.62 121.925 279.364V277.78C121.925 277.524 121.869 277.34 121.757 277.228C121.645 277.1 121.461 277.036 121.205 277.036H113.501C112.637 277.036 111.901 276.732 111.293 276.124C110.685 275.516 110.381 274.78 110.381 273.916V271.9C110.381 271.036 110.685 270.3 111.293 269.692C111.901 269.084 112.637 268.78 113.501 268.78H121.421C122.285 268.78 123.021 269.084 123.629 269.692C124.237 270.3 124.541 271.036 124.541 271.9V272.26H121.925V272.116C121.925 271.86 121.869 271.676 121.757 271.564C121.645 271.436 121.461 271.372 121.205 271.372H113.717C113.461 271.372 113.269 271.436 113.141 271.564C113.029 271.676 112.973 271.86 112.973 272.116V273.7C112.973 273.956 113.029 274.148 113.141 274.276C113.269 274.388 113.461 274.444 113.717 274.444H121.421C122.285 274.444 123.021 274.748 123.629 275.356C124.237 275.964 124.541 276.7 124.541 277.564V279.58C124.541 280.444 124.237 281.18 123.629 281.788C123.021 282.396 122.285 282.7 121.421 282.7H113.501ZM129.628 282.7C128.764 282.7 128.028 282.396 127.42 281.788C126.812 281.18 126.508 280.444 126.508 279.58V271.9C126.508 271.036 126.812 270.3 127.42 269.692C128.028 269.084 128.764 268.78 129.628 268.78H137.548C138.412 268.78 139.148 269.084 139.756 269.692C140.364 270.3 140.668 271.036 140.668 271.9V277.036H129.1V279.22C129.1 279.572 129.156 279.812 129.268 279.94C129.396 280.052 129.636 280.108 129.988 280.108H140.668V282.7H129.628ZM129.1 274.612H138.052V272.26C138.052 271.908 137.996 271.676 137.884 271.564C137.772 271.436 137.54 271.372 137.188 271.372H129.988C129.636 271.372 129.396 271.436 129.268 271.564C129.156 271.676 129.1 271.908 129.1 272.26V274.612ZM143.008 282.7V271.9C143.008 271.036 143.312 270.3 143.92 269.692C144.528 269.084 145.264 268.78 146.128 268.78H153.904V271.372H146.488C146.136 271.372 145.896 271.436 145.768 271.564C145.656 271.676 145.6 271.908 145.6 272.26V282.7H143.008ZM162.436 282.7L154.756 268.78H157.756L163.732 279.772L169.708 268.78H172.708L165.028 282.7H162.436ZM176.831 282.7C175.967 282.7 175.231 282.396 174.623 281.788C174.015 281.18 173.711 280.444 173.711 279.58V271.9C173.711 271.036 174.015 270.3 174.623 269.692C175.231 269.084 175.967 268.78 176.831 268.78H184.751C185.615 268.78 186.351 269.084 186.959 269.692C187.567 270.3 187.871 271.036 187.871 271.9V277.036H176.303V279.22C176.303 279.572 176.359 279.812 176.471 279.94C176.599 280.052 176.839 280.108 177.191 280.108H187.871V282.7H176.831ZM176.303 274.612H185.255V272.26C185.255 271.908 185.199 271.676 185.087 271.564C184.975 271.436 184.743 271.372 184.391 271.372H177.191C176.839 271.372 176.599 271.436 176.471 271.564C176.359 271.676 176.303 271.908 176.303 272.26V274.612ZM190.211 282.7V271.9C190.211 271.036 190.515 270.3 191.123 269.692C191.731 269.084 192.467 268.78 193.331 268.78H201.107V271.372H193.691C193.339 271.372 193.099 271.436 192.971 271.564C192.859 271.676 192.803 271.908 192.803 272.26V282.7H190.211Z" fill="black"/>
<path d="M53.6673 454.99C52.8033 454.99 52.0673 454.686 51.4593 454.078C50.8513 453.47 50.5473 452.734 50.5473 451.87V446.734H62.0913V444.55C62.0913 444.198 62.0353 443.966 61.9233 443.854C61.8113 443.726 61.5793 443.662 61.2273 443.662H50.5473V441.07H61.5873C62.4513 441.07 63.1873 441.374 63.7953 441.982C64.4033 442.59 64.7073 443.326 64.7073 444.19V454.99H53.6673ZM54.0273 452.398H62.0913V449.158H53.1393V451.51C53.1393 451.862 53.1953 452.102 53.3073 452.23C53.4353 452.342 53.6753 452.398 54.0273 452.398ZM67.2594 460.51V441.07H78.2994C79.1634 441.07 79.8994 441.374 80.5074 441.982C81.1154 442.59 81.4194 443.326 81.4194 444.19V451.87C81.4194 452.734 81.1154 453.47 80.5074 454.078C79.8994 454.686 79.1634 454.99 78.2994 454.99H69.8514V460.51H67.2594ZM70.7394 452.398H77.9394C78.2914 452.398 78.5234 452.342 78.6354 452.23C78.7634 452.102 78.8274 451.862 78.8274 451.51V444.55C78.8274 444.198 78.7634 443.966 78.6354 443.854C78.5234 443.726 78.2914 443.662 77.9394 443.662H70.7394C70.3874 443.662 70.1474 443.726 70.0194 443.854C69.9074 443.966 69.8514 444.198 69.8514 444.55V451.51C69.8514 451.862 69.9074 452.102 70.0194 452.23C70.1474 452.342 70.3874 452.398 70.7394 452.398ZM83.1969 460.51V441.07H94.2369C95.1009 441.07 95.8369 441.374 96.4449 441.982C97.0529 442.59 97.3569 443.326 97.3569 444.19V451.87C97.3569 452.734 97.0529 453.47 96.4449 454.078C95.8369 454.686 95.1009 454.99 94.2369 454.99H85.7889V460.51H83.1969ZM86.6769 452.398H93.8769C94.2289 452.398 94.4609 452.342 94.5729 452.23C94.7009 452.102 94.7649 451.862 94.7649 451.51V444.55C94.7649 444.198 94.7009 443.966 94.5729 443.854C94.4609 443.726 94.2289 443.662 93.8769 443.662H86.6769C86.3249 443.662 86.0849 443.726 85.9569 443.854C85.8449 443.966 85.7889 444.198 85.7889 444.55V451.51C85.7889 451.862 85.8449 452.102 85.9569 452.23C86.0849 452.342 86.3249 452.398 86.6769 452.398ZM109.071 454.99C108.207 454.99 107.471 454.686 106.863 454.078C106.255 453.47 105.951 452.734 105.951 451.87V451.51H108.543V451.654C108.543 451.91 108.599 452.102 108.711 452.23C108.839 452.342 109.031 452.398 109.287 452.398H116.775C117.031 452.398 117.215 452.342 117.327 452.23C117.439 452.102 117.495 451.91 117.495 451.654V450.07C117.495 449.814 117.439 449.63 117.327 449.518C117.215 449.39 117.031 449.326 116.775 449.326H109.071C108.207 449.326 107.471 449.022 106.863 448.414C106.255 447.806 105.951 447.07 105.951 446.206V444.19C105.951 443.326 106.255 442.59 106.863 441.982C107.471 441.374 108.207 441.07 109.071 441.07H116.991C117.855 441.07 118.591 441.374 119.199 441.982C119.807 442.59 120.111 443.326 120.111 444.19V444.55H117.495V444.406C117.495 444.15 117.439 443.966 117.327 443.854C117.215 443.726 117.031 443.662 116.775 443.662H109.287C109.031 443.662 108.839 443.726 108.711 443.854C108.599 443.966 108.543 444.15 108.543 444.406V445.99C108.543 446.246 108.599 446.438 108.711 446.566C108.839 446.678 109.031 446.734 109.287 446.734H116.991C117.855 446.734 118.591 447.038 119.199 447.646C119.807 448.254 120.111 448.99 120.111 449.854V451.87C120.111 452.734 119.807 453.47 119.199 454.078C118.591 454.686 117.855 454.99 116.991 454.99H109.071ZM125.198 454.99C124.334 454.99 123.598 454.686 122.99 454.078C122.382 453.47 122.078 452.734 122.078 451.87V444.19C122.078 443.326 122.382 442.59 122.99 441.982C123.598 441.374 124.334 441.07 125.198 441.07H133.118C133.982 441.07 134.718 441.374 135.326 441.982C135.934 442.59 136.238 443.326 136.238 444.19V449.326H124.67V451.51C124.67 451.862 124.726 452.102 124.838 452.23C124.966 452.342 125.206 452.398 125.558 452.398H136.238V454.99H125.198ZM124.67 446.902H133.622V444.55C133.622 444.198 133.566 443.966 133.454 443.854C133.342 443.726 133.11 443.662 132.758 443.662H125.558C125.206 443.662 124.966 443.726 124.838 443.854C124.726 443.966 124.67 444.198 124.67 444.55V446.902ZM138.579 454.99V444.19C138.579 443.326 138.883 442.59 139.491 441.982C140.099 441.374 140.835 441.07 141.699 441.07H149.475V443.662H142.059C141.707 443.662 141.467 443.726 141.339 443.854C141.227 443.966 141.171 444.198 141.171 444.55V454.99H138.579ZM158.007 454.99L150.327 441.07H153.327L159.303 452.062L165.279 441.07H168.279L160.599 454.99H158.007ZM172.401 454.99C171.537 454.99 170.801 454.686 170.193 454.078C169.585 453.47 169.281 452.734 169.281 451.87V444.19C169.281 443.326 169.585 442.59 170.193 441.982C170.801 441.374 171.537 441.07 172.401 441.07H180.321C181.185 441.07 181.921 441.374 182.529 441.982C183.137 442.59 183.441 443.326 183.441 444.19V449.326H171.873V451.51C171.873 451.862 171.929 452.102 172.041 452.23C172.169 452.342 172.409 452.398 172.761 452.398H183.441V454.99H172.401ZM171.873 446.902H180.825V444.55C180.825 444.198 180.769 443.966 180.657 443.854C180.545 443.726 180.313 443.662 179.961 443.662H172.761C172.409 443.662 172.169 443.726 172.041 443.854C171.929 443.966 171.873 444.198 171.873 444.55V446.902ZM185.782 454.99V444.19C185.782 443.326 186.086 442.59 186.694 441.982C187.302 441.374 188.038 441.07 188.902 441.07H196.678V443.662H189.262C188.91 443.662 188.67 443.726 188.542 443.854C188.43 443.966 188.374 444.198 188.374 444.55V454.99H185.782Z" fill="black"/>
<path d="M32.2799 648.6C31.4159 648.6 30.6799 648.296 30.0719 647.688C29.4639 647.08 29.1599 646.344 29.1599 645.48V637.8C29.1599 636.936 29.4639 636.2 30.0719 635.592C30.6799 634.984 31.4159 634.68 32.2799 634.68H40.7279V630.12H43.3199V648.6H32.2799ZM32.6639 646.008H39.8639C40.2159 646.008 40.4479 645.952 40.5599 645.84C40.6719 645.712 40.7279 645.472 40.7279 645.12V638.16C40.7279 637.808 40.6719 637.576 40.5599 637.464C40.4479 637.336 40.2159 637.272 39.8639 637.272H32.6639C32.3119 637.272 32.0719 637.336 31.9439 637.464C31.8319 637.576 31.7759 637.808 31.7759 638.16V645.12C31.7759 645.472 31.8319 645.712 31.9439 645.84C32.0719 645.952 32.3119 646.008 32.6639 646.008ZM45.9117 648.6V630.12H48.5037V634.68H56.9517C57.8157 634.68 58.5517 634.984 59.1597 635.592C59.7677 636.2 60.0717 636.936 60.0717 637.8V645.48C60.0717 646.344 59.7677 647.08 59.1597 647.688C58.5517 648.296 57.8157 648.6 56.9517 648.6H45.9117ZM49.3917 646.008H56.5917C56.9437 646.008 57.1757 645.952 57.2877 645.84C57.4157 645.712 57.4797 645.472 57.4797 645.12V638.16C57.4797 637.808 57.4157 637.576 57.2877 637.464C57.1757 637.336 56.9437 637.272 56.5917 637.272H49.3917C49.0397 637.272 48.7997 637.336 48.6717 637.464C48.5597 637.576 48.5037 637.808 48.5037 638.16V645.12C48.5037 645.472 48.5597 645.712 48.6717 645.84C48.7997 645.952 49.0397 646.008 49.3917 646.008Z" fill="black"/>
<path d="M186.918 649.172C186.054 649.172 185.318 648.868 184.71 648.26C184.102 647.652 183.798 646.916 183.798 646.052V638.372C183.798 637.508 184.102 636.772 184.71 636.164C185.318 635.556 186.054 635.252 186.918 635.252H197.91V637.844H187.278C186.926 637.844 186.686 637.908 186.558 638.036C186.446 638.148 186.39 638.38 186.39 638.732V645.692C186.39 646.044 186.446 646.284 186.558 646.412C186.686 646.524 186.926 646.58 187.278 646.58H197.958V649.172H186.918ZM200.558 649.172V635.252H218.342C219.206 635.252 219.942 635.556 220.55 636.164C221.158 636.772 221.462 637.508 221.462 638.372V649.172H218.894V638.732C218.894 638.38 218.83 638.148 218.702 638.036C218.59 637.908 218.358 637.844 218.006 637.844H213.23C212.862 637.844 212.622 637.908 212.51 638.036C212.398 638.148 212.342 638.38 212.342 638.732V649.172H209.726V638.732C209.726 638.38 209.662 638.148 209.534 638.036C209.422 637.908 209.19 637.844 208.838 637.844H204.038C203.686 637.844 203.454 637.908 203.342 638.036C203.23 638.148 203.174 638.38 203.174 638.732V649.172H200.558ZM226.995 649.172C226.131 649.172 225.395 648.868 224.787 648.26C224.179 647.652 223.875 646.916 223.875 646.052V645.692H226.467V645.836C226.467 646.092 226.523 646.284 226.635 646.412C226.763 646.524 226.955 646.58 227.211 646.58H234.699C234.955 646.58 235.139 646.524 235.251 646.412C235.363 646.284 235.419 646.092 235.419 645.836V644.252C235.419 643.996 235.363 643.812 235.251 643.7C235.139 643.572 234.955 643.508 234.699 643.508H226.995C226.131 643.508 225.395 643.204 224.787 642.596C224.179 641.988 223.875 641.252 223.875 640.388V638.372C223.875 637.508 224.179 636.772 224.787 636.164C225.395 635.556 226.131 635.252 226.995 635.252H234.915C235.779 635.252 236.515 635.556 237.123 636.164C237.731 636.772 238.035 637.508 238.035 638.372V638.732H235.419V638.588C235.419 638.332 235.363 638.148 235.251 638.036C235.139 637.908 234.955 637.844 234.699 637.844H227.211C226.955 637.844 226.763 637.908 226.635 638.036C226.523 638.148 226.467 638.332 226.467 638.588V640.172C226.467 640.428 226.523 640.62 226.635 640.748C226.763 640.86 226.955 640.916 227.211 640.916H234.915C235.779 640.916 236.515 641.22 237.123 641.828C237.731 642.436 238.035 643.172 238.035 644.036V646.052C238.035 646.916 237.731 647.652 237.123 648.26C236.515 648.868 235.779 649.172 234.915 649.172H226.995Z" fill="black"/>
<path d="M441.388 109.263C440.524 109.263 439.788 108.959 439.18 108.351C438.572 107.743 438.268 107.007 438.268 106.143V98.4627C438.268 97.5987 438.572 96.8627 439.18 96.2547C439.788 95.6467 440.524 95.3427 441.388 95.3427H452.38V97.9347H441.748C441.396 97.9347 441.156 97.9987 441.028 98.1267C440.916 98.2387 440.86 98.4707 440.86 98.8227V105.783C440.86 106.135 440.916 106.375 441.028 106.503C441.156 106.615 441.396 106.671 441.748 106.671H452.428V109.263H441.388ZM458.1 109.263C457.236 109.263 456.5 108.959 455.892 108.351C455.284 107.743 454.98 107.007 454.98 106.143V90.7827H457.572V105.783C457.572 106.135 457.628 106.375 457.74 106.503C457.868 106.615 458.108 106.671 458.46 106.671H460.692V109.263H458.1ZM462.808 109.263V95.3427H465.4V109.263H462.808ZM462.808 93.3747V90.7827H465.4V93.3747H462.808ZM471.177 109.263C470.313 109.263 469.577 108.959 468.969 108.351C468.361 107.743 468.057 107.007 468.057 106.143V98.4627C468.057 97.5987 468.361 96.8627 468.969 96.2547C469.577 95.6467 470.313 95.3427 471.177 95.3427H479.097C479.961 95.3427 480.697 95.6467 481.305 96.2547C481.913 96.8627 482.217 97.5987 482.217 98.4627V103.599H470.649V105.783C470.649 106.135 470.705 106.375 470.817 106.503C470.945 106.615 471.185 106.671 471.537 106.671H482.217V109.263H471.177ZM470.649 101.175H479.601V98.8227C479.601 98.4707 479.545 98.2387 479.433 98.1267C479.321 97.9987 479.089 97.9347 478.737 97.9347H471.537C471.185 97.9347 470.945 97.9987 470.817 98.1267C470.705 98.2387 470.649 98.4707 470.649 98.8227V101.175ZM484.746 109.263V95.3427H495.786C496.65 95.3427 497.386 95.6467 497.994 96.2547C498.602 96.8627 498.906 97.5987 498.906 98.4627V109.263H496.314V98.8227C496.314 98.4707 496.25 98.2387 496.122 98.1267C496.01 97.9987 495.778 97.9347 495.426 97.9347H488.226C487.874 97.9347 487.634 97.9987 487.506 98.1267C487.394 98.2387 487.338 98.4707 487.338 98.8227V109.263H484.746ZM504.553 109.263C503.689 109.263 502.953 108.959 502.345 108.351C501.737 107.743 501.433 107.007 501.433 106.143V90.9507H504.025V95.3427H509.737V97.9347H504.025V105.783C504.025 106.135 504.081 106.375 504.193 106.503C504.321 106.615 504.561 106.671 504.913 106.671H509.737V109.263H504.553Z" fill="white"/>
<path d="M481.883 278.7V270.58H492.257C492.761 270.58 493.19 270.757 493.545 271.112C493.9 271.466 494.077 271.896 494.077 272.4V278.7H492.579V272.61C492.579 272.404 492.542 272.269 492.467 272.204C492.402 272.129 492.266 272.092 492.061 272.092H489.275C489.06 272.092 488.92 272.129 488.855 272.204C488.79 272.269 488.757 272.404 488.757 272.61V278.7H487.231V272.61C487.231 272.404 487.194 272.269 487.119 272.204C487.054 272.129 486.918 272.092 486.713 272.092H483.913C483.708 272.092 483.572 272.129 483.507 272.204C483.442 272.269 483.409 272.404 483.409 272.61V278.7H481.883ZM495.541 278.7V270.58H497.053V278.7H495.541ZM495.541 269.432V267.92H497.053V269.432H495.541ZM500.286 278.7C499.782 278.7 499.353 278.522 498.998 278.168C498.643 277.813 498.466 277.384 498.466 276.88V272.4C498.466 271.896 498.643 271.466 498.998 271.112C499.353 270.757 499.782 270.58 500.286 270.58H506.698V272.092H500.496C500.291 272.092 500.151 272.129 500.076 272.204C500.011 272.269 499.978 272.404 499.978 272.61V276.67C499.978 276.875 500.011 277.015 500.076 277.09C500.151 277.155 500.291 277.188 500.496 277.188H506.726V278.7H500.286ZM508.16 278.7V272.4C508.16 271.896 508.337 271.466 508.692 271.112C509.046 270.757 509.476 270.58 509.98 270.58H514.516V272.092H510.19C509.984 272.092 509.844 272.129 509.77 272.204C509.704 272.269 509.672 272.404 509.672 272.61V278.7H508.16ZM517.184 278.7C516.68 278.7 516.251 278.522 515.896 278.168C515.542 277.813 515.364 277.384 515.364 276.88V272.4C515.364 271.896 515.542 271.466 515.896 271.112C516.251 270.757 516.68 270.58 517.184 270.58H521.804C522.308 270.58 522.738 270.757 523.092 271.112C523.447 271.466 523.624 271.896 523.624 272.4V276.88C523.624 277.384 523.447 277.813 523.092 278.168C522.738 278.522 522.308 278.7 521.804 278.7H517.184ZM517.394 277.188H521.594C521.8 277.188 521.935 277.155 522 277.09C522.066 277.015 522.098 276.875 522.098 276.67V272.61C522.098 272.404 522.066 272.269 522 272.204C521.935 272.129 521.8 272.092 521.594 272.092H517.394C517.189 272.092 517.049 272.129 516.974 272.204C516.909 272.269 516.876 272.404 516.876 272.61V276.67C516.876 276.875 516.909 277.015 516.974 277.09C517.049 277.155 517.189 277.188 517.394 277.188ZM526.535 278.7C526.031 278.7 525.602 278.522 525.247 278.168C524.892 277.813 524.715 277.384 524.715 276.88V276.67H526.227V276.754C526.227 276.903 526.26 277.015 526.325 277.09C526.4 277.155 526.512 277.188 526.661 277.188H531.029C531.178 277.188 531.286 277.155 531.351 277.09C531.416 277.015 531.449 276.903 531.449 276.754V275.83C531.449 275.68 531.416 275.573 531.351 275.508C531.286 275.433 531.178 275.396 531.029 275.396H526.535C526.031 275.396 525.602 275.218 525.247 274.864C524.892 274.509 524.715 274.08 524.715 273.576V272.4C524.715 271.896 524.892 271.466 525.247 271.112C525.602 270.757 526.031 270.58 526.535 270.58H531.155C531.659 270.58 532.088 270.757 532.443 271.112C532.798 271.466 532.975 271.896 532.975 272.4V272.61H531.449V272.526C531.449 272.376 531.416 272.269 531.351 272.204C531.286 272.129 531.178 272.092 531.029 272.092H526.661C526.512 272.092 526.4 272.129 526.325 272.204C526.26 272.269 526.227 272.376 526.227 272.526V273.45C526.227 273.599 526.26 273.711 526.325 273.786C526.4 273.851 526.512 273.884 526.661 273.884H531.155C531.659 273.884 532.088 274.061 532.443 274.416C532.798 274.77 532.975 275.2 532.975 275.704V276.88C532.975 277.384 532.798 277.813 532.443 278.168C532.088 278.522 531.659 278.7 531.155 278.7H526.535ZM535.942 278.7C535.438 278.7 535.009 278.522 534.654 278.168C534.3 277.813 534.122 277.384 534.122 276.88V272.4C534.122 271.896 534.3 271.466 534.654 271.112C535.009 270.757 535.438 270.58 535.942 270.58H540.562C541.066 270.58 541.496 270.757 541.85 271.112C542.205 271.466 542.382 271.896 542.382 272.4V275.396H535.634V276.67C535.634 276.875 535.667 277.015 535.732 277.09C535.807 277.155 535.947 277.188 536.152 277.188H542.382V278.7H535.942ZM535.634 273.982H540.856V272.61C540.856 272.404 540.824 272.269 540.758 272.204C540.693 272.129 540.558 272.092 540.352 272.092H536.152C535.947 272.092 535.807 272.129 535.732 272.204C535.667 272.269 535.634 272.404 535.634 272.61V273.982ZM543.748 278.7V272.4C543.748 271.896 543.925 271.466 544.28 271.112C544.634 270.757 545.064 270.58 545.568 270.58H550.104V272.092H545.778C545.572 272.092 545.432 272.129 545.358 272.204C545.292 272.269 545.26 272.404 545.26 272.61V278.7H543.748ZM555.081 278.7L550.601 270.58H552.351L555.837 276.992L559.323 270.58H561.073L556.593 278.7H555.081ZM562.15 278.7V270.58H563.662V278.7H562.15ZM562.15 269.432V267.92H563.662V269.432H562.15ZM566.895 278.7C566.391 278.7 565.962 278.522 565.607 278.168C565.253 277.813 565.075 277.384 565.075 276.88V272.4C565.075 271.896 565.253 271.466 565.607 271.112C565.962 270.757 566.391 270.58 566.895 270.58H573.307V272.092H567.105C566.9 272.092 566.76 272.129 566.685 272.204C566.62 272.269 566.587 272.404 566.587 272.61V276.67C566.587 276.875 566.62 277.015 566.685 277.09C566.76 277.155 566.9 277.188 567.105 277.188H573.335V278.7H566.895ZM576.274 278.7C575.77 278.7 575.341 278.522 574.986 278.168C574.632 277.813 574.454 277.384 574.454 276.88V272.4C574.454 271.896 574.632 271.466 574.986 271.112C575.341 270.757 575.77 270.58 576.274 270.58H580.894C581.398 270.58 581.828 270.757 582.182 271.112C582.537 271.466 582.714 271.896 582.714 272.4V275.396H575.966V276.67C575.966 276.875 575.999 277.015 576.064 277.09C576.139 277.155 576.279 277.188 576.484 277.188H582.714V278.7H576.274ZM575.966 273.982H581.188V272.61C581.188 272.404 581.156 272.269 581.09 272.204C581.025 272.129 580.89 272.092 580.684 272.092H576.484C576.279 272.092 576.139 272.129 576.064 272.204C575.999 272.269 575.966 272.404 575.966 272.61V273.982ZM585.871 278.7C585.367 278.7 584.938 278.522 584.583 278.168C584.228 277.813 584.051 277.384 584.051 276.88V276.67H585.563V276.754C585.563 276.903 585.596 277.015 585.661 277.09C585.736 277.155 585.848 277.188 585.997 277.188H590.365C590.514 277.188 590.622 277.155 590.687 277.09C590.752 277.015 590.785 276.903 590.785 276.754V275.83C590.785 275.68 590.752 275.573 590.687 275.508C590.622 275.433 590.514 275.396 590.365 275.396H585.871C585.367 275.396 584.938 275.218 584.583 274.864C584.228 274.509 584.051 274.08 584.051 273.576V272.4C584.051 271.896 584.228 271.466 584.583 271.112C584.938 270.757 585.367 270.58 585.871 270.58H590.491C590.995 270.58 591.424 270.757 591.779 271.112C592.134 271.466 592.311 271.896 592.311 272.4V272.61H590.785V272.526C590.785 272.376 590.752 272.269 590.687 272.204C590.622 272.129 590.514 272.092 590.365 272.092H585.997C585.848 272.092 585.736 272.129 585.661 272.204C585.596 272.269 585.563 272.376 585.563 272.526V273.45C585.563 273.599 585.596 273.711 585.661 273.786C585.736 273.851 585.848 273.884 585.997 273.884H590.491C590.995 273.884 591.424 274.061 591.779 274.416C592.134 274.77 592.311 275.2 592.311 275.704V276.88C592.311 277.384 592.134 277.813 591.779 278.168C591.424 278.522 590.995 278.7 590.491 278.7H585.871Z" fill="white"/>
<path d="M389.99 282.7C389.126 282.7 388.39 282.396 387.782 281.788C387.174 281.18 386.87 280.444 386.87 279.58V271.9C386.87 271.036 387.174 270.3 387.782 269.692C388.39 269.084 389.126 268.78 389.99 268.78H400.982V271.372H390.35C389.998 271.372 389.758 271.436 389.63 271.564C389.518 271.676 389.462 271.908 389.462 272.26V279.22C389.462 279.572 389.518 279.812 389.63 279.94C389.758 280.052 389.998 280.108 390.35 280.108H401.03V282.7H389.99ZM406.005 282.7C405.141 282.7 404.405 282.396 403.797 281.788C403.189 281.18 402.885 280.444 402.885 279.58V271.9C402.885 271.036 403.189 270.3 403.797 269.692C404.405 269.084 405.141 268.78 406.005 268.78H414.453V264.22H417.045V282.7H406.005ZM406.389 280.108H413.589C413.941 280.108 414.173 280.052 414.285 279.94C414.397 279.812 414.453 279.572 414.453 279.22V272.26C414.453 271.908 414.397 271.676 414.285 271.564C414.173 271.436 413.941 271.372 413.589 271.372H406.389C406.037 271.372 405.797 271.436 405.669 271.564C405.557 271.676 405.501 271.908 405.501 272.26V279.22C405.501 279.572 405.557 279.812 405.669 279.94C405.797 280.052 406.037 280.108 406.389 280.108ZM419.637 282.7V268.78H430.677C431.541 268.78 432.277 269.084 432.885 269.692C433.493 270.3 433.797 271.036 433.797 271.9V282.7H431.205V272.26C431.205 271.908 431.141 271.676 431.013 271.564C430.901 271.436 430.669 271.372 430.317 271.372H423.117C422.765 271.372 422.525 271.436 422.397 271.564C422.285 271.676 422.229 271.908 422.229 272.26V282.7H419.637Z" fill="white"/>
</svg>
