<svg width="123" height="122" viewBox="0 0 123 122" fill="none" xmlns="http://www.w3.org/2000/svg">
<g clip-path="url(#clip0)">
<path d="M120.892 58.2473L92.6789 28.6021C90.9449 26.7781 88.0505 26.6949 86.2114 28.4161C84.3752 30.1359 84.2899 33.008 86.0253 34.8306L111.275 61.36L86.0253 87.8924C84.2899 89.715 84.3752 92.5857 86.2114 94.3069C87.0959 95.1343 88.2259 95.5441 89.3515 95.5441C90.567 95.5441 91.7808 95.0662 92.6791 94.1237L120.892 64.4771C122.555 62.7274 122.555 59.9956 120.892 58.2473Z" fill="white"/>
<path d="M36.255 87.8911L11.007 61.36L36.255 34.8292C37.9889 33.0066 37.9051 30.1343 36.0674 28.4147C34.2312 26.695 31.3337 26.7781 29.6 28.6007L1.38729 58.2459C-0.276396 59.9943 -0.276396 62.7274 1.38729 64.476L29.6014 94.1226C30.5011 95.0679 31.7135 95.5444 32.929 95.5444C34.0544 95.5444 35.1846 95.1329 36.0674 94.3055C37.9067 92.5857 37.9889 89.7136 36.255 87.8911Z" fill="white"/>
<path d="M68.5411 13.3137C66.0446 12.9386 63.7082 14.6385 63.327 17.1146L49.9069 104.235C49.5257 106.713 51.2413 109.028 53.7392 109.406C53.9742 109.441 54.2058 109.458 54.4362 109.458C56.6582 109.458 58.6071 107.85 58.9533 105.606L72.3734 18.4851C72.7546 16.0074 71.039 13.6918 68.5411 13.3137Z" fill="white"/>
</g>
<defs>
<clipPath id="clip0">
<rect width="122" height="121" fill="white" transform="translate(0.139404 0.859863)"/>
</clipPath>
</defs>
</svg>
