<svg width="169" height="169" viewBox="0 0 169 169" fill="none" xmlns="http://www.w3.org/2000/svg">
<path d="M83.9675 27.616L83.4898 27.3634L83.0167 27.6245L31.1365 56.2649L30.6198 56.5501L30.6198 57.1404L30.6198 112.5L30.6198 113.077L31.1192 113.366L82.9994 143.366L83.4894 143.649L83.9845 143.375L138.147 113.375L138.662 113.089L138.662 112.5L138.662 57.1403L138.662 56.5379L138.13 56.2563L83.9675 27.616Z" fill="url(#paint0_linear)" stroke="#B007A8" stroke-width="2"/>
<path d="M61.712 110V63.92H99.408C101.712 63.92 103.675 64.7307 105.296 66.352C106.96 67.9733 107.792 69.936 107.792 72.24V101.68C107.792 103.984 106.96 105.947 105.296 107.568C103.675 109.189 101.712 110 99.408 110H61.712ZM70.992 103.088H98.448C99.3867 103.088 100.005 102.939 100.304 102.64C100.645 102.299 100.816 101.659 100.816 100.72V73.2C100.816 72.2613 100.645 71.6427 100.304 71.344C100.005 71.0027 99.3867 70.832 98.448 70.832H70.992C70.0533 70.832 69.4133 71.0027 69.072 71.344C68.7733 71.6427 68.624 72.2613 68.624 73.2V100.72C68.624 101.659 68.7733 102.299 69.072 102.64C69.4133 102.939 70.0533 103.088 70.992 103.088Z" fill="white"/>
<defs>
<linearGradient id="paint0_linear" x1="134.5" y1="38.5" x2="-34" y2="181.5" gradientUnits="userSpaceOnUse">
<stop stop-color="#0984E3"/>
<stop offset="0.216535" stop-color="#B007A8" stop-opacity="0.74"/>
<stop offset="0.424098" stop-color="#32AB9C" stop-opacity="0.85"/>
<stop offset="0.551911" stop-color="#DEAC70" stop-opacity="0.88"/>
</linearGradient>
</defs>
</svg>
