<svg width="318" height="318" viewBox="0 0 318 318" fill="none" xmlns="http://www.w3.org/2000/svg">
<path d="M154.186 47.6385L153.703 47.3937L153.233 47.6624L52.6523 105.203L52.1338 105.499L52.1495 106.095L55.0207 214.739L55.0358 215.308L55.5346 215.585L159.157 273.127L159.652 273.403L160.144 273.121L265.143 212.853L265.661 212.557L265.645 211.962L262.774 103.317L262.758 102.723L262.227 102.454L154.186 47.6385Z" stroke="#B007A8" stroke-width="2"/>
<path d="M83.5668 241.445L83.7345 241.959L84.2567 242.1L195.911 272.267L196.489 272.423L196.899 271.988L271.589 192.819L271.979 192.405L271.823 191.859L239.284 77.8309L239.129 77.2864L238.582 77.1395L121.882 45.7883L121.305 45.6333L120.895 46.0678L46.2055 125.237L45.798 125.669L45.9822 126.233L83.5668 241.445Z" stroke="#0984E3" stroke-width="2"/>
<path d="M241.41 234.461L241.924 234.293L242.063 233.771L271.879 121.962L272.033 121.386L271.598 120.976L192.332 46.1831L191.917 45.7913L191.369 45.9482L77.5885 78.5317L77.0446 78.6875L76.8996 79.2344L45.9145 196.096L45.7618 196.671L46.1959 197.081L125.462 271.874L125.896 272.283L126.461 272.098L241.41 234.461Z" stroke="#0984E3" stroke-width="2"/>
<path d="M123.965 196.03V126.91H180.509C183.965 126.91 186.909 128.126 189.341 130.558C191.837 132.99 193.085 135.934 193.085 139.39V183.55C193.085 187.006 191.837 189.95 189.341 192.382C186.909 194.814 183.965 196.03 180.509 196.03H123.965ZM137.885 185.662H179.069C180.477 185.662 181.405 185.438 181.853 184.99C182.365 184.478 182.621 183.518 182.621 182.11V140.83C182.621 139.422 182.365 138.494 181.853 138.046C181.405 137.534 180.477 137.278 179.069 137.278H137.885C136.477 137.278 135.517 137.534 135.005 138.046C134.557 138.494 134.333 139.422 134.333 140.83V182.11C134.333 183.518 134.557 184.478 135.005 184.99C135.517 185.438 136.477 185.662 137.885 185.662Z" fill="#0984E3"/>
</svg>
