<?xml version="1.0" encoding="iso-8859-1"?>
<!-- Generator: Adobe Illustrator 19.0.0, SVG Export Plug-In . SVG Version: 6.00 Build 0)  -->
<svg version="1.1" id="Capa_1" xmlns="http://www.w3.org/2000/svg" xmlns:xlink="http://www.w3.org/1999/xlink" x="0px" y="0px"
	 viewBox="0 0 512 512" style="enable-background:new 0 0 512 512;" xml:space="preserve">
<circle style="fill:#00ABE9;" cx="256" cy="256" r="256"/>
<path style="fill:#0080AF;" d="M512,256c0-6.357-0.24-12.658-0.696-18.899L417,142.797L95,369.203l142.101,142.101
	C243.342,511.76,249.643,512,256,512C397.385,512,512,397.385,512,256z"/>
<polygon style="fill:#FDBF00;" points="218.816,222.393 172.238,169.918 95,143.976 95,368.023 159.266,346.798 199.359,307.885 
	223.027,256 "/>
<polygon style="fill:#FF9F00;" points="349.196,170.508 299.08,220.624 288.973,256 296.132,294.324 355.387,353.579 417,368.024 
	417,143.976 "/>
<polygon style="fill:#FFD400;" points="417,368.071 417,369.203 95,369.203 95,368.071 223.108,256 288.892,256 "/>
<polygon style="fill:#FDBF00;" points="417,368.071 417,369.203 256,369.203 256,256 288.892,256 "/>
<polygon style="fill:#5A5A5A;" points="417,142.797 417,143.929 256,284.301 95,143.929 95,142.797 "/>
<polygon style="fill:#444444;" points="417,142.797 417,143.929 256,284.301 256,142.797 "/>
<g>
</g>
<g>
</g>
<g>
</g>
<g>
</g>
<g>
</g>
<g>
</g>
<g>
</g>
<g>
</g>
<g>
</g>
<g>
</g>
<g>
</g>
<g>
</g>
<g>
</g>
<g>
</g>
<g>
</g>
</svg>
