<svg xmlns="http://www.w3.org/2000/svg" viewBox="0 0 319.13 65.24"><defs><style>.cls-1{fill:#ffd85f;}.cls-2{fill:#3bb4e7;}.cls-3{fill:#ed5c68;}.cls-4{fill:#308bc5;}.cls-5{fill:#d5465f;}.cls-6{fill:#2a3039;fill-rule:evenodd;}</style></defs><title>Asset 4</title><g id="Layer_2" data-name="Layer 2"><g id="Layer_1-2" data-name="Layer 1"><path class="cls-1" d="M19.63,45.47a18.21,18.21,0,0,1-5.28-12.92,18,18,0,0,1,5.37-12.87A7.17,7.17,0,1,0,9.61,9.52a32.58,32.58,0,0,0-.14,46.07A7.17,7.17,0,1,0,19.63,45.47Z"/><path class="cls-2" d="M19.72,19.68a18.26,18.26,0,0,1,25.8.09A7.17,7.17,0,1,0,55.68,9.66a32.46,32.46,0,0,0-46-.19A7.17,7.17,0,0,0,19.72,19.68Z"/><path class="cls-3" d="M45.47,45.56a18.25,18.25,0,0,1-25.79-.09A7.17,7.17,0,1,0,9.52,55.59a32.53,32.53,0,0,0,46.07.18A7.19,7.19,0,0,0,45.47,45.56Z"/><path class="cls-4" d="M19.72,19.68a7.17,7.17,0,1,1,.05-10.12A7.19,7.19,0,0,1,19.72,19.68Z"/><path class="cls-5" d="M19.59,55.59a7.17,7.17,0,1,1,0-10.12A7.19,7.19,0,0,1,19.59,55.59Z"/><path class="cls-6" d="M87.63,39.59c2.07-1.57,2.35-.69,4.09,1,.88.88,3.27,2.39,1.71,3.68A15.06,15.06,0,0,1,83,48.18c-9.42,0-16.09-7.08-15.54-16.41a14.91,14.91,0,0,1,5.15-10.85,15.58,15.58,0,0,1,10.62-3.54,14.6,14.6,0,0,1,5.57,1.1,12.9,12.9,0,0,1,3.35,1.8c2.07,1.61,1.11,2.52-.5,4.13-.37.37-.74.74-1.06,1.11-.83.82-1.38,1.42-2.48.64a9.09,9.09,0,0,0-7.31-1.61c-8.14,2.07-7.77,16.55,2.2,16.6A7.69,7.69,0,0,0,87.63,39.59Zm226.21,8.78a2.47,2.47,0,0,1-2.48-2.48l.13-32.1A2.48,2.48,0,0,1,314,11.31h2.66a2.48,2.48,0,0,1,2.49,2.48L319,45.89a2.47,2.47,0,0,1-2.48,2.48Zm-14-3.73c-2.89,2.72-5.65,4.14-9.74,4.14-8.28,0-12.23-6.89-12.23-14.57l0-13.06a2.47,2.47,0,0,1,2.48-2.48h2.67a2.47,2.47,0,0,1,2.48,2.48l0,13.06c0,4.27,2.3,7.63,6.8,7.63s7.27-3.77,7.31-8V29.2a2.64,2.64,0,0,1,0-.56l0-7.4a2.48,2.48,0,0,1,2.49-2.48h2.66a2.47,2.47,0,0,1,2.48,2.48l-.09,24.65a2.46,2.46,0,0,1-2.48,2.43h-2.25A2.52,2.52,0,0,1,300,45.89ZM268.14,18.76h5.15a2.47,2.47,0,0,1,2.43,2.53V23a2.5,2.5,0,0,1-2.48,2.48h-5.15L268,45.75a2.47,2.47,0,0,1-2.48,2.48h-2.67a2.47,2.47,0,0,1-2.48-2.48l.09-28c0-6.11,3.49-10.94,9.75-11.49.18,0,.32,0,.5,0a8.22,8.22,0,0,1,1.11,0h2.39a2.47,2.47,0,0,1,2.43,2.53v1.56a2.5,2.5,0,0,1-2.48,2.49h-1.93c-2.94,0-4.18,2.25-4.23,5Zm-18.48-.09h5.65a2.46,2.46,0,0,1,2.44,2.48v1.7a2.47,2.47,0,0,1-2.49,2.44h-5.65l-.05,12.41c0,2.39,1.15,3.77,3.54,3.77h1.15A2.46,2.46,0,0,1,256.69,44v1.71a2.46,2.46,0,0,1-2.48,2.43h-2.16a11.93,11.93,0,0,1-1.2,0c-6.11-.42-8.83-4.37-8.83-10.35,0-8,0-16,.1-24.09a2.46,2.46,0,0,1,2.48-2.44h2.62a2.47,2.47,0,0,1,2.44,2.49Zm-81.8-.33h5.66A2.47,2.47,0,0,1,176,20.83v1.7A2.46,2.46,0,0,1,173.47,25h-5.65V37.38c0,2.39,1.15,3.77,3.54,3.77h1.15a2.46,2.46,0,0,1,2.43,2.48v1.7a2.46,2.46,0,0,1-2.48,2.44h-1.7c-6.67-.05-10.53-2.9-10.53-10.39.05-8.05.05-16.05.09-24.09a2.47,2.47,0,0,1,2.49-2.44h2.62a2.46,2.46,0,0,1,2.43,2.48Zm-33.19,3.5c2.71-2.53,5.65-4.14,9.47-4.14,8.27.05,12.55,6.81,12.5,14.58l0,13a2.48,2.48,0,0,1-2.48,2.49h-2.67A2.48,2.48,0,0,1,149,45.33l0-13c0-4.28-2.3-7.63-6.8-7.63s-7.27,3.72-7.31,8l-.05,12.64a2.46,2.46,0,0,1-2.48,2.44h-2.62a2.46,2.46,0,0,1-2.44-2.48c0-7.86,0-15.77.09-23.63V20.6a2.47,2.47,0,0,1,2.49-2.44h2.25a2.52,2.52,0,0,1,2.44,2.44Zm81.93.32c2.71-2.53,5.65-4.14,9.47-4.14,8.28.05,12.55,6.81,12.51,14.58l-.05,13.06a2.47,2.47,0,0,1-2.48,2.48h-2.67a2.47,2.47,0,0,1-2.48-2.48l0-13c0-4.28-2.3-7.63-6.8-7.63s-7.27,3.72-7.31,8l-.05,12.65a2.46,2.46,0,0,1-2.48,2.43h-2.62a2.46,2.46,0,0,1-2.44-2.48l.09-24.69a2.47,2.47,0,0,1,2.49-2.44h2.25a2.52,2.52,0,0,1,2.44,2.44ZM109.66,17.47c-9,0-15.31,6.44-15.36,15.36s6.21,15.4,15.26,15.45S125,42,125,32.92C125.06,24.05,118.58,17.52,109.66,17.47Zm74.43,18.44c.65,4.14,4.6,5.84,8.46,5.88a13.86,13.86,0,0,0,5.61-1.24,8,8,0,0,0,.83-.41c.92-.51,1.75-.83,2.57,0,.46.46.88.92,1.34,1.33a12.78,12.78,0,0,1,1.19,1.33c1.24,1.57.37,1.94-1.06,2.9a19.67,19.67,0,0,1-10.62,3c-9.74-.05-16.18-6-16.18-15.82.05-9.29,6.48-15.45,15.77-15.4,9.47,0,14.85,5.61,15,15.08,0,2.57.14,3.4-2.53,3.4Zm-74.43-11.5c4.64,0,7.72,4.05,7.72,8.51,0,4.64-2.9,8.37-7.77,8.37s-7.72-3.77-7.72-8.42S104.83,24.41,109.66,24.41Zm74.62,5.11,15.26,0c-.55-3.81-3.72-5.33-7.36-5.33S185.43,25.93,184.28,29.52Z"/></g></g></svg>