<svg width="1428" height="680" viewBox="0 0 1428 680" fill="none" xmlns="http://www.w3.org/2000/svg">
<g clip-path="url(#clip0)">
<path fill-rule="evenodd" clip-rule="evenodd" d="M-0.001199 168.423V477.4C0.469971 487.125 3.92235 496.468 9.88682 504.161C15.8513 511.854 24.0386 517.523 33.3362 520.398C241.641 619.207 468.257 673.466 698.708 679.71C943.628 675.931 1184.75 618.543 1405.13 511.578C1412.08 507.215 1417.75 501.094 1421.57 493.834C1425.39 486.574 1427.23 478.433 1426.9 470.234V183.583C1430.2 143.066 1404.03 125.977 1369.59 111.92C1141.46 17.9313 891.569 0.015625 651.319 0.015625C439.239 1.78735 229.26 42.2309 31.6831 119.362C22.0833 123.405 13.9248 130.249 8.27255 139.001C2.62031 147.753 -0.263066 158.007 -0.001199 168.423" fill="transparent"/>
<path fill-rule="evenodd" clip-rule="evenodd" d="M20.9391 185.511V463.619C21.5868 472.693 25.0767 481.332 30.9131 488.309C36.7494 495.286 44.6353 500.245 53.45 502.482C257.368 591.776 476.726 640.459 699.26 645.808C935.975 642.672 1169.54 591.081 1385.57 494.213C1392.19 490.564 1397.67 485.16 1401.41 478.595C1405.15 472.029 1407.01 464.558 1406.79 457.003V199.293C1409.82 162.91 1384.74 147.475 1351.68 134.796C1129.62 50.1789 886.611 34.1926 653.249 33.917C448.126 35.413 244.748 71.7616 51.7969 141.411C42.7236 144.663 34.8825 150.652 29.3554 158.551C23.8284 166.45 20.8877 175.87 20.9391 185.511" fill="black"/>
<path fill-rule="evenodd" clip-rule="evenodd" d="M1123.83 463.619C1140.36 452.318 1126.31 431.922 1107.85 441.017C849.691 567.254 592.084 568.357 329.792 442.947C288.189 423.102 292.322 455.074 309.68 466.375C604.757 659.314 872.834 638.366 1123.83 463.619" fill="grey"/>
<path fill-rule="evenodd" clip-rule="evenodd" d="M177.157 225.477H195.892C216.609 224.952 236.768 232.231 252.373 245.873C259.144 252.865 264.324 261.239 267.558 270.421C270.791 279.603 272.003 289.375 271.108 299.069C271.206 311.364 267.849 323.439 261.418 333.916C254.988 344.394 245.744 352.853 234.74 358.329C216.679 366.697 196.613 369.756 176.881 367.149V225.477H177.157ZM446.061 315.607C437.635 285.104 424.53 256.094 407.213 229.611C389.991 256.146 376.893 285.141 368.365 315.607H446.336H446.061ZM385.723 190.197H430.356C473.612 238.156 500.337 308.165 509.154 400.775H460.939C459.653 384.605 457.724 369.17 455.153 354.47H358.171C355.461 369.797 353.529 385.252 352.385 400.775H306.098C317.119 306.511 343.293 235.399 385.723 190.197V190.197ZM517.419 400.775H563.431V257.45C607.139 295.948 639.606 345.573 657.382 401.051H698.433V190.197H652.422V291.903C625.768 253.185 593.232 218.869 555.992 190.197H517.419V400.775ZM930.694 400.775H976.705V257.45C1020.41 295.948 1052.88 345.573 1070.66 401.051H1113.09V190.197H1066.8V291.903C1040.14 253.185 1007.61 218.869 970.368 190.197H931.796V400.775H930.694ZM814.977 183.857C843.917 184.865 871.298 197.227 891.199 218.271C911.1 239.315 921.923 267.35 921.326 296.313C922.06 310.722 919.856 325.129 914.85 338.659C909.844 352.189 902.139 364.56 892.204 375.018C882.269 385.476 870.312 393.803 857.06 399.493C843.807 405.184 829.536 408.118 815.114 408.118C800.693 408.118 786.422 405.184 773.169 399.493C759.917 393.803 747.96 385.476 738.025 375.018C728.09 364.56 720.385 352.189 715.379 338.659C710.372 325.129 708.169 310.722 708.903 296.313C708.305 267.396 719.089 239.401 738.932 218.365C758.774 197.329 786.085 184.936 814.977 183.857V183.857ZM814.977 225.477C832.766 226.473 849.433 234.493 861.315 247.775C873.197 261.057 879.323 278.515 878.345 296.313C879.169 305.135 878.142 314.031 875.332 322.434C872.522 330.836 867.989 338.559 862.025 345.109C856.061 351.659 848.795 356.891 840.694 360.471C832.593 364.051 823.833 365.9 814.977 365.9C806.12 365.9 797.361 364.051 789.26 360.471C781.158 356.891 773.893 351.659 767.928 345.109C761.964 338.559 757.432 330.836 754.621 322.434C751.811 314.031 750.785 305.135 751.608 296.313C750.631 278.515 756.756 261.057 768.638 247.775C780.52 234.493 797.187 226.473 814.977 225.477V225.477ZM1275.09 275.641H1170.94C1172.32 261.777 1178.66 248.876 1188.78 239.307C1198.9 229.738 1212.13 224.142 1226.05 223.547C1232.73 223.613 1239.33 225.029 1245.44 227.709C1251.56 230.389 1257.08 234.278 1261.66 239.143C1266.24 244.008 1269.79 249.749 1272.1 256.021C1274.41 262.293 1275.42 268.966 1275.09 275.641V275.641ZM1314.49 360.258L1270.13 349.509C1264.57 355.238 1257.87 359.742 1250.47 362.732C1243.07 365.723 1235.13 367.133 1227.15 366.873C1212.22 367.169 1197.77 361.535 1186.98 351.204C1176.19 340.873 1169.93 326.686 1169.57 311.748H1316.14C1318.27 299.745 1319.01 287.537 1318.34 275.365C1317.15 252.43 1308.98 230.409 1294.93 212.247C1286.3 202.483 1275.49 194.897 1263.38 190.107C1251.26 185.317 1238.19 183.459 1225.22 184.684C1211.56 184.378 1197.99 186.971 1185.41 192.292C1172.82 197.613 1161.51 205.541 1152.21 215.554C1132.16 239.631 1122.27 270.578 1124.66 301.825C1123.95 317.327 1126.48 332.806 1132.08 347.278C1137.67 361.75 1146.22 374.9 1157.17 385.891C1165.74 393.913 1175.85 400.122 1186.88 404.147C1197.91 408.172 1209.64 409.932 1221.36 409.32C1239.67 409.455 1257.74 405.135 1274.01 396.732C1290.28 388.33 1304.27 376.096 1314.76 361.085L1314.49 360.258ZM126.462 188.819C136.105 214.727 130.595 318.914 130.595 356.124C130.595 386.994 128.942 403.532 128.942 403.532C147.094 407.048 165.556 408.71 184.045 408.493C216.942 408.952 249.079 398.591 275.516 379.001C288.64 368.309 299.067 354.681 305.959 339.217C312.851 323.753 316.013 306.885 315.19 289.973C316.427 272.691 312.892 255.401 304.972 239.992C297.052 224.583 285.052 211.648 270.281 202.6C240.76 187.656 207.622 181.35 174.677 184.409C158.539 185.025 142.444 186.497 126.462 188.819V188.819Z" fill="grey"/>
</g>
<defs>
<clipPath id="clip0">
<rect width="1428" height="680" fill="white"/>
</clipPath>
</defs>
</svg>
