<svg width="2501" height="292" viewBox="0 0 2501 292" fill="none" xmlns="http://www.w3.org/2000/svg">
<g clip-path="url(#clip0)">
<path d="M727.07 83.6036V211.169H758.876C766.993 211.049 775.003 209.301 782.433 206.031C789.863 202.76 796.562 198.032 802.133 192.128C813.567 180.022 819.823 163.931 819.569 147.281C819.811 139.011 818.417 130.774 815.467 123.045C812.516 115.315 808.068 108.245 802.376 102.24C796.782 96.3266 790.037 91.6212 782.556 88.4134C775.074 85.2056 767.016 83.5632 758.876 83.5874H727.086L727.07 83.6036ZM758.876 43.6066C818.158 43.6066 863.004 89.5399 863.004 147.281C863.004 205.022 818.158 251.215 758.876 251.215H688.727C688.058 251.206 687.397 251.066 686.783 250.802C686.168 250.539 685.611 250.156 685.145 249.677C684.678 249.198 684.31 248.632 684.062 248.011C683.814 247.39 683.69 246.726 683.699 246.057V48.9752C683.699 46.1206 685.953 43.8012 688.727 43.8012L758.876 43.6066ZM1015.81 215.613C1042.73 215.694 1067.04 199.134 1077.41 173.654C1082.49 161.204 1083.84 147.549 1081.31 134.344C1078.79 121.139 1072.48 108.95 1063.17 99.2553C1054.02 89.7198 1042.19 83.1854 1029.24 80.5154C1016.3 77.8453 1002.85 79.1654 990.667 84.301C965.786 94.8112 949.535 119.676 949.486 147.281C949.486 184.91 979.135 215.435 1015.82 215.613H1015.81ZM1015.82 38.903C1078.22 38.903 1125.92 88.0801 1125.92 147.281C1125.92 206.482 1078.22 255.659 1015.81 255.659C953.411 255.659 906.115 206.725 906.115 147.281C906.115 87.8368 953.817 38.903 1015.81 38.903H1015.82ZM1277.49 215.613C1314.2 215.516 1343.89 184.959 1343.86 147.33C1343.81 109.668 1314.05 79.1757 1277.36 79.1595C1240.64 79.1595 1210.86 109.636 1210.81 147.281C1210.81 165.414 1217.84 182.801 1230.34 195.615C1236.46 201.929 1243.79 206.953 1251.88 210.388C1259.98 213.823 1268.68 215.599 1277.47 215.613H1277.49ZM1277.47 38.903C1339.68 38.903 1387.38 87.8368 1387.38 147.281C1387.38 206.725 1339.48 255.659 1277.47 255.659C1215.48 255.659 1167.38 206.725 1167.38 147.281C1167.38 87.8368 1215.08 38.903 1277.47 38.903ZM1532.87 83.6036H1488.02V138.506H1532.87C1536.41 138.663 1539.95 138.092 1543.26 136.829C1546.57 135.565 1549.59 133.635 1552.13 131.159C1557.32 126.131 1560.28 119.156 1560.34 111.825C1560.47 108.106 1559.85 104.399 1558.51 100.926C1557.17 97.453 1555.15 94.2863 1552.56 91.616C1550.01 88.988 1546.94 86.9218 1543.55 85.5502C1540.16 84.1787 1536.52 83.5321 1532.87 83.6522V83.6036ZM1444.63 48.9752C1444.63 46.1206 1446.9 43.8012 1449.68 43.8012H1534.11C1574.37 43.8012 1603.5 74.0504 1603.5 112.036C1603.81 137.728 1589.78 161.327 1567.38 172.826L1606.32 243.429C1606.86 244.241 1607.16 245.186 1607.2 246.159C1607.23 247.133 1607 248.097 1606.52 248.944C1606.05 249.778 1605.35 250.46 1604.5 250.909C1603.66 251.357 1602.7 251.554 1601.75 251.474H1567.57C1566.63 251.488 1565.69 251.233 1564.89 250.739C1564.08 250.246 1563.42 249.533 1563 248.685L1525.47 178.811H1487.86V245.895C1487.87 246.565 1487.75 247.231 1487.5 247.854C1487.25 248.477 1486.88 249.045 1486.42 249.526C1485.95 250.006 1485.39 250.39 1484.78 250.655C1484.16 250.92 1483.5 251.06 1482.83 251.069H1449.9C1449.23 251.06 1448.57 250.92 1447.95 250.655C1447.34 250.39 1446.78 250.006 1446.31 249.526C1445.85 249.045 1445.48 248.477 1445.23 247.854C1444.99 247.231 1444.86 246.565 1444.87 245.895L1444.65 48.9914L1444.63 48.9752ZM1716.58 84.5767V212.158H1748.37C1756.49 212.048 1764.5 210.312 1771.93 207.053C1779.36 203.793 1786.07 199.077 1791.65 193.182C1803.09 181.091 1809.35 165.011 1809.11 148.368C1809.37 140.087 1807.99 131.838 1805.05 124.094C1802.11 116.349 1797.66 109.264 1791.97 103.245C1786.37 97.3222 1779.61 92.6111 1772.11 89.4029C1764.62 86.1947 1756.54 84.5577 1748.39 84.593L1716.58 84.5767ZM1748.37 44.5311C1807.65 44.5311 1852.5 90.5131 1852.5 148.368C1852.5 206.222 1807.65 252.204 1748.37 252.204H1678.43C1677.76 252.196 1677.1 252.055 1676.49 251.79C1675.87 251.525 1675.31 251.142 1674.85 250.661C1674.38 250.18 1674.01 249.612 1673.76 248.989C1673.52 248.366 1673.4 247.7 1673.41 247.03V49.9646C1673.41 47.0937 1675.66 44.7744 1678.43 44.7744L1748.39 44.5311H1748.37ZM1984.79 95.2653L1960.18 163.484H2009.34L1984.79 95.2653ZM1945.75 202.038L1929.64 247.452C1929.32 248.52 1928.65 249.451 1927.74 250.097C1926.83 250.743 1925.73 251.068 1924.61 251.02H1889.68C1888.79 251.103 1887.89 250.945 1887.08 250.563C1886.27 250.18 1885.58 249.588 1885.09 248.847C1884.57 248.097 1884.27 247.229 1884.19 246.325C1884.11 245.422 1884.27 244.514 1884.65 243.689L1960.13 46.8018C1960.48 45.7635 1961.17 44.8688 1962.07 44.2539C1962.98 43.639 1964.07 43.3376 1965.16 43.3957H2004.25C2005.35 43.334 2006.43 43.6337 2007.35 44.2488C2008.26 44.864 2008.94 45.7607 2009.29 46.8018L2084.78 243.689C2085.15 244.515 2085.31 245.424 2085.23 246.327C2085.15 247.231 2084.84 248.099 2084.32 248.847C2083.82 249.585 2083.13 250.174 2082.32 250.553C2081.52 250.933 2080.62 251.089 2079.73 251.004H2044.81C2043.7 251.052 2042.6 250.727 2041.69 250.081C2040.78 249.435 2040.11 248.504 2039.79 247.436L2023.68 202.021H1945.75V202.038ZM2125.28 99.6932C2125.28 67.0922 2152.75 38.903 2196.14 38.903C2219.5 38.3812 2242.13 47.1211 2259.07 63.2158C2259.59 63.7039 2260 64.2923 2260.28 64.9449C2260.56 65.5975 2260.71 66.3006 2260.71 67.0112C2260.71 67.7217 2260.56 68.4248 2260.28 69.0774C2260 69.73 2259.59 70.3184 2259.07 70.8065L2239.72 90.513C2239.26 90.9918 2238.7 91.3725 2238.09 91.6325C2237.48 91.8925 2236.82 92.0265 2236.15 92.0265C2235.49 92.0265 2234.83 91.8925 2234.22 91.6325C2233.6 91.3725 2233.05 90.9918 2232.59 90.513C2223.47 81.9706 2211.5 77.1306 2199.01 76.9374C2181.66 76.9374 2168.83 87.2692 2168.83 99.1904C2168.83 137.728 2271.38 115.491 2271.38 189.646C2271.33 227.226 2243.65 255.659 2194.7 255.659C2181.1 255.798 2167.62 253.202 2155.05 248.025C2142.48 242.848 2131.08 235.195 2121.53 225.523C2121.02 225.035 2120.6 224.447 2120.32 223.794C2120.04 223.142 2119.9 222.438 2119.9 221.728C2119.9 221.017 2120.04 220.314 2120.32 219.662C2120.6 219.009 2121.02 218.421 2121.53 217.933L2140.25 198.729C2140.71 198.227 2141.28 197.826 2141.91 197.552C2142.54 197.278 2143.21 197.137 2143.9 197.137C2144.58 197.137 2145.26 197.278 2145.89 197.552C2146.52 197.826 2147.08 198.227 2147.55 198.729C2159.33 210.405 2175.19 217.037 2191.78 217.219C2213.46 217.219 2227.75 205.346 2227.75 190.473C2227.75 151.92 2125.25 174.173 2125.25 100.001L2125.28 99.6932ZM2457.35 48.7157V126.634H2370.55V48.7157C2370.56 48.0469 2370.43 47.3829 2370.19 46.7617C2369.94 46.1405 2369.57 45.5743 2369.1 45.0953C2368.64 44.6164 2368.08 44.2341 2367.46 43.9703C2366.85 43.7065 2366.19 43.5664 2365.52 43.5579H2332.59C2331.93 43.5664 2331.27 43.7065 2330.65 43.9703C2330.04 44.2341 2329.48 44.6164 2329.01 45.0953C2328.55 45.5743 2328.18 46.1405 2327.93 46.7617C2327.68 47.3829 2327.56 48.0469 2327.57 48.7157V245.57C2327.57 248.425 2329.84 250.744 2332.59 250.744H2365.52C2368.28 250.744 2370.55 248.425 2370.55 245.57V166.42H2457.29V245.57C2457.29 248.425 2459.56 250.744 2462.32 250.744H2495.24C2498.02 250.744 2500.27 248.425 2500.27 245.57V48.7157C2500.28 48.0469 2500.16 47.3829 2499.91 46.7617C2499.66 46.1405 2499.29 45.5743 2498.82 45.0953C2498.36 44.6164 2497.8 44.2341 2497.19 43.9703C2496.57 43.7065 2495.91 43.5664 2495.24 43.5579H2462.32C2460.98 43.5919 2459.71 44.1524 2458.78 45.1179C2457.85 46.0833 2457.34 47.376 2457.35 48.7157V48.7157ZM498.879 69.8333C476.042 27.5007 431.358 1.14421 382.764 1.30641H15.1032C12.6203 1.31649 10.1953 2.05697 8.13023 3.43558C6.0652 4.8142 4.45148 6.76999 3.49016 9.05928C2.54289 11.3339 2.29618 13.8395 2.78163 16.2552C3.26707 18.6708 4.46258 20.8866 6.21502 22.6187L86.3064 102.094C93.378 109.133 103.012 113.074 113.036 113.074H372.222C390.696 112.88 405.796 127.509 405.991 145.724C406.185 163.938 391.377 178.86 372.903 179.038H194.214C191.729 179.039 189.3 179.772 187.229 181.145C185.158 182.518 183.537 184.471 182.568 186.759C181.612 189.036 181.359 191.547 181.842 193.97C182.324 196.392 183.521 198.614 185.277 200.351L265.417 279.891C272.533 286.926 282.14 290.867 292.147 290.855H372.968C478.118 290.855 557.626 179.914 498.879 69.7847" fill="white"/>
</g>
<defs>
<clipPath id="clip0">
<rect width="2500" height="292" fill="white" transform="translate(0.787109)"/>
</clipPath>
</defs>
</svg>
