<svg width="1740" height="338" viewBox="0 0 1740 338" fill="none" xmlns="http://www.w3.org/2000/svg">
<g clip-path="url(#clip0)">
<path d="M136.764 53.954C116.372 53.954 110.254 62.9351 110.254 82.9385V116.005H164.904L159.602 169.892H110.254V332.777H44.5933V169.892H0.547363V116.414H44.5933V84.1632C44.5933 29.4601 66.6163 0.883789 127.383 0.883789C140.026 0.883789 153.077 1.70025 165.72 3.33318V53.954" fill="white"/>
<path d="M169.39 217.654C169.39 157.236 197.939 111.514 258.298 111.514C290.925 111.514 310.908 128.251 320.696 149.479V116.412H383.503V333.184H320.288V300.525C311.316 321.345 290.517 337.674 257.89 337.674C197.939 337.674 168.982 292.361 168.982 231.534L169.39 217.654ZM235.051 232.35C235.051 264.601 246.879 286.237 277.466 286.237C304.383 286.237 317.842 266.642 317.842 235.616V213.572C317.842 182.546 303.975 162.951 277.466 162.951C246.879 162.951 235.051 184.179 235.051 216.838V232.35V232.35Z" fill="white"/>
<path d="M519.719 111.514C545.005 111.514 569.475 116.821 582.525 126.21L567.843 172.749C554.385 166.217 539.295 162.951 524.205 162.951C488.724 162.951 473.226 183.363 473.226 218.471V231.126C473.226 266.234 488.724 286.645 524.205 286.645C539.295 286.645 554.385 282.971 567.843 276.44L582.525 322.978C569.475 331.959 545.412 337.674 519.719 337.674C442.638 337.674 407.973 296.443 407.973 229.901V219.695C407.973 153.153 442.638 111.514 519.719 111.514" fill="white"/>
<path d="M591.09 232.759V213.572C591.09 151.929 626.163 111.514 697.534 111.514C764.827 111.514 794.599 152.337 794.599 212.755V247.455H656.751C657.974 277.256 671.433 290.319 707.73 290.319C731.384 290.319 755.039 285.829 777.47 277.256L789.297 322.162C772.168 331.143 736.686 338.083 705.283 338.083C622.085 337.674 591.09 296.443 591.09 232.759V232.759ZM656.751 204.182H735.871V198.875C735.871 175.198 726.49 156.419 697.534 156.419C668.17 156.419 656.751 175.198 656.751 204.182Z" fill="white"/>
<path d="M1037.67 231.534C1037.67 291.952 1008.71 337.674 948.351 337.674C915.724 337.674 892.886 321.345 883.913 300.525V333.184H821.923V7.41447L887.584 1.69922V146.622C896.964 127.435 918.171 111.922 948.759 111.922C1008.71 111.922 1038.07 157.236 1038.07 218.062L1037.67 231.534ZM972.005 216.429C972.005 185.812 960.178 162.951 928.775 162.951C901.858 162.951 887.584 182.138 887.584 213.164V236.025C887.584 267.05 902.266 286.237 928.775 286.237C960.178 286.237 972.005 263.376 972.005 232.759V216.429Z" fill="white"/>
<path d="M1059.28 229.901V218.879C1059.28 156.419 1094.76 111.514 1166.95 111.514C1239.14 111.514 1274.62 156.419 1274.62 218.879V229.901C1274.62 292.361 1239.14 337.266 1166.95 337.266C1094.76 337.266 1059.28 292.769 1059.28 229.901V229.901ZM1209.36 214.388C1209.36 185.812 1197.54 162.951 1166.95 162.951C1136.36 162.951 1124.54 185.812 1124.54 214.388V234.8C1124.54 263.376 1136.36 286.237 1166.95 286.237C1197.54 286.237 1209.36 263.376 1209.36 234.8V214.388V214.388Z" fill="white"/>
<path d="M1297.05 229.901V218.879C1297.05 156.419 1332.53 111.514 1404.72 111.514C1476.9 111.514 1512.38 156.419 1512.38 218.879V229.901C1512.38 292.361 1476.9 337.266 1404.72 337.266C1332.53 337.266 1297.05 292.769 1297.05 229.901V229.901ZM1447.13 214.388C1447.13 185.812 1435.3 162.951 1404.72 162.951C1374.13 162.951 1362.3 185.812 1362.3 214.388V234.8C1362.3 263.376 1374.13 286.237 1404.72 286.237C1435.3 286.237 1447.13 263.376 1447.13 234.8V214.388V214.388Z" fill="white"/>
<path d="M1602.51 219.696L1667.36 116.005H1736.69L1668.99 223.37L1739.55 333.185H1669.81L1602.51 227.044V333.185H1537.26V7.41548L1602.51 1.29199" fill="white"/>
</g>
<defs>
<clipPath id="clip0">
<rect width="1739" height="337" fill="white" transform="translate(0.547363 0.779297)"/>
</clipPath>
</defs>
</svg>
