<svg width="61" height="61" viewBox="0 0 61 61" fill="none" xmlns="http://www.w3.org/2000/svg">
<g clip-path="url(#clip0)">
<path d="M30.1395 60.5004C46.7081 60.5004 60.1395 47.0689 60.1395 30.5003C60.1395 13.9318 46.7081 0.500336 30.1395 0.500336C13.571 0.500336 0.139511 13.9318 0.139511 30.5003C0.139511 47.0689 13.571 60.5004 30.1395 60.5004Z" fill="#0984E3"/>
<path d="M39.8942 9.70874H33.2485C29.3047 9.70874 24.9181 11.3674 24.9181 17.0842C24.9373 19.0761 24.9181 20.9838 24.9181 23.1307H20.3556V30.3909H25.0593V51.2918H33.7024V30.253H39.4072L39.9233 23.1103H33.5535C33.5535 23.1103 33.5677 19.933 33.5535 19.0103C33.5535 16.7512 35.9041 16.8805 36.0455 16.8805C37.1641 16.8805 39.3391 16.8838 39.8974 16.8805V9.70874H39.8942Z" fill="white"/>
</g>
<defs>
<clipPath id="clip0">
<rect width="60" height="60" fill="white" transform="translate(0.139481 0.500305)"/>
</clipPath>
</defs>
</svg>
