<svg width="201" height="200" viewBox="0 0 201 200" fill="none" xmlns="http://www.w3.org/2000/svg">
<path d="M97.7359 28.827L97.0119 28.4597L96.3073 28.8628L32.9611 65.1018L32.1834 65.5467L32.207 66.4406L34.0153 134.865L34.0379 135.719L34.7861 136.134L100.048 172.374L100.791 172.787L101.528 172.364L167.657 134.408L168.433 133.962L168.409 133.07L166.601 64.6455L166.577 63.7541L165.781 63.3498L97.7359 28.827Z" stroke="#32AB9C" stroke-width="3"/>
<path d="M52.0375 151.932L52.2891 152.703L53.0723 152.914L123.393 171.914L124.259 172.148L124.875 171.495L171.915 121.634L172.5 121.014L172.266 120.193L151.773 48.3782L151.54 47.5615L150.72 47.3412L77.2215 27.5961L76.3562 27.3636L75.7413 28.0154L28.7015 77.8762L28.0903 78.5241L28.3666 79.3708L52.0375 151.932Z" stroke="#DEAC70" stroke-width="3"/>
<path d="M152.548 148.09L153.318 147.838L153.527 147.055L172.306 76.6372L172.536 75.7726L171.884 75.1573L121.962 28.0526L121.339 27.4649L120.517 27.7001L48.858 48.2214L48.0421 48.455L47.8246 49.2753L28.3101 122.875L28.0811 123.739L28.7322 124.353L78.6545 171.458L79.3048 172.071L80.1527 171.794L152.548 148.09Z" stroke="#B007A8" stroke-width="3"/>
<path d="M77.2823 124.323V78.2429H114.978C117.282 78.2429 119.245 79.0536 120.866 80.6749C122.53 82.2962 123.362 84.2589 123.362 86.5629V116.003C123.362 118.307 122.53 120.27 120.866 121.891C119.245 123.512 117.282 124.323 114.978 124.323H77.2823ZM86.5623 117.411H114.018C114.957 117.411 115.576 117.262 115.874 116.963C116.216 116.622 116.386 115.982 116.386 115.043V87.5229C116.386 86.5842 116.216 85.9656 115.874 85.6669C115.576 85.3256 114.957 85.1549 114.018 85.1549H86.5623C85.6236 85.1549 84.9836 85.3256 84.6423 85.6669C84.3436 85.9656 84.1943 86.5842 84.1943 87.5229V115.043C84.1943 115.982 84.3436 116.622 84.6423 116.963C84.9836 117.262 85.6236 117.411 86.5623 117.411Z" fill="#0984E3"/>
</svg>
