<svg width="497" height="745" viewBox="0 0 497 745" fill="none" xmlns="http://www.w3.org/2000/svg">
<g clip-path="url(#clip0)">
<path d="M124.169 744.779C192.603 744.779 248.144 689.227 248.144 620.779V496.779H124.169C55.7343 496.779 0.193359 552.331 0.193359 620.779C0.193359 689.227 55.7343 744.779 124.169 744.779Z" fill="black"/>
<path d="M0.193359 372.779C0.193359 304.331 55.7343 248.779 124.169 248.779H248.144V496.779H124.169C55.7343 496.779 0.193359 441.227 0.193359 372.779Z" fill="black"/>
<path d="M0.193359 124.779C0.193359 56.3313 55.7343 0.779297 124.169 0.779297H248.144V248.779H124.169C55.7343 248.779 0.193359 193.227 0.193359 124.779Z" fill="black"/>
<path d="M248.144 0.779297H372.119C440.553 0.779297 496.094 56.3313 496.094 124.779C496.094 193.227 440.553 248.779 372.119 248.779H248.144V0.779297Z" fill="black"/>
<path d="M496.094 372.779C496.094 441.227 440.553 496.779 372.119 496.779C303.684 496.779 248.144 441.227 248.144 372.779C248.144 304.331 303.684 248.779 372.119 248.779C440.553 248.779 496.094 304.331 496.094 372.779Z" fill="black"/>
</g>
<defs>
<clipPath id="clip0">
<rect width="496" height="744" fill="white" transform="translate(0.143555 0.779297)"/>
</clipPath>
</defs>
</svg>
