<svg width="201" height="200" viewBox="0 0 201 200" fill="none" xmlns="http://www.w3.org/2000/svg">
<path d="M97.2818 29.7171L97.0405 29.5947L96.8056 29.729L33.4594 65.968L33.2002 66.1163L33.208 66.4143L35.0163 134.839L35.0239 135.123L35.2733 135.262L100.535 171.502L100.783 171.64L101.028 171.499L167.158 133.542L167.416 133.394L167.408 133.096L165.6 64.6718L165.592 64.3747L165.327 64.2399L97.2818 29.7171Z" stroke="#32AB9C"/>
<path d="M52.9882 151.621L53.072 151.878L53.3331 151.949L123.653 170.948L123.942 171.026L124.148 170.809L171.187 120.948L171.382 120.741L171.304 120.468L150.811 48.6526L150.734 48.3804L150.46 48.3069L76.9621 28.5618L76.6736 28.4843L76.4687 28.7016L29.4289 78.5625L29.2252 78.7784L29.3173 79.0607L52.9882 151.621Z" stroke="#DEAC70"/>
<path d="M152.234 147.14L152.491 147.055L152.561 146.794L171.339 76.377L171.416 76.0888L171.199 75.8837L121.277 28.779L121.069 28.5831L120.795 28.6615L49.1357 49.1828L48.8638 49.2607L48.7913 49.5341L29.2767 123.134L29.2004 123.422L29.4174 123.626L79.3397 170.731L79.5565 170.936L79.8391 170.843L152.234 147.14Z" stroke="#B007A8"/>
<path d="M77.0202 124.603V78.5231H114.716C117.02 78.5231 118.983 79.3337 120.604 80.9551C122.268 82.5764 123.1 84.5391 123.1 86.8431V116.283C123.1 118.587 122.268 120.55 120.604 122.171C118.983 123.792 117.02 124.603 114.716 124.603H77.0202ZM86.3002 117.691H113.756C114.695 117.691 115.314 117.542 115.612 117.243C115.954 116.902 116.124 116.262 116.124 115.323V87.8031C116.124 86.8644 115.954 86.2457 115.612 85.9471C115.314 85.6057 114.695 85.4351 113.756 85.4351H86.3002C85.3615 85.4351 84.7215 85.6057 84.3802 85.9471C84.0815 86.2457 83.9322 86.8644 83.9322 87.8031V115.323C83.9322 116.262 84.0815 116.902 84.3802 117.243C84.7215 117.542 85.3615 117.691 86.3002 117.691Z" fill="#0984E3"/>
</svg>
