<svg width="319" height="318" viewBox="0 0 319 318" fill="none" xmlns="http://www.w3.org/2000/svg">
<g opacity="0.4">
<path d="M154.9 47.5787L154.417 47.3338L153.947 47.6026L53.3664 105.143L52.8479 105.439L52.8636 106.035L55.7348 214.679L55.7499 215.248L56.2487 215.525L159.871 273.068L160.366 273.343L160.858 273.061L265.858 212.794L266.375 212.497L266.359 211.902L263.488 103.258L263.472 102.663L262.941 102.394L154.9 47.5787Z" stroke="#C4C4C4" stroke-width="2"/>
<path d="M84.2809 241.385L84.4486 241.899L84.9708 242.04L196.625 272.208L197.203 272.364L197.613 271.928L272.303 192.759L272.693 192.346L272.537 191.799L239.999 77.7712L239.843 77.2267L239.296 77.0798L122.596 45.7286L122.019 45.5736L121.609 46.0081L46.9196 125.177L46.5121 125.609L46.6963 126.173L84.2809 241.385Z" stroke="#C4C4C4" stroke-width="2"/>
<path d="M242.124 234.401L242.638 234.233L242.777 233.711L272.593 121.903L272.747 121.326L272.312 120.916L193.046 46.1233L192.631 45.7314L192.083 45.8883L78.3025 78.4719L77.7586 78.6276L77.6136 79.1745L46.6284 196.036L46.4758 196.612L46.9099 197.021L126.176 271.814L126.61 272.223L127.175 272.038L242.124 234.401Z" stroke="#C4C4C4" stroke-width="2"/>
<path d="M124.679 195.97V126.85H181.223C184.679 126.85 187.623 128.066 190.055 130.498C192.551 132.93 193.799 135.874 193.799 139.33V183.49C193.799 186.946 192.551 189.89 190.055 192.322C187.623 194.754 184.679 195.97 181.223 195.97H124.679ZM138.599 185.602H179.783C181.191 185.602 182.119 185.378 182.567 184.93C183.079 184.418 183.335 183.458 183.335 182.05V140.77C183.335 139.362 183.079 138.434 182.567 137.986C182.119 137.474 181.191 137.218 179.783 137.218H138.599C137.191 137.218 136.231 137.474 135.719 137.986C135.271 138.434 135.047 139.362 135.047 140.77V182.05C135.047 183.458 135.271 184.418 135.719 184.93C136.231 185.378 137.191 185.602 138.599 185.602Z" fill="#C4C4C4"/>
</g>
</svg>
