<svg width="61" height="61" viewBox="0 0 61 61" fill="none" xmlns="http://www.w3.org/2000/svg">
<path d="M30.6212 0.500305C14.0548 0.500305 0.621124 14.2715 0.621124 31.2597C0.621124 44.8503 9.21706 56.3801 21.1371 60.4475C22.6363 60.7321 23.1869 59.7802 23.1869 58.9677C23.1869 58.2343 23.1589 55.8111 23.1462 53.2409C14.7999 55.1016 13.0388 49.6117 13.0388 49.6117C11.6741 46.0562 9.70786 45.1111 9.70786 45.1111C6.98608 43.2019 9.91303 43.241 9.91303 43.241C12.9256 43.4581 14.5119 46.4109 14.5119 46.4109C17.1876 51.1134 21.53 49.7537 23.242 48.968C23.5111 46.9797 24.2888 45.623 25.1466 44.8549C18.4833 44.0769 11.4784 41.4394 11.4784 29.6533C11.4784 26.2952 12.6503 23.5511 14.5696 21.3971C14.2581 20.6222 13.2313 17.4938 14.8602 13.2569C14.8602 13.2569 17.3794 12.4302 23.1123 16.4099C25.5052 15.7282 28.0717 15.3866 30.6212 15.375C33.1708 15.3866 35.7392 15.7282 38.1367 16.4099C43.8629 12.4302 46.3786 13.2569 46.3786 13.2569C48.0114 17.4938 46.9842 20.6222 46.6727 21.3971C48.5961 23.5511 49.7601 26.295 49.7601 29.6533C49.7601 41.4674 42.742 44.0689 36.0618 44.8303C37.1377 45.7848 38.0965 47.6569 38.0965 50.5264C38.0965 54.642 38.0617 57.9545 38.0617 58.9677C38.0617 59.7862 38.6017 60.7454 40.1226 60.4434C52.036 56.3715 60.6211 44.8457 60.6211 31.2597C60.6211 14.2715 47.1894 0.500305 30.6212 0.500305Z" fill="#0984E3"/>
<path d="M11.8572 44.3179C11.7913 44.4706 11.5565 44.5164 11.3431 44.4117C11.1255 44.3113 11.0031 44.1029 11.0737 43.9495C11.1384 43.7922 11.3732 43.7483 11.5904 43.854C11.8085 43.9541 11.9327 44.1644 11.8572 44.3179ZM13.3329 45.6678C13.1899 45.8039 12.9101 45.7407 12.7202 45.5258C12.524 45.3113 12.4873 45.0247 12.6325 44.8865C12.78 44.7506 13.0513 44.8141 13.248 45.0288C13.4442 45.2457 13.4823 45.5306 13.3327 45.6681L13.3329 45.6678ZM14.3454 47.3951C14.1614 47.5261 13.8607 47.4033 13.675 47.1298C13.4913 46.8564 13.4913 46.5284 13.679 46.3969C13.8654 46.2654 14.1614 46.3836 14.3496 46.655C14.5331 46.9332 14.5331 47.2612 14.3451 47.3954L14.3454 47.3951ZM16.0573 49.3957C15.8928 49.5815 15.5427 49.5318 15.2863 49.278C15.0242 49.03 14.951 48.6781 15.1159 48.4921C15.2823 48.3058 15.6345 48.3582 15.8928 48.6098C16.1533 48.8573 16.2328 49.2119 16.0575 49.3957H16.0573ZM18.2699 50.0712C18.1977 50.312 17.8603 50.4215 17.5205 50.3192C17.1813 50.2138 16.9592 49.9315 17.0276 49.6881C17.0982 49.4457 17.437 49.3316 17.7794 49.4411C18.1182 49.546 18.3408 49.8261 18.2702 50.0712H18.2699ZM20.7884 50.3576C20.7969 50.6114 20.5087 50.8217 20.152 50.8263C19.7932 50.8343 19.5031 50.629 19.4993 50.3795C19.4993 50.1233 19.7809 49.9149 20.1395 49.9089C20.4962 49.9016 20.7884 50.1055 20.7884 50.3576ZM23.2622 50.2604C23.3051 50.5079 23.0571 50.7621 22.703 50.8297C22.3547 50.8948 22.0324 50.7421 21.9879 50.4968C21.9446 50.243 22.1973 49.989 22.5449 49.9231C22.8997 49.8599 23.2171 50.0087 23.2622 50.2604Z" fill="#0984E3"/>
</svg>
