<svg width="1519" height="282" viewBox="0 0 1519 282" fill="none" xmlns="http://www.w3.org/2000/svg">
<path d="M0.610373 281.203V0.403053H61.0604V110.383H226.81V0.403053H287.26V281.203H226.81V171.223H61.0604V281.203H0.610373ZM332.729 281.203V0.403053H592.079V61.2431H393.959V110.383H553.469V171.223H393.959V220.363H592.079V281.203H332.729ZM630.933 281.203V0.0130578H691.383V220.363H911.733V281.203H630.933ZM934.858 281.203V0.0130578H995.308V220.363H1215.66V281.203H934.858ZM1295.33 281.203C1279.47 281.203 1265.82 275.613 1254.38 264.433C1243.2 252.993 1237.61 239.343 1237.61 223.483V58.1231C1237.61 42.2631 1243.2 28.7431 1254.38 17.563C1265.82 6.12305 1279.47 0.403053 1295.33 0.403053H1460.69C1476.29 0.403053 1489.81 6.12305 1501.25 17.563C1512.69 28.7431 1518.41 42.2631 1518.41 58.1231V223.483C1518.41 239.343 1512.69 252.993 1501.25 264.433C1489.81 275.613 1476.29 281.203 1460.69 281.203H1295.33ZM1310.93 220.363H1444.31C1452.89 220.363 1457.18 220.363 1457.18 220.363C1457.18 220.363 1457.18 216.073 1457.18 207.493V74.1131C1457.18 65.5331 1457.18 61.2431 1457.18 61.2431C1457.18 61.2431 1452.89 61.2431 1444.31 61.2431H1310.93C1302.35 61.2431 1298.06 61.2431 1298.06 61.2431C1298.06 61.2431 1298.06 65.5331 1298.06 74.1131V207.493C1298.06 216.073 1298.06 220.363 1298.06 220.363C1298.06 220.363 1302.35 220.363 1310.93 220.363Z" fill="white" fill-opacity="0.06"/>
</svg>
