<?xml version="1.0" encoding="UTF-8"?><svg version="1.1" xmlns="http://www.w3.org/2000/svg" xmlns:xlink="http://www.w3.org/1999/xlink" viewBox="0 0 1200 800" width="1200" height="800" x="0px" y="0px">
              
              <!-- ITEM 0 -->
<g>
    <defs>
        
        <clipPath id="clip-path-id-viewbox-item-0">
            <rect x="0.0" y="0.0" width="274.223" height="431.384"/>
        </clipPath>
    </defs>
    <g transform="translate(556.0 376.0) rotate(0.0 -100.5 158.0) scale(-0.732980092844145 0.732526009309571)">
        <g clip-path="url(#clip-path-id-viewbox-item-0)" transform="translate(-0.0 -0.0)">
<title>office_chair</title><g id="Layer_2-i0" data-name="Layer 2"><g id="Layer_1-2-i0" data-name="Layer 1"><polygon points="199.838 427.683 89.771 427.683 130.852 411.103 158.757 411.103 199.838 427.683" fill="#fff"/><path d="M199.838,431.384H89.771a3.662,3.662,0,0,1-3.627-2.961,3.782,3.782,0,0,1,2.221-4.145l41.08-16.58a4.333,4.333,0,0,1,1.407-.3h27.905a3.207,3.207,0,0,1,1.406.3l41.081,16.58a3.69,3.69,0,0,1-1.406,7.106Zm-91.044-7.4h71.947L158.017,414.8h-26.5Z" fill="#f9d5ff"/><rect x="136.255" y="320.059" width="17.024" height="89.859" fill="#fff"/><path d="M153.279,413.62H136.255a3.666,3.666,0,0,1-3.7-3.7v-89.86a3.666,3.666,0,0,1,3.7-3.7h17.024a3.665,3.665,0,0,1,3.7,3.7v89.86A3.665,3.665,0,0,1,153.279,413.62Zm-13.323-7.4h9.623V323.76h-9.623Z" fill="#f9d5ff"/><rect x="132.554" y="321.688" width="24.426" height="15.544" fill="#2b2b2b"/><rect x="129.815" y="224.574" width="29.904" height="108.068" fill="#f9d5ff"/><rect x="129.815" y="253.072" width="29.904" height="12.953" fill="#2b2b2b"/><rect x="101.91" y="245.3" width="85.788" height="15.544" fill="#f9d5ff"/><path d="M19.863,207.92l3.553-63.434a36.228,36.228,0,0,1,36.269-34.2l53.368.222L107.205,215.4a13.269,13.269,0,0,1-13.323,12.583H38.367a17.394,17.394,0,0,1-4.441-.592C25.118,225.315,19.344,216.95,19.863,207.92Z" fill="#fff"/><path d="M93.882,231.68H38.367a21.9,21.9,0,0,1-5.329-.666C22.6,228.571,15.569,218.8,16.162,207.772l3.553-63.435a39.945,39.945,0,0,1,39.97-37.675l57.291.222-6.07,108.808A16.984,16.984,0,0,1,93.882,231.68ZM59.537,113.99a32.528,32.528,0,0,0-32.42,30.718l-3.553,63.434A14.868,14.868,0,0,0,34.815,223.76h.074a14.462,14.462,0,0,0,3.478.444H93.882a9.652,9.652,0,0,0,9.622-9.1l5.626-101.036-49.445-.222C59.611,113.99,59.611,113.99,59.537,113.99Z" fill="#f9d5ff"/><path d="M234.108,210.807H87.032c-14.285,0-25.092-13.4-24.13-29.9l8.66-147.3C72.524,17.1,84.886,3.7,99.245,3.7H246.322c14.285,0,25.092,13.4,24.13,29.9l-8.66,147.3C260.829,197.409,248.394,210.807,234.108,210.807Z" fill="#fff"/><path d="M234.108,214.508H87.032a25.982,25.982,0,0,1-19.171-8.438c-6.069-6.44-9.252-15.693-8.66-25.389l8.66-147.3C68.972,14.952,83.035,0,99.245,0H246.322a25.982,25.982,0,0,1,19.171,8.438c6.069,6.44,9.252,15.692,8.66,25.389l-8.66,147.3C264.382,199.556,250.319,214.508,234.108,214.508ZM99.245,7.4c-12.361,0-23.168,11.843-23.982,26.425l-8.66,147.3c-.444,7.7,2,14.952,6.662,19.911a18.806,18.806,0,0,0,13.767,6.07H234.108c12.362,0,23.168-11.843,23.983-26.425l8.66-147.3c.444-7.7-2-14.952-6.662-19.911A18.806,18.806,0,0,0,246.322,7.4Z" fill="#f9d5ff"/><path d="M172.747,207.92l3.552-63.434a36.229,36.229,0,0,1,36.27-34.2l53.368.222-4.515,81.643a37.924,37.924,0,0,1-37.9,35.825H191.251a17.394,17.394,0,0,1-4.441-.592C178.076,225.315,172.228,216.95,172.747,207.92Z" fill="#fff"/><path d="M223.524,231.68H191.251a21.9,21.9,0,0,1-5.329-.666,22.41,22.41,0,0,1-16.876-23.242l3.552-63.435a39.919,39.919,0,0,1,39.823-37.675h.148l57.291.222-4.737,85.566A41.635,41.635,0,0,1,223.524,231.68Zm-11.1-117.69A32.53,32.53,0,0,0,180,144.708l-3.553,63.434c-.444,7.328,4.442,14.064,11.251,15.618h.074a14.476,14.476,0,0,0,3.479.444h32.273a34.205,34.205,0,0,0,34.2-32.346l4.293-77.72-49.445-.222C212.5,113.99,212.5,113.99,212.421,113.99Z" fill="#f9d5ff"/><path d="M113.531,211.556h135.3A16.931,16.931,0,0,1,265.777,228.5h0a16.931,16.931,0,0,1-16.948,16.948h-135.3Z" fill="#fff"/><path d="M248.829,206.822h-135.3v9.468h135.3a12.214,12.214,0,1,1,0,24.427h-135.3v9.468h135.3a21.682,21.682,0,1,0,0-43.363Z" fill="#f9d5ff"/><path d="M156.98,245.451H21.682A16.93,16.93,0,0,1,4.735,228.5h0a16.93,16.93,0,0,1,16.947-16.947h135.3Z" fill="#fff"/><path d="M0,228.5a21.739,21.739,0,0,0,21.681,21.682h135.3v-9.468H21.682a12.214,12.214,0,0,1,0-24.427h135.3v-9.468H21.682A21.617,21.617,0,0,0,0,228.5Z" fill="#f9d5ff"/><rect x="169.228" y="207.44" width="101.283" height="42.745" rx="21.373" fill="#f9d5ff"/></g></g>
        </g>
    </g>
</g>

<!-- ITEM 1 -->
<g>
    <defs>
        
        <clipPath id="clip-path-id-viewbox-item-1">
            <rect x="0.0" y="0.0" width="304.869" height="260.429"/>
        </clipPath>
    </defs>
    <g transform="translate(501.0 427.0) rotate(0.0 152.0 130.0) scale(0.9971495953999914 0.9983527180152749)">
        <g clip-path="url(#clip-path-id-viewbox-item-1)" transform="translate(-0.0 -0.0)">
<title>table</title><g id="Layer_2-i1" data-name="Layer 2"><g id="Layer_1-2-i1" data-name="Layer 1"><rect x="20.482" y="1.125" width="261.656" height="67.076" fill="#f9d5ff"/><rect width="304.869" height="4.703" fill="#96b5c8"/><rect x="279.991" y="2.863" width="4.397" height="257.566" fill="#96b5c8"/><rect x="20.482" y="2.863" width="4.397" height="257.566" fill="#96b5c8"/></g></g>
        </g>
    </g>
</g>

<!-- ITEM 2 -->
<g>
    <defs>
        
        <clipPath id="clip-path-id-viewbox-item-2">
            <rect x="0.0" y="0.0" width="337.986" height="253.19"/>
        </clipPath>
    </defs>
    <g transform="translate(533.0 260.0) rotate(0.0 112.0 84.0) scale(0.6627493446474114 0.6635333149018524)">
        <g clip-path="url(#clip-path-id-viewbox-item-2)" transform="translate(-0.0 -0.0)">
<title>computer_2</title><g id="Layer_2-i2" data-name="Layer 2"><g id="Layer_1-2-i2" data-name="Layer 1"><rect width="337.986" height="204.708" fill="#2b2b2b"/><rect x="26.03" y="27.745" width="151.438" height="7.264" fill="#5e41f4"/><rect x="210.257" y="27.745" width="101.698" height="7.264" fill="#ffa300"/><rect x="26.03" y="48.73" width="78.392" height="7.264" fill="#ff288c"/><rect x="137.212" y="48.73" width="174.744" height="7.264" fill="#3acdff"/><rect x="26.03" y="69.817" width="151.438" height="7.264" fill="#5e41f4"/><rect x="196.536" y="69.817" width="115.319" height="7.264" fill="#ff75c2"/><rect x="26.03" y="90.903" width="151.438" height="7.264" fill="#ffa300"/><rect x="210.257" y="90.903" width="101.698" height="7.264" fill="#ff288c"/><rect x="26.03" y="111.888" width="151.438" height="7.264" fill="#ff288c"/><rect x="210.257" y="111.888" width="101.698" height="7.264" fill="#5e41f4"/><rect x="26.03" y="132.874" width="55.591" height="7.264" fill="#3acdff"/><rect x="114.209" y="132.874" width="197.646" height="7.264" fill="#5e41f4"/><rect x="26.03" y="153.96" width="115.924" height="7.264" fill="#5e41f4"/><rect x="174.643" y="153.96" width="137.212" height="7.264" fill="#ffa300"/><rect x="26.03" y="175.046" width="151.438" height="7.264" fill="#3acdff"/><rect x="210.257" y="175.046" width="101.698" height="7.264" fill="#ff288c"/><path d="M262.439,248.147H241.908l-42.552-57.606a2.5,2.5,0,0,0-2.01-1.015H140.64a2.5,2.5,0,0,0-2.011,1.015L96.078,248.147H75.546a2.5,2.5,0,1,0,0,5H97a2.413,2.413,0,0,0,.307.043H240.679a2.438,2.438,0,0,0,.307-.043h21.453a2.5,2.5,0,0,0,0-5ZM141.9,194.526h54.183l39.608,53.621h-133.4Z" fill="#2b2b2b"/></g></g>
        </g>
    </g>
</g>

<!-- ITEM 3 -->
<g>
    <defs>
        
        <clipPath id="clip-path-id-viewbox-item-3">
            <rect x="0.0" y="0.0" width="671.943" height="596.903"/>
        </clipPath>
    </defs>
    <g transform="translate(823.0 298.0) rotate(0.0 -224.5 200.0) scale(-0.6682114405537375 0.6701256318028223)">
        <g clip-path="url(#clip-path-id-viewbox-item-3)" transform="translate(-0.0 -0.0)">
<defs><linearGradient id="linear-gradient-i3" x1="494.394" y1="-443.719" x2="494.394" y2="-709.938" gradientTransform="translate(0 792)" gradientUnits="userSpaceOnUse"><stop offset="0" stop-color="#f89d9a"/><stop offset="0.263" stop-color="#f5943b"/><stop offset="0.499" stop-color="#f05052"/><stop offset="0.758" stop-color="#ece674"/><stop offset="1" stop-color="#e1eec3"/></linearGradient><linearGradient id="linear-gradient-2-i3" x1="314.716" y1="222.854" x2="314.716" y2="523.949" gradientUnits="userSpaceOnUse"><stop offset="0" stop-color="#9774ac"/><stop offset="0.401" stop-color="#47a6d3"/><stop offset="0.501" stop-color="#a7a7ae"/><stop offset="0.591" stop-color="#e89ac0"/><stop offset="1" stop-color="#bfe7d1"/></linearGradient><linearGradient id="linear-gradient-3-i3" x1="591.795" y1="-443.719" x2="591.795" y2="-709.938" xlink:href="#linear-gradient-i3"/><linearGradient id="linear-gradient-4-i3" x1="499.941" y1="240.216" x2="499.941" y2="562.558" xlink:href="#linear-gradient-2-i3"/><linearGradient id="linear-gradient-5-i3" x1="566.689" y1="-443.719" x2="566.689" y2="-709.938" xlink:href="#linear-gradient-i3"/></defs><title>man_sit</title><g id="Layer_2-i3" data-name="Layer 2"><g id="Layer_1-2-i3" data-name="Layer 1"><path d="M580.461,213.5l-127.95,84L450,299.115A38.582,38.582,0,0,1,390.859,260.1l26.106-145.5a28.845,28.845,0,0,1,57.228,5.826l-3.835,147.787L408.78,230.826l127.949-84A39.865,39.865,0,1,1,580.461,213.5Z" fill="url(#linear-gradient-i3)"/><path d="M535.771,239.676,295.136,223.968a56.92,56.92,0,0,0-29.277,8.038L42.629,365.339l39.823,66.519,3.982-1.253,3.909-1.328,7.891-2.655c5.236-1.843,10.4-3.761,15.634-5.6,5.162-1.844,10.324-3.835,15.487-5.753s10.25-3.908,15.413-5.9c20.427-7.965,40.708-16.372,60.767-25,9.955-4.351,20.059-8.7,29.941-13.2l14.9-6.711L265.2,357.6c9.881-4.5,19.69-9.292,29.5-13.938l7.375-3.54,4.231-2.094,7.052.4,18.215.958c6.047.3,12.168.59,18.215.812l18.216.737c6.047.221,12.168.369,18.215.59,6.047.148,12.168.443,18.215.516l18.216.369c6.047.148,12.168.148,18.215.221,24.337.222,48.6.074,72.935-.59l18.216-.59c6.047-.3,12.168-.442,18.215-.811l9.145-.516,9.144-.59,9.145-.664,4.572-.368,4.572-.443Z" fill="url(#linear-gradient-2-i3)"/><path d="M394.461,249A57.223,57.223,0,0,0,335.4,300.511l-3.762,38.873c6.026.294,12.124.587,18.148.808l18.216.737c6.047.221,12.168.369,18.215.59,6.047.148,12.168.443,18.215.516l18.216.369c6.047.148,12.168.148,18.215.221,24.337.222,48.6.074,72.935-.59l18.216-.59c6.047-.3,12.168-.442,18.215-.811l9.145-.516,9.144-.59,9.145-.664,4.572-.368,4.572-.443L549.736,266.6l-16.54-6.085Z" fill="#2b2b2b"/><path d="M532.821,256.047a49.945,49.945,0,0,0,2.95-16.3c.221-9.366-22.2-24.115-21.018-52.507.959-21.829,25.148-53.54,63.2-52.212l30.6,2.064c33.407,1.18,59.292,30.974,60.177,54.2h.148c0,.664-.074,1.327-.074,1.917v.59h-.074c-2.8,38.643-29.719,36.283-20.206,63.938Z" fill="url(#linear-gradient-3-i3)"/><path d="M648.676,257.743,535.918,239.749,397.57,255.236a57.222,57.222,0,0,0-48.008,61.947l26.327,268.289,77.065-7.6.516-4.277.442-4.278.959-8.554c.516-5.752,1.106-11.431,1.549-17.109.958-11.431,1.77-22.788,2.507-34.145,1.475-22.714,2.434-45.354,3.1-67.994.3-11.283.664-22.64.738-33.923l.221-16.962.074-16.962c.023-3.468.02-6.937.01-10.406l1.465-.139c4.056-.369,8.186-.885,12.315-1.328s8.186-.885,12.316-1.4l12.316-1.549c4.13-.516,8.186-1.106,12.315-1.7,8.776-1.327,43.289-7.522,73.526-12.979a81.2,81.2,0,0,0,63.274-57.006Z" fill="url(#linear-gradient-4-i3)"/><path id="SVGID-i3" d="M560.328,109.808l27.95.959a26.094,26.094,0,0,0,27.065-25.221l1.475-42.109A41.886,41.886,0,0,0,576.405.074h0a41.885,41.885,0,0,0-43.363,40.413L531.715,79.13A29.616,29.616,0,0,0,560.328,109.808Z" fill="#fdc068"/><path d="M536.361,52.581a4.746,4.746,0,0,1-3.909,4.646l.295-9.218A4.738,4.738,0,0,1,536.361,52.581Z" fill="#2b2b2b"/><path d="M565.933,152.581l-16.3-11.947s13.2-5.826,23.156-5.6Z" fill="#2b2b2b"/><path d="M580.609,158.333l36.356-11.947-.958-79.793-44.543-1.549-7.006,80.384A12.327,12.327,0,0,0,580.609,158.333Z" fill="#fdc068"/><path d="M530.019,62.611c-8.186,0-14.528-4.425-14.528-10.03s6.416-10.029,14.528-10.029c8.185,0,14.528,4.424,14.528,10.029S538.2,62.611,530.019,62.611Zm0-17.4c-6.416,0-11.874,3.393-11.874,7.375s5.458,7.375,11.874,7.375,11.873-3.393,11.873-7.375S536.434,45.206,530.019,45.206Z" fill="#2b2b2b"/><path d="M560.107,62.611c-8.186,0-14.528-4.425-14.528-10.03S552,42.552,560.107,42.552c8.186,0,14.528,4.424,14.528,10.029S568.293,62.611,560.107,62.611Zm0-17.4c-6.416,0-11.873,3.393-11.873,7.375s5.457,7.375,11.873,7.375,11.873-3.393,11.873-7.375S566.523,45.206,560.107,45.206Z" fill="#2b2b2b"/><path d="M544.768,52.065l-6.2,6.858a3.158,3.158,0,0,0,.369,4.646L542.7,66" fill="#fdc068"/><path d="M542.7,67.33a1.422,1.422,0,0,1-.738-.221L538.131,64.6a4.287,4.287,0,0,1-1.7-3.171,4.646,4.646,0,0,1,1.18-3.466l6.195-6.859A1.357,1.357,0,1,1,545.8,52.95l-6.194,6.858a1.947,1.947,0,0,0-.517,1.4,2.325,2.325,0,0,0,.664,1.254l3.687,2.36a1.266,1.266,0,0,1,.369,1.844A1.217,1.217,0,0,1,542.7,67.33Z" fill="#2b2b2b"/><path d="M543.588,86.062a8.991,8.991,0,0,1-1.4-.148,9.138,9.138,0,0,1-5.753-4.351,1.366,1.366,0,0,1,.59-1.843,1.406,1.406,0,0,1,1.844.516,6.349,6.349,0,0,0,3.909,3.024c1.77.368,3.834-.443,6.047-2.287a1.36,1.36,0,0,1,1.77,2.065C548.16,85.029,545.8,86.062,543.588,86.062Z" fill="#2b2b2b"/><polygon points="567.482 110.103 585.697 110.693 565.933 128.024 567.482 110.103" fill="#2b2b2b"/><circle cx="558.853" cy="53.687" r="4.72" fill="#2b2b2b"/><path d="M546.906,51.475h-3.244a1.328,1.328,0,1,1,0-2.655h3.244a1.328,1.328,0,1,1,0,2.655Z" fill="#2b2b2b"/><path d="M594.03,50.3H572.791a1.328,1.328,0,0,1,0-2.655H594.03a1.328,1.328,0,1,1,0,2.655Z" fill="#2b2b2b"/><path d="M.594,319.543,51.847,432.227a11.973,11.973,0,0,0,15.561,6.047l14.381-6.121-33.113-70.87-37.9-47.935C6.42,307.743-2.356,313.053.594,319.543Z" fill="#2b2b2b"/><path d="M318.957,596.9l123.82-.222A11.868,11.868,0,0,0,454.65,585.03l.369-15.635-78.245.959L317.482,585.1C310.55,586.726,311.8,596.9,318.957,596.9Z" fill="#2b2b2b"/><path d="M585.107,0H566.818a32.763,32.763,0,0,0-32.743,32.743h0l12.9-18.584,11.062,14.16a11.283,11.283,0,0,0,9,4.424h0A11.394,11.394,0,0,1,578.47,44.174V62.758H588.5V59.735a2.344,2.344,0,0,1,4.278-1.328l23.6,35.251,1.549-52.8V32.743A32.827,32.827,0,0,0,585.107,0Z" fill="#9f70a7"/><circle cx="603.544" cy="56.932" r="15.708" fill="#fdc068"/><path d="M483.853,235.1l69.1,20.723,42.994-89.9A39.947,39.947,0,0,1,668.072,200.3L610.55,320.87l-1.4,2.95A36.574,36.574,0,0,1,560.4,341.077l-.59-.3-98.377-49.115" fill="url(#linear-gradient-5-i3)"/><path d="M461.361,291.667l-17.921-8.924a28.86,28.86,0,0,1,21.166-53.466l19.247,5.752Z" fill="#fdc068"/><path d="M415.594,122.159l4.154-18.9a27.9,27.9,0,0,1,55.116,7.277l-.868,19.4Z" fill="#fdc068"/><path d="M516.818,241.077h-.148a1.331,1.331,0,0,1-1.179-1.475c.737-7.67-.074-12.906-6.564-20.133a1.357,1.357,0,0,1,1.991-1.844c7.154,7.891,8.112,13.938,7.3,22.2A1.484,1.484,0,0,1,516.818,241.077Z" fill="#2b2b2b"/><path d="M558.116,245.206a1.385,1.385,0,0,1-.59-.147,1.365,1.365,0,0,1-.59-1.844l8.481-17.109a1.369,1.369,0,1,1,2.433,1.254l-8.48,17.109A1.369,1.369,0,0,1,558.116,245.206Z" fill="#2b2b2b"/></g></g>
        </g>
    </g>
</g>

<!-- ITEM 4 -->
<g>
    <defs>
        
        <clipPath id="clip-path-id-viewbox-item-4">
            <rect x="0.0" y="0.0" width="155.171" height="64.268"/>
        </clipPath>
    </defs>
    <g transform="translate(759.0 293.0) rotate(0.0 79.0 32.5) scale(1.0182314994425505 1.0113898051907637)">
        <g clip-path="url(#clip-path-id-viewbox-item-4)" transform="translate(-0.0 -0.0)">
<title>var_bubble</title><g id="Layer_2-i4" data-name="Layer 2"><g id="Layer_1-2-i4" data-name="Layer 1"><path d="M129.141,0H76.072a26.114,26.114,0,0,0-26.03,26.131v3.43H0v7.264H50.042v1.413a26.029,26.029,0,0,0,26.03,26.03h53.069a26.029,26.029,0,0,0,26.03-26.03V26.03A26.029,26.029,0,0,0,129.141,0Z" fill="#f9d5ff"/><path d="M85.858,41.971H81.016L73.348,22.9h4.54l5.65,14.73,5.65-14.73h4.338Z" fill="#ffa300"/><path d="M115.218,41.971H110.98v-2.22a7.131,7.131,0,0,1-5.952,2.724c-5.348,0-9.484-4.136-9.484-9.988S99.68,22.5,105.028,22.5a7.131,7.131,0,0,1,5.952,2.724V23h4.137V41.971ZM99.882,32.487c0,3.329,2.22,6.154,5.751,6.154,3.43,0,5.751-2.623,5.751-6.154s-2.321-6.154-5.751-6.154c-3.632.1-5.751,2.724-5.751,6.154Z" fill="#ffa300"/><path d="M134.488,23l-1.009,4.137a8.312,8.312,0,0,0-3.128-.707c-2.623,0-4.54,1.917-4.54,5.146V41.971h-4.136V22.9h4.136v2.119A6.446,6.446,0,0,1,131.36,22.4,11.465,11.465,0,0,1,134.488,23Z" fill="#ffa300"/></g></g>
        </g>
    </g>
</g>

<!-- ITEM 5 -->
<g>
    <defs>
        
        <clipPath id="clip-path-id-viewbox-item-5">
            <rect x="0.0" y="0.0" width="105.129" height="143.112"/>
        </clipPath>
    </defs>
    <g transform="translate(515.0 130.0) rotate(0.0 48.5 66.0) scale(0.9226759504989108 0.9223545195371458)">
        <g clip-path="url(#clip-path-id-viewbox-item-5)" transform="translate(-0.0 -0.0)">
<title>programming_bubble</title><g id="Layer_2-i5" data-name="Layer 2"><g id="Layer_1-2-i5" data-name="Layer 1"><path d="M79.1,0H26.031A25.986,25.986,0,0,0,0,26.131V38.238a26.029,26.029,0,0,0,26.03,26.03H49.508l5.382,78.844,7.247-.5L56.789,64.268H79.1a26.029,26.029,0,0,0,26.03-26.03V26.03A26.028,26.028,0,0,0,79.1,0Z" fill="#f9d5ff"/><path d="M43.989,17.454c-2.926,0-4.843,1.614-4.641,4.439l.1,2.321c.1,3.43-1.412,5.952-4.54,7.163,3.128,1.211,4.641,3.733,4.54,7.163l-.1,2.321c-.1,2.825,1.715,4.439,4.641,4.439H45v4.238H43.989c-6.356,0-9.685-3.532-9.383-9.282l.1-2.321c.1-2.825-1.715-4.439-4.742-4.439V29.258c3.027,0,4.843-1.614,4.742-4.439l-.1-2.32c-.3-5.65,3.027-9.282,9.383-9.282H45v4.237Z" fill="#ffa300"/><path d="M61.242,45.4c2.925,0,4.842-1.614,4.641-4.439l-.1-2.321c-.1-3.43,1.412-5.952,4.54-7.163-3.128-1.211-4.641-3.733-4.54-7.163l.1-2.321c.1-2.825-1.716-4.439-4.641-4.439H60.233V13.318h1.009c6.356,0,9.685,3.531,9.382,9.282l-.1,2.32c-.1,2.825,1.715,4.439,4.741,4.439V33.6c-3.026,0-4.842,1.614-4.741,4.439l.1,2.32c.3,5.65-3.026,9.282-9.382,9.282H60.233V45.4Z" fill="#ffa300"/></g></g>
        </g>
    </g>
</g>

<!-- ITEM 6 -->
<g>
    <defs>
        
        <clipPath id="clip-path-id-viewbox-item-6">
            <rect x="0.0" y="0.0" width="105.129" height="143.503"/>
        </clipPath>
    </defs>
    <g transform="translate(684.0 134.0) rotate(0.0 45.5 62.5) scale(0.8656032112927926 0.8710619290189057)">
        <g clip-path="url(#clip-path-id-viewbox-item-6)" transform="translate(-0.0 -0.0)">
<title>else_bubble</title><g id="Layer_2-i6" data-name="Layer 2"><g id="Layer_1-2-i6" data-name="Layer 1"><path d="M79.1,0H26.03A26.114,26.114,0,0,0,0,26.131V38.238a26.029,26.029,0,0,0,26.03,26.03H41.04L26.158,142.14l7.135,1.363L48.435,64.268H79.1a26.029,26.029,0,0,0,26.03-26.03V26.03A26.029,26.029,0,0,0,79.1,0Z" fill="#f9d5ff"/><path d="M38.137,32.386a6.659,6.659,0,0,1-.1,1.413H25.223a4.835,4.835,0,0,0,5.145,4.439,9.309,9.309,0,0,0,5.045-1.816l1.917,2.724a10.316,10.316,0,0,1-7.164,2.421c-5.145,0-8.878-3.632-8.878-9.08s3.531-9.08,8.677-9.08C34.807,23.306,38.137,27.039,38.137,32.386ZM25.324,30.974H34.3c-.4-2.724-2.018-4.339-4.338-4.339a4.506,4.506,0,0,0-4.641,4.339Z" fill="#5e41f4"/><path d="M46.612,41.164H42.778V15.033h3.834Z" fill="#5e41f4"/><path d="M64.369,28.149a11.15,11.15,0,0,0-5.348-1.413c-2.017,0-3.329.807-3.329,2.018s1.211,1.513,2.825,1.816l1.816.3c3.834.5,6.053,2.118,6.053,5.145,0,3.33-2.925,5.65-7.869,5.65a12.473,12.473,0,0,1-7.466-2.22l1.715-2.824a8.194,8.194,0,0,0,5.65,1.715c2.522,0,3.935-.807,3.935-2.119,0-.908-.908-1.614-3.027-1.917l-1.816-.2c-3.834-.5-5.953-2.32-5.953-5.145,0-3.431,2.724-5.549,7.164-5.549a12.837,12.837,0,0,1,6.961,1.816Z" fill="#5e41f4"/><path d="M86.565,32.386a6.659,6.659,0,0,1-.1,1.413H73.651A4.834,4.834,0,0,0,78.8,38.238a9.309,9.309,0,0,0,5.045-1.816l1.917,2.724a10.317,10.317,0,0,1-7.164,2.421c-5.145,0-8.878-3.632-8.878-9.08s3.531-9.08,8.576-9.08C83.134,23.306,86.464,27.039,86.565,32.386ZM73.651,30.974H82.63c-.4-2.724-2.018-4.339-4.338-4.339a4.506,4.506,0,0,0-4.641,4.339Z" fill="#5e41f4"/></g></g>
        </g>
    </g>
</g>

              </svg>