<svg xmlns="http://www.w3.org/2000/svg" height="512pt" version="1.1" viewBox="0 0 512 512" width="512pt">
<g id="surface1">
<path d="M 512 256 C 512 397.386719 397.386719 512 256 512 C 114.613281 512 0 397.386719 0 256 C 0 114.613281 114.613281 0 256 0 C 397.386719 0 512 114.613281 512 256 Z M 512 256 " style=" stroke:none;fill-rule:nonzero;fill:rgb(9.803922%,81.176471%,98.823529%);fill-opacity:1;" />
<path d="M 512 256 C 512 244.609375 511.246094 233.394531 509.804688 222.398438 L 382 94.59375 L 358.019531 127.707031 L 315.625 85.3125 L 311.96875 92.195312 L 281.410156 61.632812 L 130 426.46875 L 211.699219 508.171875 C 226.089844 510.679688 240.890625 512 256 512 C 397.386719 512 512 397.386719 512 256 Z M 512 256 " style=" stroke:none;fill-rule:nonzero;fill:rgb(29.019608%,72.156863%,96.862745%);fill-opacity:1;" />
<path d="M 130 94.59375 L 382 94.59375 L 382 426.46875 L 130 426.46875 Z M 130 94.59375 " style=" stroke:none;fill-rule:nonzero;fill:rgb(100%,100%,100%);fill-opacity:1;" />
<path d="M 255.761719 94.59375 L 382 94.59375 L 382 426.46875 L 255.761719 426.46875 Z M 255.761719 94.59375 " style=" stroke:none;fill-rule:nonzero;fill:rgb(91.372549%,92.941176%,96.078431%);fill-opacity:1;" />
<path d="M 337 218.34375 C 337 263.078125 300.734375 299.34375 256 299.34375 C 211.265625 299.34375 175 263.078125 175 218.34375 C 175 173.609375 211.265625 137.34375 256 137.34375 C 300.734375 137.34375 337 173.609375 337 218.34375 Z M 337 218.34375 " style=" stroke:none;fill-rule:nonzero;fill:rgb(49.411765%,52.156863%,58.823529%);fill-opacity:1;" />
<path d="M 256 137.34375 C 255.921875 137.34375 255.84375 137.351562 255.761719 137.351562 L 255.761719 299.339844 C 255.84375 299.339844 255.921875 299.34375 256 299.34375 C 300.734375 299.34375 337 263.078125 337 218.34375 C 337 173.609375 300.734375 137.34375 256 137.34375 Z M 256 137.34375 " style=" stroke:none;fill-rule:nonzero;fill:rgb(43.921569%,46.666667%,53.72549%);fill-opacity:1;" />
<path d="M 291.953125 195.777344 C 291.953125 215.636719 275.855469 231.734375 256 231.734375 C 236.144531 231.734375 220.046875 215.636719 220.046875 195.777344 C 220.046875 175.921875 236.144531 159.824219 256 159.824219 C 275.855469 159.824219 291.953125 175.921875 291.953125 195.777344 Z M 291.953125 195.777344 " style=" stroke:none;fill-rule:nonzero;fill:rgb(86.27451%,88.235294%,92.156863%);fill-opacity:1;" />
<path d="M 256 159.824219 C 255.921875 159.824219 255.84375 159.832031 255.761719 159.832031 L 255.761719 231.726562 C 255.84375 231.726562 255.921875 231.734375 256 231.734375 C 275.855469 231.734375 291.953125 215.636719 291.953125 195.777344 C 291.953125 175.921875 275.855469 159.824219 256 159.824219 Z M 256 159.824219 " style=" stroke:none;fill-rule:nonzero;fill:rgb(80.392157%,82.352941%,88.235294%);fill-opacity:1;" />
<path d="M 256 299.34375 C 280 299.34375 301.550781 288.898438 316.382812 272.3125 C 306.664062 248.511719 283.296875 231.734375 256 231.734375 C 228.703125 231.734375 205.335938 248.511719 195.617188 272.3125 C 210.449219 288.898438 232 299.34375 256 299.34375 Z M 256 299.34375 " style=" stroke:none;fill-rule:nonzero;fill:rgb(86.27451%,88.235294%,92.156863%);fill-opacity:1;" />
<path d="M 256 231.734375 C 255.921875 231.734375 255.84375 231.738281 255.761719 231.738281 L 255.761719 299.339844 C 255.84375 299.339844 255.921875 299.34375 256 299.34375 C 280 299.34375 301.550781 288.898438 316.382812 272.3125 C 306.664062 248.511719 283.296875 231.734375 256 231.734375 Z M 256 231.734375 " style=" stroke:none;fill-rule:nonzero;fill:rgb(80.392157%,82.352941%,88.235294%);fill-opacity:1;" />
<path d="M 291.683594 85.3125 C 290.945312 66.238281 275.253906 51 256 51 C 236.746094 51 221.054688 66.238281 220.316406 85.3125 L 196.375 85.3125 L 196.375 127.6875 L 315.625 127.6875 L 315.625 85.3125 Z M 291.683594 85.3125 " style=" stroke:none;fill-rule:nonzero;fill:rgb(25.490196%,28.627451%,32.156863%);fill-opacity:1;" />
<path d="M 315.625 85.3125 L 291.683594 85.3125 C 290.945312 66.238281 275.253906 51 256 51 C 255.921875 51 255.84375 51.003906 255.761719 51.007812 L 255.761719 127.6875 L 315.625 127.6875 Z M 315.625 85.3125 " style=" stroke:none;fill-rule:nonzero;fill:rgb(20%,22.352941%,25.098039%);fill-opacity:1;" />
<path d="M 155.300781 318.46875 L 230.675781 318.46875 L 230.675781 338.71875 L 155.300781 338.71875 Z M 155.300781 318.46875 " style=" stroke:none;fill-rule:nonzero;fill:rgb(99.607843%,41.568627%,8.627451%);fill-opacity:1;" />
<path d="M 237.0625 318.46875 L 341.125 318.46875 L 341.125 338.71875 L 237.0625 338.71875 Z M 237.0625 318.46875 " style=" stroke:none;fill-rule:nonzero;fill:rgb(49.411765%,52.156863%,58.823529%);fill-opacity:1;" />
<path d="M 255.761719 318.46875 L 341.125 318.46875 L 341.125 338.71875 L 255.761719 338.71875 Z M 255.761719 318.46875 " style=" stroke:none;fill-rule:nonzero;fill:rgb(43.921569%,46.666667%,53.72549%);fill-opacity:1;" />
<path d="M 155.300781 351.46875 L 230.675781 351.46875 L 230.675781 371.71875 L 155.300781 371.71875 Z M 155.300781 351.46875 " style=" stroke:none;fill-rule:nonzero;fill:rgb(99.607843%,41.568627%,8.627451%);fill-opacity:1;" />
<path d="M 237.0625 351.46875 L 307.375 351.46875 L 307.375 371.71875 L 237.0625 371.71875 Z M 237.0625 351.46875 " style=" stroke:none;fill-rule:nonzero;fill:rgb(49.411765%,52.156863%,58.823529%);fill-opacity:1;" />
<path d="M 255.761719 351.46875 L 307.375 351.46875 L 307.375 371.71875 L 255.761719 371.71875 Z M 255.761719 351.46875 " style=" stroke:none;fill-rule:nonzero;fill:rgb(43.921569%,46.666667%,53.72549%);fill-opacity:1;" />
<path d="M 155.300781 384.46875 L 230.675781 384.46875 L 230.675781 404.71875 L 155.300781 404.71875 Z M 155.300781 384.46875 " style=" stroke:none;fill-rule:nonzero;fill:rgb(99.607843%,41.568627%,8.627451%);fill-opacity:1;" />
<path d="M 237.0625 384.46875 L 356.699219 384.46875 L 356.699219 404.71875 L 237.0625 404.71875 Z M 237.0625 384.46875 " style=" stroke:none;fill-rule:nonzero;fill:rgb(49.411765%,52.156863%,58.823529%);fill-opacity:1;" />
<path d="M 255.761719 384.46875 L 356.699219 384.46875 L 356.699219 404.71875 L 255.761719 404.71875 Z M 255.761719 384.46875 " style=" stroke:none;fill-rule:nonzero;fill:rgb(43.921569%,46.666667%,53.72549%);fill-opacity:1;" />
</g>
</svg>