<svg width="1495" height="433" viewBox="0 0 1495 433" fill="none" xmlns="http://www.w3.org/2000/svg">
<path d="M0.551563 432.252V0.25218H79.1516V432.252H0.551563ZM131.272 432.252V0.25218H218.272L483.472 315.852V0.25218H563.272V432.252H476.272L210.472 116.052V432.252H131.272ZM631.691 432.252V0.25218H1029.49V80.0522H711.491V176.052H967.091V255.852H711.491V432.252H631.691ZM1146.28 432.252C1123.48 432.252 1103.88 424.052 1087.48 407.652C1071.08 391.252 1062.88 371.652 1062.88 348.852V83.6522C1062.88 60.8522 1071.08 41.2522 1087.48 24.8522C1103.88 8.45218 1123.48 0.25218 1146.28 0.25218H1411.48C1434.28 0.25218 1453.88 8.45218 1470.28 24.8522C1486.68 41.2522 1494.88 60.8522 1494.88 83.6522V348.852C1494.88 371.652 1486.68 391.252 1470.28 407.652C1453.88 424.052 1434.28 432.252 1411.48 432.252H1146.28ZM1163.08 352.452H1394.08C1404.88 352.452 1411.08 351.852 1412.68 350.652C1414.28 349.052 1415.08 342.652 1415.08 331.452V101.052C1415.08 89.8522 1414.28 83.6522 1412.68 82.4522C1411.08 80.8522 1404.88 80.0522 1394.08 80.0522H1163.08C1151.88 80.0522 1145.48 80.8522 1143.88 82.4522C1142.68 83.6522 1142.08 89.8522 1142.08 101.052V331.452C1142.08 342.652 1142.68 349.052 1143.88 350.652C1145.48 351.852 1151.88 352.452 1163.08 352.452Z" fill="white" fill-opacity="0.06"/>
</svg>
