<svg width="61" height="61" viewBox="0 0 61 61" fill="none" xmlns="http://www.w3.org/2000/svg">
<g clip-path="url(#clip0)">
<path d="M20.8817 30.5003C20.8817 24.9777 25.3575 20.4995 30.8801 20.4995C36.4028 20.4995 40.8809 24.9777 40.8809 30.5003C40.8809 36.0229 36.4028 40.5011 30.8801 40.5011C25.3575 40.5011 20.8817 36.0229 20.8817 30.5003ZM15.4755 30.5003C15.4755 39.0083 22.3721 45.9049 30.8801 45.9049C39.3881 45.9049 46.2848 39.0083 46.2848 30.5003C46.2848 21.9923 39.3881 15.0957 30.8801 15.0957C22.3721 15.0957 15.4755 21.9923 15.4755 30.5003ZM43.2946 14.4849C43.2943 15.1969 43.5052 15.893 43.9005 16.4852C44.2959 17.0773 44.8579 17.539 45.5156 17.8117C46.1733 18.0845 46.8971 18.156 47.5955 18.0174C48.2939 17.8788 48.9355 17.5362 49.4392 17.0329C49.9428 16.5296 50.286 15.8883 50.4252 15.19C50.5643 14.4918 50.4933 13.7679 50.2211 13.11C49.9489 12.4521 49.4877 11.8896 48.8959 11.4938C48.304 11.098 47.6081 10.8866 46.896 10.8863H46.8946C45.9402 10.8868 45.025 11.266 44.35 11.9407C43.675 12.6154 43.2954 13.5305 43.2946 14.4849ZM18.7601 54.9196C15.8352 54.7864 14.2455 54.2992 13.189 53.8876C11.7884 53.3423 10.789 52.6929 9.73829 51.6436C8.68757 50.5943 8.03717 49.5959 7.49429 48.1953C7.08245 47.1393 6.59525 45.549 6.46229 42.6241C6.31685 39.4619 6.28781 38.512 6.28781 30.5005C6.28781 22.4891 6.31925 21.5418 6.46229 18.3769C6.59549 15.4521 7.08629 13.8649 7.49429 12.8058C8.03957 11.4052 8.68901 10.4058 9.73829 9.35511C10.7876 8.30439 11.786 7.65399 13.189 7.11111C14.245 6.69927 15.8352 6.21207 18.7601 6.07911C21.9224 5.93367 22.8723 5.90462 30.8801 5.90462C38.888 5.90462 39.8389 5.93607 43.0037 6.07911C45.9286 6.21231 47.5157 6.70311 48.5749 7.11111C49.9755 7.65399 50.9749 8.30583 52.0256 9.35511C53.0763 10.4044 53.7243 11.4052 54.2696 12.8058C54.6814 13.8618 55.1686 15.4521 55.3016 18.3769C55.447 21.5418 55.4761 22.4891 55.4761 30.5005C55.4761 38.512 55.447 39.4593 55.3016 42.6241C55.1684 45.549 54.6788 47.1388 54.2696 48.1953C53.7243 49.5959 53.0749 50.5953 52.0256 51.6436C50.9763 52.6919 49.9755 53.3423 48.5749 53.8876C47.5189 54.2994 45.9286 54.7866 43.0037 54.9196C39.8415 55.065 38.8916 55.0941 30.8801 55.0941C22.8687 55.0941 21.9214 55.065 18.7601 54.9196ZM18.5117 0.681985C15.318 0.827425 13.1357 1.33383 11.2299 2.07543C9.25613 2.84127 7.58525 3.86871 5.91557 5.53575C4.24589 7.20279 3.22109 8.8763 2.45525 10.8501C1.71365 12.7571 1.20725 14.9382 1.06181 18.1319C0.913967 21.3306 0.880127 22.3533 0.880127 30.5003C0.880127 38.6473 0.913967 39.67 1.06181 42.8687C1.20725 46.0626 1.71365 48.2435 2.45525 50.1505C3.22109 52.1231 4.24613 53.7985 5.91557 55.4649C7.58501 57.1312 9.25613 58.1572 11.2299 58.9252C13.1393 59.6668 15.318 60.1732 18.5117 60.3186C21.7121 60.4641 22.7331 60.5003 30.8801 60.5003C39.0272 60.5003 40.0498 60.4665 43.2485 60.3186C46.4425 60.1732 48.6233 59.6668 50.5304 58.9252C52.5029 58.1572 54.175 57.1319 55.8447 55.4649C57.5144 53.7978 58.537 52.1231 59.305 50.1505C60.0466 48.2435 60.5554 46.0624 60.6985 42.8687C60.8439 39.6676 60.8777 38.6473 60.8777 30.5003C60.8777 22.3533 60.8439 21.3306 60.6985 18.1319C60.553 14.938 60.0466 12.7559 59.305 10.8501C58.537 8.87751 57.5117 7.20543 55.8447 5.53575C54.1777 3.86607 52.5029 2.84127 50.5328 2.07543C48.6233 1.33383 46.4422 0.825025 43.2509 0.681985C40.0522 0.536545 39.0296 0.500305 30.8825 0.500305C22.7355 0.500305 21.7121 0.534145 18.5117 0.681985Z" fill="#0984E3"/>
<path d="M20.8817 30.5003C20.8817 24.9777 25.3575 20.4995 30.8801 20.4995C36.4028 20.4995 40.8809 24.9777 40.8809 30.5003C40.8809 36.0229 36.4028 40.5011 30.8801 40.5011C25.3575 40.5011 20.8817 36.0229 20.8817 30.5003ZM15.4755 30.5003C15.4755 39.0083 22.3721 45.9049 30.8801 45.9049C39.3881 45.9049 46.2848 39.0083 46.2848 30.5003C46.2848 21.9923 39.3881 15.0957 30.8801 15.0957C22.3721 15.0957 15.4755 21.9923 15.4755 30.5003ZM43.2946 14.4849C43.2943 15.1969 43.5052 15.893 43.9005 16.4852C44.2959 17.0773 44.8579 17.539 45.5156 17.8117C46.1733 18.0845 46.8971 18.156 47.5955 18.0174C48.2939 17.8788 48.9355 17.5362 49.4392 17.0329C49.9428 16.5296 50.286 15.8883 50.4252 15.19C50.5643 14.4918 50.4933 13.7679 50.2211 13.11C49.9489 12.4521 49.4877 11.8896 48.8959 11.4938C48.304 11.098 47.6081 10.8866 46.896 10.8863H46.8946C45.9402 10.8868 45.025 11.266 44.35 11.9407C43.675 12.6154 43.2954 13.5305 43.2946 14.4849ZM18.7601 54.9196C15.8352 54.7864 14.2455 54.2992 13.189 53.8876C11.7884 53.3423 10.789 52.6929 9.73829 51.6436C8.68757 50.5943 8.03717 49.5959 7.49429 48.1953C7.08245 47.1393 6.59525 45.549 6.46229 42.6241C6.31685 39.4619 6.28781 38.512 6.28781 30.5005C6.28781 22.4891 6.31925 21.5418 6.46229 18.3769C6.59549 15.4521 7.08629 13.8649 7.49429 12.8058C8.03957 11.4052 8.68901 10.4058 9.73829 9.35511C10.7876 8.30439 11.786 7.65399 13.189 7.11111C14.245 6.69927 15.8352 6.21207 18.7601 6.07911C21.9224 5.93367 22.8723 5.90462 30.8801 5.90462C38.888 5.90462 39.8389 5.93607 43.0037 6.07911C45.9286 6.21231 47.5157 6.70311 48.5749 7.11111C49.9755 7.65399 50.9749 8.30583 52.0256 9.35511C53.0763 10.4044 53.7243 11.4052 54.2696 12.8058C54.6814 13.8618 55.1686 15.4521 55.3016 18.3769C55.447 21.5418 55.4761 22.4891 55.4761 30.5005C55.4761 38.512 55.447 39.4593 55.3016 42.6241C55.1684 45.549 54.6788 47.1388 54.2696 48.1953C53.7243 49.5959 53.0749 50.5953 52.0256 51.6436C50.9763 52.6919 49.9755 53.3423 48.5749 53.8876C47.5189 54.2994 45.9286 54.7866 43.0037 54.9196C39.8415 55.065 38.8916 55.0941 30.8801 55.0941C22.8687 55.0941 21.9214 55.065 18.7601 54.9196ZM18.5117 0.681985C15.318 0.827425 13.1357 1.33383 11.2299 2.07543C9.25613 2.84127 7.58525 3.86871 5.91557 5.53575C4.24589 7.20279 3.22109 8.8763 2.45525 10.8501C1.71365 12.7571 1.20725 14.9382 1.06181 18.1319C0.913967 21.3306 0.880127 22.3533 0.880127 30.5003C0.880127 38.6473 0.913967 39.67 1.06181 42.8687C1.20725 46.0626 1.71365 48.2435 2.45525 50.1505C3.22109 52.1231 4.24613 53.7985 5.91557 55.4649C7.58501 57.1312 9.25613 58.1572 11.2299 58.9252C13.1393 59.6668 15.318 60.1732 18.5117 60.3186C21.7121 60.4641 22.7331 60.5003 30.8801 60.5003C39.0272 60.5003 40.0498 60.4665 43.2485 60.3186C46.4425 60.1732 48.6233 59.6668 50.5304 58.9252C52.5029 58.1572 54.175 57.1319 55.8447 55.4649C57.5144 53.7978 58.537 52.1231 59.305 50.1505C60.0466 48.2435 60.5554 46.0624 60.6985 42.8687C60.8439 39.6676 60.8777 38.6473 60.8777 30.5003C60.8777 22.3533 60.8439 21.3306 60.6985 18.1319C60.553 14.938 60.0466 12.7559 59.305 10.8501C58.537 8.87751 57.5117 7.20543 55.8447 5.53575C54.1777 3.86607 52.5029 2.84127 50.5328 2.07543C48.6233 1.33383 46.4422 0.825025 43.2509 0.681985C40.0522 0.536545 39.0296 0.500305 30.8825 0.500305C22.7355 0.500305 21.7121 0.534145 18.5117 0.681985Z" fill="#0984E3"/>
</g>
<defs>
<clipPath id="clip0">
<rect width="60" height="60" fill="white" transform="translate(0.880127 0.500305)"/>
</clipPath>
</defs>
</svg>
