<svg width="61" height="61" viewBox="0 0 61 61" fill="none" xmlns="http://www.w3.org/2000/svg">
<path d="M30.1031 0.500305C13.5345 0.500305 0.103149 13.9316 0.103149 30.5002C0.103149 47.0688 13.5345 60.5001 30.1031 60.5001C46.6718 60.5001 60.1032 47.0688 60.1032 30.5002C60.1031 13.9316 46.6715 0.500305 30.1031 0.500305ZM22.0991 45.0037H15.5123V23.7237H22.0991V45.0037ZM18.7743 20.937C16.6231 20.937 14.8792 19.1789 14.8792 17.0105C14.8792 14.8418 16.6233 13.0838 18.7743 13.0838C20.9252 13.0838 22.6691 14.8418 22.6691 17.0105C22.6692 19.179 20.9253 20.937 18.7743 20.937ZM46.7831 45.0037H40.2282V33.8335C40.2282 30.7698 39.0645 29.0597 36.642 29.0597C34.0054 29.0597 32.6281 30.8408 32.6281 33.8335V45.0037H26.3106V23.7237H32.6281V26.5898C32.6281 26.5898 34.5284 23.0746 39.0406 23.0746C43.553 23.0746 46.7832 25.8299 46.7832 31.5296L46.7831 45.0037Z" fill="url(#paint0_linear)"/>
<defs>
<linearGradient id="paint0_linear" x1="8.88993" y1="9.28706" x2="51.3162" y2="51.7134" gradientUnits="userSpaceOnUse">
<stop stop-color="#0984E3"/>
<stop offset="1" stop-color="#0575B3"/>
</linearGradient>
</defs>
</svg>
