<svg width="319" height="318" viewBox="0 0 319 318" fill="none" xmlns="http://www.w3.org/2000/svg">
<path d="M154.935 47.4336L154.453 47.1887L153.983 47.4574L53.4022 104.998L52.8837 105.294L52.8995 105.89L55.7707 214.534L55.7857 215.103L56.2845 215.38L159.907 272.923L160.402 273.198L160.894 272.916L265.893 212.648L266.411 212.352L266.395 211.757L263.524 103.113L263.508 102.518L262.977 102.249L154.935 47.4336Z" stroke="#1F0A34" stroke-width="2"/>
<path d="M84.3167 241.24L84.4845 241.754L85.0066 241.895L196.661 272.062L197.239 272.218L197.649 271.783L272.339 192.614L272.729 192.2L272.573 191.654L240.034 77.6259L239.879 77.0814L239.332 76.9345L122.632 45.5833L122.055 45.4283L121.645 45.8629L46.9554 125.032L46.548 125.464L46.7321 126.028L84.3167 241.24Z" stroke="#1F0A34" stroke-width="2"/>
<path d="M242.16 234.256L242.674 234.088L242.813 233.566L272.629 121.757L272.783 121.181L272.348 120.771L193.082 45.9782L192.667 45.5864L192.119 45.7432L78.3384 78.3268L77.7946 78.4825L77.6495 79.0294L46.6644 195.891L46.5118 196.466L46.9458 196.876L126.212 271.669L126.646 272.078L127.211 271.893L242.16 234.256Z" stroke="#1F0A34" stroke-width="2"/>
<path d="M124.715 195.825V126.705H181.259C184.715 126.705 187.659 127.921 190.091 130.353C192.587 132.785 193.835 135.729 193.835 139.185V183.345C193.835 186.801 192.587 189.745 190.091 192.177C187.659 194.609 184.715 195.825 181.259 195.825H124.715ZM138.635 185.457H179.819C181.227 185.457 182.155 185.233 182.603 184.785C183.115 184.273 183.371 183.313 183.371 181.905V140.625C183.371 139.217 183.115 138.289 182.603 137.841C182.155 137.329 181.227 137.073 179.819 137.073H138.635C137.227 137.073 136.267 137.329 135.755 137.841C135.307 138.289 135.083 139.217 135.083 140.625V181.905C135.083 183.313 135.307 184.273 135.755 184.785C136.267 185.233 137.227 185.457 138.635 185.457Z" fill="#1F0A34"/>
</svg>
