<svg width="175" height="175" viewBox="0 0 175 175" fill="none" xmlns="http://www.w3.org/2000/svg">
<path d="M87.4703 29.5656L86.5149 29.0604L85.5688 29.5827L33.6886 58.2231L32.6552 58.7936L32.6552 59.974L32.6552 115.334L32.6552 116.487L33.654 117.065L85.5342 147.065L86.5142 147.632L87.5045 147.083L141.667 117.083L142.698 116.512L142.698 115.334L142.698 59.974L142.698 58.7691L141.633 58.2059L87.4703 29.5656Z" stroke="url(#paint0_linear)" stroke-width="4"/>
<path d="M64.7474 112.834V66.7536H102.443C104.747 66.7536 106.71 67.5643 108.331 69.1856C109.995 70.8069 110.827 72.7696 110.827 75.0736V104.514C110.827 106.818 109.995 108.78 108.331 110.402C106.71 112.023 104.747 112.834 102.443 112.834H64.7474ZM74.0274 105.922H101.483C102.422 105.922 103.041 105.772 103.339 105.474C103.681 105.132 103.851 104.492 103.851 103.554V76.0336C103.851 75.095 103.681 74.4763 103.339 74.1776C103.041 73.8363 102.422 73.6656 101.483 73.6656H74.0274C73.0887 73.6656 72.4487 73.8363 72.1074 74.1776C71.8087 74.4763 71.6594 75.095 71.6594 76.0336V103.554C71.6594 104.492 71.8087 105.132 72.1074 105.474C72.4487 105.772 73.0887 105.922 74.0274 105.922Z" fill="#0984E3"/>
<defs>
<linearGradient id="paint0_linear" x1="32.5" y1="86" x2="143" y2="85.5" gradientUnits="userSpaceOnUse">
<stop stop-color="#B007A8"/>
<stop offset="0.401042" stop-color="#32AB9C"/>
<stop offset="1" stop-color="#DEAC70"/>
</linearGradient>
</defs>
</svg>
