<svg width="962" height="962" viewBox="0 0 962 962" fill="none" xmlns="http://www.w3.org/2000/svg">
<path fill-rule="evenodd" clip-rule="evenodd" d="M847.736 859.924H857.901V945.855L795.766 880.818V942.66H785.316V855.851L847.736 921.182V859.924ZM555.69 859.924V912.467C555.69 921.755 553.073 929.303 547.843 935.116C542.334 941.503 534.786 944.404 525.204 944.404C516.205 944.404 508.661 941.503 503.137 935.116C497.628 929.303 495.006 921.755 495.006 912.467V859.924H505.466V908.982C505.466 926.112 511.852 934.827 525.204 934.827C538.844 934.827 545.525 926.112 545.525 908.982V859.924H555.69ZM587.623 859.924H637.264V869.506H617.527V942.665H607.655V869.506H587.623V859.924V859.924ZM569.625 859.924H580.075V942.665H569.625V859.924ZM478.175 859.924H489.497L453.496 947.306L417.5 859.924H428.822L453.501 921.182L478.175 859.924V859.924ZM766.157 901.434C766.157 910.722 762.961 918.564 756.29 925.24C750.193 931.626 742.355 934.822 733.346 934.822C724.348 934.822 716.51 931.626 709.84 925.24C703.159 918.559 699.968 910.722 699.968 901.434C699.968 892.146 702.87 884.303 709.256 877.917C715.643 871.246 723.774 868.05 733.346 868.05C742.929 868.05 750.766 871.246 756.864 877.917C762.966 884.303 766.157 892.141 766.157 901.434ZM763.838 870.952C755.133 862.531 744.968 858.179 733.352 858.179C721.451 858.179 711.295 862.531 702.581 870.952C694.165 879.368 689.807 889.533 689.807 901.429C689.807 913.619 694.17 923.784 702.581 932.2C711.001 940.331 721.162 944.4 733.352 944.4C745.262 944.4 755.707 940.331 763.838 932.2C772.259 923.784 776.611 913.619 776.611 901.429C776.616 889.533 772.264 879.368 763.838 870.952ZM687.489 859.924V869.506H668.035V942.665H657.586V869.506H637.848V859.924H687.489ZM207.313 877.917C213.411 884.303 216.312 892.146 216.312 901.434C216.312 910.722 213.116 918.564 206.735 925.24C200.348 931.626 192.506 934.822 183.507 934.822C174.508 934.822 166.671 931.626 159.995 925.24C153.898 918.559 150.418 910.722 150.418 901.434C150.418 892.146 153.609 884.303 159.706 877.917C166.092 871.246 173.935 868.05 183.512 868.05C193.089 868.05 201.221 871.246 207.313 877.917ZM213.994 870.952C205.284 862.531 195.124 858.179 183.512 858.179C171.607 858.179 161.162 862.531 153.03 870.952C144.32 879.368 139.968 889.533 139.968 901.429C139.968 913.619 144.325 923.784 153.03 932.2C161.162 940.331 171.322 944.4 183.512 944.4C195.707 944.4 205.867 940.331 213.994 932.2C222.704 923.784 226.767 913.619 226.767 901.429C226.767 889.533 222.704 879.368 213.994 870.952ZM245.637 908.977C245.637 926.107 252.313 934.822 265.669 934.822C278.737 934.822 285.701 926.107 285.701 908.977V859.919H295.862V912.462C295.862 921.75 293.25 929.298 287.731 935.111C282.217 941.498 274.668 944.4 265.669 944.4C256.381 944.4 249.122 941.498 243.608 935.111C237.8 929.298 235.193 921.75 235.193 912.462V859.919H245.642V908.977H245.637ZM113.834 859.924V933.371H139.091V942.66H103.673V859.919H113.834V859.924ZM362.629 893.886C376.564 899.395 383.244 907.526 383.244 918.559C383.244 926.107 380.632 932.2 375.407 937.14C370.471 942.076 364.374 944.404 357.115 944.404C350.439 944.404 344.631 942.37 339.7 937.724C335.054 933.371 332.152 927.852 331.28 921.182L341.729 918.853C341.729 923.5 343.18 927.274 346.376 930.47C349.572 933.371 353.052 934.822 357.698 934.822C362.056 934.822 365.536 933.077 368.731 929.886C371.344 926.985 372.795 923.206 372.795 918.564C372.795 912.178 368.148 906.958 358.571 902.885L352.762 900.86C341.151 895.341 335.054 888.377 335.054 879.662C335.054 873.275 337.666 867.761 342.313 863.982C347.248 859.924 352.762 858.179 359.443 858.179C369.02 858.179 375.99 862.531 380.632 870.952L372.505 875.599C369.31 870.663 364.957 868.05 359.149 868.05C355.664 868.05 352.179 868.918 349.567 870.952C346.665 873.27 345.209 876.182 345.209 879.657C345.209 884.593 348.983 888.372 357.11 891.273L362.629 893.886V893.886ZM309.797 859.924H320.252V942.665H309.797V859.924ZM717.462 111.998L517.232 584.585L461.992 463.371L564.026 185.65C571.699 164.172 598.546 154.196 643.816 154.196L659.919 111.998H422.097L406.751 154.196C440.509 154.196 454.319 164.167 448.944 185.65L398.316 326.811L298.584 111.998C280.172 88.9842 289.376 77.4725 325.437 77.4725V27.6117H95.2773V77.4774C138.243 77.4774 165.09 88.9892 176.602 112.003L345.384 471.049L266.362 682.024C264.822 710.406 220.331 724.226 134.404 724.226L118.296 766.419H775.001L866.297 572.321H818.73C774.238 672.82 722.837 724.226 665.298 724.226H363.791L408.287 605.31L446.646 682.024H532.572L774.996 112.008C786.508 77.4824 816.431 59.0757 863.226 59.0757V14.5645H665.293V59.0657C725.135 59.0657 742.016 77.4775 717.462 111.998V111.998Z" fill="white"/>
</svg>
