<svg width="175" height="175" viewBox="0 0 175 175" fill="none" xmlns="http://www.w3.org/2000/svg">
<path d="M87.4349 29.732L86.4795 29.2268L85.5334 29.7491L33.6532 58.3894L32.6198 58.9599L32.6198 60.1404L32.6198 115.5L32.6198 116.654L33.6186 117.231L85.4988 147.231L86.4788 147.798L87.4691 147.25L141.631 117.25L142.662 116.679L142.662 115.5L142.662 60.1403L142.662 58.9355L141.597 58.3723L87.4349 29.732Z" stroke="url(#paint0_linear)" stroke-width="4"/>
<path d="M64.712 113V66.92H102.408C104.712 66.92 106.675 67.7307 108.296 69.352C109.96 70.9733 110.792 72.936 110.792 75.24V104.68C110.792 106.984 109.96 108.947 108.296 110.568C106.675 112.189 104.712 113 102.408 113H64.712ZM73.992 106.088H101.448C102.387 106.088 103.005 105.939 103.304 105.64C103.645 105.299 103.816 104.659 103.816 103.72V76.2C103.816 75.2613 103.645 74.6427 103.304 74.344C103.005 74.0027 102.387 73.832 101.448 73.832H73.992C73.0533 73.832 72.4133 74.0027 72.072 74.344C71.7733 74.6427 71.624 75.2613 71.624 76.2V103.72C71.624 104.659 71.7733 105.299 72.072 105.64C72.4133 105.939 73.0533 106.088 73.992 106.088Z" fill="#0984E3"/>
<defs>
<linearGradient id="paint0_linear" x1="112" y1="48.5" x2="59.5" y2="126.5" gradientUnits="userSpaceOnUse">
<stop stop-color="#B007A8"/>
<stop offset="0.40625" stop-color="#32AB9C"/>
<stop offset="1" stop-color="#DEAC70"/>
</linearGradient>
</defs>
</svg>
