<svg width="961" height="962" viewBox="0 0 961 962" fill="none" xmlns="http://www.w3.org/2000/svg">
<path fill-rule="evenodd" clip-rule="evenodd" d="M213.089 356.724C163.826 414.637 116.593 486.454 116.119 540.135C115.935 560.333 122.376 577.965 137.826 591.32C160.062 610.555 184.561 617.337 208.941 617.377C244.567 617.427 279.945 603.039 307.645 591.944C354.295 573.269 869.968 349.099 869.968 349.099C874.944 346.603 874.012 343.494 867.785 345.046C865.272 345.675 306.394 497.289 306.394 497.289C295.807 500.287 284.869 501.854 273.868 501.951C230.917 502.205 192.698 478.34 193.007 428.048C193.126 408.369 199.144 384.638 213.089 356.724V356.724Z" fill="white"/>
</svg>
