<svg width="2124" height="872" viewBox="0 0 2124 872" fill="none" xmlns="http://www.w3.org/2000/svg">
<path d="M483.127 300.675L520.653 235.478C531.59 216.391 525.157 191.943 506.072 181.005C486.987 170.068 462.541 176.501 451.605 195.588L413.864 260.785C333.664 235.478 243.815 268.291 200.07 344.21C172.193 392.464 168.762 448.01 185.703 496.692L255.18 376.165C271.049 348.499 296.995 328.769 327.874 320.405C358.753 312.041 390.919 316.33 418.581 332.415C475.622 365.442 495.35 438.788 462.327 495.834C429.303 552.881 356.18 572.612 298.925 539.585L338.811 470.528C357.896 481.465 382.341 475.032 393.278 455.945C404.214 436.858 397.781 412.409 378.696 401.471C359.611 390.534 335.165 396.968 324.229 416.055L197.282 636.307C186.346 655.394 192.779 679.842 211.864 690.78C230.949 701.717 255.395 695.283 266.331 676.196L304.072 611C384.271 636.307 474.121 603.494 517.866 527.575C561.611 451.87 545.099 357.721 483.127 300.675Z" fill="white"/>
<path d="M651.889 348.07H713.647C749.458 348.07 779.05 365.871 779.05 407.047C779.05 448.224 749.458 466.239 713.647 466.239H688.129V523.929H651.889V348.07ZM712.574 434.498C730.373 434.498 741.738 426.563 741.738 407.047C741.738 387.317 729.944 380.025 712.574 380.025H688.129V434.498H712.574Z" fill="white"/>
<path d="M832.016 348.07H948.241V379.811H868.256V420.129H938.805V451.226H868.256V491.974H951.886V523.714H832.016V348.07Z" fill="white"/>
<path d="M1012.57 348.07H1048.6V491.974H1128.15V523.714H1012.57V348.07V348.07Z" fill="white"/>
<path d="M1168.47 436C1168.47 384.1 1208.78 345.926 1259.39 345.926C1310 345.926 1350.31 384.1 1350.31 436C1350.31 487.899 1310 526.073 1259.39 526.073C1208.78 526.073 1168.47 487.899 1168.47 436ZM1313 436C1313 403.187 1291.34 378.095 1259.39 378.095C1227.44 378.095 1205.78 403.187 1205.78 436C1205.78 468.812 1227.44 493.904 1259.39 493.904C1291.34 493.904 1313 468.812 1313 436Z" fill="white"/>
<path d="M1439.3 379.811H1389.12V348.07H1525.51V379.811H1475.33V523.714H1439.09V379.811H1439.3Z" fill="white"/>
<path d="M1564.1 436C1564.1 384.1 1604.42 345.926 1655.03 345.926C1705.63 345.926 1745.95 384.1 1745.95 436C1745.95 487.899 1705.63 526.073 1655.03 526.073C1604.42 526.073 1564.1 487.899 1564.1 436ZM1708.64 436C1708.64 403.187 1686.98 378.095 1655.03 378.095C1623.07 378.095 1601.42 403.187 1601.42 436C1601.42 468.812 1623.07 493.904 1655.03 493.904C1686.98 493.904 1708.64 468.812 1708.64 436Z" fill="white"/>
<path d="M1856.17 442.219C1847.38 433.855 1835.15 418.199 1835.15 418.199C1835.15 418.199 1837.73 437.501 1837.73 450.154V523.714H1803.85V346.569H1807.49L1896.05 429.78C1904.63 437.715 1916.64 453.8 1916.64 453.8C1916.64 453.8 1914.28 433.855 1914.28 421.845V348.285H1948.16V525.43H1944.52L1856.17 442.219Z" fill="white"/>
</svg>
