<svg width="411" height="285" viewBox="0 0 411 285" fill="none" xmlns="http://www.w3.org/2000/svg">
<rect x="1" y="1" width="410" height="284" fill="black"/>
<path d="M205.435 82.732L204.48 82.2268L203.533 82.7491L151.653 111.389L150.62 111.96L150.62 113.14L150.62 168.5L150.62 169.654L151.619 170.231L203.499 200.231L204.479 200.798L205.469 200.25L259.631 170.25L260.662 169.679L260.662 168.5L260.662 113.14L260.662 111.936L259.597 111.372L205.435 82.732Z" stroke="url(#paint0_linear)" stroke-width="4"/>
<path d="M182.712 166V119.92H220.408C222.712 119.92 224.675 120.731 226.296 122.352C227.96 123.973 228.792 125.936 228.792 128.24V157.68C228.792 159.984 227.96 161.947 226.296 163.568C224.675 165.189 222.712 166 220.408 166H182.712ZM191.992 159.088H219.448C220.387 159.088 221.005 158.939 221.304 158.64C221.645 158.299 221.816 157.659 221.816 156.72V129.2C221.816 128.261 221.645 127.643 221.304 127.344C221.005 127.003 220.387 126.832 219.448 126.832H191.992C191.053 126.832 190.413 127.003 190.072 127.344C189.773 127.643 189.624 128.261 189.624 129.2V156.72C189.624 157.659 189.773 158.299 190.072 158.64C190.413 158.939 191.053 159.088 191.992 159.088Z" fill="#0984E3"/>
<rect x="0.216522" y="0.308258" width="409.701" height="284.226" fill="black" fill-opacity="0.34"/>
<defs>
<linearGradient id="paint0_linear" x1="230" y1="101.5" x2="177.5" y2="179.5" gradientUnits="userSpaceOnUse">
<stop stop-color="#B007A8"/>
<stop offset="0.40625" stop-color="#32AB9C"/>
<stop offset="1" stop-color="#DEAC70"/>
</linearGradient>
</defs>
</svg>
