<?xml version="1.0" encoding="iso-8859-1"?>
<!-- Generator: Adobe Illustrator 19.0.0, SVG Export Plug-In . SVG Version: 6.00 Build 0)  -->
<svg version="1.1" id="Capa_1" xmlns="http://www.w3.org/2000/svg" xmlns:xlink="http://www.w3.org/1999/xlink" x="0px" y="0px"
	 viewBox="0 0 512 512" style="enable-background:new 0 0 512 512;" xml:space="preserve">
<circle style="fill:#FF68A5;" cx="256" cy="256" r="256"/>
<path style="fill:#FF0099;" d="M110,345.879l165.394,165.394C407.719,501.361,512,390.86,512,256c0-8.023-0.388-15.955-1.11-23.79
	L402,123.32L110,345.879z"/>
<polygon style="fill:#9ABADB;" points="299.722,380.125 299.722,345.879 244.585,334.464 256,380.125 "/>
<g>
	<polygon style="fill:#D1E8FF;" points="212.278,380.125 256,380.125 256,334.464 212.278,345.879 	"/>
	<polygon style="fill:#D1E8FF;" points="402,294.51 244.585,283.094 256,345.879 402,345.879 	"/>
</g>
<polygon style="fill:#F5F5FF;" points="110,294.51 110,345.879 256,345.879 256,283.094 "/>
<polygon style="fill:#D1E8FF;" points="325.406,371.57 256,371.57 250.292,380.125 256,388.68 325.406,388.68 "/>
<rect x="186.59" y="371.57" style="fill:#F5F5FF;" width="69.41" height="17.11"/>
<polygon style="fill:#294B6E;" points="402,123.32 256,123.32 244.585,208.915 256,294.51 402,294.51 "/>
<rect x="110" y="123.32" style="fill:#6283A3;" width="146" height="171.19"/>
<polygon style="fill:#F5F5FF;" points="211.988,254.24 166.663,208.915 211.988,163.59 224.086,175.688 190.859,208.915 
	224.086,242.142 "/>
<g>
	<polygon style="fill:#D1E8FF;" points="300.012,254.24 287.914,242.142 321.141,208.915 287.914,175.688 300.012,163.59 
		345.337,208.915 	"/>
	
		<rect x="247.44" y="154.846" transform="matrix(-0.9808 -0.1951 0.1951 -0.9808 466.3129 463.7625)" style="fill:#D1E8FF;" width="17.11" height="108.142"/>
</g>
<g>
</g>
<g>
</g>
<g>
</g>
<g>
</g>
<g>
</g>
<g>
</g>
<g>
</g>
<g>
</g>
<g>
</g>
<g>
</g>
<g>
</g>
<g>
</g>
<g>
</g>
<g>
</g>
<g>
</g>
</svg>
