<svg enable-background="new 0 0 140 140" height="512" viewBox="0 0 140 140" width="512" xmlns="http://www.w3.org/2000/svg"><circle cx="70" cy="70" fill="#dc594e" r="64"/><path d="m133.9699707 68.9699707c.0100098.3500977.0300293.6899414.0300293 1.0300293 0 35.3500977-28.6500244 64-64 64-1.9099731 0-3.789978-.1000977-5.6599731-.2600098l-28.9800415-28.9899902v-74.75h7.5499878c.0100097-1.7099609 1.3900146-3.0800781 3.0900268-3.0800781.9899902 0 1.8599854.4702148 2.4199829 1.1899414l1.2600098 1.3000488c.2800293-1.4199219 1.5300293-2.4899902 3.0300293-2.4899902.8899536 0 1.6799927.380127 2.25.9799805l1.4299927 1.4902344c.289978-1.420166 1.5299683-2.4702148 3.0299683-2.4702148.9100342 0 1.7200317.4001465 2.2800293 1.0300293l1.3999634 1.4001465c.3099976-1.3901367 1.5400391-2.4301758 3.0200195-2.4301758.7800293 0 1.4799805.2900391 2.0200195.7600098l.0899658.0800781c.0500488.0400391.0900269.079834.1300049.130127l1.460022 1.449707c.3099976-1.3898926 1.539978-2.4199219 3.0100098-2.4199219.8299561 0 1.5899658.3300781 2.1499634.8701172l.0100098-.0100098 1.5300293 1.5700684c.3099976-1.3901367 1.5299683-2.4301758 3.0199585-2.4301758.8200073 0 1.5500488.3200684 2.1000366.8400879l.0100096-.0100099.0299683.0400391c.0300293.0200195.0499878.0400391.0700073.0600586l2.1400146 2.1499023h6.289978l8.7000122 8.6999512c.5999756-.6699219 1.4699707-1.0900879 2.4400024-1.0900879 1.1400146 0 2.1400146.5700684 2.7399902 1.4501953z" opacity=".1"/><path d="m97.9989624 44.7861328v52.4150391l3.3186646 7.9436035 3.3186645-7.9436035v-52.4150391z" fill="#ffd25a"/><path d="m39.363682 34.001133h54.818676v74.752739h-54.818676z" fill="#dad7dc"/><path d="m35.363682 30.001135h54.818676v74.752739h-54.818676z" fill="#e6e7e8"/><g fill="#32796b"><path d="m49.0936356 29.9963322h-1c-.0100098-1.1599121-.9400024-2.079834-2.0900269-2.079834s-2.0800171.9199219-2.0899658 2.079834v.0100098c0 1.1501465.9399414 2.0800762 2.0899658 2.0800762.2800293 0 .5.2299805.5.5 0 .2800293-.2199707.5-.5.5-1.7000122 0-3.0899658-1.3798809-3.0899658-3.0800762v-.0100098c.0099487-1.7099609 1.3899536-3.079834 3.0899658-3.079834 1.710022 0 3.0800171 1.369873 3.0900269 3.079834z"/><path d="m55.8035965 29.9963322h-1c-.0100098-1.1599121-.9400024-2.079834-2.0899658-2.079834-1.1500244 0-2.0800171.9199219-2.0900269 2.079834v.0100098c0 1.1501465.9400024 2.0800762 2.0900269 2.0800762.2799683 0 .5.2299805.5.5 0 .2800293-.2200317.5-.5.5-1.7000122 0-3.0900269-1.3798809-3.0900269-3.0800762v-.0100098c.0100098-1.7099609 1.3900146-3.079834 3.0900269-3.079834s3.079956 1.369873 3.0899658 3.079834z"/><path d="m62.5036087 29.9963322h-1c-.0100098-1.1599121-.9299927-2.079834-2.0800171-2.079834-1.1599731 0-2.0799561.9199219-2.0899658 2.079834v.0100098c0 1.1501465.9299927 2.0800762 2.0899658 2.0800762.2700195 0 .5.2299805.5.5 0 .2800293-.2299805.5-.5.5-1.7099609 0-3.0899658-1.3798809-3.0899658-3.0800762v-.0100098c.0100098-1.7099609 1.3800049-3.079834 3.0899658-3.079834 1.7000122 0 3.0700073 1.369873 3.0800171 3.079834z"/><path d="m69.2136307 29.9963322h-1c-.0100098-1.1599121-.9400024-2.079834-2.0900269-2.079834-1.1499634 0-2.0800171.9199219-2.0899658 2.079834v.0100098c0 1.1501465.9400024 2.0800762 2.0899658 2.0800762.2800293 0 .5.2299805.5.5 0 .2800293-.2199707.5-.5.5-1.7000122 0-3.0899658-1.3798809-3.0899658-3.0800762v-.0100098c.0099487-1.7099609 1.3899536-3.079834 3.0899658-3.079834 1.710022 0 3.0800171 1.369873 3.0900269 3.079834z"/><path d="m75.9235916 29.9963322h-1c-.0099487-1.1599121-.9400024-2.079834-2.0899658-2.079834-1.1500244 0-2.0800171.9199219-2.0900269 2.079834v.0100098c0 1.1501465.9400024 2.0800762 2.0900269 2.0800762.2799683 0 .5.2299805.5.5 0 .2800293-.2200317.5-.5.5-1.7000122 0-3.0900269-1.3798809-3.0900269-3.0800762v-.0100098c.0100098-1.7099609 1.3900146-3.079834 3.0900269-3.079834s3.0800171 1.369873 3.0899658 3.079834z"/><path d="m82.6336136 29.9963322h-1c-.0100098-1.1599121-.9400024-2.079834-2.0900269-2.079834-1.1499634 0-2.0799561.9199219-2.0899658 2.079834v.0100098c0 1.1501465.9400024 2.0800762 2.0899658 2.0800762.2700195 0 .5.2299805.5.5 0 .2800293-.2299805.5-.5.5-1.7099609 0-3.0899658-1.3798809-3.0899658-3.0800762v-.0100098c.0100098-1.7099609 1.3800049-3.079834 3.0899658-3.079834 1.7000122 0 3.0800171 1.369873 3.0900269 3.079834z"/></g><path d="m100.211403 44.786129h2.212457v52.41499h-2.212457z" fill="#d6b24e"/><path d="m97.998947 43.266411h6.637369v1.595607h-6.637369z" fill="#e6e7e8"/><path d="m101.3176346 37.6101608h-.0000076c-1.8328552 0-3.3186798 1.4858246-3.3186798 3.3186798v2.4134598h6.6373672v-2.4134598c0-1.8328552-1.4858246-3.3186798-3.3186798-3.3186798z" fill="#e7a04e"/><path d="m101.3176346 105.1448364-3.3186875-7.9437179h6.6373673z" fill="#e6e7e8"/><path d="m99.7840652 101.4739532 1.5335694 3.6708985 1.5336304-3.6708985z" fill="#304651"/><path d="m77.1263733 58.3984146c.2759781 0 .4992981-.22332.4992981-.4992981 0-.2759819-.22332-.4992981-.4992981-.4992981h-5.5371323v-9.7177849h5.5371323c.2759781 0 .4992981-.2233162.4992981-.4992981 0-.2759781-.22332-.4992943-.4992981-.4992943h-6.0364304c-.2759781 0-.4992981.2233162-.4992981.4992943v10.217083h-5.5376282c-.2759781 0-.4992981.2233162-.4992981.4992981 0 .2759781.22332.4992981.4992981.4992981h5.5376282v9.8143234c0 .2759781.22332.4992981.4992981.4992981h6.0364304c.2759781 0 .4992981-.22332.4992981-.4992981s-.22332-.4992981-.4992981-.4992981h-5.5371323v-9.3150253z" fill="#dad7dc"/><path d="m60.4930229 57.3998184h-5.5376244v-9.8153038c0-.2759781-.2233162-.4992981-.4992981-.4992981h-6.0364342c-.2759781 0-.4992981.22332-.4992981.4992981 0 .2759819.22332.4992981.4992981.4992981h5.5371361v9.3160057h-5.5371361c-.2759781 0-.4992981.2233162-.4992981.4992981 0 .2759781.22332.4992981.4992981.4992981h5.5371361v9.7168045h-5.5371361c-.2759781 0-.4992981.22332-.4992981.4992981s.22332.4992981.4992981.4992981h6.0364342c.2759819 0 .4992981-.22332.4992981-.4992981v-10.2161026h5.5376244c.2759819 0 .4992981-.22332.4992981-.4992981 0-.2759819-.2233162-.4992981-.4992981-.4992981z" fill="#dad7dc"/><circle cx="62.773" cy="57.899" fill="#4388b9" r="4.99"/><circle cx="77.815" cy="68.213" fill="#48b19a" r="3.52"/><circle cx="77.815" cy="47.585" fill="#db584d" r="3.52"/><circle cx="47.732" cy="47.585" fill="#48b19a" r="3.52"/><circle cx="47.732" cy="68.213" fill="#db584d" r="3.52"/><circle cx="77.815" cy="57.899" fill="#e7a04e" r="3.52"/><circle cx="47.732" cy="57.899" fill="#e7a04e" r="3.52"/><g fill="#b0b1b5"><path d="m40.260586 75.969841h45.024876v1.311413h-45.024876z"/><path d="m40.260586 80.142517h45.024876v1.311413h-45.024876z"/><path d="m40.260586 84.315193h45.024876v1.311413h-45.024876z"/><path d="m40.260586 88.487869h45.024876v1.311413h-45.024876z"/><path d="m40.260586 92.660545h15.339256v1.311413h-15.339256z"/><path d="m40.260586 96.833221h15.339256v1.311413h-15.339256z"/><path d="m69.946205 92.660545h15.339256v1.311413h-15.339256z"/><path d="m69.946205 96.833221h15.339256v1.311413h-15.339256z"/></g></svg>