<svg width="45" height="37" viewBox="0 0 45 37" fill="none" xmlns="http://www.w3.org/2000/svg">
<path d="M43.3936 16.5546L27.7653 0.92598C27.3192 0.479859 26.7246 0.234985 26.0906 0.234985C25.4559 0.234985 24.8616 0.480211 24.4155 0.92598L22.9966 2.34526C22.5508 2.79068 22.3052 3.38563 22.3052 4.01998C22.3052 4.65397 22.5508 5.26897 22.9966 5.71439L32.1139 14.8518H3.14773C1.84173 14.8518 0.809814 15.8742 0.809814 17.1805V19.187C0.809814 20.4934 1.84173 21.6189 3.14773 21.6189H32.2174L22.9969 30.8073C22.5512 31.2534 22.3056 31.8322 22.3056 32.4665C22.3056 33.1002 22.5512 33.6874 22.9969 34.1331L24.4159 35.5478C24.862 35.994 25.4562 36.2371 26.0909 36.2371C26.7249 36.2371 27.3195 35.9908 27.7656 35.5447L43.394 19.9164C43.8411 19.4688 44.0871 18.8714 44.0853 18.2364C44.0867 17.5992 43.8411 17.0015 43.3936 16.5546Z" fill="white"/>
</svg>
