<svg width="1518" height="355" viewBox="0 0 1518 355" fill="none" xmlns="http://www.w3.org/2000/svg">
<path d="M73.3291 354.11C53.4025 354.11 36.2525 347.087 21.8791 333.04C7.83246 318.667 0.809122 301.517 0.809122 281.59V248.76H76.7591V261.5C76.7591 272.28 76.7591 277.67 76.7591 277.67C76.7591 277.67 82.1491 277.67 92.9291 277.67H260.509C271.289 277.67 276.679 277.67 276.679 277.67C276.679 277.67 276.679 272.28 276.679 261.5V232.1C276.679 221.32 276.679 215.93 276.679 215.93C276.679 215.93 271.289 215.93 260.509 215.93H73.3291C53.4025 215.93 36.2525 208.907 21.8791 194.86C7.83246 180.487 0.809122 163.337 0.809122 143.41V73.8302C0.809122 53.9035 7.83246 36.9168 21.8791 22.8701C36.2525 8.49682 53.4025 1.31015 73.3291 1.31015H281.089C300.689 1.31015 317.676 8.49682 332.049 22.8701C346.422 36.9168 353.609 53.9035 353.609 73.8302V106.66H276.679V93.9202C276.679 83.1402 276.679 77.7502 276.679 77.7502C276.679 77.7502 271.289 77.7502 260.509 77.7502H92.9291C82.1491 77.7502 76.7591 77.7502 76.7591 77.7502C76.7591 77.7502 76.7591 83.1402 76.7591 93.9202V123.32C76.7591 134.1 76.7591 139.49 76.7591 139.49C76.7591 139.49 82.1491 139.49 92.9291 139.49H281.089C300.689 139.49 317.676 146.677 332.049 161.05C346.422 175.097 353.609 192.083 353.609 212.01V281.59C353.609 301.517 346.422 318.667 332.049 333.04C317.676 347.087 300.689 354.11 281.089 354.11H73.3291ZM408.55 354.11V1.31015H734.4V77.7502H485.48V139.49H685.89V215.93H485.48V277.67H734.4V354.11H408.55ZM783.217 354.11V0.820161H859.167V277.67H1136.02V354.11H783.217ZM1165.07 354.11V0.820161H1241.02V277.67H1517.87V354.11H1165.07Z" fill="white" fill-opacity="0.06"/>
</svg>
