<svg width="2500" height="439" viewBox="0 0 2500 439" fill="none" xmlns="http://www.w3.org/2000/svg">
<g clip-path="url(#clip0)">
<path d="M433.76 0.0644531H144.473V144.538H0V433.825H289.287V289.352H433.76V0.0644531Z" fill="#C4C4C4"/>
<path opacity="0.4" d="M0 144.537V289.351H144.473V433.824H289.287V144.537H0Z" fill="#E5E5E5"/>
<path d="M514.856 373.854L577.893 324.447C595.612 355.114 623.893 372.832 656.263 372.832C691.359 372.832 710.1 350.003 710.1 325.129C710.1 295.484 673.981 285.944 635.478 274.018C587.093 259.025 532.916 240.285 532.916 171.115C532.916 113.189 583.345 67.1895 653.196 67.1895C712.144 67.1895 745.877 89.3375 775.181 119.663L718.277 162.596C703.285 140.448 682.159 128.522 653.878 128.522C621.848 128.522 604.471 145.9 604.471 168.73C604.471 196.329 639.226 205.87 677.73 218.818C726.796 234.833 782.336 256.299 782.336 325.81C782.336 383.395 736.677 438.595 656.944 438.595C591.182 438.935 547.567 410.995 514.856 373.854V373.854ZM1068.9 186.107H1136.36V213.707C1152.38 193.263 1176.57 180.996 1204.85 180.996C1263.12 180.996 1298.56 218.477 1298.56 282.536V433.484H1229.73V291.736C1229.73 258.685 1214.39 239.262 1184.07 239.262C1158.17 239.262 1137.05 256.981 1137.05 298.551V433.824H1069.24V186.107H1068.9ZM1313.89 310.136C1313.89 222.566 1378.29 181.337 1434.17 181.337C1466.2 181.337 1491.75 193.263 1508.11 210.64V72.3005H1575.92V433.824H1508.11V406.224C1491.75 425.647 1465.52 438.935 1433.49 438.935C1381.01 438.935 1313.89 397.025 1313.89 310.136V310.136ZM1510.15 309.455C1510.15 272.655 1483.58 243.011 1446.78 243.011C1409.3 243.011 1380.33 271.292 1380.33 309.455C1380.33 347.617 1408.95 376.239 1446.78 376.239C1483.24 376.239 1510.15 346.254 1510.15 309.455V309.455ZM1591.93 253.233C1591.93 150.33 1669.62 67.5302 1776.61 67.5302C1830.11 67.5302 1875.09 86.9523 1907.8 117.619C1921.09 130.226 1932.33 144.537 1941.19 160.211L1880.88 197.011C1858.73 155.782 1824.32 134.656 1777.29 134.656C1711.53 134.656 1660.42 188.492 1660.42 253.574C1660.42 320.018 1710.51 372.491 1779.68 372.491C1832.15 372.491 1869.29 342.847 1882.24 296.847H1768.77V230.403H1956.52V258.003C1956.52 355.114 1887.35 438.595 1779.68 438.595C1666.55 438.935 1591.93 353.069 1591.93 253.233V253.233ZM1973.56 186.107H2041.03V226.655C2053.29 200.759 2075.78 186.107 2109.51 186.107H2136.77L2111.9 252.211H2093.5C2057.38 252.211 2041.37 270.951 2041.37 316.951V433.824H1973.56V186.107V186.107ZM2154.15 186.107H2221.96V433.824H2154.15V252.211H2129.62L2154.15 186.107V186.107ZM2188.22 148.626C2210.71 148.626 2228.77 130.567 2228.77 108.078C2228.77 85.5893 2210.71 67.5302 2188.22 67.5302C2165.74 67.5302 2147.68 85.5893 2147.68 108.078C2147.68 130.226 2165.74 148.626 2188.22 148.626ZM2237.97 310.136C2237.97 222.566 2302.37 181.337 2358.25 181.337C2390.28 181.337 2415.84 193.263 2432.19 210.64V72.3005H2500V433.824H2432.19V406.224C2415.84 425.647 2389.6 438.935 2357.57 438.935C2304.76 438.935 2237.97 397.025 2237.97 310.136V310.136ZM2434.24 309.455C2434.24 272.655 2407.66 243.011 2370.86 243.011C2333.38 243.011 2304.42 271.292 2304.42 309.455C2304.42 347.617 2333.04 376.239 2370.86 376.239C2407.32 376.239 2434.24 346.254 2434.24 309.455V309.455ZM1052.88 309.455C1052.88 238.24 1000.75 181.337 925.106 181.337C853.891 181.337 796.307 238.922 796.307 310.136C796.307 381.351 849.803 438.935 927.15 438.935C980.646 438.935 1019.15 413.039 1040.62 376.239L986.78 344.21C975.535 366.017 953.387 379.647 927.491 379.647C891.713 379.647 869.565 361.928 861.728 334.669H1052.88V309.455ZM864.795 279.81C875.358 256.64 896.825 240.625 925.787 240.625C954.409 240.625 975.876 253.914 984.735 279.81H864.795Z" fill="white"/>
<path d="M0 289.352H144.473V433.825H0V289.352Z" fill="#C4C4C4"/>
<path d="M289.288 144.538V0.0644531H144.474V289.352H433.761V144.538H289.288Z" fill="#E5E5E5"/>
<path d="M289.287 0.0644531H433.76V144.538H289.287V0.0644531Z" fill="#C4C4C4"/>
</g>
<defs>
<clipPath id="clip0">
<rect width="2500" height="439" fill="white"/>
</clipPath>
</defs>
</svg>
