<svg width="124" height="125" viewBox="0 0 124 125" fill="none" xmlns="http://www.w3.org/2000/svg">
<g clip-path="url(#clip0)">
<path d="M30.536 26.2896H86.883C91.963 26.2896 96.0957 30.4724 96.0957 35.6138V60.4515C96.0957 61.4549 96.9024 62.268 97.8975 62.268C98.8925 62.268 99.6992 61.4549 99.6992 60.4515V35.6138C99.6992 28.4692 93.95 22.6567 86.883 22.6567H30.536C29.541 22.6567 28.7343 23.4698 28.7343 24.4731C28.7343 25.4765 29.541 26.2896 30.536 26.2896Z" fill="white"/>
<path d="M74.3913 82.3695H40.4147C39.886 82.3695 39.3839 82.6037 39.0415 83.0101L28.8323 95.1246L18.6233 83.0099C18.281 82.6035 17.7789 82.3693 17.2501 82.3693H13.6098C8.52985 82.3693 4.39709 78.1865 4.39709 73.0451V35.6138C4.39709 30.4724 8.52985 26.2896 13.6098 26.2896H22.1812C23.1762 26.2896 23.9829 25.4765 23.9829 24.4731C23.9829 23.4698 23.1762 22.6567 22.1812 22.6567H13.6098C6.54287 22.6567 0.793579 28.4692 0.793579 35.6138V73.0453C0.793579 80.1898 6.54287 86.0023 13.6098 86.0023H16.4167L27.4594 99.1059C27.8017 99.5123 28.3038 99.7465 28.8325 99.7465C29.3613 99.7465 29.8634 99.5123 30.2057 99.1059L41.2483 86.0023H74.3913C75.3864 86.0023 76.1931 85.1893 76.1931 84.1859C76.1931 83.1825 75.3864 82.3695 74.3913 82.3695Z" fill="white"/>
<path d="M53.9642 109.197H37.584C36.589 109.197 35.7823 110.01 35.7823 111.014C35.7823 112.017 36.589 112.83 37.584 112.83H53.9642C56.2531 112.83 58.1154 114.713 58.1154 117.028C58.1154 119.344 56.2531 121.227 53.9642 121.227H8.54834C6.25939 121.227 4.39709 119.344 4.39709 117.028C4.39709 114.713 6.25939 112.83 8.54834 112.83H10.1423C10.7203 112.83 11.2632 112.551 11.602 112.079L14.7329 107.717L17.8639 112.079C18.2026 112.55 18.7456 112.83 19.3236 112.83H29.2529C30.248 112.83 31.0547 112.017 31.0547 111.014C31.0547 110.01 30.248 109.197 29.2529 109.197H20.2437L16.1926 103.554C15.8539 103.082 15.3109 102.802 14.7329 102.802C14.1549 102.802 13.612 103.082 13.2733 103.554L9.2222 109.197H8.54834C4.27241 109.197 0.793579 112.711 0.793579 117.028C0.793579 121.347 4.27241 124.86 8.54834 124.86H53.9642C58.2401 124.86 61.7189 121.347 61.7189 117.028C61.7189 112.711 58.2401 109.197 53.9642 109.197Z" fill="white"/>
<path d="M70.6199 16.5224H77.3976C78.3927 16.5224 79.1994 15.7093 79.1994 14.706C79.1994 13.7026 78.3927 12.8896 77.3976 12.8896H70.6199C68.3309 12.8896 66.4686 11.0063 66.4686 8.69124C66.4686 6.37617 68.3309 4.49268 70.6199 4.49268H116.036C118.325 4.49268 120.187 6.37593 120.187 8.691C120.187 11.0061 118.325 12.8896 116.036 12.8896H114.442C113.864 12.8896 113.321 13.169 112.982 13.6411L109.851 18.0026L106.72 13.6408C106.381 13.169 105.838 12.8893 105.26 12.8893H85.7289C84.7339 12.8893 83.9272 13.7023 83.9272 14.7057C83.9272 15.7091 84.7339 16.5221 85.7289 16.5221H104.34L108.391 22.1656C108.73 22.6374 109.273 22.9171 109.851 22.9171C110.429 22.9171 110.972 22.6376 111.311 22.1656L115.362 16.5221H116.036C120.312 16.5221 123.79 13.009 123.79 8.69075C123.79 4.37304 120.312 0.859863 116.036 0.859863H70.6199C66.3439 0.859863 62.8651 4.37303 62.8651 8.69124C62.8651 13.0092 66.3439 16.5224 70.6199 16.5224Z" fill="white"/>
<path d="M27.1846 62.36C26.1895 62.36 25.3828 63.173 25.3828 64.1764C25.3828 65.1798 26.1895 65.9928 27.1846 65.9928H36.7937C37.7888 65.9928 38.5955 65.1798 38.5955 64.1764V54.4889C38.5955 53.4855 37.7888 52.6725 36.7937 52.6725H28.9863V46.6178H36.7937C37.7888 46.6178 38.5955 45.8048 38.5955 44.8014C38.5955 43.798 37.7888 42.985 36.7937 42.985H27.1846C26.1895 42.985 25.3828 43.798 25.3828 44.8014V54.4889C25.3828 55.4923 26.1895 56.3053 27.1846 56.3053H34.992V62.36H27.1846Z" fill="white"/>
<path d="M54.8107 46.6178C55.8058 46.6178 56.6125 45.8048 56.6125 44.8014C56.6125 43.798 55.8058 42.985 54.8107 42.985H45.2016C44.2065 42.985 43.3998 43.798 43.3998 44.8014V64.1764C43.3998 65.1798 44.2065 65.9928 45.2016 65.9928H54.8107C55.8058 65.9928 56.6125 65.1798 56.6125 64.1764C56.6125 63.173 55.8058 62.36 54.8107 62.36H47.0034V56.3053H54.8107C55.8058 56.3053 56.6125 55.4923 56.6125 54.4889C56.6125 53.4855 55.8058 52.6725 54.8107 52.6725H47.0034V46.6178H54.8107Z" fill="white"/>
<path d="M63.219 42.985C62.2239 42.985 61.4172 43.798 61.4172 44.8014V64.1764C61.4172 65.1798 62.2239 65.9928 63.219 65.9928H72.8281C73.8232 65.9928 74.6299 65.1798 74.6299 64.1764V44.8014C74.6299 43.798 73.8232 42.985 72.8281 42.985H63.219ZM71.0264 62.36H65.0207V46.6178H71.0264V62.36Z" fill="white"/>
<path d="M123.79 84.4732C123.79 83.58 123.146 82.8198 122.271 82.68L119.785 82.2823L118.599 79.3957L120.077 77.3398C120.597 76.6168 120.518 75.6202 119.892 74.9891L114.803 69.8596C114.176 69.2277 113.187 69.149 112.47 69.6748L110.435 71.1662L107.573 69.9712L107.177 67.4641C107.038 66.582 106.283 65.9332 105.398 65.9332H105.397L98.2031 65.9361C97.3171 65.9364 96.5626 66.5864 96.4242 67.4687L96.0304 69.977L93.1709 71.1732L91.134 69.6828C90.4164 69.1577 89.4269 69.2367 88.8008 69.8693L83.7158 75.0024C83.09 75.634 83.0124 76.6309 83.5327 77.3531L85.0118 79.4068L83.8268 82.2959L81.3425 82.695C80.4676 82.8355 79.824 83.5964 79.8242 84.4894L79.8271 91.7465C79.8273 92.6397 80.4719 93.4 81.3468 93.5397L83.8325 93.9371L85.019 96.8238L83.5406 98.8797C83.0208 99.6026 83.0993 100.599 83.7254 101.23L88.8138 106.36C89.4403 106.992 90.4298 107.071 91.1472 106.545L93.1822 105.054L96.0441 106.248L96.4398 108.756C96.5791 109.638 97.3335 110.286 98.2192 110.286H98.2199L105.414 110.283C106.3 110.283 107.054 109.633 107.192 108.751L107.586 106.242L110.446 105.046L112.483 106.537C113.2 107.062 114.19 106.983 114.816 106.35L119.901 101.217C120.527 100.586 120.605 99.5891 120.085 98.8666L118.606 96.8126L119.791 93.9236L122.275 93.5247C123.15 93.3842 123.794 92.6233 123.793 91.7303L123.79 84.4732ZM118.228 90.4961C117.609 90.5954 117.086 91.012 116.847 91.5957L114.891 96.3634C114.651 96.9468 114.73 97.6138 115.098 98.1245L116.266 99.7467L113.355 102.686L111.747 101.509C111.239 101.138 110.577 101.059 109.998 101.301L105.274 103.277C104.696 103.519 104.283 104.047 104.185 104.671L103.874 106.652L99.7572 106.653L99.4446 104.674C99.3461 104.05 98.9334 103.523 98.3545 103.281L93.6286 101.308C93.4066 101.216 93.1726 101.17 92.9393 101.17C92.5643 101.17 92.1927 101.288 91.8797 101.518L90.2735 102.695L87.3606 99.7581L88.5284 98.134C88.8959 97.6227 88.9738 96.9558 88.734 96.3726L86.7759 91.6075C86.5359 91.0239 86.0124 90.6078 85.3936 90.509L83.4306 90.1951L83.4289 86.0392L85.3905 85.7238C86.0093 85.6245 86.5325 85.208 86.7718 84.6243L88.7275 79.8566C88.9671 79.2732 88.8885 78.6062 88.5205 78.0954L87.3522 76.4732L90.2634 73.5345L91.8715 74.7111C92.3791 75.0828 93.0417 75.1611 93.6204 74.9189L98.3437 72.9431C98.9224 72.7009 99.3346 72.1729 99.4326 71.5491L99.7435 69.5682L103.861 69.5668L104.173 71.5462C104.271 72.1698 104.684 72.6973 105.263 72.939L109.989 74.9118C110.569 75.1535 111.231 75.0744 111.738 74.7028L113.344 73.5258L116.257 76.4623L115.089 78.0862C114.722 78.5975 114.644 79.2644 114.884 79.8476L116.842 84.6124C117.082 85.1961 117.606 85.6122 118.225 85.711L120.188 86.0249L120.19 90.181L118.228 90.4961Z" fill="white"/>
<path d="M109.459 86.2936C108.463 86.2936 107.657 87.1067 107.657 88.11C107.657 91.3609 105.033 94.0056 101.809 94.0056C98.5845 94.0056 95.9612 91.3609 95.9612 88.11C95.9612 84.8592 98.5845 82.2145 101.809 82.2145C102.653 82.2145 103.468 82.3915 104.228 82.7407C105.134 83.1568 106.203 82.7531 106.615 81.8401C107.027 80.9268 106.627 79.8498 105.721 79.4342C104.489 78.8684 103.172 78.5814 101.809 78.5814C96.5976 78.5814 92.3577 82.8558 92.3577 88.1098C92.3577 93.3638 96.5976 97.6382 101.809 97.6382C107.02 97.6382 111.26 93.3638 111.26 88.1098C111.26 87.1067 110.454 86.2936 109.459 86.2936Z" fill="white"/>
</g>
<defs>
<clipPath id="clip0">
<rect width="123" height="124" fill="white" transform="translate(0.793579 0.859863)"/>
</clipPath>
</defs>
</svg>
