<svg width="1425" height="448" viewBox="0 0 1425 448" fill="none" xmlns="http://www.w3.org/2000/svg">
<path d="M92.3467 447.202C67.1334 447.202 45.4334 438.315 27.2467 420.542C9.47336 402.355 0.586698 380.655 0.586698 355.442V313.902H96.6867V330.022C96.6867 343.662 96.6867 350.482 96.6867 350.482C96.6867 350.482 103.507 350.482 117.147 350.482H329.187C342.827 350.482 349.647 350.482 349.647 350.482C349.647 350.482 349.647 343.662 349.647 330.022V292.822C349.647 279.182 349.647 272.362 349.647 272.362C349.647 272.362 342.827 272.362 329.187 272.362H92.3467C67.1334 272.362 45.4334 263.475 27.2467 245.702C9.47336 227.515 0.586698 205.815 0.586698 180.602V92.5621C0.586698 67.3488 9.47336 45.8555 27.2467 28.0821C45.4334 9.89546 67.1334 0.802131 92.3467 0.802131H355.227C380.027 0.802131 401.52 9.89546 419.707 28.0821C437.893 45.8555 446.987 67.3488 446.987 92.5621V134.102H349.647V117.982C349.647 104.342 349.647 97.5221 349.647 97.5221C349.647 97.5221 342.827 97.5221 329.187 97.5221H117.147C103.507 97.5221 96.6867 97.5221 96.6867 97.5221C96.6867 97.5221 96.6867 104.342 96.6867 117.982V155.182C96.6867 168.822 96.6867 175.642 96.6867 175.642C96.6867 175.642 103.507 175.642 117.147 175.642H355.227C380.027 175.642 401.52 184.735 419.707 202.922C437.893 220.695 446.987 242.189 446.987 267.402V355.442C446.987 380.655 437.893 402.355 419.707 420.542C401.52 438.315 380.027 447.202 355.227 447.202H92.3467ZM516.504 447.202V0.802131H928.804V97.5221H613.844V175.642H867.424V272.362H613.844V350.482H928.804V447.202H516.504ZM1070.18 447.202C1044.97 447.202 1023.27 438.315 1005.08 420.542C987.305 402.355 978.419 380.655 978.419 355.442V92.5621C978.419 67.3488 987.305 45.8555 1005.08 28.0821C1023.27 9.89546 1044.97 0.802131 1070.18 0.802131H1333.06C1357.86 0.802131 1379.35 9.89546 1397.54 28.0821C1415.73 45.8555 1424.82 67.3488 1424.82 92.5621V355.442C1424.82 380.655 1415.73 402.355 1397.54 420.542C1379.35 438.315 1357.86 447.202 1333.06 447.202H1070.18ZM1094.98 350.482H1307.02C1320.66 350.482 1327.48 350.482 1327.48 350.482C1327.48 350.482 1327.48 343.662 1327.48 330.022V117.982C1327.48 104.342 1327.48 97.5221 1327.48 97.5221C1327.48 97.5221 1320.66 97.5221 1307.02 97.5221H1094.98C1081.34 97.5221 1074.52 97.5221 1074.52 97.5221C1074.52 97.5221 1074.52 104.342 1074.52 117.982V330.022C1074.52 343.662 1074.52 350.482 1074.52 350.482C1074.52 350.482 1081.34 350.482 1094.98 350.482Z" fill="white" fill-opacity="0.06"/>
</svg>
