<svg width="493" height="474" viewBox="0 0 493 474" fill="none" xmlns="http://www.w3.org/2000/svg">
<g clip-path="url(#clip0)">
<path d="M143.673 373.322C117.704 373.322 96.653 394.374 96.653 420.342C96.653 446.311 117.705 467.362 143.673 467.362C169.642 467.362 190.693 446.31 190.693 420.342C190.694 394.374 169.642 373.322 143.673 373.322ZM143.673 446.465C129.246 446.465 117.551 434.77 117.551 420.343C117.551 405.916 129.246 394.221 143.673 394.221C158.1 394.221 169.795 405.916 169.795 420.343C169.796 434.77 158.1 446.465 143.673 446.465Z" fill="white"/>
<path d="M342.204 373.322C316.235 373.322 295.184 394.374 295.184 420.342C295.184 446.311 316.236 467.362 342.204 467.362C368.172 467.362 389.224 446.31 389.224 420.342C389.224 394.374 368.173 373.322 342.204 373.322ZM342.204 446.465C327.777 446.465 316.082 434.77 316.082 420.343C316.082 405.916 327.777 394.221 342.204 394.221C356.631 394.221 368.326 405.916 368.326 420.343C368.327 434.77 356.631 446.465 342.204 446.465Z" fill="white"/>
<path d="M448.261 99.0371C446.085 96.6601 443.108 95.1721 439.902 94.8571L99.788 90.1551L90.384 61.4201C83.759 42.2111 65.771 29.2431 45.453 29.0281H10.449C4.678 29.0281 0 33.7061 0 39.4771C0 45.2481 4.678 49.9261 10.449 49.9261H45.453C56.814 50.1771 66.818 57.4721 70.531 68.2121L136.882 268.31L131.658 280.326C125.831 295.352 127.581 312.264 136.36 325.779C145.055 339.053 159.683 347.245 175.544 347.722H378.777C384.548 347.722 389.226 343.044 389.226 337.273C389.226 331.502 384.548 326.824 378.777 326.824H175.543C166.586 326.6 158.341 321.888 153.6 314.285C148.912 306.775 147.949 297.523 150.988 289.207L155.168 279.803L375.119 256.815C399.279 254.154 419.153 236.582 424.752 212.929L449.83 107.917C450.96 104.893 450.36 101.492 448.261 99.0371ZM404.376 208.228C400.984 223.454 388.057 234.685 372.507 235.918L155.168 258.383L106.58 111.053L426.841 115.755L404.376 208.228Z" fill="white"/>
</g>
<circle cx="417.503" cy="76.2495" r="75.2993" fill="#F446EC"/>
<path d="M416.947 113.25V62.2735L411.475 68.9935H394.867L415.699 44.1295H429.619V113.25H416.947Z" fill="white"/>
<defs>
<clipPath id="clip0">
<rect width="450.391" height="450.391" fill="white" transform="translate(0 23)"/>
</clipPath>
</defs>
</svg>
