<svg width="1718" height="491" viewBox="0 0 1718 491" fill="none" xmlns="http://www.w3.org/2000/svg">
<path d="M194.134 17.1726C197.57 17.1726 199.288 18.8893 202.724 20.6061C182.108 29.19 161.492 51.5082 151.184 99.5781L113.388 109.879C125.414 75.5432 149.466 17.1726 194.134 17.1726ZM213.032 34.3404C216.468 44.6411 219.904 56.6586 219.904 75.5432C219.904 77.26 219.904 77.26 219.904 78.9767L170.082 92.711C180.39 56.6586 197.57 41.2075 213.032 34.3404ZM257.7 65.2425L235.366 72.1096C235.366 70.3928 235.366 68.676 235.366 66.9593C235.366 51.5082 233.648 39.4907 230.212 29.19C242.238 32.6236 252.546 48.0746 257.7 65.2425ZM369.37 92.711C369.37 90.9942 367.652 89.2774 365.934 89.2774C362.498 89.2774 326.42 85.8439 326.42 85.8439C326.42 85.8439 300.65 60.0921 297.214 58.3753C293.778 54.9418 288.624 56.6586 286.906 56.6586C286.906 56.6586 281.752 58.3753 273.162 61.8089C264.572 37.7739 249.11 15.4558 223.34 15.4558H221.622C214.75 5.15507 204.442 1.7215 195.852 1.7215C134.004 0.00471899 104.798 77.26 94.49 116.746C80.746 120.18 67.002 125.33 51.54 130.48C37.796 133.914 37.796 135.631 36.078 147.648C34.36 156.232 0 427.484 0 427.484L273.162 478.987L420.91 446.368C420.91 446.368 369.37 96.1446 369.37 92.711Z" fill="white"/>
<path d="M364.222 89.2702C362.504 89.2702 326.426 85.8367 326.426 85.8367C326.426 85.8367 300.656 60.0849 297.22 58.3682C295.502 56.6514 295.502 56.6514 293.784 56.6514L273.168 478.98L420.916 446.361C420.916 446.361 369.376 96.1374 369.376 92.7038C369.376 90.987 365.94 89.2702 364.222 89.2702Z" fill="#C4C4C4"/>
<path d="M223.343 171.681L204.445 226.618C204.445 226.618 188.983 218.034 168.367 218.034C139.161 218.034 137.443 235.202 137.443 240.352C137.443 264.387 202.727 274.688 202.727 333.059C202.727 379.412 173.521 408.597 134.007 408.597C87.6213 408.597 63.5693 379.412 63.5693 379.412L75.5953 338.209C75.5953 338.209 99.6473 358.81 120.263 358.81C134.007 358.81 139.161 348.51 139.161 339.926C139.161 307.307 85.9033 305.59 85.9033 252.37C85.9033 207.733 118.545 164.814 182.111 164.814C211.317 163.097 223.343 171.681 223.343 171.681Z" fill="#C4C4C4"/>
<path d="M594.428 272.969C578.966 264.385 572.094 257.518 572.094 248.934C572.094 236.917 582.402 230.05 599.582 230.05C618.48 230.05 635.66 238.634 635.66 238.634L649.404 197.431C649.404 197.431 637.378 187.13 601.3 187.13C549.76 187.13 515.4 216.315 515.4 257.518C515.4 281.553 532.58 298.721 553.196 310.739C570.376 321.039 577.248 327.906 577.248 338.207C577.248 348.508 568.658 358.808 551.478 358.808C527.426 358.808 503.374 346.791 503.374 346.791L489.63 387.994C489.63 387.994 510.246 401.728 546.324 401.728C597.864 401.728 635.66 375.976 635.66 329.623C635.66 303.871 616.762 284.987 594.428 272.969ZM802.306 185.413C776.536 185.413 755.92 197.431 740.458 216.315L762.792 99.5742H704.38L647.686 396.578H706.098L724.996 295.287C731.868 257.518 752.484 233.483 771.382 233.483C785.126 233.483 790.28 242.067 790.28 255.801C790.28 264.385 790.28 272.969 788.562 281.553L766.228 398.294H824.64L846.974 278.12C848.692 266.102 850.41 250.651 850.41 240.35C850.41 206.015 833.23 185.413 802.306 185.413ZM951.772 355.375C931.156 355.375 924.284 338.207 924.284 317.606C924.284 284.987 941.464 230.05 972.388 230.05C993.004 230.05 999.876 247.218 999.876 264.385C999.876 302.155 982.696 355.375 951.772 355.375ZM980.978 185.413C910.54 185.413 864.154 248.934 864.154 319.322C864.154 363.959 891.642 400.011 944.9 400.011C1013.62 400.011 1060.01 338.207 1060.01 266.102C1060.01 224.899 1035.95 185.413 980.978 185.413ZM1152.78 357.092C1137.32 357.092 1128.73 348.508 1128.73 348.508L1139.03 293.571C1145.91 257.518 1164.8 233.483 1185.42 233.483C1202.6 233.483 1209.47 250.651 1209.47 266.102C1207.75 303.871 1185.42 357.092 1152.78 357.092ZM1209.47 185.413C1169.96 185.413 1147.62 219.749 1147.62 219.749L1151.06 188.847H1099.52C1097.8 209.448 1092.65 242.067 1087.49 266.102L1046.26 478.983H1104.67L1120.14 393.144H1121.85C1121.85 393.144 1133.88 400.011 1156.21 400.011C1224.93 400.011 1269.6 329.623 1269.6 259.235C1269.6 221.466 1252.42 185.413 1209.47 185.413ZM1352.07 103.008C1333.17 103.008 1319.42 118.459 1319.42 137.343C1319.42 154.511 1329.73 166.529 1346.91 166.529C1365.81 166.529 1381.27 154.511 1381.27 132.193C1381.27 115.025 1369.25 103.008 1352.07 103.008ZM1271.32 396.578H1329.73L1369.25 190.564H1310.83L1271.32 396.578ZM1516.99 190.564H1475.76L1477.48 180.263C1480.92 159.662 1492.94 142.494 1511.84 142.494C1522.15 142.494 1530.74 145.927 1530.74 145.927L1542.76 99.5742C1542.76 99.5742 1532.46 94.4238 1511.84 94.4238C1491.22 94.4238 1470.61 99.5742 1455.15 113.308C1434.53 130.476 1425.94 154.511 1420.79 178.546L1419.07 188.847H1391.58L1382.99 233.483H1410.48L1379.55 396.578H1437.97L1468.89 233.483H1508.4L1516.99 190.564ZM1656.15 190.564C1656.15 190.564 1620.07 281.553 1602.89 331.34C1601.18 315.889 1589.15 190.564 1589.15 190.564H1527.3L1561.66 379.41C1561.66 382.843 1561.66 386.277 1559.94 389.711C1553.07 403.445 1541.05 415.462 1529.02 424.046C1518.71 432.63 1504.97 437.78 1496.38 441.214L1511.84 491.001C1523.87 489.284 1547.92 478.983 1568.53 460.099C1594.3 436.064 1620.07 396.578 1644.13 345.074L1714.56 192.28L1656.15 190.564Z" fill="white"/>
</svg>
