<svg height="512pt" viewBox="0 0 512 512" width="512pt" xmlns="http://www.w3.org/2000/svg"><path d="m512 256c0 141.386719-114.613281 256-256 256s-256-114.613281-256-256 114.613281-256 256-256 256 114.613281 256 256zm0 0" fill="#ff583e"/><path d="m512 256c0-23.304688-3.132812-45.875-8.96875-67.328125l-51.03125-51.035156-217.984375 63.679687 47.3125 47.3125-31.246094 11.285156-76.367187-76.367187-63.527344 42.949219 61.671875 61.671875-106.269531 38.382812 185.382812 185.386719c1.671875.03125 3.347656.0625 5.027344.0625 141.386719 0 256-114.613281 256-256zm0 0" fill="#db0404"/><g fill="#fff"><path d="m179.15625 203.257812c0 21.210938-17.191406 38.402344-38.402344 38.402344-21.210937 0-38.402344-17.191406-38.402344-38.402344 0-21.210937 17.191407-38.40625 38.402344-38.40625 21.210938 0 38.402344 17.195313 38.402344 38.40625zm0 0"/><path d="m65.585938 326.550781c0-41.511719 33.652343-75.164062 75.167968-75.164062 41.511719 0 75.164063 33.652343 75.164063 75.164062zm0 0"/><path d="m234.015625 224.160156h217.984375v63.679688h-217.984375zm0 0"/></g><path d="m234.015625 255.90625h217.984375v31.933594h-217.984375zm0 0" fill="#e9edf5"/><path d="m234.015625 224.160156h146.097656v63.679688h-146.097656zm0 0" fill="#ffce00"/><path d="m234.015625 255.90625h146.097656v31.933594h-146.097656zm0 0" fill="#ffa300"/><path d="m234.015625 137.636719h217.984375v63.679687h-217.984375zm0 0" fill="#fff"/><path d="m234.015625 137.636719h93.984375v63.679687h-93.984375zm0 0" fill="#ffce00"/><path d="m234.015625 310.683594h217.984375v63.679687h-217.984375zm0 0" fill="#e9edf5"/><path d="m234.015625 310.683594h62.984375v63.679687h-62.984375zm0 0" fill="#ffa300"/></svg>