<svg width="2573" height="772" viewBox="0 0 2573 772" fill="none" xmlns="http://www.w3.org/2000/svg">
<g clip-path="url(#clip0)">
<path d="M385.854 0C172.757 0 0 172.817 0 385.993C0 599.192 172.757 772 385.854 772C598.96 772 771.707 599.192 771.707 385.993C771.707 172.831 598.969 0.0184231 385.849 0.0184231L385.854 0V0ZM562.804 556.713C555.874 568.084 541.065 571.647 529.735 564.719C439.126 509.32 325.079 496.805 190.768 527.499C177.825 530.467 164.924 522.35 161.975 509.407C159.013 496.46 167.089 483.553 180.064 480.604C327.047 446.988 453.124 461.457 554.828 523.627C566.162 530.587 569.756 545.383 562.799 556.722L562.804 556.713V556.713ZM610.031 451.625C601.305 465.789 582.791 470.233 568.651 461.535C464.957 397.77 306.838 379.3 184.161 416.553C168.251 421.36 151.447 412.391 146.618 396.502C141.826 380.586 150.797 363.808 166.68 358.969C306.81 316.434 481.014 337.037 600.12 410.257C614.266 418.968 618.735 437.498 610.027 451.63L610.031 451.625ZM614.086 342.181C489.708 268.29 284.551 261.495 165.818 297.545C146.752 303.329 126.589 292.562 120.811 273.489C115.033 254.406 125.787 234.25 144.867 228.451C281.164 187.06 507.743 195.057 650.919 280.085C668.068 290.267 673.694 312.423 663.53 329.556C653.393 346.712 631.184 352.368 614.09 342.181H614.086V342.181ZM1049.78 356.341C983.159 340.448 971.299 329.294 971.299 305.855C971.299 283.712 992.139 268.811 1023.13 268.811C1053.17 268.811 1082.96 280.126 1114.19 303.422C1115.13 304.127 1116.32 304.408 1117.48 304.224C1118.65 304.049 1119.68 303.408 1120.36 302.445L1152.89 256.573C1154.23 254.683 1153.87 252.079 1152.06 250.636C1114.89 220.8 1073.04 206.294 1024.12 206.294C952.182 206.294 901.936 249.479 901.936 311.267C901.936 377.526 945.28 400.987 1020.18 419.097C1083.93 433.787 1094.69 446.094 1094.69 468.094C1094.69 492.473 1072.93 507.628 1037.92 507.628C999.033 507.628 967.314 494.524 931.831 463.784C930.951 463.024 929.743 462.678 928.628 462.743C927.453 462.839 926.38 463.383 925.633 464.282L889.16 507.707C887.63 509.509 887.824 512.201 889.593 513.759C930.877 550.629 981.652 570.103 1036.45 570.103C1113.96 570.103 1164.05 527.734 1164.05 462.158C1164.19 406.8 1131.06 376.148 1049.92 356.401L1049.78 356.341V356.341ZM1339.41 290.612C1305.81 290.612 1278.26 303.85 1255.53 330.976V300.444C1255.53 298.033 1253.58 296.07 1251.17 296.07H1191.52C1189.11 296.07 1187.16 298.033 1187.16 300.444V639.699C1187.16 642.109 1189.11 644.073 1191.52 644.073H1251.17C1253.58 644.073 1255.53 642.109 1255.53 639.699V532.61C1278.26 558.128 1305.82 570.596 1339.41 570.596C1401.84 570.596 1465.04 522.521 1465.04 430.62C1465.13 338.697 1401.92 290.608 1339.48 290.608L1339.41 290.612ZM1395.67 430.62C1395.67 477.419 1366.86 510.076 1325.59 510.076C1284.8 510.076 1254.03 475.934 1254.03 430.62C1254.03 385.311 1284.8 351.165 1325.59 351.165C1366.19 351.16 1395.68 384.569 1395.68 430.616L1395.67 430.62V430.62ZM1627.02 290.612C1546.62 290.612 1483.64 352.543 1483.64 431.62C1483.64 509.836 1546.19 571.117 1626.03 571.117C1706.72 571.117 1769.9 509.393 1769.9 430.62C1769.9 352.119 1707.14 290.622 1627.01 290.622L1627.02 290.612V290.612ZM1627.02 510.541C1584.26 510.541 1552.02 476.169 1552.02 430.597C1552.02 384.831 1583.14 351.621 1626.03 351.621C1669.07 351.621 1701.53 385.993 1701.53 431.597C1701.53 477.354 1670.2 510.541 1627.02 510.541H1627.02V510.541ZM1941.58 296.07H1875.94V228.931C1875.94 226.525 1873.99 224.561 1871.58 224.561H1811.94C1809.52 224.561 1807.56 226.525 1807.56 228.931V296.07H1778.88C1776.48 296.07 1774.54 298.033 1774.54 300.444V351.732C1774.54 354.138 1776.48 356.106 1778.88 356.106H1807.56V488.813C1807.56 542.442 1834.25 569.633 1886.87 569.633C1908.27 569.633 1926.02 565.212 1942.75 555.722C1944.11 554.961 1944.95 553.496 1944.95 551.938V503.097C1944.95 501.59 1944.17 500.166 1942.88 499.378C1941.58 498.562 1939.96 498.52 1938.63 499.179C1927.14 504.964 1916.03 507.633 1903.61 507.633C1884.47 507.633 1875.94 498.94 1875.94 479.456V356.13H1941.58C1943.99 356.13 1945.93 354.166 1945.93 351.755V300.472C1946.02 298.062 1944.09 296.098 1941.64 296.098L1941.58 296.07V296.07ZM2170.3 296.333V288.086C2170.3 263.827 2179.6 253.01 2200.45 253.01C2212.89 253.01 2222.88 255.48 2234.07 259.214C2235.44 259.647 2236.88 259.43 2238 258.605C2239.15 257.78 2239.8 256.457 2239.8 255.056V204.768C2239.8 202.846 2238.57 201.145 2236.71 200.578C2224.9 197.061 2209.77 193.452 2187.13 193.452C2132.03 193.452 2102.91 224.492 2102.91 283.182V295.811H2074.25C2071.85 295.811 2069.87 297.775 2069.87 300.181V351.732C2069.87 354.138 2071.85 356.106 2074.25 356.106H2102.91V560.801C2102.91 563.211 2104.85 565.175 2107.26 565.175H2166.91C2169.32 565.175 2171.29 563.211 2171.29 560.801V356.12H2226.98L2312.3 560.764C2302.62 582.267 2293.09 586.544 2280.09 586.544C2269.58 586.544 2258.51 583.405 2247.2 577.21C2246.13 576.625 2244.87 576.528 2243.72 576.883C2242.58 577.284 2241.63 578.132 2241.14 579.238L2220.92 623.612C2219.96 625.709 2220.79 628.171 2222.8 629.259C2243.91 640.694 2262.96 645.575 2286.51 645.575C2330.56 645.575 2354.91 625.05 2376.37 569.83L2479.86 302.306C2480.38 300.96 2480.23 299.439 2479.4 298.245C2478.58 297.061 2477.26 296.346 2475.81 296.346H2413.71C2411.85 296.346 2410.19 297.531 2409.58 299.278L2345.96 481.06L2276.28 299.158C2275.64 297.466 2274.01 296.346 2272.21 296.346H2170.29L2170.3 296.333V296.333ZM2037.69 296.07H1978.04C1975.63 296.07 1973.67 298.033 1973.67 300.444V560.801C1973.67 563.211 1975.63 565.175 1978.04 565.175H2037.69C2040.1 565.175 2042.07 563.211 2042.07 560.801V300.462C2042.07 299.887 2041.96 299.317 2041.74 298.786C2041.52 298.254 2041.19 297.771 2040.79 297.365C2040.38 296.958 2039.9 296.636 2039.37 296.417C2038.83 296.198 2038.26 296.086 2037.69 296.088L2037.69 296.07ZM2008.21 177.523C1984.57 177.523 1965.4 196.661 1965.4 220.302C1965.4 243.957 1984.58 263.118 2008.21 263.118C2031.83 263.118 2050.99 243.957 2050.99 220.302C2050.99 196.665 2031.82 177.523 2008.23 177.523H2008.21V177.523ZM2530.8 379.78C2507.19 379.78 2488.82 360.812 2488.82 337.779C2488.82 314.747 2507.43 295.563 2531.02 295.563C2554.63 295.563 2573 314.525 2573 337.54C2573 360.573 2554.39 379.78 2530.79 379.78H2530.8V379.78ZM2531.03 299.739C2509.53 299.739 2493.26 316.839 2493.26 337.779C2493.26 358.71 2509.41 375.581 2530.81 375.581C2552.31 375.581 2568.6 358.494 2568.6 337.54C2568.6 316.609 2552.43 299.739 2531.05 299.739H2531.03V299.739ZM2540.34 341.858L2552.21 358.489H2542.2L2531.51 343.232H2522.32V358.489H2513.94V314.406H2533.59C2543.83 314.406 2550.56 319.646 2550.56 328.469C2550.6 335.696 2546.41 340.112 2540.37 341.859H2540.34V341.858ZM2533.24 321.97H2522.31V335.913H2533.24C2538.7 335.913 2541.95 333.244 2541.95 328.935C2541.95 324.399 2538.68 321.97 2533.25 321.97H2533.24V321.97Z" fill="white"/>
</g>
<defs>
<clipPath id="clip0">
<rect width="2573" height="772" fill="white"/>
</clipPath>
</defs>
</svg>
