<svg id="Capa_1" enable-background="new 0 0 512 512" height="512" viewBox="0 0 512 512" width="512" xmlns="http://www.w3.org/2000/svg"><g><g><path d="m512 256c0 141.387-114.613 256-256 256s-256-114.613-256-256 114.613-256 256-256 256 114.613 256 256zm0 0" fill="#ffcc78"/><path d="m512 256c0 26.051-3.891 51.191-11.129 74.871-5.031 16.469-11.672 32.231-19.75 47.109-8.25 15.2-18 29.461-29.051 42.61-.582.691-1.16 1.379-1.75 2.058-46.941 54.704-116.59 89.352-194.32 89.352s-147.379-34.648-194.309-89.352c-.589-.687-1.179-1.378-1.75-2.07-11.062-13.137-20.812-27.398-29.05-42.598-3.289-6.031-6.332-12.21-9.121-18.531-14-31.629-21.77-66.629-21.77-103.449 0-46.219 12.25-89.57 33.68-127 44.121 77.07 127.16 129 222.32 129s178.211-51.93 222.32-129c21.43 37.43 33.68 80.781 33.68 127zm0 0" fill="#fab037"/><path d="m481.262 377.699c-7.16 13.223-15.434 25.742-24.723 37.43-8.437 10.633-17.719 20.57-27.719 29.723-45.539 41.699-106.211 67.148-172.82 67.148s-127.281-25.449-172.82-67.148c-10-9.153-19.282-19.09-27.719-29.723-9.289-11.688-17.563-24.207-24.723-37.43zm0 0" fill="#303a59"/></g><g><path d="m185.173 164.029-17.707-35.415v-53.122h17.707z" fill="#25d4f2"/><path d="m175.939 164.029-8.473-35.415v-53.122h8.473z" fill="#4de5ff"/><path d="m292.008 190.59h52.532v80.864h-52.532z" fill="#25d4f2"/><path d="m220.313 90.986h17.707v26.561h-17.707z" fill="#25d4f2" transform="matrix(.5 -.866 .866 .5 24.287 250.599)"/><path d="m269.559 95.413h26.561v17.707h-26.561z" fill="#2fb3ea" transform="matrix(.866 -.5 .5 .866 -14.24 155.39)"/><path d="m264.857 75.492h-8.854l-8.854 26.561h17.708z" fill="#2fb3ea"/><path d="m247.149 75.492h8.854v26.561h-8.854z" fill="#25d4f2"/><path d="m202.881 164.029c0-19.559-15.856-35.415-35.415-35.415v107.425c0 19.559 15.856 35.415 35.415 35.415l35.415-53.713z" fill="#2fb3ea"/><path d="m184.412 132.926c-5.034-2.749-10.807-4.312-16.946-4.312v107.426c0 12.791 6.783 23.996 16.946 30.221z" fill="#50c8fa"/><path d="m214.686 293.131 41.317 84.568h53.122v-84.568z" fill="#4271db"/><path d="m202.881 341.104v36.595h53.122v-84.568z" fill="#2f8ba8"/><path d="m229.614 316.962-26.733 24.141v36.596h26.733z" fill="#55b1cf"/><path d="m309.125 293.131v-93.687h-100.342l47.22 131.352c20.544-8.317 38.69-21.311 53.122-37.665z" fill="#3992e3"/><path d="m256.003 199.444-53.122 106.245v35.415c18.788 0 36.716-3.666 53.122-10.308z" fill="#2fb3ea"/><path d="m228.861 253.727-25.981 51.962v35.415c8.876 0 17.558-.828 25.981-2.392z" fill="#50c8fa"/><path d="m309.125 199.444c0-19.528-15.887-35.415-35.415-35.415h-17.707l-35.415 63.721 35.415 63.721c31.756-18.37 53.122-52.702 53.122-92.027z" fill="#2fb3ea"/><path d="m256.003 164.029h-53.122v141.659c19.353 0 37.495-5.177 53.122-14.217z" fill="#25d4f2"/><path d="m227.357 164.029h-24.476v141.66c8.424 0 16.618-.983 24.476-2.836z" fill="#4de5ff"/><path d="m256.003 93.199-13.281 26.561 13.281 26.561c14.669 0 26.561-11.892 26.561-26.561s-11.892-26.561-26.561-26.561z" fill="#2fb3ea"/><path d="m229.442 119.76c0 14.669 11.892 26.561 26.561 26.561v-53.122c-14.669 0-26.561 11.892-26.561 26.561z" fill="#25d4f2"/><path d="m229.442 119.76c0 14.669 11.892 26.561 26.561 26.561-17.707-17.707-17.708-35.415 0-53.122-14.669.001-26.561 11.892-26.561 26.561z" fill="#4de5ff"/></g><g fill="#fff"><path d="m105.939 298.84h1.524c6.754 0 12.226 5.472 12.226 12.226v1.528h8.715v-1.528c0-6.754 5.477-12.226 12.227-12.226h1.527v-8.715h-1.527c-6.75 0-12.227-5.477-12.227-12.227v-1.523h-8.715v1.523c0 6.75-5.472 12.227-12.226 12.227h-1.524zm0-8.715"/><path d="m69.72 222.458h1.524c6.754 0 12.226 5.472 12.226 12.226v1.528h8.715v-1.528c0-6.754 5.477-12.226 12.227-12.226h1.527v-8.715h-1.527c-6.75 0-12.227-5.477-12.227-12.227v-1.523h-8.715v1.523c0 6.75-5.472 12.227-12.226 12.227h-1.524zm0-8.715"/><path d="m343.394 97.555h1.524c6.754 0 12.226 5.472 12.226 12.226v1.528h8.715v-1.528c0-6.754 5.477-12.226 12.227-12.226h1.527v-8.715h-1.527c-6.75 0-12.227-5.477-12.227-12.227v-1.523h-8.715v1.523c0 6.75-5.472 12.227-12.226 12.227h-1.524zm0-8.715"/><path d="m406.864 204.39h1.524c6.754 0 12.226 5.472 12.226 12.226v1.528h8.715v-1.528c0-6.754 5.477-12.226 12.227-12.226h1.527v-8.715h-1.527c-6.75 0-12.227-5.477-12.227-12.227v-1.523h-8.715v1.523c0 6.75-5.472 12.227-12.226 12.227h-1.524zm0-8.715"/><path d="m388.754 322.986h1.524c6.754 0 12.226 5.472 12.226 12.226v1.528h8.715v-1.528c0-6.754 5.477-12.226 12.227-12.226h1.527v-8.715h-1.527c-6.75 0-12.227-5.477-12.227-12.227v-1.523h-8.715v1.523c0 6.75-5.472 12.227-12.226 12.227h-1.524zm0-8.715"/></g></g></svg>