<?xml version="1.0" encoding="UTF-8"?><svg xmlns="http://www.w3.org/2000/svg" xmlns:xlink="http://www.w3.org/1999/xlink" width="276.405" height="589.383" viewBox="0 0 276.405 589.383" x="0px" y="0px" version="1.1"><defs><linearGradient id="linear-gradient" x1="103.967" y1="-751.965" x2="103.967" y2="-880.702" gradientTransform="matrix(1, 0, 0, -1, 0, -650.21)" gradientUnits="userSpaceOnUse"><stop offset="0" stop-color="#f9d5ff"/><stop offset="1" stop-color="#f4c5a1"/></linearGradient><linearGradient id="linear-gradient-2" x1="132.056" y1="-1238.257" x2="132.056" y2="-837.656" gradientTransform="matrix(1, 0, 0, -1, 0, -650.21)" gradientUnits="userSpaceOnUse"><stop offset="0" stop-color="#9774ac"/><stop offset="0.4" stop-color="#47a6d3"/><stop offset="0.5" stop-color="#a7a7ae"/><stop offset="0.59" stop-color="#e89ac0"/><stop offset="1" stop-color="#bfe7d1"/></linearGradient><linearGradient id="linear-gradient-3" x1="209.125" y1="-1237.591" x2="209.125" y2="-852.786" xlink:href="#linear-gradient-2"/><linearGradient id="linear-gradient-4" x1="114.432" y1="-704.583" x2="114.432" y2="-911.752" gradientTransform="matrix(1, -0.03, -0.03, -1, 34.045, -631.283)" xlink:href="#linear-gradient"/><linearGradient id="linear-gradient-5" x1="124.378" y1="-1218.455" x2="124.378" y2="-824.326" gradientTransform="matrix(1, -0.03, -0.03, -1, 34.045, -631.283)" xlink:href="#linear-gradient-2"/><linearGradient id="linear-gradient-6" x1="300.864" y1="-662.982" x2="300.864" y2="-778.867" gradientTransform="matrix(1, 0.09, 0.09, -1, -45.154, -581.761)" xlink:href="#linear-gradient"/></defs><title>student</title><g id="Layer_2" data-name="Layer 2"><g id="Layer_1-2" data-name="Layer 1"><circle cx="161.374" cy="19.035" r="3.067" fill="#bfd9ff"/><path d="M186.119,136.52c-3.681,9-7.669,17.791-11.555,26.585s-7.975,17.484-12.065,26.278c-4.09,8.691-8.282,17.382-12.474,26.073l-6.34,12.986-6.442,12.986-.715,1.431a7.647,7.647,0,0,1-.716,1.227l-7.158,11.35L121.4,266.683c-4.806,7.464-9.714,14.929-14.622,22.393l-7.362,11.145-3.681,5.522-3.783,5.521c-5.01,7.362-10.021,14.724-15.235,22.086l-2.045,2.863a15.325,15.325,0,0,1-2.761,2.965c-5.113,3.988-10.327,7.976-15.44,11.861A23.066,23.066,0,0,1,26.1,316.479c4.5-4.7,9.1-9.2,13.8-13.8L35.1,308.5c3.886-7.975,7.975-15.951,12.168-23.926l3.067-5.931,3.068-5.93,6.237-11.861c4.192-7.873,8.384-15.746,12.679-23.517l6.442-11.657L85.3,214.025l-1.432,2.556L89.6,203.289,95.423,190c3.886-8.793,7.873-17.484,11.963-26.38,4.09-8.691,8.18-17.485,12.373-26.074,4.192-8.691,8.384-17.28,12.985-25.869a29.458,29.458,0,0,1,53.375,24.847Z" fill="url(#linear-gradient)"/><path d="M4.114,589.383l88.344-.409c4.6,0,8.691-4.4,9-9l.716-11.146-55.829.818L3.5,580.282C-1.509,581.509-1,589.383,4.114,589.383Z" fill="#2b2b2b"/><path d="M217.714,209.73,155.75,365.252l-5.521,21.268-3.886,15.03L101.865,571.182l-55.112-1.431C44.3,546.642,55.137,454.72,61.885,401.55c.716-5.214,1.33-10.122,1.841-14.519a136.979,136.979,0,0,1,11.759-40.082c.92-1.84,1.738-3.681,2.76-5.521,24.54-46.933,58.589-146.319,60.532-157.465Z" fill="url(#linear-gradient-2)"/><path d="M179.472,588.769l88.344-.409a8.445,8.445,0,0,0,8.487-8.384l.1-8.9-55.828-1.534-42.332,10.532C173.337,581.509,174.36,588.769,179.472,588.769Z" fill="#2b2b2b"/><path d="M221.292,199.4l8.385,185.583,46.728,186.2-55.317-1.431c-3.068-15.849-63.395-135.992-74.54-168.2a69.452,69.452,0,0,1-3.374-15.03l-1.33-180.471Z" fill="url(#linear-gradient-3)"/><polygon points="146.65 371.693 225.587 294.7 223.746 245.927 173.951 299.71 146.65 371.693" fill="#2b2b2b"/><path d="M146.65,402.777a1.063,1.063,0,0,1-1.022-.715c-6.34-14.315-2.659-44.377-2.454-45.6a1.084,1.084,0,0,1,2.147.307c-.1.307-3.783,30.675,2.25,44.479a1.056,1.056,0,0,1-.614,1.431A1.026,1.026,0,0,1,146.65,402.777Z" fill="#2b2b2b"/><path d="M119.452,185.906c1.738-28.732,21.37-26.38,14.928-46.114S138.266,93.37,160.352,94.7c16.973,1.022,32.515-2.352,46.216,8.18,26.79,20.756,15.542,29.55,20.246,87.627Z" fill="url(#linear-gradient-4)"/><path d="M228.252,191.98c-.92,15.133-18.1,37.014-44.58,35.685l-4.249-1.739c-24.131-1.227-42.332-23.824-41.309-40.286Z" fill="url(#linear-gradient-5)"/><path d="M161.374,93.677a33,33,0,0,0-17.791,6.646l20.245,9.612Z" fill="#2b2b2b"/><path d="M172.417,111.469l25.665-9.2L188.368,63.82l-34.765-.2,6.953,38.957a8.764,8.764,0,0,0,8.385,9.305A8.142,8.142,0,0,0,172.417,111.469Z" fill="#fdc068"/><polygon points="157.489 85.702 172.724 79.976 160.454 102.573 157.489 85.702" fill="#2b2b2b"/><path d="M222.315,155.334l-15.747,3.783,20.246,31.39A302.885,302.885,0,0,0,222.315,155.334Z" fill="#2b2b2b"/><path d="M173.542,86.826l-19.734,2.863A21.149,21.149,0,0,1,129.779,71.8l-1.738-11.861-.92-6.749h0l-1.227-8.793A29.912,29.912,0,0,1,185.1,35.8l4.295,29.755a18.8,18.8,0,0,1-15.849,21.267Z" fill="#fdc068"/><path d="M130.9,57.583a3.046,3.046,0,0,1-2.761,2.25l-.92-6.749a2.99,2.99,0,0,1,1.636.1,3.544,3.544,0,0,1,2.045,4.4Z" fill="#2b2b2b"/><path d="M121.6,69.342a11.248,11.248,0,1,1,11.248-11.248A11.215,11.215,0,0,1,121.6,69.342Zm0-20.246a9,9,0,1,0,9,9A9.078,9.078,0,0,0,121.6,49.1Z" fill="#2b2b2b"/><path d="M137.141,65.661a.611.611,0,0,1-.409-.1l-3.17-1.329a3.347,3.347,0,0,1-1.124-4.7l3.476-5.624a1.123,1.123,0,0,1,1.943,1.125l-3.579,5.624a1.16,1.16,0,0,0,.409,1.635l2.863,1.227a1.091,1.091,0,0,1,.614,1.432A.986.986,0,0,1,137.141,65.661Z" fill="#2b2b2b"/><path d="M137.755,76.7c-1.841,0-3.579-1.023-5.113-3.068a1.094,1.094,0,1,1,1.738-1.329q1.688,2.146,3.375,2.147c2.351-.1,4.4-3.067,4.4-3.067a1.106,1.106,0,1,1,1.841,1.227c-.1.1-2.659,3.885-6.237,3.987C137.857,76.7,137.857,76.7,137.755,76.7Z" fill="#2b2b2b"/><circle cx="146.855" cy="53.902" r="3.374" fill="#2b2b2b"/><path d="M125.587,34.27c2.045,11.248,12.168,11.35,22.6.818a6.605,6.605,0,0,1,9.305-.1,6.182,6.182,0,0,1,1.738,3.067l1.636,6.442a7.592,7.592,0,0,0,5.215,5.317l6.339,1.738,5.215,13.395a12.08,12.08,0,0,0,13.394,7.464h0s-4.6-27.914-6.748-39.775-13.8-24.233-32.72-22.9C129.063,11.366,125.587,34.27,125.587,34.27Z" fill="#565656"/><path d="M146.855,65.661A11.861,11.861,0,1,1,158.716,53.8,11.741,11.741,0,0,1,146.855,65.661Zm0-21.37a9.612,9.612,0,1,0,9.611,9.611A9.6,9.6,0,0,0,146.855,44.291Z" fill="#2b2b2b"/><path d="M131.006,55.743a1.2,1.2,0,0,1-1.125-.921A1.01,1.01,0,0,1,130.8,53.6l5.214-.818a1.085,1.085,0,0,1,.307,2.148l-5.215.818Z" fill="#2b2b2b"/><path d="M157.284,52.368a1.1,1.1,0,0,1-.307-2.147l11.964-4.192a1.131,1.131,0,0,1,.715,2.147l-11.963,4.192C157.489,52.266,157.386,52.368,157.284,52.368Z" fill="#2b2b2b"/><path d="M170.679,39.689h0a5.093,5.093,0,0,1,5.828,4.193l1.125,7.259a5.094,5.094,0,0,1-4.192,5.829h0a5.094,5.094,0,0,1-5.829-4.193l-1.124-7.259A5.072,5.072,0,0,1,170.679,39.689Z" fill="#fdc068"/><path d="M164.953,356.049l-1.329,2.045a17.774,17.774,0,0,1-1.739,2.148l-15.03,14.11a23.034,23.034,0,0,1-33.538-31.493l10.838-12.883,3.068-5.624Z" fill="#fdc068"/><path d="M74.636,335.944l-1.465,1.949a17.642,17.642,0,0,1-1.881,2.024L55.333,352.971a23.034,23.034,0,0,1-31.314-33.7L35.71,307.151l3.444-5.4Z" fill="#fdc068"/><path d="M127.223,324.25l46.728-86.912,3.17-100a29.617,29.617,0,1,1,59.2,1.942h0l-3.374,106.953-.1,1.227a24.48,24.48,0,0,1-4.193,12.986l-63.8,95.6Z" fill="url(#linear-gradient-6)"/><path d="M173.951,238.462a1.9,1.9,0,0,1-.716-.2,1.03,1.03,0,0,1-.1-1.534l7.26-9.2a1.087,1.087,0,1,1,1.636,1.431l-7.26,9.2A1.956,1.956,0,0,1,173.951,238.462Z" fill="#2b2b2b"/><rect x="124.087" y="0.05" width="60.771" height="34.698" rx="1.5" fill="#2b2b2b"/><path d="M204.3,19.018,202.016,2.25h.037a1.136,1.136,0,0,0,1.125-1.125A1.135,1.135,0,0,0,202.053,0h-95.4a1.135,1.135,0,0,0-1.125,1.125,1.136,1.136,0,0,0,1.125,1.125h93.173l2.328,17.075a1.2,1.2,0,0,0,1.125.92h.1A1.071,1.071,0,0,0,204.3,19.018Z" fill="#2b2b2b"/></g></g></svg>