<svg width="1469" height="404" viewBox="0 0 1469 404" fill="none" xmlns="http://www.w3.org/2000/svg">
<path d="M187.411 403.734V253.094L0.931133 0.533871H104.531L231.091 159.574L357.091 0.533871H461.811L274.771 253.654V403.734H187.411ZM475.063 403.734V83.4139C475.063 60.6405 483.09 41.2272 499.143 25.1739C515.57 8.7472 535.17 0.533871 557.943 0.533871H794.823C817.596 0.533871 837.196 8.7472 853.623 25.1739C870.05 41.2272 878.263 60.6405 878.263 83.4139V403.734H790.343V273.814H561.863V403.734H475.063ZM561.863 186.454H790.343V106.374C790.343 94.0539 790.343 87.8939 790.343 87.8939C790.343 87.8939 784.183 87.8939 771.863 87.8939H580.343C568.023 87.8939 561.863 87.8939 561.863 87.8939C561.863 87.8939 561.863 94.0539 561.863 106.374V186.454ZM1094.68 403.734V253.094L908.197 0.533871H1011.8L1138.36 159.574L1264.36 0.533871H1369.08L1182.04 253.654V403.734H1094.68ZM1382.33 291.174V0.533871H1468.01V291.174H1382.33ZM1382.33 403.734V318.054H1468.01V403.734H1382.33Z" fill="white" fill-opacity="0.06"/>
</svg>
