<?xml version="1.0" encoding="iso-8859-1"?>
<!-- Generator: Adobe Illustrator 23.0.2, SVG Export Plug-In . SVG Version: 6.00 Build 0)  -->
<svg version="1.1" id="Layer_1" xmlns="http://www.w3.org/2000/svg" xmlns:xlink="http://www.w3.org/1999/xlink" x="0px" y="0px"
	 viewBox="0 0 1105.6 1080" style="enable-background:new 0 0 1105.6 1080;" xml:space="preserve">
<g style="opacity:0.3;">
	<g>
		<path style="fill:#C4ECFE;" d="M1026.7,80.7V885H78.8V80.7H1026.7 M1029.8,77.6H75.7v810.5h954.1L1029.8,77.6L1029.8,77.6z"/>
	</g>
	<g>
		<g>
			<rect x="75.7" y="652.2" style="fill:#C4ECFE;" width="954.1" height="2.9"/>
		</g>
		<g>
			<rect x="75.7" y="536.1" style="fill:#C4ECFE;" width="954.1" height="2.9"/>
		</g>
		<g>
			<rect x="75.7" y="652.2" style="fill:#C4ECFE;" width="954.1" height="2.9"/>
		</g>
		<g>
			<rect x="75.7" y="768.2" style="fill:#C4ECFE;" width="954.1" height="2.9"/>
		</g>
		<g>
			<rect x="75.7" y="420.1" style="fill:#C4ECFE;" width="954.1" height="2.9"/>
		</g>
		<g>
			<rect x="75.7" y="304" style="fill:#C4ECFE;" width="954.1" height="2.9"/>
		</g>
		<g>
			<rect x="75.7" y="188" style="fill:#C4ECFE;" width="954.1" height="2.9"/>
		</g>
	</g>
</g>
<linearGradient id="SVGID_1_" gradientUnits="userSpaceOnUse" x1="-1057.7059" y1="673.729" x2="-1057.7059" y2="510.6983" gradientTransform="matrix(-1 0 0 -1 -167.756 1392)">
	<stop  offset="0" style="stop-color:#FFD8A1"/>
	<stop  offset="0.9958" style="stop-color:#FFFFFF"/>
</linearGradient>
<path style="fill:url(#SVGID_1_);" d="M750.1,888.1c79.6,0,77.1-120.8,146.4-136.8c27.7-6.4,42.7-26.8,55.5-49.1
	c21.3-37,77.8-22,77.8,20.7v165.2L750.1,888.1L750.1,888.1z"/>
<g>
	<circle style="fill:#BFD9FF;" cx="978.3" cy="286.5" r="4.1"/>
	<circle style="fill:#BFD9FF;" cx="487.6" cy="693.6" r="4.1"/>
	<circle style="fill:#BFD9FF;" cx="828.4" cy="120.9" r="4.1"/>
	<circle style="fill:#BFD9FF;" cx="573.1" cy="254.9" r="4.1"/>
	<circle style="fill:#BFD9FF;" cx="109.7" cy="262.7" r="4.1"/>
	<circle style="fill:#BFD9FF;" cx="857" cy="570.3" r="3.8"/>
	<circle style="fill:#BFD9FF;" cx="129.9" cy="579.3" r="3.8"/>
</g>
<g>
	<g>
		<path style="fill:#BE6361;" d="M357.1,247.9v221.3c0,33.1-26.8,59.9-59.9,59.9h-79.5c-33.1,0-59.9-26.8-59.9-59.9V247.9"/>
		<path style="fill:#2B2B2B;" d="M157.8,247.9c0-33.1,26.8-59.9,59.9-59.9h79.5c33.1,0,59.9,26.8,59.9,59.9"/>
		
			<linearGradient id="SVGID_2_" gradientUnits="userSpaceOnUse" x1="341.1405" y1="1009.1281" x2="341.1405" y2="1154.3486" gradientTransform="matrix(1 0 0 -1 0 1392)">
			<stop  offset="0" style="stop-color:#6B9C83"/>
			<stop  offset="0.401" style="stop-color:#A6A6A4"/>
			<stop  offset="0.5011" style="stop-color:#9F9FC8"/>
			<stop  offset="0.5908" style="stop-color:#9FCCEC"/>
			<stop  offset="1" style="stop-color:#FFE7B0"/>
		</linearGradient>
		<path style="fill:url(#SVGID_2_);" d="M310.8,338.9l-13.4-50.2c-5.5-20.5,6.7-41.6,27.3-47.1c20.5-5.5,41.6,6.7,47.1,27.3l14.4,54
			"/>
		<path style="fill:#FDC068;" d="M386.2,322.8l22.4,84l-4.3-10L466.4,520c6.9,13.7,1.4,30.4-12.3,37.3c-12.4,6.2-27.2,2.3-35.1-8.6
			l-80.6-112c-1.7-2.4-2.9-5-3.7-7.7l-0.6-2.4l-23.5-87.9"/>
		<polygon style="fill:#2B2B2B;" points="375.6,385 412,540.1 369.8,481.4 		"/>
		
			<linearGradient id="SVGID_3_" gradientUnits="userSpaceOnUse" x1="303.5401" y1="1009.1281" x2="303.5401" y2="1154.3486" gradientTransform="matrix(1 0 0 -1 0 1392)">
			<stop  offset="0" style="stop-color:#6B9C83"/>
			<stop  offset="0.401" style="stop-color:#A6A6A4"/>
			<stop  offset="0.5011" style="stop-color:#9F9FC8"/>
			<stop  offset="0.5908" style="stop-color:#9FCCEC"/>
			<stop  offset="1" style="stop-color:#FFE7B0"/>
		</linearGradient>
		<path style="fill:url(#SVGID_3_);" d="M373.6,363.5c1.7-37.7-24.3-37.1-13.2-61.9c11.1-24.8,1.2-60.9-27.7-62.1
			c-22.3-1-23.8-2-33.2-2.4c-29.7-1.3-51.6,28-44.3,56.9c0,0,2,6.5,1.4,15s-22.1,20.2-23.2,46L373.6,363.5z"/>
		<g>
			<path style="fill:#2B2B2B;" d="M367.3,334.1l-8.5-14.9l2.3-11.6c5.2-18.6-1.1-38.5-15.9-50.9l-23.3-19.3l9.6-11.5l23.3,19.3
				c19.4,16.1,27.6,42.2,20.8,66.4L367.3,334.1z"/>
		</g>
		
			<linearGradient id="SVGID_4_" gradientUnits="userSpaceOnUse" x1="323.9448" y1="530.0513" x2="323.9448" y2="1046.4849" gradientTransform="matrix(1 0 0 -1 0 1392)">
			<stop  offset="0" style="stop-color:#77879D"/>
			<stop  offset="0.0893" style="stop-color:#A1978E"/>
			<stop  offset="0.1883" style="stop-color:#C9A780"/>
			<stop  offset="0.2791" style="stop-color:#E5B275"/>
			<stop  offset="0.3578" style="stop-color:#F7B96F"/>
			<stop  offset="0.4155" style="stop-color:#FDBB6D"/>
			<stop  offset="0.4989" style="stop-color:#FDBB9F"/>
			<stop  offset="0.599" style="stop-color:#D1D2D1"/>
			<stop  offset="1" style="stop-color:#FECEAA"/>
		</linearGradient>
		<path style="fill:url(#SVGID_4_);" d="M373.7,361.2c0,0,5.1,60.8,6,70.9c1.9,20.2,3.3,40.5,4.2,60.7c1.9,40.6,2.3,81.2,1.5,121.9
			c-0.3,20.4-1,40.7-1.8,61.1c-0.4,10.2-1,20.4-1.4,30.6l-0.9,15.3c-0.3,5.1-0.6,10.2-1,15.3l-1.1,15.3l-1.2,15.3
			c-0.4,5.1-0.9,10.2-1.3,15.3l-0.7,7.7l-0.8,7.7l-1.6,15.4l-0.8,7.7l-1,7.7c-0.7,5.1-1.2,10.2-2,15.4c-0.8,5.1-2.2,14.7-3,19.8
			l-72.2-4.8l-17.2-237.9l-15.3-243.1L373.7,361.2z"/>
		
			<linearGradient id="SVGID_5_" gradientUnits="userSpaceOnUse" x1="209.5" y1="529.6281" x2="209.5" y2="1035.7704" gradientTransform="matrix(1 0 0 -1 0 1392)">
			<stop  offset="0" style="stop-color:#77879D"/>
			<stop  offset="0.0893" style="stop-color:#A1978E"/>
			<stop  offset="0.1883" style="stop-color:#C9A780"/>
			<stop  offset="0.2791" style="stop-color:#E5B275"/>
			<stop  offset="0.3578" style="stop-color:#F7B96F"/>
			<stop  offset="0.4155" style="stop-color:#FDBB6D"/>
			<stop  offset="0.4989" style="stop-color:#FDBB9F"/>
			<stop  offset="0.599" style="stop-color:#D1D2D1"/>
			<stop  offset="1" style="stop-color:#FECEAA"/>
		</linearGradient>
		<path style="fill:url(#SVGID_5_);" d="M326.6,392.1l-0.3,3.7l-0.4,3.7l-0.7,7.3l-1.8,14.5c-0.6,4.9-1.3,9.7-2,14.5l-2.2,14.5
			c-3,19.3-6.6,38.4-10.4,57.5s-8.1,38.1-12.5,57.1c-4.6,19-9.3,37.9-14.4,56.8l-2.3,8.7l-0.4,0.9c-9,18.5-18.3,37-27.8,55.3
			l-7.1,13.8l-7.3,13.7c-4.8,9.1-9.9,18.2-14.8,27.3c-10.1,18.1-20.4,36.2-31.2,54c-10.9,17.8-21.8,35.6-33.8,53l-64.8-33.5
			l85.1-223.4l-2.8,9.7l44-229.7L326.6,392.1z"/>
		<path style="fill:#2B2B2B;" d="M189,532.7c26.1-8.4,104.1-3.4,112.6,9.6l10.5-47.5l-119.5,2.9L189,532.7z"/>
		
			<linearGradient id="SVGID_6_" gradientUnits="userSpaceOnUse" x1="303.5351" y1="529.6281" x2="303.5351" y2="1035.7704" gradientTransform="matrix(1 0 0 -1 0 1392)">
			<stop  offset="0" style="stop-color:#77879D"/>
			<stop  offset="0.0893" style="stop-color:#A1978E"/>
			<stop  offset="0.1883" style="stop-color:#C9A780"/>
			<stop  offset="0.2791" style="stop-color:#E5B275"/>
			<stop  offset="0.3578" style="stop-color:#F7B96F"/>
			<stop  offset="0.4155" style="stop-color:#FDBB6D"/>
			<stop  offset="0.4989" style="stop-color:#FDBB9F"/>
			<stop  offset="0.599" style="stop-color:#D1D2D1"/>
			<stop  offset="1" style="stop-color:#FECEAA"/>
		</linearGradient>
		<path style="fill:url(#SVGID_6_);" d="M233.4,355c-0.9,19.9,18.6,50.6,53.2,52.4l28,0.6c31.6,1.6,58.2-25.3,59.1-46.8L233.4,355z"
			/>
		<g>
			<g>
				<g>
					<path id="SVGID_360_" style="fill:#FDC068;" d="M345.5,219.2l-26-2.5c-13.4-1.3-23.3-13.2-22-26.7l3.8-39.2
						c2.1-21.5,21.2-37.2,42.7-35.2l0,0c21.5,2.1,37.2,21.2,35.2,42.7l-3.5,35.9C374.3,209.5,360.7,220.7,345.5,219.2z"/>
				</g>
				<g>
					<path style="fill:#2B2B2B;" d="M378.5,165.3l-0.8,8.5c-1.7-0.6-3-2.2-3-4.2C374.7,167.5,376.4,165.6,378.5,165.3z"/>
				</g>
			</g>
			<path style="fill:#FDC068;" d="M320.8,261.6l-32.1-15.5l10.7-73.7l41.4,4l-3.4,75.3C337,260,328.2,265.2,320.8,261.6z"/>
			<g>
				<path style="fill:#2B2B2B;" d="M367.1,182.1c-0.5,0-1-0.3-1.2-0.7c-0.3-0.7,0-1.4,0.6-1.7l3.7-1.8c0.4-0.2,0.6-0.6,0.7-1.1
					s0-0.9-0.3-1.3l-4.9-7.1c-0.4-0.6-0.3-1.4,0.3-1.8c0.6-0.4,1.4-0.3,1.8,0.3l4.9,7.1c0.7,0.9,0.9,2.2,0.7,3.3
					c-0.2,1.2-1,2.2-2,2.8l-0.1,0.1l-3.8,1.8C367.5,182.1,367.3,182.1,367.1,182.1z M370.9,179L370.9,179L370.9,179z"/>
			</g>
			<g>
				<path style="fill:#2B2B2B;" d="M362.1,196.1c-2.4,0-4.7-1.2-7-3.6c-0.5-0.5-0.5-1.4,0.1-1.8c0.5-0.5,1.4-0.5,1.8,0.1
					c1.9,2,3.7,2.9,5.4,2.8c2.3-0.2,3.9-2.2,3.9-2.3c0.4-0.6,1.2-0.7,1.8-0.3c0.6,0.4,0.7,1.2,0.3,1.8c-0.1,0.1-2.2,3.1-5.8,3.4
					C362.4,196.1,362.2,196.1,362.1,196.1z"/>
			</g>
			<polygon style="fill:#2B2B2B;" points="343.3,219 321.9,216.9 338.1,235.4 			"/>
			<circle style="fill:#2B2B2B;" cx="353.7" cy="167.5" r="4.4"/>
		</g>
		<g>
			<g>
				<g>
					<path style="fill:#F4E1E1;" d="M138,385.7c-0.4,0-0.7-0.1-1-0.4c-0.3-0.2-0.4-0.6-0.4-1c0.3-20.8,0.6-41.6,0.9-62.4
						c0-0.8,0.6-1.4,1.4-1.4c63.1,0.4,127.1,1.5,190.7,2.6c0.4,0,0.7,0.2,1,0.4c0.3,0.3,0.4,0.6,0.4,1c-0.3,20.8-0.6,41.6-0.8,62.4
						c0,0.8-0.6,1.3-1.4,1.3C265.3,383.7,201.6,382.9,138,385.7z"/>
					<path style="fill:#BE6361;" d="M138.9,322c63.5,0.7,127.1,1.5,190.6,2.6c-0.3,20.8-0.6,41.6-0.8,62.4
						c-63.5-4.3-127-5.1-190.7-2.6C138.3,363.5,138.6,342.7,138.9,322 M138.9,319.2c-1.5,0-2.7,1.2-2.8,2.7
						c-0.3,20.8-0.6,41.6-0.9,62.5c0,0.7,0.3,1.4,0.8,1.9s1.2,0.8,1.9,0.7c63.6-2.6,127.1-1.8,190.7,2.6l0,0c0.7,0,1.4-0.2,1.9-0.7
						s0.8-1.2,0.8-1.9c0.3-20.8,0.6-41.7,0.9-62.5c0-1.5-1.2-2.8-2.7-2.8C266,320.8,202.5,320.1,138.9,319.2L138.9,319.2
						L138.9,319.2z"/>
				</g>
				<g>
					<path style="fill:#F4E1E1;" d="M136.3,510.6c-0.4,0.1-0.7,0-1-0.3c-0.3-0.2-0.4-0.5-0.4-0.9c0.3-20.9,0.6-41.7,0.9-62.6
						c0-0.8,0.6-1.4,1.4-1.5c62.9-6.4,127.5-5.3,190.7,2.5c0.8,0.1,1.4,0.8,1.4,1.5c-0.3,20.8-0.6,41.5-0.8,62.3
						c0,0.4-0.2,0.7-0.4,0.9c-0.3,0.2-0.6,0.3-1,0.2C264.1,501.6,199.5,501,136.3,510.6z"/>
					<path style="fill:#BE6361;" d="M137.2,446.7c63.7-5.7,127.1-4.9,190.7,2.5c-0.3,20.7-0.6,41.5-0.8,62.2
						c-63.6-10.5-126.9-11.1-190.7-2.2C136.6,488.4,136.9,467.5,137.2,446.7 M137.2,443.9c-1.5,0.2-2.7,1.5-2.8,3
						c-0.3,20.9-0.6,41.8-0.8,62.7c0,0.7,0.3,1.4,0.8,1.8s1.2,0.6,1.9,0.5c63.8-9.1,127.1-8.5,190.7,2.2l0,0
						c1.5,0.2,2.7-0.8,2.7-2.3c0.3-20.8,0.6-41.6,0.8-62.3c0-0.7-0.3-1.5-0.8-2.1s-1.2-1-1.9-1C264.4,439.2,200.9,438.4,137.2,443.9
						L137.2,443.9L137.2,443.9z"/>
				</g>
				<g>
					<path style="fill:#D6C1C1;" d="M137.2,448.1c-0.4,0-0.7-0.1-1-0.3c-0.3-0.2-0.4-0.6-0.4-0.9c0.3-20.8,0.6-41.7,0.9-62.5
						c0-0.8,0.6-1.4,1.4-1.4c63.1-3,127.2-1.8,190.7,2.6c0.4,0,0.7,0.2,1,0.5s0.4,0.6,0.4,1c-0.3,20.8-0.6,41.6-0.8,62.3
						c0,0.8-0.6,1.3-1.4,1.2C264.7,442.6,200.6,441.9,137.2,448.1z"/>
					<path style="fill:#BE6361;" d="M138.1,384.3c63.6-2.4,127.1-1.7,190.7,2.6c-0.3,20.8-0.6,41.5-0.8,62.3
						c-63.5-7.4-127-8.2-190.7-2.5C137.5,425.9,137.8,405.1,138.1,384.3 M138,381.5c-1.5,0.1-2.7,1.4-2.8,2.9
						c-0.3,20.9-0.6,41.7-0.9,62.6c0,0.7,0.3,1.4,0.8,1.9s1.2,0.7,1.9,0.6c63.7-5.8,127.1-5.1,190.7,2.5l0,0
						c1.5,0.2,2.7-0.9,2.8-2.4c0.3-20.8,0.6-41.6,0.8-62.4c0-0.7-0.3-1.5-0.8-2c-0.5-0.6-1.2-0.9-1.9-0.9
						C265.2,380,201.7,379.2,138,381.5C138.1,381.5,138.1,381.5,138,381.5L138,381.5z"/>
				</g>
				<path style="fill:#D4B0D6;" d="M286,445c-7.3,8.3-14.7,16.6-22,24.9c-3.3,3.7-9.2,4.3-13.4,1.2c-13-9.3-26.2-18.4-39.5-27.4
					C236.1,443.3,261,443.7,286,445z"/>
				<g>
					<path style="fill:#C595C8;" d="M195.6,382.8c6.2,4.6,9.2,6.9,15.4,11.5c-0.4,16.1-0.9,32.3-1.3,48.4c0.6,0.4,0.9,0.6,1.5,1
						c25-0.5,49.9,0,74.9,1.3c-4.6-7.4-9.2-14.7-13.9-22c15.8-12.2,31.5-24.4,47.2-36.7C278.1,383.7,236.9,382.6,195.6,382.8z"/>
				</g>
				<path style="fill:#D4B0D6;" d="M195.6,382.8c-6.3-7.4-12.7-14.8-19-22.2c-5.9-7.3-3.3-17.8,4.9-22c10.9-5.3,21.8-10.6,32.7-15.8
					c28,0.4,55.9,0.7,83.9,1.2c7.2,20.7,14.3,41.5,21.3,62.3C278.1,383.7,236.9,382.6,195.6,382.8z"/>
				<g>
					<g>
						<path style="fill:#BE6361;" d="M247.5,341.3c-0.5,0-0.9-0.2-1.2-0.6l-1.3-1.8c-0.5-0.7-0.3-1.6,0.3-2.1
							c0.7-0.5,1.6-0.3,2.1,0.3l1.3,1.8c0.5,0.7,0.3,1.6-0.3,2.1C248.1,341.2,247.8,341.3,247.5,341.3z"/>
					</g>
					<g>
						<path style="fill:#BE6361;" d="M273.3,378.8c-0.5,0-1-0.2-1.2-0.7c-1-1.4-1.9-2.9-2.9-4.3c-0.5-0.7-0.3-1.6,0.4-2.1
							c0.7-0.5,1.6-0.3,2.1,0.4c1,1.4,1.9,2.9,2.9,4.3c0.5,0.7,0.3,1.6-0.4,2.1C273.9,378.7,273.6,378.8,273.3,378.8z M264.6,366
							c-0.5,0-0.9-0.2-1.2-0.7l-2.9-4.3c-0.5-0.7-0.3-1.6,0.4-2.1c0.7-0.5,1.6-0.3,2.1,0.4l2.9,4.3c0.5,0.7,0.3,1.6-0.4,2.1
							C265.2,365.9,264.9,366,264.6,366z M255.7,353.2c-0.5,0-0.9-0.2-1.2-0.6l-2.9-4.3c-0.5-0.7-0.3-1.6,0.4-2.1s1.6-0.3,2.1,0.4
							l2.9,4.3c0.5,0.7,0.3,1.6-0.4,2.1C256.3,353.1,256,353.2,255.7,353.2z"/>
					</g>
					<g>
						<path style="fill:#BE6361;" d="M276,386.8c-0.5,0-1-0.2-1.3-0.7c-0.4-0.7-0.2-1.6,0.5-2.1c0.2-0.1,0.4-0.2,0.6-0.4
							c-0.1-0.2-0.3-0.4-0.5-0.7c-0.4-0.7-0.2-1.6,0.5-2.1c0.7-0.4,1.6-0.2,2.1,0.5c0.2,0.4,0.4,0.6,0.6,0.9s0.4,0.6,0.7,1
							c0.4,0.7,0.2,1.6-0.4,2c-0.5,0.4-0.9,0.6-1.3,0.8c-0.2,0.1-0.4,0.2-0.7,0.4C276.5,386.7,276.3,386.8,276,386.8z"/>
					</g>
					<g>
						<path style="fill:#BE6361;" d="M236.4,413.5c-0.5,0-1-0.2-1.2-0.7c-0.5-0.7-0.3-1.6,0.4-2.1l4.5-3c0.7-0.5,1.6-0.3,2.1,0.4
							c0.5,0.7,0.3,1.6-0.4,2.1l-4.5,3C237,413.4,236.7,413.5,236.4,413.5z M249.9,404.4c-0.5,0-1-0.2-1.2-0.7
							c-0.5-0.7-0.3-1.6,0.4-2.1l4.5-3c0.7-0.5,1.6-0.3,2.1,0.4c0.5,0.7,0.3,1.6-0.4,2.1l-4.5,3
							C250.5,404.3,250.2,404.4,249.9,404.4z M263.4,395.3c-0.5,0-1-0.2-1.2-0.7c-0.5-0.7-0.3-1.6,0.4-2.1l4.5-3
							c0.7-0.5,1.6-0.3,2.1,0.4c0.5,0.7,0.3,1.6-0.4,2.1l-4.5,3C264,395.2,263.7,395.3,263.4,395.3z"/>
					</g>
					<g>
						<path style="fill:#BE6361;" d="M230.8,420c-0.5,0-0.9-0.2-1.2-0.6c-0.3-0.5-0.6-0.7-0.9-1.1l-0.4-0.5
							c-0.3-0.3-0.4-0.8-0.3-1.2c0.1-0.4,0.3-0.8,0.7-1c0.6-0.4,1-0.7,1.5-1l0.3-0.2c0.7-0.5,1.6-0.3,2.1,0.3
							c0.5,0.7,0.3,1.6-0.3,2.1L232,417c-0.1,0.1-0.2,0.1-0.3,0.2c0.1,0.2,0.2,0.3,0.4,0.5c0.5,0.7,0.3,1.6-0.3,2.1
							C231.4,419.9,231.1,420,230.8,420z"/>
					</g>
					<g>
						<path style="fill:#BE6361;" d="M245.9,438.4c-0.4,0-0.9-0.2-1.2-0.5c-0.9-1.1-1.8-2.2-2.6-3.2c-0.5-0.6-0.4-1.6,0.2-2.1
							c0.6-0.5,1.6-0.4,2.1,0.2c0.8,1,1.7,2,2.6,3.2c0.5,0.6,0.4,1.6-0.2,2.1C246.6,438.3,246.2,438.4,245.9,438.4z M238.1,428.9
							c-0.4,0-0.9-0.2-1.2-0.5c-0.8-1-1.6-2-2.6-3.2c-0.5-0.6-0.4-1.6,0.2-2.1s1.6-0.4,2.1,0.2c1,1.2,1.8,2.2,2.6,3.2
							c0.5,0.6,0.4,1.6-0.2,2.1C238.8,428.8,238.4,428.9,238.1,428.9z"/>
					</g>
					<g>
						<path style="fill:#BE6361;" d="M249.2,446.1c-0.4,0-0.8-0.2-1.1-0.5c-0.5-0.6-0.5-1.6,0.2-2.1c0.3-0.2,0.5-0.4,0.7-0.6
							c-0.1-0.2-0.3-0.3-0.4-0.5c-0.5-0.6-0.5-1.6,0.2-2.1c0.6-0.5,1.6-0.5,2.1,0.2c0.6,0.7,1,1.2,1.5,1.9c0.2,0.3,0.3,0.7,0.3,1.1
							c-0.1,0.4-0.3,0.7-0.6,1c-0.6,0.5-1,0.7-1.7,1.3C249.9,446,249.5,446.1,249.2,446.1z"/>
					</g>
					<g>
						<path style="fill:#BE6361;" d="M226.8,463.5c-0.4,0-0.9-0.2-1.2-0.6c-0.5-0.6-0.4-1.6,0.2-2.1c1.4-1.1,2.6-2.1,3.8-3
							c0.7-0.5,1.6-0.4,2.1,0.2c0.5,0.7,0.4,1.6-0.2,2.1c-1.2,0.9-2.4,1.9-3.8,3C227.4,463.4,227.1,463.5,226.8,463.5z M238.3,454.4
							c-0.4,0-0.9-0.2-1.2-0.6c-0.5-0.7-0.4-1.6,0.3-2.1l3.9-3c0.7-0.5,1.6-0.4,2.1,0.3c0.5,0.7,0.4,1.6-0.3,2.1l-3.9,3
							C239,454.3,238.6,454.4,238.3,454.4z"/>
					</g>
					<g>
						<path style="fill:#BE6361;" d="M219.4,469.3c-0.3,0-0.6-0.1-0.9-0.3l-1.8-1.3c-0.7-0.5-0.8-1.4-0.3-2.1s1.4-0.8,2.1-0.3
							l0.9,0.7c0.3-0.2,0.5-0.4,0.8-0.7c0.6-0.5,1.6-0.5,2.1,0.2c0.5,0.6,0.5,1.6-0.2,2.1c-0.7,0.6-1.2,1-1.9,1.5
							C220,469.2,219.7,469.3,219.4,469.3z"/>
					</g>
					<g>
						<path style="fill:#BE6361;" d="M210.5,462.7c-0.3,0-0.6-0.1-0.9-0.3l-4-2.9c-0.7-0.5-0.8-1.4-0.3-2.1s1.4-0.8,2.1-0.3l4,2.9
							c0.7,0.5,0.8,1.4,0.3,2.1C211.4,462.5,211,462.7,210.5,462.7z M198.5,453.9c-0.3,0-0.6-0.1-0.9-0.3l-4-2.9
							c-0.7-0.5-0.8-1.4-0.3-2.1s1.4-0.8,2.1-0.3l4,2.9c0.7,0.5,0.8,1.4,0.3,2.1C199.4,453.7,198.9,453.9,198.5,453.9z"/>
					</g>
					<g>
						<path style="fill:#BE6361;" d="M185.8,447.5c-0.3,0-0.6-0.1-0.9-0.3c-0.7-0.5-0.8-1.4-0.3-2.1s0.9-1.2,1.5-1.9
							c0.5-0.6,1.4-0.7,2-0.2l1.8,1.3c0.7,0.5,0.8,1.4,0.3,2.1s-1.4,0.8-2.1,0.3l-0.7-0.5c-0.1,0.2-0.3,0.4-0.5,0.6
							C186.7,447.3,186.3,447.5,185.8,447.5z"/>
					</g>
					<g>
						<path style="fill:#BE6361;" d="M171.3,465.8c-0.3,0-0.6-0.1-0.9-0.3c-0.7-0.5-0.8-1.4-0.3-2.1c0.9-1.1,1.7-2.2,2.4-3.1
							c0.5-0.7,1.5-0.8,2.1-0.3c0.7,0.5,0.8,1.5,0.3,2.1c-0.8,1-1.6,2-2.4,3.1C172.2,465.6,171.8,465.8,171.3,465.8z M178.6,456.4
							c-0.3,0-0.7-0.1-0.9-0.3c-0.6-0.5-0.8-1.5-0.2-2.1l2.5-3.1c0.5-0.6,1.5-0.8,2.1-0.2c0.6,0.5,0.8,1.5,0.2,2.1l-2.5,3.1
							C179.5,456.2,179.1,456.4,178.6,456.4z"/>
					</g>
					<g>
						<path style="fill:#BE6361;" d="M166,472.8c-0.3,0-0.5-0.1-0.8-0.2c-0.7-0.4-0.9-1.4-0.5-2.1c0.4-0.6,0.7-1,1-1.4
							c0.1-0.2,0.3-0.4,0.5-0.6c0.5-0.7,1.4-0.8,2.1-0.3c0.7,0.5,0.8,1.4,0.3,2.1c-0.2,0.3-0.4,0.5-0.5,0.7
							c-0.3,0.4-0.5,0.6-0.8,1.1S166.5,472.8,166,472.8z"/>
					</g>
				</g>
				<g>
					<path style="fill:#F4E1E1;" d="M246.1,344.4c-3.7,0-6.7-3-6.7-6.6c0-3.5,3.1-6.4,6.8-6.4h0.1c3.7,0,6.7,3,6.7,6.6
						C252.9,341.6,249.9,344.4,246.1,344.4C246.2,344.4,246.1,344.4,246.1,344.4z"/>
					<path style="fill:#BE6361;" d="M246.2,332.8C246.3,332.8,246.3,332.8,246.2,332.8c3,0,5.4,2.4,5.4,5.2c0,2.8-2.4,5.1-5.4,5.1
						c0,0,0,0-0.1,0c-3,0-5.3-2.4-5.3-5.2C240.9,335.1,243.3,332.8,246.2,332.8 M246.2,330.2L246.2,330.2c-4.4,0-8.1,3.4-8.1,7.7
						c-0.1,4.3,3.5,7.8,8,7.9h0.1c4.4,0,8.1-3.4,8.1-7.7c0-2.1-0.8-4.1-2.3-5.6s-3.6-2.3-5.7-2.4
						C246.3,330.2,246.3,330.2,246.2,330.2L246.2,330.2z"/>
				</g>
				<g>
					<path style="fill:#F4E1E1;" d="M179.7,370.3c-3.7,0.1-6.7-2.9-6.7-6.5c0.1-3.6,3.1-6.5,6.8-6.6h0.1c3.7,0,6.7,2.9,6.7,6.5
						C186.5,367.3,183.4,370.3,179.7,370.3C179.8,370.3,179.7,370.3,179.7,370.3z"/>
					<path style="fill:#BE6361;" d="M179.8,358.6L179.8,358.6c3,0,5.4,2.3,5.4,5.2c0,2.8-2.4,5.2-5.4,5.2c0,0,0,0-0.1,0
						c-3,0-5.3-2.3-5.3-5.2C174.4,361,176.8,358.6,179.8,358.6 M179.8,355.9L179.8,355.9c-4.4,0.1-8.1,3.7-8.1,8
						c0,2.1,0.8,4.1,2.3,5.6s3.5,2.3,5.7,2.2h0.1c4.4-0.1,8.1-3.7,8.1-7.9c0.1-4.3-3.5-7.9-8-7.8
						C179.8,355.9,179.8,355.9,179.8,355.9L179.8,355.9z"/>
				</g>
				<g>
					<path style="fill:#F4E1E1;" d="M291.6,427.4c-1.8-0.1-3.5-0.9-4.8-2.2c-1.3-1.3-1.9-3-1.9-4.8c0-3.6,3.1-6.3,6.8-6.1h0.1
						c3.7,0.2,6.7,3.4,6.7,7C298.4,424.9,295.4,427.6,291.6,427.4C291.7,427.4,291.6,427.4,291.6,427.4z"/>
					<path style="fill:#BE6361;" d="M291.7,415.6L291.7,415.6c3,0.2,5.4,2.7,5.4,5.6s-2.4,5-5.4,4.8c0,0,0,0-0.1,0
						c-3-0.2-5.3-2.7-5.3-5.6C286.4,417.6,288.7,415.5,291.7,415.6 M291.7,412.9L291.7,412.9c-4.4-0.2-8.1,3.1-8.1,7.4
						c-0.1,4.3,3.5,8.1,8,8.4h0.1c4.4,0.3,8.1-3,8.1-7.3c0-2.1-0.8-4.2-2.3-5.8c-1.5-1.6-3.5-2.6-5.7-2.7
						C291.8,412.9,291.7,412.9,291.7,412.9L291.7,412.9z"/>
				</g>
				<g>
					<path style="fill:#F4E1E1;" d="M217.9,475.5c-1.8,0-3.5-0.6-4.8-1.8c-1.3-1.2-1.9-2.8-1.9-4.5c0.1-3.5,3.1-6.5,6.8-6.6h0.1
						c3.7,0,6.7,2.9,6.7,6.5C224.8,472.5,221.7,475.4,217.9,475.5C218,475.5,218,475.5,217.9,475.5z"/>
					<path style="fill:#BE6361;" d="M218,463.9C218.1,463.9,218.1,463.9,218,463.9c3.1,0,5.4,2.3,5.4,5.1c0,2.8-2.4,5.1-5.4,5.2
						c0,0,0,0-0.1,0c-3,0-5.4-2.2-5.3-5.1C212.7,466.3,215.1,463.9,218,463.9 M218,461.2L218,461.2c-4.4,0.1-8.1,3.7-8.2,7.9
						c0,2.1,0.8,4,2.3,5.5c1.5,1.4,3.6,2.2,5.7,2.2h0.1c4.4-0.1,8.1-3.6,8.2-7.8c0-2.1-0.8-4-2.3-5.5s-3.6-2.3-5.7-2.3
						C218.1,461.2,218.1,461.2,218,461.2L218,461.2z"/>
				</g>
			</g>
		</g>
		
			<linearGradient id="SVGID_7_" gradientUnits="userSpaceOnUse" x1="265.4746" y1="1009.1281" x2="265.4746" y2="1154.3486" gradientTransform="matrix(1 0 0 -1 0 1392)">
			<stop  offset="0" style="stop-color:#6B9C83"/>
			<stop  offset="0.401" style="stop-color:#A6A6A4"/>
			<stop  offset="0.5011" style="stop-color:#9F9FC8"/>
			<stop  offset="0.5908" style="stop-color:#9FCCEC"/>
			<stop  offset="1" style="stop-color:#FFE7B0"/>
		</linearGradient>
		<path style="fill:url(#SVGID_7_);" d="M214.7,278.8l40.6-29.3c17.2-12.4,41.3-8.5,53.7,8.7s8.5,41.3-8.7,53.7l-37,26.7"/>
		<path style="fill:#FDC068;" d="M263.4,338.6l-71.6,51.7l13.6-44.6L241,472.9c4.2,14.8-4.5,30.1-19.3,34.3
			c-13.3,3.7-27.1-2.9-32.7-15l-55.9-119.7c-7.2-15.4-2.1-33.3,11.1-42.9l2.4-1.7l68-49"/>
		<g>
			<path style="fill:#2B2B2B;" d="M421.6,885.5L306,885c-6,0-11-4.9-11.1-10.9l-0.3-14.6l73,1l55.3,13.9
				C429.5,876.1,428.3,885.6,421.6,885.5z"/>
		</g>
		<g>
			<g>
				<path style="fill:#2B2B2B;" d="M200.8,885.5L93.5,842.8c-5.6-2.2-8.4-8.5-6.3-14.2l5.1-13.7l67.6,27.7l46.4,33.2
					C211.6,879.6,207,888,200.8,885.5z"/>
			</g>
		</g>
		<path style="fill:#5D5D5D;" d="M379.4,153.1l-49-3.9l-2.8,25.9h-13.8L295,201.9l6.7-53.8c2.5-18.3,19.2-32.4,37.6-31.9l4.8,0.1
			C364,116.8,379.7,133.2,379.4,153.1L379.4,153.1z"/>
		<path style="fill:#FDC068;" d="M320.7,185.4l-8.5-1c-4.7-0.6-8.1-4.8-7.5-9.5l1.2-9.8c0.6-4.7,4.8-8.1,9.5-7.5l0,0
			c4.7,0.6,8.1,4.8,7.5,9.5L320.7,185.4z"/>
		<g>
			<path style="fill:#BE6361;" d="M353.5,99.9L353.5,99.9c-5,1.1-10.3,0.6-15-1.3l-1.4-0.6c-15.6-6.5-33.1,4.1-34.6,20.9l-2.5,27.5
				l81.5,7.5l2.5-27.2C385.5,109.8,370.1,96.2,353.5,99.9z"/>
			
				<rect x="332.015" y="99.803" transform="matrix(0.0916 -0.9958 0.9958 0.0916 170.0752 467.8442)" style="fill:#2B2B2B;" width="18.9" height="81.8"/>
			<g>
				<path style="fill:#BE6361;" d="M425.4,159.6c-0.1,0-0.1,0-0.2,0L255.7,144c-0.9-0.1-1.6-0.9-1.5-1.8c0.1-0.9,0.9-1.6,1.8-1.5
					l169.5,15.5c0.9,0.1,1.6,0.9,1.5,1.8C427,158.9,426.2,159.6,425.4,159.6z"/>
			</g>
		</g>
		<g>
			<path style="fill:#2B2B2B;" d="M314,321.6l-15.8-0.2l4.1-13.7c5.2-18.6-1.1-38.5-15.9-50.9l-23.3-19.3l9.6-11.5l23.3,19.3
				c19.4,16.1,27.6,42.2,20.8,66.4L314,321.6z"/>
		</g>
		<g>
			<path style="fill:#2B2B2B;" d="M189.1,287.4h-31.3c-0.9,0-1.7-0.7-1.7-1.7s0.7-1.7,1.7-1.7h31.3c5.9,0,10.7-4.8,10.7-10.7v-10.5
				c0-0.9,0.7-1.7,1.7-1.7s1.7,0.7,1.7,1.7v10.5C203.2,281,196.9,287.4,189.1,287.4z"/>
		</g>
	</g>
	<g>
		<path style="fill:#2B2B2B;" d="M373.7,361.4c-0.6,0-1.1-0.4-1.3-1l-7.9-33c-0.2-0.7,0.3-1.4,1-1.6s1.4,0.3,1.6,1l7.9,33
			c0.2,0.7-0.3,1.4-1,1.6C373.9,361.4,373.8,361.4,373.7,361.4z"/>
	</g>
	<g>
		<path style="fill:#2B2B2B;" d="M277,637.2c-0.2,0-0.4,0-0.6-0.1c-0.6-0.3-0.9-1.1-0.6-1.7c1.6-3.3,6.2-16.2,6.5-17.3l22.4-96.3
			c0.2-0.7,0.9-1.1,1.6-1c0.7,0.2,1.1,0.9,1,1.6l-22.4,96.5c-0.2,0.6-4.9,14.1-6.7,17.6C277.9,636.9,277.5,637.2,277,637.2z"/>
	</g>
	<g>
		<path style="fill:#2B2B2B;" d="M175.5,626.7c-0.7,0-1.3-0.6-1.3-1.3v-29.2c0-0.7,0.6-1.3,1.3-1.3s1.3,0.6,1.3,1.3v29.2
			C176.8,626.1,176.2,626.7,175.5,626.7z"/>
	</g>
	<g>
		<path style="fill:#2B2B2B;" d="M213.5,375.9c-0.6,0-1.1-0.4-1.3-0.9l-6.5-22.8c-0.2-0.7,0.2-1.4,0.9-1.6s1.4,0.2,1.6,0.9l6.5,22.8
			c0.2,0.7-0.2,1.4-0.9,1.6C213.7,375.9,213.6,375.9,213.5,375.9z"/>
	</g>
	<g>
		<path style="fill:#2B2B2B;" d="M407.8,404.9c-0.2,0-0.3,0-0.5-0.1l-10.3-4.2c-0.7-0.3-1-1-0.7-1.7s1-1,1.7-0.7l10.3,4.2
			c0.7,0.3,1,1,0.7,1.7C408.8,404.6,408.3,404.9,407.8,404.9z"/>
	</g>
	<g>
		<path style="fill:#2B2B2B;" d="M332.3,106.7c-0.6,0-1.1-0.4-1.3-0.9c-0.2-0.7,0.2-1.4,0.9-1.6l17.6-5c0.7-0.2,1.4,0.2,1.6,0.9
			s-0.2,1.4-0.9,1.6l-17.6,5C332.5,106.7,332.4,106.7,332.3,106.7z"/>
	</g>
</g>
<rect x="75.7" y="883.9" style="fill:#2B2B2B;" width="392.5" height="4.1"/>
<g>
	<g>
		<polygon style="fill:#FFFFFF;" points="663.6,475.4 732,475.4 732,377.6 663.6,377.6 623,426.5 		"/>
		<path style="fill:#F9D0B5;" d="M732,477.9h-68.4c-0.7,0-1.4-0.3-1.9-0.9l-40.6-48.9c-0.8-0.9-0.8-2.3,0-3.2l40.6-48.9
			c0.5-0.6,1.2-0.9,1.9-0.9H732c1.4,0,2.5,1.1,2.5,2.5v97.8C734.5,476.8,733.4,477.9,732,477.9z M664.8,472.9h64.7v-92.8h-64.7
			l-38.5,46.4L664.8,472.9z"/>
	</g>
	<g>
		<g>
			<polygon style="fill:#FFFFFF;" points="698.3,312.8 764.5,312.8 764.5,212.7 698.3,212.7 676.5,262.7 			"/>
			<path style="fill:#F9D0B5;" d="M764.5,315.3h-66.2c-1,0-1.9-0.6-2.3-1.5l-21.8-50.1c-0.3-0.6-0.3-1.4,0-2l21.8-50
				c0.4-0.9,1.3-1.5,2.3-1.5h66.2c1.4,0,2.5,1.1,2.5,2.5v100.1C767,314.2,765.9,315.3,764.5,315.3z M699.9,310.3H762v-95.1h-62.1
				l-20.7,47.5L699.9,310.3z"/>
		</g>
	</g>
	<g>
		<polygon style="fill:#FFFFFF;" points="818,129.2 775,89.3 732,129.2 732,885.1 818,885.1 		"/>
		<path style="fill:#F9D0B5;" d="M818,887.6h-86c-1.4,0-2.5-1.1-2.5-2.5V129.2c0-0.7,0.3-1.4,0.8-1.8l43-39.9c1-0.9,2.4-0.9,3.4,0
			l43,39.9c0.5,0.5,0.8,1.1,0.8,1.8v755.9C820.5,886.5,819.4,887.6,818,887.6z M734.5,882.6h81V130.3L775,92.7l-40.5,37.6V882.6z"/>
	</g>
	<g>
		<polygon style="fill:#2B2B2B;" points="763.2,579.2 732,616.9 732.2,570.3 		"/>
		<path style="fill:#2B2B2B;" d="M732,619.4c-0.3,0-0.6,0-0.9-0.1c-1-0.4-1.7-1.3-1.6-2.4l0.2-46.6c0-0.8,0.4-1.5,1-2
			s1.4-0.6,2.2-0.4l31,8.9c0.8,0.2,1.5,0.9,1.7,1.7s0.1,1.7-0.5,2.3l-31.2,37.7C733.4,619.1,732.7,619.4,732,619.4z M734.7,573.6
			l-0.2,36.3l24.3-29.4L734.7,573.6z"/>
	</g>
	<g>
		<polygon style="fill:#2B2B2B;" points="763.2,402.6 732,440.3 732.2,393.6 		"/>
		<path style="fill:#2B2B2B;" d="M732,442.8c-0.3,0-0.6,0-0.9-0.1c-1-0.4-1.7-1.3-1.6-2.4l0.2-46.7c0-0.8,0.4-1.5,1-2
			s1.4-0.6,2.2-0.4l31,9c0.8,0.2,1.4,0.9,1.7,1.7c0.2,0.8,0.1,1.7-0.5,2.3l-31.2,37.7C733.4,442.5,732.7,442.8,732,442.8z
			 M734.7,396.9l-0.2,36.4l24.3-29.4L734.7,396.9z"/>
	</g>
	<g>
		<polygon style="fill:#2B2B2B;" points="860.5,401.8 780.1,401.8 780.1,301.7 860.5,301.7 893.8,346.9 		"/>
		<path style="fill:#2B2B2B;" d="M860.5,404.3h-80.4c-1.4,0-2.5-1.1-2.5-2.5V301.7c0-1.4,1.1-2.5,2.5-2.5h80.4c0.8,0,1.5,0.4,2,1
			l33.3,45.2c0.6,0.8,0.7,1.9,0.1,2.8l-33.3,54.9C862.2,403.8,861.4,404.3,860.5,404.3z M782.6,399.3h76.5l31.7-52.3l-31.6-42.8
			h-76.6L782.6,399.3L782.6,399.3z"/>
	</g>
	<path style="fill:#F9D0B5;" d="M819.7,127.4l-43-39.9c-0.7-0.7-1.8-0.9-2.7-0.5s-1.5,1.3-1.5,2.3V886c0,0.7,0.3,1.3,0.8,1.8
		s1.1,0.7,1.7,0.7c0,0,0,0,0.1,0l43-0.9c1.4,0,2.4-1.1,2.4-2.5V129.2C820.5,128.5,820.2,127.8,819.7,127.4z"/>
	<g>
		<polygon style="fill:#2B2B2B;" points="810,522 818,543.8 818,511.4 		"/>
		<path style="fill:#2B2B2B;" d="M818,546.3c-1,0-2-0.6-2.3-1.6l-8-21.8c-0.3-0.8-0.2-1.7,0.4-2.4l8-10.6c0.6-0.9,1.8-1.2,2.8-0.9
			c1,0.3,1.7,1.3,1.7,2.4v32.4c0,1.2-0.9,2.2-2.1,2.5C818.3,546.3,818.1,546.3,818,546.3z M812.8,522.4l2.7,7.3v-10.9L812.8,522.4z"
			/>
	</g>
	<g>
		<polygon style="fill:#2B2B2B;" points="785.5,312.8 820,354.6 820,297.8 		"/>
		<path style="fill:#2B2B2B;" d="M820,357.1c-0.7,0-1.4-0.3-1.9-0.9l-34.5-41.8c-0.5-0.6-0.7-1.4-0.5-2.2c0.2-0.8,0.7-1.4,1.4-1.7
			l34.5-15c0.8-0.3,1.7-0.3,2.4,0.2s1.1,1.2,1.1,2.1v56.8c0,1.1-0.7,2-1.7,2.4C820.6,357.1,820.3,357.1,820,357.1z M789.5,313.8
			l28,33.9v-46L789.5,313.8z"/>
	</g>
	<path style="fill:#F9D0B5;" d="M958.5,471.5l-40.6-48.9c-0.5-0.6-1.2-0.9-1.9-0.9h-92.5c-1.4,0-2.5,1.1-2.5,2.5V522
		c0,1.4,1.1,2.5,2.5,2.5H916c0.7,0,1.4-0.3,1.9-0.9l40.6-48.9C959.3,473.8,959.3,472.4,958.5,471.5z"/>
	<g>
		<polygon style="fill:#FFFFFF;" points="902.5,522 810,522 810,424.2 902.5,424.2 943.1,473.1 		"/>
		<path style="fill:#F9D0B5;" d="M902.5,524.5H810c-1.4,0-2.5-1.1-2.5-2.5v-97.8c0-1.4,1.1-2.5,2.5-2.5h92.5c0.7,0,1.4,0.3,1.9,0.9
			l40.6,48.9c0.8,0.9,0.8,2.3,0,3.2l-40.6,48.9C903.9,524.2,903.2,524.5,902.5,524.5z M812.5,519.5h88.8l38.5-46.4l-38.5-46.4h-88.8
			V519.5z"/>
	</g>
	<path style="fill:#F9D0B5;" d="M818,847.9h-86c-1.4,0-2.5,1.1-2.5,2.5V885c0,1.4,1.1,2.5,2.5,2.5h86c1.4,0,2.5-1.1,2.5-2.5v-34.6
		C820.5,849,819.4,847.9,818,847.9z"/>
	<path style="fill:#F9D0B5;" d="M818,774.4h-86c-1.4,0-2.5,1.1-2.5,2.5v34.6c0,1.4,1.1,2.5,2.5,2.5h86c1.4,0,2.5-1.1,2.5-2.5v-34.6
		C820.5,775.5,819.4,774.4,818,774.4z"/>
	<path style="fill:#F9D0B5;" d="M818,700.9h-86c-1.4,0-2.5,1.1-2.5,2.5V738c0,1.4,1.1,2.5,2.5,2.5h86c1.4,0,2.5-1.1,2.5-2.5v-34.6
		C820.5,702,819.4,700.9,818,700.9z"/>
	<g>
		<rect x="775" y="850.4" style="fill:#2B2B2B;" width="43" height="34.6"/>
		<path style="fill:#2B2B2B;" d="M818,887.5h-43c-1.4,0-2.5-1.1-2.5-2.5v-34.6c0-1.4,1.1-2.5,2.5-2.5h43c1.4,0,2.5,1.1,2.5,2.5V885
			C820.5,886.4,819.4,887.5,818,887.5z M777.5,882.5h38v-29.6h-38V882.5z"/>
	</g>
	<g>
		<rect x="775" y="776.9" style="fill:#2B2B2B;" width="43" height="34.6"/>
		<path style="fill:#2B2B2B;" d="M818,814h-43c-1.4,0-2.5-1.1-2.5-2.5v-34.6c0-1.4,1.1-2.5,2.5-2.5h43c1.4,0,2.5,1.1,2.5,2.5v34.6
			C820.5,812.9,819.4,814,818,814z M777.5,809h38v-29.6h-38V809z"/>
	</g>
	<g>
		<rect x="775" y="703.4" style="fill:#2B2B2B;" width="43" height="34.6"/>
		<path style="fill:#2B2B2B;" d="M818,740.5h-43c-1.4,0-2.5-1.1-2.5-2.5v-34.6c0-1.4,1.1-2.5,2.5-2.5h43c1.4,0,2.5,1.1,2.5,2.5V738
			C820.5,739.4,819.4,740.5,818,740.5z M777.5,735.5h38v-29.6h-38V735.5z"/>
	</g>
	<path style="fill:#F9D0B5;" d="M818,152.6h-86c-1.4,0-2.5,1.1-2.5,2.5v34.6c0,1.4,1.1,2.5,2.5,2.5h86c1.4,0,2.5-1.1,2.5-2.5v-34.6
		C820.5,153.7,819.4,152.6,818,152.6z"/>
	<g>
		<rect x="775" y="155.1" style="fill:#2B2B2B;" width="43" height="34.6"/>
		<path style="fill:#2B2B2B;" d="M818,192.2h-43c-1.4,0-2.5-1.1-2.5-2.5v-34.6c0-1.4,1.1-2.5,2.5-2.5h43c1.4,0,2.5,1.1,2.5,2.5v34.6
			C820.5,191.1,819.4,192.2,818,192.2z M777.5,187.2h38v-29.6h-38V187.2z"/>
	</g>
	<g>
		<polygon style="fill:#FFFFFF;" points="669.8,579.2 750.3,579.2 750.3,479.1 669.8,479.1 636.5,524.3 		"/>
		<path style="fill:#F9D0B5;" d="M750.3,581.7h-80.5c-0.9,0-1.7-0.5-2.1-1.2l-33.3-54.9c-0.5-0.9-0.5-2,0.1-2.8l33.3-45.2
			c0.5-0.6,1.2-1,2-1h80.5c1.4,0,2.5,1.1,2.5,2.5v100.1C752.8,580.6,751.7,581.7,750.3,581.7z M671.2,576.7h76.6v-95.1h-76.7
			l-31.6,42.8L671.2,576.7z"/>
	</g>
	<path style="fill:#F9D0B5;" d="M764.5,476.6h-80.4c-0.8,0-1.5,0.4-2,1l-33.3,45.2c-0.6,0.8-0.7,1.9-0.1,2.8l33.3,54.9
		c0.5,0.7,1.3,1.2,2.1,1.2h80.4c1.4,0,2.5-1.1,2.5-2.5V479.1C767,477.7,765.9,476.6,764.5,476.6z"/>
	<g>
		<g>
			<polygon style="fill:#FFFFFF;" points="646,401.8 750.3,401.8 750.3,301.7 646,301.7 619.9,346.9 			"/>
			<path style="fill:#F9D0B5;" d="M750.3,404.3H646c-1,0-1.8-0.6-2.3-1.4L617.6,348c-0.4-0.7-0.3-1.6,0.1-2.3l26.1-45.2
				c0.4-0.8,1.3-1.2,2.2-1.2h104.3c1.4,0,2.5,1.1,2.5,2.5v100.1C752.8,403.2,751.7,404.3,750.3,404.3z M647.6,399.3h100.2v-95.1
				H647.4L622.7,347L647.6,399.3z"/>
		</g>
		<path style="fill:#F9D0B5;" d="M764.5,299.2H660.3c-0.9,0-1.7,0.5-2.2,1.2L632,345.6c-0.4,0.7-0.4,1.6-0.1,2.3l26.1,54.9
			c0.4,0.9,1.3,1.4,2.3,1.4h104.2c1.4,0,2.5-1.1,2.5-2.5v-100C767,300.3,765.9,299.2,764.5,299.2z"/>
	</g>
	<g>
		<path style="fill:#F9D0B5;" d="M890.1,261.7l-21.8-50c-0.4-0.9-1.3-1.5-2.3-1.5h-66.2c-1.4,0-2.5,1.1-2.5,2.5v100.1
			c0,1.4,1.1,2.5,2.5,2.5H866c1,0,1.9-0.6,2.3-1.5l21.8-50.1C890.4,263.1,890.4,262.3,890.1,261.7z"/>
		<g>
			<polygon style="fill:#FFFFFF;" points="851.7,312.8 785.5,312.8 785.5,212.7 851.7,212.7 873.5,262.7 			"/>
			<path style="fill:#F9D0B5;" d="M851.7,315.3h-66.2c-1.4,0-2.5-1.1-2.5-2.5V212.7c0-1.4,1.1-2.5,2.5-2.5h66.2c1,0,1.9,0.6,2.3,1.5
				l21.8,50c0.3,0.6,0.3,1.4,0,2L854,313.8C853.6,314.7,852.7,315.3,851.7,315.3z M788,310.3h62.1l20.7-47.6l-20.7-47.5H788V310.3z"
				/>
		</g>
	</g>
</g>
<g>
	<path style="fill:#F9D5FF;" d="M491.4,195.5v-10c13.3,0,35.9-23.3,57.9-45.9c30.6-31.5,62.2-64.1,91-64.1v10
		c-24.6,0-56.1,32.4-83.9,61C530.9,172.8,508.9,195.5,491.4,195.5z"/>
</g>
</svg>
