<svg width="1402" height="422" viewBox="0 0 1402 422" fill="none" xmlns="http://www.w3.org/2000/svg">
<path d="M987.771 82.7119H913.548C911.861 82.7119 910.174 84.4001 910.174 86.0881V129.132C910.174 130.82 911.861 132.508 913.548 132.508H987.771C989.457 132.508 991.144 130.82 991.144 129.132V86.0881C991.988 84.4001 990.301 82.7119 987.771 82.7119ZM986.927 146.856H843.542C841.855 146.856 839.324 148.544 838.481 150.232L819.925 220.284L819.082 223.66L797.152 148.544C796.309 146.856 794.622 145.168 792.092 145.168H736.424C734.738 145.168 732.207 146.856 731.364 148.544L710.278 218.596L709.434 221.972L708.591 220.284L700.156 185.68L690.878 151.076C690.035 149.388 688.348 147.7 685.818 147.7H573.64V86.9319C573.64 85.2439 571.11 82.7119 568.579 83.5559L497.73 105.5C495.2 106.344 494.356 107.188 494.356 108.876V146.856H475.8C474.114 146.856 472.427 148.544 472.427 150.232V204.248C472.427 205.936 474.114 207.624 475.8 207.624H494.356V273.456C494.356 319.876 519.66 341.82 566.049 341.82C585.448 341.82 604.004 337.6 616.656 330.848V275.144C616.656 272.612 614.125 271.768 612.438 271.768C604.847 275.144 598.943 275.988 592.196 275.988C579.544 275.988 572.796 270.924 572.796 256.576V208.468H613.282C614.969 208.468 616.656 206.78 616.656 205.092V159.516L669.792 335.912C670.636 337.6 672.323 339.288 674.853 339.288H733.894C735.581 339.288 738.111 337.6 738.955 335.912L764.258 257.42L776.91 297.932L788.718 335.068C789.561 336.756 791.248 338.444 793.779 338.444H852.82C854.507 338.444 857.037 336.756 857.88 335.068L911.861 157.828V335.068C911.861 336.756 913.548 338.444 915.234 338.444H986.927C988.614 338.444 990.301 336.756 990.301 335.068V151.076C990.301 148.544 988.614 146.856 986.927 146.856V146.856ZM1081.39 82.7119H1009.7C1008.01 82.7119 1006.33 84.4001 1006.33 86.0881V335.068C1006.33 336.756 1008.01 338.444 1009.7 338.444H1081.39C1083.08 338.444 1084.77 336.756 1084.77 335.068V86.0881C1084.77 84.4001 1083.08 82.7119 1081.39 82.7119ZM1176.7 82.7119H1102.48C1100.79 82.7119 1099.11 84.4001 1099.11 86.0881V129.132C1099.11 130.82 1100.79 132.508 1102.48 132.508H1176.7C1178.39 132.508 1180.08 130.82 1180.08 129.132V86.0881C1180.92 84.4001 1179.23 82.7119 1176.7 82.7119ZM1175.86 146.856H1104.17C1102.48 146.856 1100.79 148.544 1100.79 150.232V335.068C1100.79 336.756 1102.48 338.444 1104.17 338.444H1175.86C1177.55 338.444 1179.23 336.756 1179.23 335.068V151.076C1179.23 148.544 1177.55 146.856 1175.86 146.856V146.856ZM1294.78 142.636C1231.53 142.636 1186.82 189.056 1186.82 243.072V243.916C1186.82 297.932 1231.53 343.508 1293.94 343.508C1357.2 343.508 1401.9 297.088 1401.9 243.072V242.228C1401.9 188.212 1357.2 142.636 1294.78 142.636ZM1325.15 243.072C1325.15 261.64 1312.5 275.988 1294.78 275.988C1277.07 275.988 1263.58 260.796 1263.58 242.228V241.384C1263.58 222.816 1276.23 208.468 1293.94 208.468C1311.65 208.468 1325.15 223.66 1325.15 243.072ZM210.959 0C94.5643 0 0.0986328 94.528 0.0986328 211C0.0986328 327.472 94.5643 422 210.959 422C327.355 422 421.82 327.472 421.82 211C421.82 94.528 327.355 0 210.959 0ZM210.959 366.296C124.928 366.296 55.7659 297.088 55.7659 211C55.7659 124.912 124.928 55.704 210.959 55.704C296.991 55.704 366.153 124.912 366.153 211C366.153 297.088 296.991 366.296 210.959 366.296Z" fill="black"/>
<path d="M263.253 202.56C287.475 202.56 307.112 182.911 307.112 158.672C307.112 134.433 287.475 114.784 263.253 114.784C239.03 114.784 219.394 134.433 219.394 158.672C219.394 182.911 239.03 202.56 263.253 202.56Z" fill="black"/>
<path d="M263.253 307.216C287.475 307.216 307.112 287.567 307.112 263.329C307.112 239.09 287.475 219.44 263.253 219.44C239.03 219.44 219.394 239.09 219.394 263.329C219.394 287.567 239.03 307.216 263.253 307.216Z" fill="black"/>
<path d="M158.666 307.216C182.888 307.216 202.525 287.567 202.525 263.329C202.525 239.09 182.888 219.44 158.666 219.44C134.443 219.44 114.807 239.09 114.807 263.329C114.807 287.567 134.443 307.216 158.666 307.216Z" fill="black"/>
<path d="M158.666 202.56C182.888 202.56 202.525 182.911 202.525 158.672C202.525 134.433 182.888 114.784 158.666 114.784C134.443 114.784 114.807 134.433 114.807 158.672C114.807 182.911 134.443 202.56 158.666 202.56Z" fill="black"/>
</svg>
