<svg width="61" height="61" viewBox="0 0 61 61" fill="none" xmlns="http://www.w3.org/2000/svg">
<g clip-path="url(#clip0)">
<path d="M30.3622 60.5003C46.9307 60.5003 60.3622 47.0688 60.3622 30.5003C60.3622 13.9318 46.9307 0.500305 30.3622 0.500305C13.7936 0.500305 0.362183 13.9318 0.362183 30.5003C0.362183 47.0688 13.7936 60.5003 30.3622 60.5003Z" fill="#0984E3"/>
<path d="M24.8722 46.3253C38.1772 46.3253 45.4522 35.3003 45.4522 25.7453C45.4522 25.4303 45.4522 25.1153 45.4372 24.8153C46.8472 23.7953 48.0772 22.5203 49.0522 21.0653C47.7622 21.6353 46.3672 22.0253 44.8972 22.2053C46.3972 21.3053 47.5372 19.8953 48.0772 18.2003C46.6822 19.0253 45.1372 19.6253 43.4872 19.9553C42.1672 18.5453 40.2922 17.6753 38.2072 17.6753C34.2172 17.6753 30.9772 20.9153 30.9772 24.9053C30.9772 25.4753 31.0372 26.0303 31.1722 26.5553C25.1572 26.2553 19.8322 23.3753 16.2622 18.9953C15.6472 20.0603 15.2872 21.3053 15.2872 22.6253C15.2872 25.1303 16.5622 27.3503 18.5122 28.6403C17.3272 28.6103 16.2172 28.2803 15.2422 27.7403C15.2422 27.7703 15.2422 27.8003 15.2422 27.8303C15.2422 31.3403 17.7322 34.2503 21.0472 34.9253C20.4472 35.0903 19.8022 35.1803 19.1422 35.1803C18.6772 35.1803 18.2272 35.1353 17.7772 35.0453C18.6922 37.9253 21.3622 40.0103 24.5272 40.0703C22.0522 42.0053 18.9322 43.1603 15.5422 43.1603C14.9572 43.1603 14.3872 43.1303 13.8172 43.0553C16.9822 45.1253 20.7922 46.3253 24.8722 46.3253Z" fill="white"/>
</g>
<defs>
<clipPath id="clip0">
<rect width="60" height="60" fill="white" transform="translate(0.362183 0.500305)"/>
</clipPath>
</defs>
</svg>
