<svg width="1751" height="387" viewBox="0 0 1751 387" fill="none" xmlns="http://www.w3.org/2000/svg">
<g clip-path="url(#clip0)">
<path d="M1709.15 0.706133C1722.57 -7.1764e-05 1735.99 -7.1764e-05 1749.41 0.35303C1709.15 84.3914 1670.3 169.136 1631.09 253.527H1598.24C1580.23 211.155 1559.04 169.842 1540.32 127.47C1553.39 127.117 1566.46 127.117 1579.52 127.47C1590.83 153.599 1604.25 178.67 1614.49 204.799C1645.93 136.65 1678.42 68.8549 1709.15 0.706133Z" fill="black"/>
<path d="M697.955 36.7227C723.738 37.0758 749.874 37.0758 775.657 36.7227C775.304 59.6743 775.304 82.979 775.657 105.931C749.874 105.578 723.738 105.931 697.602 105.578C698.308 82.6259 697.602 59.6743 697.955 36.7227V36.7227ZM306.97 135.591C359.949 105.578 436.945 115.818 472.617 167.724C494.515 198.443 500.873 237.285 500.52 274.007C439.77 274.36 379.021 274.007 318.272 274.36C321.097 293.075 329.221 312.849 346.527 322.735C371.251 337.213 410.102 332.975 422.464 304.374C447.541 303.668 472.264 303.668 497.341 304.374C489.571 332.975 468.732 357.339 442.596 370.757C414.34 386.294 380.434 389.119 349 383.822C315.8 378.526 285.072 359.811 266.352 331.916C245.867 302.256 240.569 264.474 245.161 229.516C249.752 191.028 272.71 154.659 306.97 135.591V135.591ZM348.293 179.729C330.987 187.85 322.51 206.565 318.625 224.573H422.464C420.345 210.802 415.4 196.325 404.804 186.791C389.97 172.314 366.306 171.961 348.293 179.729V179.729ZM1121.43 122.173C1163.11 114.758 1209.38 123.586 1241.52 152.54C1296.26 201.268 1298.74 295.547 1247.88 347.806C1207.61 389.825 1140.15 397.593 1088.59 373.935C1048.68 355.927 1021.48 315.32 1016.89 272.242C1015.12 247.172 1016.18 221.395 1026.42 198.09C1041.97 158.19 1079.76 129.235 1121.43 122.173V122.173ZM1130.26 179.729C1108.37 187.497 1098.12 211.155 1094.94 232.694C1092.47 259.53 1092.83 289.897 1110.13 312.142C1128.85 336.506 1170.17 335.8 1188.89 311.789C1204.43 292.369 1206.91 265.886 1205.14 241.875C1204.08 220.689 1196.66 198.09 1179 185.026C1164.88 175.492 1146.16 174.079 1130.26 179.729V179.729ZM1398.69 136.651C1424.47 116.524 1461.21 114.405 1490.87 126.411C1512.07 135.591 1527.96 154.306 1535.38 175.845C1543.85 198.09 1541.38 222.101 1541.38 245.406C1541.38 289.897 1541.03 334.388 1541.73 378.526C1515.95 378.879 1490.17 378.526 1464.03 378.879V226.339C1464.03 213.274 1459.09 199.15 1448.14 191.028C1431.54 179.729 1407.52 181.848 1393.39 195.972C1382.09 207.271 1377.15 223.514 1377.5 239.05V378.879C1352.07 378.526 1326.29 378.879 1300.86 378.526C1300.86 294.487 1301.21 210.449 1300.86 126.411C1325.93 126.764 1350.66 126.058 1375.73 126.764C1375.38 138.416 1375.38 150.068 1375.03 161.721C1382.8 153.246 1389.15 143.713 1398.69 136.651V136.651ZM0.750977 127.117H81.2791C97.526 181.141 114.832 235.166 130.02 289.544C148.739 236.225 162.867 181.141 180.526 127.117C206.31 126.764 232.446 127.117 258.229 126.764C228.561 210.802 199.599 294.84 170.284 378.879C143.441 378.879 116.598 378.526 89.7557 379.232C59.0279 295.547 31.832 210.449 0.750977 127.117ZM518.179 126.764H592.35C591.997 140.888 592.35 155.012 591.644 169.136C598.001 162.074 602.593 153.246 609.303 146.537C625.903 128.176 653.099 120.761 677.116 127.117C676.763 149.362 676.763 171.608 677.116 193.5C658.044 191.381 636.852 192.088 620.605 203.74C603.299 215.745 595.529 237.991 595.882 258.471C595.529 298.724 595.882 338.625 595.882 378.879C570.099 378.879 543.962 378.526 518.179 379.232C518.533 294.84 518.533 210.802 518.179 126.764V126.764ZM697.955 127.117C724.091 126.764 749.874 127.117 776.011 126.764C775.657 210.802 776.011 294.84 776.011 378.879C750.227 378.526 724.091 378.879 697.955 378.879V127.117ZM796.849 126.764C867.134 127.117 937.42 126.764 1007.35 127.117C1006.65 146.537 1007.35 165.605 1007 185.026C1004.53 189.969 1000.29 193.5 997.11 197.737C961.084 237.638 925.765 278.598 889.032 318.145C930.356 318.851 971.68 318.145 1013 318.498V379.232C940.952 378.879 868.9 378.879 796.849 379.232V320.617C834.641 278.245 872.079 236.225 910.224 194.206C911.284 192.088 915.875 189.969 913.403 187.144C874.551 188.204 835.7 187.144 796.849 187.85V126.764V126.764Z" fill="black"/>
</g>
<defs>
<clipPath id="clip0">
<rect width="1750" height="387" fill="white" transform="translate(0.0810547)"/>
</clipPath>
</defs>
</svg>
