<svg width="1534" height="412" viewBox="0 0 1534 412" fill="none" xmlns="http://www.w3.org/2000/svg">
<path d="M150.135 411.081L0.795276 0.68116H94.8453L184.335 245.211L273.825 0.68116H355.335L445.395 245.211L534.885 0.68116H628.365L479.025 411.081H411.195L314.295 147.171L217.965 411.081H150.135ZM685.771 411.081V0.68116H1064.82V89.6012H775.261V161.421H1008.39V250.341H775.261V322.161H1064.82V411.081H685.771ZM1122.75 411.081V0.68116H1432.83C1455.63 0.68116 1475.39 9.04115 1492.11 25.7611C1508.83 42.1012 1517.19 61.8612 1517.19 85.0412V161.991C1517.19 166.931 1516.81 171.681 1516.05 176.241C1515.67 180.421 1514.72 184.411 1513.2 188.211C1518.9 195.431 1523.65 203.791 1527.45 213.291C1531.25 222.791 1533.15 232.291 1533.15 241.791V326.721C1533.15 349.901 1524.79 369.851 1508.07 386.571C1491.35 402.911 1471.4 411.081 1448.22 411.081H1122.75ZM1229.91 322.161H1424.85C1437.39 322.161 1443.66 322.161 1443.66 322.161C1443.66 322.161 1443.66 315.891 1443.66 303.351V265.731C1443.66 253.191 1443.66 246.921 1443.66 246.921C1443.66 246.921 1437.39 246.921 1424.85 246.921H1229.91C1217.37 246.921 1211.1 246.921 1211.1 246.921C1211.1 246.921 1211.1 253.191 1211.1 265.731V303.351C1211.1 315.891 1211.1 322.161 1211.1 322.161C1211.1 322.161 1217.37 322.161 1229.91 322.161ZM1229.91 158.001H1408.89C1421.43 158.001 1427.7 158.001 1427.7 158.001C1427.7 158.001 1427.7 151.731 1427.7 139.191V108.411C1427.7 95.8712 1427.7 89.6012 1427.7 89.6012C1427.7 89.6012 1421.43 89.6012 1408.89 89.6012H1229.91C1217.37 89.6012 1211.1 89.6012 1211.1 89.6012C1211.1 89.6012 1211.1 95.8712 1211.1 108.411V139.191C1211.1 151.731 1211.1 158.001 1211.1 158.001C1211.1 158.001 1217.37 158.001 1229.91 158.001Z" fill="white" fill-opacity="0.06"/>
</svg>
