<svg width="123" height="123" viewBox="0 0 123 123" fill="none" xmlns="http://www.w3.org/2000/svg">
<g clip-path="url(#clip0)">
<path d="M107.001 16.7253H105.553C108.313 12.233 107.294 6.20201 102.865 2.91642C98.0939 -0.623421 91.3133 0.516017 87.9834 5.49219L80.4667 16.7255H15.8945C10.5868 16.7255 6.2688 21.0435 6.2688 26.3512V87.8918C6.2688 93.1994 10.5868 97.5175 15.8945 97.5175H53.2834L50.4584 109.383H44.3611C40.3874 109.383 37.1545 112.616 37.1545 116.589V118.094H29.638C28.322 118.094 27.2552 119.161 27.2552 120.477C27.2552 121.793 28.322 122.86 29.638 122.86H93.2576C94.5736 122.86 95.6404 121.793 95.6404 120.477C95.6404 119.161 94.5736 118.094 93.2576 118.094H85.7412V116.589C85.7412 112.616 82.5083 109.383 78.5345 109.383H72.4373L69.6123 97.5175H107.001C112.309 97.5175 116.627 93.1994 116.627 87.8918V74.3505V26.3509C116.627 21.0433 112.309 16.7253 107.001 16.7253ZM72.8602 58.614C69.1347 61.222 62.1554 57.6771 55.4903 61.2337C53.8641 52.7856 54.8894 44.8402 63.3542 43.0865C64.4481 42.8585 65.6259 42.7553 66.6285 42.7753C69.4936 44.901 72.3915 47.051 75.2485 49.1709C76.4992 52.8089 76.0298 56.3955 72.8602 58.614ZM75.2616 33.0737L82.0064 38.0779L76.8194 44.402C74.684 42.8177 72.8483 41.4557 70.7129 39.8712C71.1563 39.2086 74.8562 33.6791 75.2616 33.0737ZM91.9443 8.14254C93.749 5.44501 97.4296 4.81739 100.026 6.74385C102.623 8.67056 103.088 12.3748 101.03 14.8841C97.3786 19.3358 88.6973 29.9203 85.0318 34.3892L77.9145 29.1085L91.9443 8.14254ZM80.9754 116.589V118.094H41.92V116.589C41.92 115.244 43.0151 114.148 44.3611 114.148H78.5343C79.8803 114.148 80.9754 115.244 80.9754 116.589ZM67.5383 109.383H55.3571L58.1821 97.5175H64.7133L67.5383 109.383ZM111.861 87.8918C111.861 90.5717 109.681 92.7519 107.001 92.7519C103.219 92.7519 20.1475 92.7519 15.8947 92.7519C13.2148 92.7519 11.0346 90.5717 11.0346 87.8918V76.7333H17.8436C19.1596 76.7333 20.2263 75.6663 20.2263 74.3505C20.2263 73.0348 19.1596 71.9678 17.8436 71.9678H11.0341V26.3509C11.0341 23.671 13.2143 21.4908 15.8942 21.4908H77.2778C74.9952 24.9022 68.3356 34.8545 66.2261 38.0067C61.5566 38.0489 56.8947 39.6756 53.8429 43.2383C49.6899 48.086 48.9603 55.7033 51.6743 65.8781C52.1382 67.618 54.3092 68.2414 55.6228 66.9866C61.7839 61.0995 69.4574 67.5211 76.329 61.9592C80.5237 58.5638 81.5163 53.1659 79.9346 48.1182C82.0727 45.5115 99.6315 24.1037 101.775 21.4908H107.001C109.681 21.4908 111.861 23.671 111.861 26.3509V71.9675H36.9052C35.5892 71.9675 34.5224 73.0345 34.5224 74.3503C34.5224 75.6661 35.5892 76.7331 36.9052 76.7331H111.861V87.8918Z" fill="white"/>
<path d="M26.9142 72.0137C25.7671 72.2482 24.9984 73.2397 24.9984 74.3515C24.9984 75.842 26.3611 76.9833 27.8459 76.6867C29.1652 76.4188 29.969 75.1474 29.7164 73.8845C29.4512 72.5811 28.1869 71.7576 26.9142 72.0137Z" fill="white"/>
</g>
<defs>
<clipPath id="clip0">
<rect width="122" height="122" fill="white" transform="translate(0.447571 0.859863)"/>
</clipPath>
</defs>
</svg>
