<svg enable-background="new 0 0 140 140" height="512" viewBox="0 0 140 140" width="512" xmlns="http://www.w3.org/2000/svg"><circle cx="70" cy="70" fill="#4da0dc" r="64"/><path d="m85.7149734 39.7940674h-52.4200401c-1.6799927 0-3.0299683 1.3499756-3.0299683 3.4599609v51c0 .6400146.2000122 1.2300415.539978 1.7200317l.0100098.0100098c.2000122.2999878.4500122.5499878.75.75l37.2356529 37.2355957c.4005128.0073853.7971192.0303345 1.1994019.0303345 35.3461914 0 64.0000076-28.6538086 64.0000076-64 0-2.8718872-.2080688-5.6937256-.574646-8.4655151l-31.4504471-31.4504414c-1.6499633-1.6500244-8.6499633 2.6099873-16.2599487 9.7100239z" opacity=".1"/><path d="m56.709724 92.860405h26.563675v14.344384h-26.563675z" fill="#344d5b"/><path d="m85.8714523 104.5276642h-31.7430038c-1.6545372 0-2.9958153 1.3412781-2.9958153 2.9958267v2.3584137h37.7346611v-2.3584137c0-1.6545486-1.3412781-2.9958267-2.995842-2.9958267z" fill="#3a556a"/><path d="m106.7093506 39.7958717h-73.4187431c-1.6777496 0-3.0288754 1.3511238-3.0288754 3.4616814v49.3358383h79.4764938v-49.3358383c.0000019-2.1105576-1.3511257-3.4616814-3.0288753-3.4616814z" fill="#344d5b"/><path d="m34.831017 43.947788h70.337898v42.248291h-70.337898z" fill="#feda6f"/><path d="m30.2617245 90.7669754v3.4879303c0 1.6777725 1.3511333 3.0290298 3.0289059 3.0290298h73.4187164c1.6777802 0 3.0289078-1.3512573 3.0289078-3.0290298v-3.4879303z" fill="#ededed"/><path d="m69.9999771 91.2148819c-.9088364 0-1.6456223.7366867-1.6456223 1.6455231 0 .9087753.7367859 1.6455154 1.6456223 1.6455154.9087296 0 1.6455231-.7367401 1.6455231-1.6455154 0-.9088364-.7367935-1.6455231-1.6455231-1.6455231z" fill="#ebf0f3"/><path d="m78.5159378 52.2357864h-33.4120903c-1.0815506 0-1.9583244.8767433-1.9583244 1.9582939v13.2273217c0 1.3926086 1.0181274 2.6361465 2.404438 2.7683792 1.590313.1516266 2.9282494-1.0947418 2.9282494-2.6537857v-.6336899c0-1.392601 1.0181274-2.6362762 2.4044724-2.7683716 1.5902786-.1516266 2.928215 1.0948792 2.928215 2.6537857v5.1768188c0 1.3926086 1.0180931 2.6361465 2.4043694 2.7683792 1.590313.1516266 2.9282837-1.0947495 2.9282837-2.6537857v-.5069809c0-1.392601 1.0181274-2.6362762 2.4044724-2.7683716 1.5902786-.1516266 2.9282112 1.0948792 2.9282112 2.6537857v3.6696243c0 1.3926086 1.0180969 2.6361465 2.4043732 2.7683792 1.5903168.151619 2.9282837-1.0947495 2.9282837-2.6537857v-3.669632c0-1.392601 1.0181274-2.6362762 2.4044724-2.7683716 1.5902786-.1516266 2.928215 1.0948792 2.928215 2.6537857v.5069733c0 1.3926086 1.0181274 2.6361465 2.4044342 2.7683792 1.5903168.1516266 2.9282532-1.0948792 2.9282532-2.6537857v-17.8850515c-.0000002-1.0815506-.8767779-1.958294-1.9583285-1.958294z" fill="#44c4a1"/><ellipse cx="86.507" cy="45.55" fill="#cd5248" rx="21.873" ry="4.696" transform="matrix(.707 -.707 .707 .707 -6.871 74.511)"/><path d="m65.3250656 66.7319794c4.2054825-2.736187 7.6253281-.4765549 10.0785141-2.9297485 2.4531021-2.4531021 2.8414917-6.0421028.8674164-8.0161781-1.9740829-1.9740791-5.5630798-1.5856934-8.0161819.8674088-2.4531937 2.4531935-5.8043633 11.9488104-2.9297486 10.0785178z" fill="#344d5b"/><path d="m72.134453 55.148529h7.240044v2.343917h-7.240044z" fill="#ededed" transform="matrix(-.707 -.707 .707 -.707 89.496 149.712)"/></svg>