<svg width="1508" height="310" viewBox="0 0 1508 310" fill="none" xmlns="http://www.w3.org/2000/svg">
<path d="M113.279 309.954L0.619336 0.35415H71.5693L139.079 184.824L206.589 0.35415H268.079L336.019 184.824L403.529 0.35415H474.049L361.389 309.954H310.219L237.119 110.864L164.449 309.954H113.279ZM559.959 309.954C542.472 309.954 527.422 303.791 514.809 291.464C502.482 278.851 496.319 263.801 496.319 246.314V63.9942C496.319 46.5075 502.482 31.6008 514.809 19.2741C527.422 6.66081 542.472 0.35415 559.959 0.35415H742.279C759.479 0.35415 774.385 6.66081 786.999 19.2741C799.612 31.6008 805.919 46.5075 805.919 63.9942V246.314C805.919 263.801 799.612 278.851 786.999 291.464C774.385 303.791 759.479 309.954 742.279 309.954H559.959ZM577.159 242.874H724.219C733.679 242.874 738.409 242.874 738.409 242.874C738.409 242.874 738.409 238.144 738.409 228.684V81.6242C738.409 72.1642 738.409 67.4342 738.409 67.4342C738.409 67.4342 733.679 67.4342 724.219 67.4342H577.159C567.699 67.4342 562.969 67.4342 562.969 67.4342C562.969 67.4342 562.969 72.1642 562.969 81.6242V228.684C562.969 238.144 562.969 242.874 562.969 242.874C562.969 242.874 567.699 242.874 577.159 242.874ZM852.842 309.954V0.784145H1098.37C1115.86 0.784145 1130.91 7.09082 1143.52 19.7042C1156.14 32.3175 1162.44 47.2241 1162.44 64.4241V144.404C1162.44 161.604 1156.14 176.511 1143.52 189.124C1130.91 201.737 1115.86 208.044 1098.37 208.044H1095.36L1162.44 287.164V309.954H1093.64L1008.07 208.044L919.492 208.474V309.954H852.842ZM933.682 140.964H1080.74C1090.2 140.964 1094.93 140.964 1094.93 140.964C1094.93 140.964 1094.93 136.234 1094.93 126.774V81.6242C1094.93 72.1642 1094.93 67.4342 1094.93 67.4342C1094.93 67.4342 1090.2 67.4342 1080.74 67.4342H933.682C924.222 67.4342 919.492 67.4342 919.492 67.4342C919.492 67.4342 919.492 72.1642 919.492 81.6242V126.774C919.492 136.234 919.492 140.964 919.492 140.964C919.492 140.964 924.222 140.964 933.682 140.964ZM1208.54 309.954V0.35415H1275.62V121.614H1336.25L1437.73 0.35415H1507.39V23.5742L1396.88 155.154L1507.39 286.734V309.954H1437.73L1336.25 188.694H1275.62V309.954H1208.54Z" fill="white" fill-opacity="0.06"/>
</svg>
