<svg width="2501" height="2516" viewBox="0 0 2501 2516" fill="none" xmlns="http://www.w3.org/2000/svg">
<circle cx="1250.51" cy="1251.04" r="1250.17" fill="#0984E3"/>
<path d="M1288.33 1820.74L958.229 1814.71C851.349 1812.6 744.203 1816.8 639.419 1795.01C480.018 1762.44 468.725 1602.78 456.909 1468.85C440.627 1280.56 446.93 1088.85 477.656 902.132C495.002 797.364 563.265 734.848 668.831 728.045C1025.19 703.356 1383.93 706.282 1739.5 717.8C1777.06 718.856 1814.87 724.627 1851.9 731.196C2034.68 763.236 2039.14 944.175 2050.99 1096.49C2062.8 1250.38 2057.81 1405.06 2035.23 1557.9C2017.11 1684.44 1982.44 1790.57 1836.14 1800.81C1652.83 1814.21 1473.73 1824.99 1289.9 1821.56C1289.91 1820.74 1288.86 1820.74 1288.33 1820.74ZM1094.26 1500.36C1232.4 1421.05 1367.9 1343.06 1505.25 1264.28C1366.86 1184.96 1231.61 1106.97 1094.26 1028.19V1500.36Z" fill="white"/>
</svg>
